<svg xmlns="http://www.w3.org/2000/svg" xmlns:xlink="http://www.w3.org/1999/xlink" viewBox="0 0 190 73" overflow="visible"><g><path d="M 77.716 32.16 L 86.135 32.16 C 89.457 32.16 90.558 33.476 90.558 35.143 L 90.558 35.16 C 90.558 36.232 90.016 37.152 89.258 37.599 L 89.258 37.608 C 90.558 38.004 91.193 39.021 91.193 40.283 L 91.193 40.3 C 91.193 42.701 89.495 43.904 86.325 43.904 L 77.716 43.904 Z M 85.33 36.502 C 86.063 36.502 86.338 36.274 86.338 35.793 L 86.338 35.785 C 86.338 35.295 86.063 35.076 85.33 35.076 L 81.944 35.076 L 81.944 36.498 L 85.33 36.498 Z M 85.737 40.984 C 86.516 40.984 86.82 40.722 86.82 40.203 L 86.82 40.186 C 86.82 39.667 86.516 39.422 85.737 39.422 L 81.949 39.422 L 81.949 40.984 Z M 92.34 32.16 L 96.572 32.16 L 96.572 43.904 L 92.34 43.904 Z M 98.244 32.16 L 102.477 32.16 L 102.477 36.599 L 107.158 32.16 L 112.551 32.16 L 106.545 37.844 L 112.826 43.904 L 107.006 43.904 L 102.477 39.553 L 102.477 43.904 L 98.244 43.904 Z M 113.109 32.16 L 125.27 32.16 L 125.27 35.333 L 117.342 35.333 L 117.342 36.439 L 124.813 36.439 L 124.813 39.612 L 117.342 39.612 L 117.342 40.735 L 125.333 40.735 L 125.333 43.908 L 113.109 43.908 L 113.109 32.164 Z M 61.429 46.043 L 66.089 46.043 L 69.517 54.129 L 69.547 54.129 L 72.861 46.043 L 77.2 46.043 L 72.095 57.787 L 66.533 57.787 L 61.424 46.043 Z M 77.716 46.043 L 89.876 46.043 L 89.876 49.217 L 81.949 49.217 L 81.949 50.322 L 89.419 50.322 L 89.419 53.496 L 81.949 53.496 L 81.949 54.618 L 89.94 54.618 L 89.94 57.791 L 77.716 57.791 L 77.716 46.048 Z M 91.379 46.043 L 98.613 46.043 C 102.193 46.043 104.648 46.579 104.648 49.343 L 104.648 49.352 C 104.64 51.069 103.624 52.069 102.447 52.403 C 103.679 52.77 104.25 53.5 104.386 54.8 L 104.53 56.078 C 104.653 57.218 104.661 57.492 104.881 57.787 L 100.505 57.787 C 100.39 57.488 100.335 57.184 100.297 56.804 L 100.174 55.576 C 100.039 54.226 99.645 53.951 98.227 53.951 L 95.607 53.951 L 95.607 57.791 L 91.375 57.791 L 91.375 46.048 Z M 98.782 51.069 C 99.751 51.069 100.272 50.833 100.272 50.052 L 100.272 50.035 C 100.272 49.255 99.751 49.018 98.782 49.018 L 95.612 49.018 L 95.612 51.069 Z M 106.388 46.043 L 114.807 46.043 C 118.129 46.043 119.23 47.36 119.23 49.027 L 119.23 49.044 C 119.23 50.116 118.688 51.035 117.93 51.483 L 117.93 51.491 C 119.23 51.888 119.865 52.905 119.865 54.167 L 119.865 54.183 C 119.865 56.585 118.167 57.787 114.997 57.787 L 106.388 57.787 Z M 114.007 50.386 C 114.739 50.386 115.014 50.158 115.014 49.677 L 115.014 49.668 C 115.014 49.179 114.739 48.959 114.007 48.959 L 110.621 48.959 L 110.621 50.381 L 114.007 50.381 Z M 114.409 54.867 C 115.188 54.867 115.492 54.605 115.492 54.086 L 115.492 54.07 C 115.492 53.55 115.188 53.306 114.409 53.306 L 110.621 53.306 L 110.621 54.867 Z M 121.016 46.043 L 125.249 46.043 L 125.249 57.787 L 121.016 57.787 Z M 126.921 46.043 L 139.081 46.043 L 139.081 49.217 L 131.153 49.217 L 131.153 50.322 L 138.624 50.322 L 138.624 53.496 L 131.153 53.496 L 131.153 54.618 L 139.145 54.618 L 139.145 57.791 L 126.921 57.791 L 126.921 46.048 Z M 140.584 46.043 L 147.817 46.043 C 151.398 46.043 153.853 46.579 153.853 49.343 L 153.853 49.352 C 153.845 51.069 152.829 52.069 151.652 52.403 C 152.884 52.77 153.455 53.5 153.591 54.8 L 153.735 56.078 C 153.857 57.218 153.866 57.492 154.086 57.787 L 149.709 57.787 C 149.595 57.488 149.54 57.184 149.502 56.804 L 149.379 55.576 C 149.244 54.226 148.85 53.951 147.432 53.951 L 144.812 53.951 L 144.812 57.791 L 140.579 57.791 L 140.579 46.048 Z M 147.987 51.069 C 148.956 51.069 149.476 50.833 149.476 50.052 L 149.476 50.035 C 149.476 49.255 148.956 49.018 147.987 49.018 L 144.816 49.018 L 144.816 51.069 Z M 155.428 54.183 L 159.516 54.183 L 159.516 57.787 L 155.428 57.787 Z M 160.168 51.922 L 160.168 51.905 C 160.168 48.027 163.33 45.739 167.829 45.739 C 171.664 45.739 174.703 47.351 175.402 50.326 L 170.919 50.326 C 170.47 49.263 169.201 48.904 167.884 48.904 C 166.09 48.904 164.562 49.841 164.562 51.905 L 164.562 51.922 C 164.562 53.989 166.09 54.922 167.884 54.922 C 169.196 54.922 170.466 54.563 170.919 53.5 L 175.402 53.5 C 174.707 56.475 171.66 58.087 167.817 58.087 C 163.326 58.087 160.168 55.808 160.168 51.922 Z M 176.341 46.043 L 180.574 46.043 L 180.574 50.12 L 185.767 50.12 L 185.767 46.043 L 190 46.043 L 190 57.787 L 185.767 57.787 L 185.767 53.698 L 180.574 53.698 L 180.574 57.787 L 176.341 57.787 Z" fill="rgb(255,255,255)"></path><path d="M 36.613 11.132 L 42.195 23.066 L 54.606 18.563 L 50.089 30.936 L 62.059 36.502 L 50.089 42.068 L 54.606 54.441 L 42.195 49.938 L 36.613 61.872 L 31.03 49.938 L 18.619 54.441 L 23.136 42.068 L 11.166 36.502 L 23.136 30.936 L 18.619 18.563 L 31.03 23.066 L 36.613 11.132 M 28.583 17.171 L 10.726 10.689 L 17.227 28.493 L 0 36.502 L 17.223 44.507 L 10.721 62.311 L 28.579 55.829 L 36.608 73 L 44.638 55.829 L 62.495 62.311 L 55.994 44.507 L 73.217 36.502 L 55.994 28.497 L 62.495 10.693 L 44.638 17.175 L 36.613 0 Z" fill="rgb(84, 184, 179)"></path><path d="M 48.756 33 L 48.756 40.005 L 40.375 40.254 L 40.126 48.609 L 33.104 48.609 L 32.854 40.254 L 24.469 40.005 L 24.469 33.004 L 32.85 32.755 L 33.099 24.395 L 40.126 24.395 L 40.375 32.751 Z" fill="rgb(84, 184, 179)"></path></g></svg>