<svg xmlns="http://www.w3.org/2000/svg" xmlns:xlink="http://www.w3.org/1999/xlink" viewBox="0 0 169 26" overflow="visible"><g><g><path d="M 0 0 L 13 0 L 13 26 L 0 26 Z" fill="rgb(0,85,164)"></path><path d="M 13 0 L 26 0 L 26 26 L 13 26 Z" fill="rgb(255,255,255)"></path><path d="M 26 0 L 39 0 L 39 26 L 26 26 Z" fill="rgb(219,46,42)"></path></g><g transform="translate(86.665 0)"><path d="M 0 0 L 39 0 L 39 26 L 0 26 Z" fill="rgb(170,21,27)"></path><path d="M 0 6.5 L 39 6.5 L 39 19.5 L 0 19.5 Z" fill="rgb(241,191,0)"></path></g><g transform="translate(130 0)"><path d="M 0 0 L 39 0 L 39 8.664 L 0 8.664 Z" fill="rgb(0,0,0)"></path><path d="M 0 8.664 L 39 8.664 L 39 17.329 L 0 17.329 Z" fill="rgb(221,0,0)"></path><path d="M 0 17.329 L 39 17.329 L 39 26 L 0 26 Z" fill="rgb(255,206,0)"></path></g><g transform="translate(43.335 0)"><path d="M 0 0 L 39 0 L 39 26 L 0 26 Z" fill="rgb(1,33,105)"></path><path d="M 39 23.654 L 39 26 L 35.477 26 L 22.75 17.517 L 20.852 16.25 L 20.8 16.217 L 19.5 15.346 L 18.323 14.567 L 18.2 14.482 L 17.927 14.3 L 17.153 13.786 L 16.25 13.182 L 15.977 13 L 11.102 9.75 L 0 2.346 L 0 0 L 3.517 0 L 16.25 8.489 L 18.141 9.75 L 18.2 9.789 L 19.5 10.654 L 20.67 11.44 L 20.8 11.524 L 21.066 11.7 L 21.84 12.22 L 22.75 12.825 L 23.016 13 L 27.891 16.25 Z" fill="rgb(255,255,255)"></path><path d="M 39 0 L 39 2.346 L 27.891 9.75 L 23.016 13 L 22.75 13.175 L 21.84 13.786 L 21.066 14.3 L 20.8 14.476 L 20.67 14.567 L 19.5 15.346 L 18.2 16.211 L 18.141 16.25 L 16.25 17.511 L 3.517 26 L 0 26 L 0 23.654 L 11.102 16.25 L 15.977 13 L 16.25 12.818 L 17.153 12.22 L 17.927 11.7 L 18.2 11.518 L 18.323 11.44 L 19.5 10.654 L 20.8 9.783 L 20.852 9.75 L 22.75 8.483 L 35.477 0 Z" fill="rgb(255,255,255)"></path><path d="M 16.25 0 L 22.75 0 L 22.75 26 L 16.25 26 Z" fill="rgb(255,255,255)"></path><path d="M 0 9.75 L 39 9.75 L 39 16.25 L 0 16.25 Z" fill="rgb(255,255,255)"></path><path d="M 18.2 0 L 20.8 0 L 20.8 26 L 18.2 26 Z" fill="rgb(200,16,46)"></path><path d="M 0 11.7 L 39 11.7 L 39 14.3 L 0 14.3 Z" fill="rgb(200,16,46)"></path><path d="M 39 25.22 L 39 26 L 37.83 26 L 23.205 16.25 L 22.75 15.951 L 20.8 14.651 L 20.67 14.567 L 20.28 14.3 L 19.5 13.78 L 18.33 13 L 18.2 12.916 L 17.153 12.22 L 16.38 11.7 L 16.25 11.615 L 13.455 9.75 L 0 0.78 L 0 0 L 1.17 0 L 15.795 9.75 L 16.25 10.055 L 18.2 11.356 L 18.323 11.44 L 18.72 11.7 L 19.5 12.22 L 20.67 13 L 20.8 13.091 L 21.84 13.786 L 22.62 14.3 L 22.75 14.391 L 25.545 16.25 Z" fill="rgb(200,16,46)"></path><path d="M 39 0 L 39 0.78 L 25.545 9.75 L 22.75 11.609 L 22.62 11.7 L 21.84 12.22 L 20.8 12.909 L 20.67 13 L 19.5 13.78 L 18.72 14.3 L 18.323 14.567 L 18.2 14.644 L 16.25 15.945 L 15.795 16.25 L 1.17 26 L 0 26 L 0 25.22 L 13.455 16.25 L 16.25 14.385 L 16.38 14.3 L 17.153 13.786 L 18.2 13.084 L 18.33 13 L 19.5 12.22 L 20.28 11.7 L 20.67 11.44 L 20.8 11.349 L 22.75 10.049 L 23.205 9.75 L 37.83 0 Z" fill="rgb(200,16,46)"></path></g><path d="M 43.335 0 L 82.335 0 L 82.335 26 L 43.335 26 Z" fill="transparent"></path></g></svg>