<svg xmlns="http://www.w3.org/2000/svg" viewBox="0 0 512 512">
  <rect width="512" height="512" rx="96" fill="#54b8b3"/>
  <g transform="translate(51.200 51.807) scale(5.59433)" fill="#fff">
    <path d="M 36.613 11.132 L 42.195 23.066 L 54.606 18.563 L 50.089 30.936 L 62.059 36.502 L 50.089 42.068 L 54.606 54.441 L 42.195 49.938 L 36.613 61.872 L 31.03 49.938 L 18.619 54.441 L 23.136 42.068 L 11.166 36.502 L 23.136 30.936 L 18.619 18.563 L 31.03 23.066 L 36.613 11.132 M 28.583 17.171 L 10.726 10.689 L 17.227 28.493 L 0 36.502 L 17.223 44.507 L 10.721 62.311 L 28.579 55.829 L 36.608 73 L 44.638 55.829 L 62.495 62.311 L 55.994 44.507 L 73.217 36.502 L 55.994 28.497 L 62.495 10.693 L 44.638 17.175 L 36.613 0 Z"/>
    <path d="M 48.756 33 L 48.756 40.005 L 40.375 40.254 L 40.126 48.609 L 33.104 48.609 L 32.854 40.254 L 24.469 40.005 L 24.469 33.004 L 32.85 32.755 L 33.099 24.395 L 40.126 24.395 L 40.375 32.751 Z"/>
  </g>
</svg>
