<?xml version="1.0" encoding="UTF-8"?><svg id="Calque_2" xmlns="http://www.w3.org/2000/svg" viewBox="0 0 104.11 68.58"><defs><style>.cls-1{fill:#909091;}</style></defs><g id="Calque_1-2"><g id="RRn5BB"><path class="cls-1" d="M46.92.02c.94-.09,1.9.19,2.65.76l38.43,38.37c1.83,2.16.83,5.26-1.86,5.99-7.57.12-15.19.22-22.77.07-.68-.15-1.27-.45-1.79-.9l-13.21-13.21c-1.86-1.5-3.5,1.67-4.79,2.61l-.08.14,5.24,5.25c1.19,1.3,1.34,3.22.3,4.66-1.38,1.91-3.46,1.43-5.52,1.47-7.88.13-15.78.02-23.67.06-1.9,0-3.58-1.37-3.75-3.3V14.99c.32-2.95,3.73-4.34,6.02-2.41l5.53,5.53L44.93.83c.54-.45,1.29-.74,1.99-.81Z"/><path class="cls-1" d="M3.84,50.49v6.19c2.04-2.11,5.48-1.89,7.6,0,2.97,2.65,2.94,7.81-.06,10.43-2.11,1.85-5.53,2.04-7.53-.06v1.15H.09l-.09-.09v-17.48s.08-.09.06-.14h3.78ZM6.41,58.82c-2.03.22-2.98,2.25-2.42,4.11.86,2.91,5.44,2.59,5.8-.45.27-2.23-1.04-3.92-3.38-3.66Z"/><path class="cls-1" d="M88.83,50.49v17.71h-3.84v-1.15c-1.86,1.98-5.08,1.91-7.18.33-3.42-2.56-3.48-8.3-.12-10.93,2.13-1.67,5.37-1.8,7.31.23v-6.19h3.84ZM81.6,58.82c-1.88.19-2.74,1.79-2.56,3.56.32,3.2,5.1,3.49,5.86.43.57-2.29-.89-4.23-3.3-3.99Z"/><path class="cls-1" d="M24.93,56.68v-1.15h3.75l.09.09v12.49l-.09.09h-3.75v-1.15c-1.89,1.99-5.1,1.91-7.22.31-3.52-2.67-3.42-8.66.24-11.15,2.11-1.44,5.16-1.45,6.98.47ZM21.54,58.82c-3.49.36-3.44,5.8.04,6.11,1.78.16,3.22-.9,3.35-2.72.15-2.13-1.23-3.62-3.4-3.4Z"/><polygon class="cls-1" points="48.6 50.49 48.6 61.04 52.41 55.53 56.79 55.53 52.27 61.87 56.91 68.2 52.64 68.2 48.6 62.7 48.6 68.2 44.82 68.2 44.82 50.49 48.6 50.49"/><path class="cls-1" d="M103.96,63.39h-8.94c.19.83.99,1.42,1.79,1.62,1.32.33,2.65.1,3.67-.81.27.25,3,1.63,2.96,1.79-.01.04-.49.62-.57.69-3.05,3.14-9.44,2.26-11.3-1.83-2.45-5.4,2.22-11.04,7.98-9.41,3.43.97,5.09,4.57,4.41,7.94ZM100.29,60.52c-.62-2.65-4.72-2.59-5.39,0h5.39Z"/><path class="cls-1" d="M67.17,57.94l-3.24,1.71c-.4-.73-1.01-1.16-1.87-1.11-.96.06-1.28.87-.28,1.31,2.13.93,5.01.74,5.54,3.74.85,4.8-5.41,6.01-8.65,4.13-.65-.38-1.67-1.37-1.94-2.07-.02-.05-.07-.1-.02-.16l3.3-1.83c.31,1.23,1.77,1.74,2.9,1.38.47-.15.8-.64.4-1.04-.49-.49-3.1-1-4.03-1.48-3.1-1.62-2.5-5.76.64-6.95,2.61-.99,5.88-.19,7.25,2.35Z"/><path class="cls-1" d="M39.95,60.35c-.8-1.76-3.5-1.83-4.64-.37-.96,1.24-.8,3.22.43,4.21s3.53.74,4.24-.81l3.29,1.84c.08.11-.51.92-.63,1.05-3.39,4.05-10.31,2.46-11.56-2.71-1.47-6.06,5.01-10.63,10.18-7.31.8.51,1.6,1.31,2.01,2.16l-3.32,1.93Z"/><rect class="cls-1" x="69.29" y="55.53" width="3.78" height="12.67"/><path class="cls-1" d="M70.99,49.88c2.58-.23,3.47,3.62.9,4.46-3.23,1.05-4.25-4.16-.9-4.46Z"/></g></g></svg>