<svg xmlns="http://www.w3.org/2000/svg" xmlns:xlink="http://www.w3.org/1999/xlink" viewBox="0 0 165 108"><g transform="translate(18 4.003)"><g><path d="M 57.687 0.02 C 58.842 -0.09 60.023 0.253 60.945 0.951 L 108.193 47.957 C 110.443 50.604 109.214 54.401 105.906 55.296 C 96.599 55.443 87.231 55.565 77.911 55.381 C 77.075 55.198 76.35 54.83 75.711 54.279 L 59.469 38.096 C 57.183 36.258 55.166 40.141 53.58 41.293 L 53.482 41.464 L 59.924 47.896 C 61.387 49.489 61.572 51.841 60.293 53.605 C 58.596 55.945 56.039 55.357 53.506 55.406 C 43.818 55.565 34.105 55.43 24.405 55.479 C 22.069 55.479 20.003 53.801 19.794 51.437 L 19.794 18.36 C 20.188 14.746 24.38 13.043 27.196 15.407 L 33.995 22.182 L 55.24 1.013 C 55.904 0.461 56.826 0.106 57.687 0.02 Z" fill="rgb(140, 140, 140)"></path><path d="M 4.721 61.85 L 4.721 69.433 C 7.229 66.848 11.459 67.117 14.065 69.433 C 17.717 72.679 17.68 79.001 13.991 82.21 C 11.397 84.477 7.192 84.71 4.733 82.137 L 4.733 83.546 L 0.111 83.546 L 0 83.435 L 0 62.021 C 0 62.021 0.098 61.911 0.074 61.85 Z M 7.881 72.055 C 5.385 72.324 4.217 74.811 4.906 77.09 C 5.963 80.655 11.594 80.263 12.036 76.538 C 12.368 73.806 10.758 71.736 7.881 72.055 Z" fill="rgb(140, 140, 140)"></path><path d="M 109.214 61.85 L 109.214 83.546 L 104.493 83.546 L 104.493 82.137 C 102.206 84.563 98.247 84.477 95.665 82.541 C 91.46 79.405 91.386 72.373 95.517 69.151 C 98.136 67.105 102.12 66.946 104.505 69.433 L 104.505 61.85 L 109.226 61.85 Z M 100.325 72.055 C 98.013 72.287 96.956 74.247 97.177 76.416 C 97.571 80.336 103.448 80.691 104.382 76.943 C 105.083 74.137 103.288 71.761 100.325 72.055 Z" fill="rgb(140, 140, 140)"></path><path d="M 30.651 69.433 L 30.651 68.024 L 35.261 68.024 L 35.372 68.134 L 35.372 83.435 L 35.261 83.546 L 30.651 83.546 L 30.651 82.137 C 28.327 84.575 24.38 84.477 21.774 82.517 C 17.446 79.246 17.569 71.908 22.069 68.857 C 24.663 67.093 28.413 67.081 30.651 69.433 Z M 26.483 72.055 C 22.192 72.496 22.253 79.16 26.532 79.54 C 28.72 79.736 30.491 78.437 30.651 76.208 C 30.835 73.598 29.138 71.773 26.47 72.042 Z" fill="rgb(140, 140, 140)"></path><path d="M 59.752 61.85 L 59.752 74.774 L 64.436 68.024 L 69.822 68.024 L 64.264 75.791 L 69.969 83.546 L 64.719 83.546 L 59.752 76.808 L 59.752 83.546 L 55.105 83.546 L 55.105 61.85 Z" fill="rgb(140, 140, 140)"></path><path d="M 127.816 77.653 L 116.824 77.653 C 117.058 78.67 118.041 79.393 119.025 79.638 C 120.648 80.042 122.283 79.76 123.537 78.645 C 123.869 78.952 127.225 80.642 127.176 80.838 C 127.164 80.887 126.574 81.598 126.475 81.684 C 122.726 85.53 114.869 84.452 112.582 79.442 C 109.57 72.826 115.312 65.917 122.394 67.914 C 126.611 69.102 128.652 73.512 127.816 77.641 Z M 123.303 74.137 C 122.541 70.891 117.5 70.964 116.677 74.137 Z" fill="rgb(140, 140, 140)"></path><path d="M 82.583 70.976 L 78.6 73.071 C 78.108 72.177 77.358 71.65 76.301 71.712 C 75.121 71.785 74.727 72.777 75.957 73.316 C 78.575 74.456 82.116 74.223 82.768 77.898 C 83.813 83.778 76.116 85.261 72.133 82.958 C 71.334 82.492 70.08 81.279 69.748 80.422 C 69.723 80.361 69.662 80.299 69.723 80.226 L 73.78 77.984 C 74.162 79.491 75.957 80.116 77.346 79.674 C 77.924 79.491 78.329 78.89 77.838 78.4 C 77.235 77.8 74.026 77.175 72.883 76.587 C 69.072 74.603 69.809 69.531 73.67 68.073 C 76.879 66.86 80.899 67.84 82.583 70.952 Z" fill="rgb(140, 140, 140)"></path><path d="M 49.117 73.929 C 48.134 71.773 44.814 71.687 43.413 73.476 C 42.232 74.995 42.429 77.42 43.941 78.633 C 45.453 79.846 48.281 79.54 49.154 77.641 L 53.199 79.895 C 53.297 80.03 52.572 81.022 52.425 81.181 C 48.257 86.143 39.749 84.195 38.212 77.861 C 36.405 70.437 44.372 64.839 50.728 68.906 C 51.711 69.531 52.695 70.511 53.199 71.552 L 49.117 73.917 Z" fill="rgb(140, 140, 140)"></path><path d="M 85.19 83.546 L 85.19 68.024 L 89.837 68.024 L 89.837 83.546 Z" fill="rgb(140, 140, 140)"></path><path d="M 87.28 61.102 C 90.452 60.821 91.546 65.537 88.387 66.566 C 84.415 67.853 83.161 61.47 87.28 61.102 Z" fill="rgb(140, 140, 140)"></path></g></g></svg>