<?xml version="1.0" encoding="UTF-8"?><svg id="Calque_2" xmlns="http://www.w3.org/2000/svg" viewBox="0 0 183.43 66.46"><defs><style>.cls-1{fill-rule:evenodd;}.cls-1,.cls-2{fill:#909091;}</style></defs><g id="Calque_1-2"><path class="cls-2" d="M30.49,15.6h1.84c3.16,0,6.03,1.67,8.61,5.01.46.62.69,1.28.69,1.98,0,1.28-.8,2.02-2.41,2.21-1.01,0-1.86-.66-2.53-1.98-1.68-1.71-3.44-2.56-5.28-2.56-2.47,0-4.5,1.28-6.08,3.84-.38.8-.65,1.84-.8,3.14,0,2.76,1.49,4.93,4.48,6.52.86.23,1.55.35,2.07.35h.69c2.3,0,4.28-1.32,5.97-3.96.54-.39,1.11-.58,1.72-.58.96,0,1.64.54,2.07,1.63.08.29.11.6.11.93,0,1.42-1.42,3.13-4.25,5.12-1.78,1.09-3.58,1.63-5.39,1.63h-1.49c-2.7,0-5.3-1.32-7.8-3.96-1.84-2.35-2.75-4.6-2.75-6.75v-1.86c0-3.07,1.61-5.98,4.82-8.73,2.2-1.32,4.11-1.98,5.74-1.98Z"/><path class="cls-2" d="M76.97,0c.96,0,1.64.54,2.07,1.63.08.29.11.6.11.93v15.25c2.14-1.47,4.13-2.21,5.97-2.21h1.84c2.7,0,5.3,1.32,7.81,3.96,1.84,2.35,2.75,4.6,2.75,6.75v1.51c0,4.1-2.14,7.43-6.43,10.01-1.78.7-3.16,1.05-4.13,1.05h-1.49c-4.04,0-7.33-2.17-9.87-6.52-.69-1.75-1.03-3.14-1.03-4.19V2.56c0-1.71.8-2.56,2.41-2.56ZM79.15,27.24c0,2.76,1.49,4.93,4.48,6.52.86.23,1.55.35,2.07.35h.8c2.18,0,4.02-1.2,5.51-3.61.54-.95.8-1.92.8-2.91v-.7c0-2.52-1.34-4.5-4.02-5.94-.52-.31-1.43-.54-2.75-.7-2.47,0-4.5,1.28-6.08,3.84-.54,1.3-.8,2.35-.8,3.14Z"/><path class="cls-2" d="M2.41,27.31c.96,0,1.64.54,2.07,1.63.08.29.11.6.11.93v15.25c2.14-1.47,4.13-2.21,5.97-2.21h1.84c2.7,0,5.3,1.32,7.81,3.96,1.84,2.35,2.75,4.6,2.75,6.75v1.51c0,4.09-2.14,7.43-6.43,10.01-1.78.7-3.16,1.05-4.13,1.05h-1.49c-4.04,0-7.33-2.17-9.87-6.52-.69-1.75-1.03-3.14-1.03-4.19v-25.61c0-1.71.8-2.56,2.41-2.56ZM4.59,54.55c0,2.76,1.49,4.93,4.48,6.52.86.23,1.55.35,2.07.35h.8c2.18,0,4.02-1.2,5.51-3.61.54-.95.8-1.92.8-2.91v-.7c0-2.52-1.34-4.5-4.02-5.94-.52-.31-1.43-.54-2.75-.7-2.47,0-4.5,1.28-6.08,3.84-.54,1.3-.8,2.35-.8,3.14Z"/><path class="cls-2" d="M113.67,15.6h1.84c2.7,0,5.3,1.32,7.8,3.96,1.84,2.35,2.76,4.6,2.76,6.75v9.9c0,1.71-.8,2.56-2.41,2.56-1.45-.31-2.18-1.01-2.18-2.1-2.16,1.48-4.15,2.21-5.97,2.21h-1.49c-4.04,0-7.33-2.17-9.87-6.52-.69-1.75-1.03-3.14-1.03-4.19v-1.86c0-2.83,1.38-5.55,4.13-8.15,2.3-1.71,4.44-2.56,6.43-2.56ZM107.7,27.24c0,2.76,1.49,4.93,4.48,6.52.86.23,1.55.35,2.07.35h.8c2.18,0,4.02-1.2,5.51-3.61.53-.95.8-1.92.8-2.91v-.7c0-2.52-1.34-4.5-4.02-5.94-.52-.31-1.43-.54-2.75-.7-2.47,0-4.5,1.28-6.08,3.84-.54,1.3-.8,2.35-.8,3.14Z"/><path class="cls-2" d="M171.26,15.6h1.84c2.81,0,5.53,1.44,8.15,4.31,1.45,2.15,2.18,3.86,2.18,5.12,0,.16-.04.23-.11.23l.11.58v1.16c0,1.71-.84,2.56-2.53,2.56h-15.15c1.44,3.03,3.46,4.54,6.08,4.54h.69c1.86,0,3.69-1.01,5.51-3.03.4-.23.86-.35,1.38-.35,1.53.19,2.3.97,2.3,2.33v.12c0,1.4-1.65,3.03-4.94,4.89-1.59.54-2.93.81-4.02.81h-1.49c-2.7,0-5.3-1.32-7.8-3.96-1.84-2.35-2.76-4.6-2.76-6.75v-1.86c0-3.49,1.91-6.6,5.74-9.32,1.91-.93,3.52-1.4,4.82-1.4ZM165.75,24.91h12.74c-.38-1.4-1.26-2.56-2.64-3.49-1.36-.78-2.58-1.16-3.67-1.16-2.47,0-4.46,1.24-5.97,3.73l-.46.93Z"/><path class="cls-2" d="M42.47,42.63h.71c1.02,0,1.69.8,2.01,2.39,0,1.64-1.34,2.59-4.01,2.87-1.79.66-3.48,1.82-5.07,3.47-1.73,2.42-2.6,4.65-2.6,6.71v4.91c0,1.96-.63,3.11-1.89,3.47h-.94c-1.34-.42-2.01-1.1-2.01-2.04v-6.82c0-4.07,1.85-7.86,5.55-11.37,3.13-2.39,5.88-3.59,8.26-3.59Z"/><path class="cls-2" d="M52.05,42.51h.71c1.18,0,1.89.96,2.12,2.87v10.54c0,1.94,1.02,3.57,3.07,4.91.89.48,1.71.72,2.48.72h.47c2.46,0,4.27-1.52,5.43-4.55.16-.88.24-1.88.24-2.99v-9.46c.35-1.28.98-1.92,1.89-1.92h.94c1.26.36,1.89,1,1.89,1.92v11.85c0,3.71-1.97,6.75-5.9,9.1-1.4.64-2.73.96-4.01.96h-1.77c-2.76,0-5.35-1.52-7.79-4.55-1.18-1.98-1.77-3.69-1.77-5.15v-12.21c.41-1.36,1.08-2.03,2.01-2.03Z"/><path class="cls-2" d="M87.28,42.51h2.36c2.48,0,5,1.24,7.55,3.71,2.05,2.42,3.07,4.89,3.07,7.42v10.78c-.41,1.36-1.08,2.04-2.01,2.04h-.71c-1.34-.42-2.01-1.1-2.01-2.04v-8.38c0-4.05-1.46-6.77-4.37-8.14-1.16-.32-1.95-.48-2.36-.48h-.71c-2.44,0-4.45,1.4-6.02,4.19-.39,1.04-.59,1.88-.59,2.51v8.86c0,1.96-.63,3.11-1.89,3.47h-.94c-1.34-.42-2.01-1.1-2.01-2.04v-11.13c0-3.13,1.73-6.13,5.19-8.98,2.22-1.2,4.03-1.8,5.43-1.8Z"/><path class="cls-2" d="M117.26,42.51h1.89c2.89,0,5.68,1.48,8.38,4.43,1.5,2.21,2.24,3.97,2.24,5.27,0,.16-.04.24-.12.24l.12.6v1.2c0,1.76-.87,2.63-2.6,2.63h-15.58c1.47,3.11,3.56,4.67,6.25,4.67h.71c1.91,0,3.8-1.04,5.66-3.11.41-.24.89-.36,1.42-.36,1.57.2,2.36,1,2.36,2.39v.12c0,1.44-1.69,3.11-5.07,5.03-1.63.56-3.01.84-4.13.84h-1.53c-2.77,0-5.45-1.36-8.02-4.07-1.89-2.41-2.83-4.73-2.83-6.95v-1.92c0-3.59,1.97-6.79,5.9-9.58,1.97-.96,3.62-1.44,4.96-1.44ZM111.59,52.09h13.1c-.39-1.44-1.3-2.63-2.71-3.59-1.4-.8-2.66-1.2-3.78-1.2-2.54,0-4.58,1.28-6.14,3.83l-.47.96Z"/><path class="cls-2" d="M138.2,27.75c.98,0,1.69.56,2.12,1.68.08.3.12.62.12.96v9.73h4.37c1.73,0,2.6.84,2.6,2.51,0,1-.55,1.72-1.65,2.15-.3.08-.61.12-.94.12h-4.37v8.14c0,4.25,1.57,6.97,4.72,8.14.73.24,1.4.36,2.01.36h.71c2.44,0,4.41-1.32,5.9-3.95.63-2,1.38-2.99,2.24-2.99.12-.08.35-.12.71-.12,1.57.2,2.36,1,2.36,2.39v.12c-.22,1.88-1.32,3.95-3.3,6.23-2.5,2.15-5.05,3.23-7.67,3.23h-1.18c-4.15,0-7.53-2.23-10.15-6.7-.71-1.8-1.06-3.23-1.06-4.31v-25.05c0-1.76.83-2.64,2.48-2.64Z"/><path class="cls-2" d="M138.2,27.75c.98,0,1.69.56,2.12,1.68.08.3.12.62.12.96v9.73l-4.72.07v-9.8c0-1.76.83-2.64,2.48-2.64Z"/><path class="cls-1" d="M158.54,25.11c-.69-.45-.4-.27-1.5-.99v16.01h-2.77s.06-11.1-.13-16.02c-.05-1.31-.7-3-1.52-3.79-2.55-2.45-5.26-4.68-8.04-6.7-.77-.56-2.22-.55-2.99,0-2.78,2.02-5.48,4.26-8.04,6.7-.83.79-1.56,2.44-1.6,3.73-.18,5.25-.07,10.51-.07,16h-2.67v-15.85c-1.03.63-.38.31-1.14.77-.89.74-1.61.1-1.69-.03-.71-1.2.55-2.44,1.2-3.01,4.7-4.1,9.47-8.08,14.3-11.94.6-.48,1.9-.41,2.52.09,4.76,3.79,9.46,7.69,14.09,11.73.79.69,2.46,2.32,1.67,3.36-.49.56-1.11.37-1.62-.05Z"/><path class="cls-1" d="M146.16,23.01h5.04v6.42h-5.04v-6.42Z"/><path class="cls-2" d="M69.3,27.3v8.91s-.09,2.27-1.75,2.5c-1.66.24-2.13-.36-2.42-.83-.29-.48-.49-2.13-.49-2.13l2.72-3.73,1.94-4.73Z"/><path class="cls-2" d="M46.07,27.73v-1.71c.11-.04.08-.14.08-.22,0-.48.1-.96.21-1.43.66-2.87,2.13-5.23,4.49-7.01,1.95-1.47,4.16-2.21,6.58-2.32.87-.04,1.73.05,2.58.22,2.5.5,4.61,1.69,6.33,3.56.9.98,1.62,2.08,2.15,3.3.52,1.19.84,2.44.95,3.73.07.85.06,1.7-.05,2.55-.15,1.16-.45,2.27-.92,3.34-1.03,2.33-2.65,4.15-4.84,5.45-1.43.85-2.99,1.36-4.64,1.52-.92.09-1.84.08-2.76-.05-1.25-.17-2.43-.53-3.55-1.08-2.1-1.04-3.76-2.59-4.94-4.61-.91-1.56-1.47-3.24-1.58-5.06,0-.07,0-.14-.08-.18ZM56.66,17.39s-.02-.09-.07-.06c-.04.03,0,.07.05.08,0,.06,0,.13.11.14,0-.08-.01-.13-.09-.16ZM56.76,16.78c-.02-.06-.02-.14-.12-.1,0,.07.02.11.09.13,0,.06,0,.11,0,.17-.05-.02-.1-.04-.18-.07.04.16.11.28.22.38.1-.14-.04-.21-.05-.32.04-.04.14,0,.14-.1,0-.05-.05-.08-.11-.09ZM56.37,19.04c.02.05,0,.14.09.14.04-.08,0-.13-.05-.18-.02-.12-.03-.24-.17-.3-.04.16.04.25.13.34ZM59.13,19.44c0,.06.01.11.02.17.07-.08.05-.13-.03-.17-.04-.13.06-.28-.03-.41q-.16.26.04.4ZM56.23,20.22c-.2-.06-.11-.31-.24-.43-.11.29-.13.33-.06.53.03.11.08.21.05.32-.12,0-.06-.19-.19-.17-.14.15,0,.34-.07.51h0c-.07,0-.13,0-.17.08-.05.13-.09.26-.06.4-.02.02-.04.03-.05.05-.26.24-.11.56-.14.84-.11-.02-.06-.16-.14-.21-.3.68-.3.82.04,1.83.15-.32.31-.6.2-.97-.06-.21-.15-.43-.1-.66.19.18.13.43.21.66.38-.37-.04-.78.07-1.21.07.21.12.36.17.52.18-.23.13-.48.14-.73h0c.25-.11.17-.33.15-.5-.02-.15-.1-.29-.08-.44.12-.02.06.19.2.16.14-.18,0-.39.05-.59.06,0,.11-.01.14-.1-.07-.11-.07-.27-.21-.38-.04.18.12.32.07.49ZM59.37,21.57s.02.02.03.03c-.02.25-.05.5.15.76.02-.46.35-.85.14-1.29-.16-.01-.11.15-.22.15-.09-.24.23-.5-.04-.77-.16.38-.34.73-.07,1.12ZM55.19,24.65c.08,0,.09.05.1.1.05.25.11.49.16.74.02.07-.02.18.13.18.1-.43.24-.86.11-1.31-.01-.04,0-.08.01-.12h0s.1.04.12.05c.22-.31.04-.65.05-1.05.08.1.11.14.14.19.06-.35.22-.7-.03-1.04-.21.25-.16.54-.11.85-.07-.05-.1-.07-.13-.09-.18.19-.12.42-.12.63-.05.07-.1-.01-.14.02-.11.29-.24.57-.29.87-.22.25-.26.59-.42.86.21.57.26,1.16.46,1.74.04-.17.08-.32.12-.46.13-.45.11-.88-.02-1.33-.08-.27-.16-.54-.14-.83ZM60.06,24.74c-.05-.42-.09-.51-.34-.94-.12.5.12.93.11,1.39.08-.07.04-.19.15-.2.02.14.01.29-.04.42-.04.1-.05.19-.03.29.05.26.1.53.15.79.01.07.02.14.13.13.08-.16.04-.36.2-.51.05.43-.22.8-.17,1.22.05.4.13.79.31,1.17.12-.68.25-1.36.37-2.05-.13-.22-.19-.47-.37-.66-.08.07-.02.18-.16.23.12-.49,0-.91-.33-1.27ZM54.78,28.93c-.07,0-.08-.05-.09-.11-.08-.44-.15-.89-.26-1.33-.06-.25-.02-.53-.19-.79-.13.22-.23.42-.35.61-.06.09-.05.19-.04.29.15,1.08.3,2.16.46,3.31.18-.7.44-1.31.47-1.98.03-.04.08-.09.09-.14.11-.38.21-.76.3-1.14.01-.04,0-.09,0-.13-.14-.58-.28-1.15-.44-1.81-.15.29-.25.51-.36.71.09.51.19,1,.28,1.5.06.33.16.66.14,1.01ZM59.04,16.31c.33,3.22,1.33,6.17,3.1,8.84,1.45,2.18,3.3,3.94,5.54,5.32,2.17-6.22-1.72-13.23-8.64-14.15ZM47.87,30.36c2.7-1.67,4.68-3.94,6.16-6.69,1.34-2.48,2.28-6.3,2.15-7.29-6.42.91-10.46,7.77-8.31,13.98ZM52.57,36.12c.16-.44.32-.86.47-1.28.02-.05.02-.11.01-.17-.06-.49-.13-.98-.19-1.47-.1-.81-.21-1.63-.31-2.44-.05-.35-.08-.71-.2-1.08-.24.29-.45.54-.65.79-.1.12-.13.24-.11.39.05.42.07.85.13,1.27.16,1.15.3,2.3.4,3.46.02.27.11.46.45.54ZM63.83,30.79c-.1.91-.19,1.77-.3,2.62-.1.86-.23,1.71-.31,2.63.46-.28.83-.57,1.19-.86.12-.1.23-.2.24-.38.01-.71.13-1.41.18-2.12.02-.27.13-.53.06-.82-.38-.3-.7-.67-1.07-1.07ZM63.72,30.67c-.27-.32-.54-.64-.84-1-.07.52-.13.99-.19,1.45-.09.71-.17,1.43-.29,2.14-.18,1.03-.19,1.03.27,1.98.09.19.19.38.28.57.02.05.04.11.15.09.2-1.72.41-3.46.62-5.23ZM52.04,35.83c-.21-1.71-.4-3.36-.6-4.95-.35.32-.72.66-1.08.99.08.87.16,1.73.22,2.59.02.2.11.35.26.47.37.31.73.62,1.19.9ZM53.19,34.38c.15-.4.28-.78.4-1.17.07-.24.08-.47.05-.71-.08-.56-.15-1.12-.23-1.68-.1-.71-.19-1.42-.29-2.15-.2.12-.27.32-.39.47-.16.2-.23.4-.19.67.08.56.14,1.12.21,1.69.1.79.21,1.57.3,2.36.02.18.03.37.13.55ZM66.36,32.79c.06-.91.11-1.77.17-2.63-.38-.28-.76-.57-1.21-.9-.09.9-.17,1.71-.25,2.5.42.38.83.71,1.28,1.04ZM62.13,34.08s.04-.01.06-.02c.07-.59.15-1.18.22-1.77.1-.81.21-1.62.31-2.44.05-.42-.2-.88-.59-1.15-.03.48-.12.96-.18,1.43-.11.81-.21,1.63-.32,2.44-.02.11-.02.22.02.33.17.39.32.78.48,1.17ZM49.97,29.33c-.42.32-.8.61-1.17.89-.04.72.07,2.22.19,2.46.43-.27.8-.62,1.2-.98-.07-.77-.15-1.54-.23-2.38ZM63.87,30.54c.37.38.68.74,1.13,1.1,0-.9.17-1.71.2-2.51-.35-.31-.67-.6-1.03-.92-.1.82-.19,1.57-.29,2.34ZM50.32,31.58c.34-.34.63-.63.92-.91.11-.11.14-.24.13-.39-.04-.39-.06-.79-.13-1.18-.05-.26-.02-.53-.12-.86-.35.38-.71.67-1.04.97.08.78.16,1.53.25,2.36ZM53.73,27.6c-.18.29-.33.52-.47.76-.05.09-.02.19,0,.29.11.81.21,1.62.32,2.43.06.46.13.93.19,1.39.22-.56.49-1.09.4-1.71-.02-.15-.05-.31-.07-.46-.12-.88-.24-1.76-.37-2.71ZM61.55,27.65c-.13.89-.26,1.74-.36,2.6-.04.34-.17.67-.09,1.01.09.38.22.76.4,1.17.04-.18.08-.3.09-.43.13-1.01.23-2.02.41-3.02.04-.2.09-.43-.02-.63-.13-.23-.28-.45-.44-.7ZM64.76,34.79c.64-.49,1.14-1.07,1.59-1.73-.44-.35-.86-.68-1.31-1.04-.1.96-.19,1.87-.28,2.77ZM63.25,27.21c-.04.07-.07.1-.07.14-.08.62-.16,1.24-.23,1.85-.01.1,0,.2.07.28.23.26.41.58.69.8.13-.25.31-1.66.29-2.27-.24-.26-.48-.53-.74-.82ZM51.25,28.14c.09.71.14,1.42.28,2.16.31-.27.51-.58.73-.86.08-.1.07-.21.06-.32-.05-.42-.09-.84-.14-1.26-.02-.19-.07-.37-.11-.61-.29.32-.53.58-.82.9ZM60.94,30.82s.04-.01.06-.02c.12-.95.2-1.91.38-2.85.1-.5-.09-.83-.34-1.18-.08.06-.11.12-.12.19-.09.5-.18,1-.26,1.5-.05.29-.14.58-.07.88.12.49.23.98.35,1.48ZM50.51,34.59c-.1-.91-.18-1.75-.28-2.64-.39.37-.79.6-1.12.96.39.6.83,1.13,1.4,1.68ZM62.47,26.26c-.1.72-.18,1.38-.27,2.06.19.24.32.55.58.79.04-.1.08-.18.09-.26.06-.48.11-.95.19-1.43.05-.31-.02-.55-.25-.76-.11-.1-.2-.23-.33-.4ZM52.79,26.35c-.18.22-.32.39-.46.57-.09.11-.14.24-.11.39.09.46.14.92.18,1.39.01.13.06.25.1.4.41-.46.71-.91.49-1.52,0-.03,0-.06,0-.08-.06-.36-.07-.73-.19-1.14ZM66.48,32.84c.48-.62.97-1.62,1.01-2.05-.26-.17-.53-.34-.83-.53-.06.87-.11,1.7-.17,2.59ZM62.09,28.1c.09-.68.18-1.34.27-2-.16-.21-.27-.44-.47-.6-.03.03-.05.05-.06.07-.09.24-.07.5-.12.75-.18.94-.18.94.32,1.74,0,.01.02.02.06.04ZM53.45,25.45c-.14.09-.18.21-.26.31-.19.23-.27.48-.22.78.08.49.14.99.21,1.52.17-.15.21-.34.33-.48.18-.21.19-.46.15-.72-.07-.46-.13-.92-.2-1.41ZM61.36,24.65c-.07.41-.09.79-.21,1.15-.17.5.06.86.34,1.25.07-.49.12-.93.2-1.38.07-.39-.04-.71-.33-1.03ZM53.79,27.01c.12-.09.15-.23.22-.33.18-.28.23-.56.12-.89-.07-.23-.09-.47-.12-.71-.02-.12-.04-.24-.13-.34-.27.26-.36.57-.29.93.08.43.13.86.2,1.33ZM60.18,24.33c.12.27.23.53.37.85.1-.4.16-.73.26-1.06.12-.42-.07-.72-.34-1.08-.11.48-.2.89-.29,1.29ZM54.73,23.1c-.08.16-.15.33-.24.48-.06.11-.09.21-.06.32.09.38.19.77.28,1.16.54-.65.26-1.3.02-1.96ZM48.69,32.15c.04-.59.04-1.18-.1-1.82-.2.19-.43.25-.58.46.15.48.38.92.68,1.36ZM60.94,23.97c-.07.32-.11.62-.21.9-.16.45-.03.82.24,1.21.07-.41.1-.81.22-1.18.11-.36.03-.63-.25-.92ZM54.01,24.48c.09.51.19,1.01.29,1.59.17-.36.38-.61.29-.97-.09-.37-.18-.74-.27-1.13-.16.16-.22.35-.32.51ZM60.12,24.05c.07-.35.14-.67.2-.99.07-.35,0-.55-.25-.83-.05.22-.09.44-.16.65-.13.42-.06.79.2,1.18ZM59.76,23.09c.09-.4.14-.71.22-1.01.05-.2.02-.35-.17-.5,0,.49-.34.93-.05,1.5ZM59.25,19.82q-.15.44-.04.73c.22-.37.23-.43.04-.73ZM56.34,19.78c.14-.21.1-.36-.19-.72-.07.28.12.48.19.72ZM56.18,21.67q-.15.4.03.65c0-.21.17-.41-.03-.65ZM56.71,18.09c.08-.26-.08-.38-.27-.59,0,.3.13.44.27.59ZM56.35,18.29c-.07.25.08.4.24.54.02-.22-.13-.37-.24-.54ZM56.6,18.26c-.06.04-.04.09-.03.13.01.06.04.11.13.04,0-.06-.02-.12-.1-.17ZM58.92,18.21c-.07.09-.06.18,0,.27.08-.09.05-.18,0-.27ZM56.7,16.38s-.05.07-.02.1c.03.04.07.09.13.03.02-.09-.04-.11-.11-.13ZM58.99,18.83c.06-.06.06-.12,0-.19-.06.08-.05.13,0,.19Z"/><path class="cls-2" d="M59.97,25c0-.1-.06-.22.09-.27-.02.09.04.21-.09.27Z"/><path class="cls-2" d="M55.71,24.23c-.14-.08-.09-.19-.08-.32.12.1.08.21.08.32h0Z"/><path class="cls-2" d="M55.49,21.46c.07.08.08.16.04.26-.11-.03-.06-.14-.09-.21.02-.02.04-.03.05-.05Z"/><path class="cls-2" d="M55.88,21.58c-.13-.05-.05-.15-.06-.23.08.06.09.14.07.23h0Z"/><path class="cls-2" d="M55.71,20.98c.14.04.1.13.07.23-.11-.05-.07-.15-.07-.23h0Z"/><path class="cls-2" d="M59.37,21.57c.01-.08.02-.15.04-.29.08.15.08.24,0,.31-.01,0-.02-.02-.03-.03Z"/></g></svg>