<svg xmlns="http://www.w3.org/2000/svg" xmlns:xlink="http://www.w3.org/1999/xlink" viewBox="0 0 183 66"><g transform="translate(1.01 0)"><path d="M 30.078 15.257 L 31.894 15.257 C 35.012 15.257 37.844 16.891 40.39 20.157 C 40.844 20.764 41.071 21.409 41.071 22.094 C 41.071 23.346 40.281 24.069 38.693 24.255 C 37.696 24.255 36.857 23.61 36.196 22.319 C 34.538 20.646 32.801 19.815 30.986 19.815 C 28.548 19.815 26.545 21.067 24.986 23.571 C 24.611 24.353 24.345 25.37 24.196 26.642 C 24.196 29.341 25.667 31.463 28.617 33.018 C 29.466 33.243 30.147 33.361 30.66 33.361 L 31.341 33.361 C 33.611 33.361 35.564 32.07 37.232 29.488 C 37.765 29.106 38.328 28.92 38.93 28.92 C 39.877 28.92 40.548 29.449 40.972 30.515 C 41.051 30.798 41.081 31.101 41.081 31.424 C 41.081 32.813 39.679 34.485 36.887 36.432 C 35.13 37.498 33.354 38.026 31.568 38.026 L 30.098 38.026 C 27.433 38.026 24.868 36.735 22.401 34.153 C 20.585 31.854 19.687 29.654 19.687 27.551 L 19.687 25.732 C 19.687 22.729 21.276 19.883 24.443 17.194 C 26.614 15.903 28.499 15.257 30.107 15.257 Z" fill="rgb(140, 140, 140)"></path><path d="M 75.945 0 C 76.892 0 77.563 0.528 77.987 1.594 C 78.066 1.878 78.096 2.181 78.096 2.504 L 78.096 17.419 C 80.208 15.981 82.171 15.257 83.987 15.257 L 85.803 15.257 C 88.467 15.257 91.033 16.548 93.51 19.13 C 95.325 21.429 96.223 23.629 96.223 25.732 L 96.223 27.209 C 96.223 31.219 94.112 34.476 89.878 36.999 C 88.122 37.684 86.76 38.026 85.803 38.026 L 84.332 38.026 C 80.346 38.026 77.099 35.904 74.593 31.649 C 73.912 29.938 73.576 28.578 73.576 27.551 L 73.576 2.504 C 73.576 0.831 74.366 0 75.954 0 Z M 78.096 26.642 C 78.096 29.341 79.566 31.463 82.517 33.018 C 83.365 33.243 84.046 33.361 84.559 33.361 L 85.349 33.361 C 87.5 33.361 89.316 32.187 90.786 29.83 C 91.319 28.901 91.576 27.952 91.576 26.984 L 91.576 26.299 C 91.576 23.835 90.253 21.898 87.609 20.49 C 87.096 20.187 86.198 19.962 84.895 19.805 C 82.458 19.805 80.454 21.057 78.895 23.561 C 78.362 24.832 78.106 25.859 78.106 26.632 Z" fill="rgb(140, 140, 140)"></path><path d="M 2.368 26.71 C 3.316 26.71 3.987 27.238 4.411 28.304 C 4.49 28.588 4.52 28.891 4.52 29.214 L 4.52 44.129 C 6.631 42.691 8.595 41.967 10.411 41.967 L 12.227 41.967 C 14.891 41.967 17.457 43.258 19.933 45.84 C 21.749 48.139 22.647 50.339 22.647 52.442 L 22.647 53.919 C 22.647 57.919 20.535 61.186 16.302 63.709 C 14.546 64.394 13.184 64.736 12.227 64.736 L 10.756 64.736 C 6.769 64.736 3.523 62.614 1.016 58.359 C 0.336 56.648 0 55.288 0 54.261 L 0 29.214 C 0 27.541 0.789 26.71 2.378 26.71 Z M 4.52 53.352 C 4.52 56.051 5.99 58.173 8.94 59.728 C 9.789 59.953 10.47 60.071 10.983 60.071 L 11.773 60.071 C 13.924 60.071 15.74 58.897 17.21 56.54 C 17.743 55.611 17.999 54.662 17.999 53.694 L 17.999 53.009 C 17.999 50.545 16.677 48.608 14.032 47.2 C 13.519 46.897 12.621 46.672 11.319 46.515 C 8.881 46.515 6.878 47.767 5.319 50.271 C 4.786 51.542 4.529 52.569 4.529 53.342 Z" fill="rgb(140, 140, 140)"></path><path d="M 112.16 15.257 L 113.976 15.257 C 116.64 15.257 119.206 16.548 121.673 19.13 C 123.489 21.429 124.397 23.629 124.397 25.732 L 124.397 35.415 C 124.397 37.087 123.607 37.918 122.019 37.918 C 120.588 37.615 119.867 36.93 119.867 35.864 C 117.736 37.312 115.772 38.026 113.976 38.026 L 112.506 38.026 C 108.519 38.026 105.272 35.904 102.766 31.649 C 102.085 29.938 101.75 28.578 101.75 27.551 L 101.75 25.732 C 101.75 22.964 103.111 20.304 105.825 17.761 C 108.095 16.089 110.207 15.257 112.17 15.257 Z M 106.269 26.642 C 106.269 29.341 107.74 31.463 110.69 33.018 C 111.539 33.243 112.22 33.361 112.733 33.361 L 113.522 33.361 C 115.673 33.361 117.489 32.187 118.959 29.83 C 119.483 28.901 119.749 27.952 119.749 26.984 L 119.749 26.299 C 119.749 23.835 118.427 21.898 115.782 20.49 C 115.269 20.187 114.371 19.962 113.068 19.805 C 110.631 19.805 108.628 21.057 107.068 23.561 C 106.536 24.832 106.279 25.859 106.279 26.632 Z" fill="rgb(140, 140, 140)"></path><path d="M 168.991 15.257 L 170.806 15.257 C 173.579 15.257 176.263 16.666 178.849 19.473 C 180.28 21.575 181 23.248 181 24.48 C 181 24.637 180.961 24.705 180.891 24.705 L 181 25.272 L 181 26.407 C 181 28.079 180.171 28.911 178.503 28.911 L 163.553 28.911 C 164.974 31.874 166.968 33.351 169.553 33.351 L 170.234 33.351 C 172.069 33.351 173.875 32.363 175.671 30.387 C 176.066 30.163 176.52 30.045 177.033 30.045 C 178.543 30.231 179.303 30.994 179.303 32.324 L 179.303 32.441 C 179.303 33.811 177.674 35.405 174.428 37.224 C 172.859 37.752 171.537 38.016 170.461 38.016 L 168.991 38.016 C 166.326 38.016 163.761 36.725 161.293 34.143 C 159.478 31.845 158.57 29.644 158.57 27.541 L 158.57 25.722 C 158.57 22.309 160.455 19.267 164.234 16.607 C 166.119 15.697 167.708 15.238 168.991 15.238 Z M 163.553 24.363 L 176.125 24.363 C 175.75 22.994 174.882 21.859 173.52 20.949 C 172.178 20.187 170.974 19.815 169.898 19.815 C 167.461 19.815 165.497 21.028 164.007 23.463 L 163.553 24.373 Z" fill="rgb(140, 140, 140)"></path><path d="M 41.9 41.694 L 42.6 41.694 C 43.607 41.694 44.268 42.476 44.584 44.031 C 44.584 45.635 43.262 46.564 40.627 46.838 C 38.86 47.483 37.193 48.618 35.624 50.232 C 33.917 52.599 33.058 54.78 33.058 56.794 L 33.058 61.596 C 33.058 63.513 32.436 64.638 31.193 64.99 L 30.265 64.99 C 28.943 64.579 28.282 63.914 28.282 62.995 L 28.282 56.325 C 28.282 52.344 30.107 48.638 33.759 45.205 C 36.847 42.867 39.561 41.694 41.91 41.694 Z" fill="rgb(140, 140, 140)"></path><path d="M 51.353 41.576 L 52.054 41.576 C 53.218 41.576 53.919 42.515 54.146 44.383 L 54.146 54.692 C 54.146 56.589 55.153 58.183 57.176 59.494 C 58.054 59.963 58.863 60.198 59.623 60.198 L 60.087 60.198 C 62.514 60.198 64.3 58.711 65.445 55.748 C 65.603 54.887 65.682 53.909 65.682 52.823 L 65.682 43.571 C 66.027 42.319 66.649 41.693 67.547 41.693 L 68.474 41.693 C 69.718 42.046 70.34 42.672 70.34 43.571 L 70.34 55.161 C 70.34 58.789 68.396 61.763 64.517 64.061 C 63.136 64.687 61.823 65 60.56 65 L 58.814 65 C 56.09 65 53.534 63.513 51.126 60.55 C 49.962 58.613 49.38 56.941 49.38 55.513 L 49.38 43.571 C 49.784 42.241 50.446 41.586 51.363 41.586 Z" fill="rgb(140, 140, 140)"></path><path d="M 86.119 41.576 L 88.447 41.576 C 90.895 41.576 93.381 42.789 95.898 45.205 C 97.921 47.571 98.927 49.987 98.927 52.462 L 98.927 63.005 C 98.523 64.335 97.862 65 96.944 65 L 96.243 65 C 94.921 64.589 94.26 63.924 94.26 63.005 L 94.26 54.809 C 94.26 50.848 92.819 48.188 89.947 46.848 C 88.803 46.535 88.023 46.378 87.619 46.378 L 86.918 46.378 C 84.51 46.378 82.527 47.748 80.977 50.476 C 80.592 51.493 80.395 52.315 80.395 52.931 L 80.395 61.596 C 80.395 63.513 79.773 64.638 78.53 64.99 L 77.602 64.99 C 76.28 64.579 75.619 63.914 75.619 62.995 L 75.619 52.11 C 75.619 49.048 77.326 46.114 80.74 43.327 C 82.931 42.153 84.717 41.566 86.099 41.566 Z" fill="rgb(140, 140, 140)"></path><path d="M 115.703 41.576 L 117.568 41.576 C 120.42 41.576 123.173 43.024 125.838 45.909 C 127.318 48.07 128.048 49.792 128.048 51.063 C 128.048 51.22 128.009 51.298 127.93 51.298 L 128.048 51.885 L 128.048 53.058 C 128.048 54.78 127.189 55.63 125.482 55.63 L 110.108 55.63 C 111.558 58.672 113.621 60.198 116.275 60.198 L 116.976 60.198 C 118.861 60.198 120.726 59.181 122.561 57.156 C 122.966 56.921 123.44 56.804 123.963 56.804 C 125.512 57 126.291 57.782 126.291 59.142 L 126.291 59.259 C 126.291 60.667 124.624 62.301 121.288 64.178 C 119.68 64.726 118.318 65 117.213 65 L 115.703 65 C 112.97 65 110.325 63.67 107.789 61.019 C 105.924 58.662 104.996 56.393 104.996 54.222 L 104.996 52.344 C 104.996 48.833 106.94 45.703 110.818 42.975 C 112.762 42.036 114.391 41.566 115.713 41.566 Z M 110.108 50.946 L 123.035 50.946 C 122.65 49.537 121.752 48.373 120.361 47.435 C 118.979 46.652 117.736 46.261 116.631 46.261 C 114.124 46.261 112.111 47.513 110.572 50.007 Z" fill="rgb(140, 140, 140)"></path><path d="M 136.367 27.14 C 137.334 27.14 138.034 27.688 138.459 28.783 C 138.538 29.077 138.577 29.39 138.577 29.722 L 138.577 39.239 L 142.89 39.239 C 144.597 39.239 145.455 40.06 145.455 41.694 C 145.455 42.672 144.912 43.376 143.827 43.796 C 143.531 43.875 143.225 43.914 142.899 43.914 L 138.587 43.914 L 138.587 51.875 C 138.587 56.031 140.136 58.692 143.245 59.836 C 143.965 60.071 144.626 60.188 145.228 60.188 L 145.929 60.188 C 148.337 60.188 150.281 58.897 151.751 56.325 C 152.373 54.369 153.113 53.401 153.962 53.401 C 154.08 53.322 154.307 53.283 154.662 53.283 C 156.211 53.479 156.991 54.261 156.991 55.621 L 156.991 55.738 C 156.774 57.577 155.688 59.601 153.735 61.831 C 151.268 63.934 148.751 64.99 146.166 64.99 L 145.001 64.99 C 140.906 64.99 137.571 62.809 134.985 58.437 C 134.285 56.677 133.939 55.278 133.939 54.222 L 133.939 29.722 C 133.939 28.001 134.758 27.14 136.386 27.14 Z" fill="rgb(140, 140, 140)"></path><path d="M 136.367 27.14 C 137.334 27.14 138.034 27.688 138.459 28.783 C 138.538 29.077 138.577 29.39 138.577 29.722 L 138.577 39.239 L 133.919 39.307 L 133.919 29.722 C 133.919 28.001 134.739 27.14 136.367 27.14 Z" fill="rgb(140, 140, 140)"></path><path d="M 156.438 24.558 C 155.757 24.118 156.044 24.294 154.958 23.59 L 154.958 39.248 L 152.225 39.248 C 152.225 39.248 152.284 28.392 152.096 23.58 C 152.047 22.299 151.406 20.646 150.596 19.874 C 148.08 17.477 145.406 15.296 142.663 13.321 C 141.903 12.773 140.472 12.783 139.712 13.321 C 136.969 15.296 134.304 17.487 131.778 19.874 C 130.959 20.646 130.239 22.26 130.199 23.522 C 130.022 28.656 130.13 33.801 130.13 39.17 L 127.495 39.17 L 127.495 23.668 C 126.479 24.285 127.12 23.972 126.37 24.421 C 125.492 25.145 124.782 24.519 124.703 24.392 C 124.002 23.218 125.245 22.006 125.887 21.448 C 130.525 17.438 135.232 13.546 139.998 9.771 C 140.59 9.301 141.873 9.37 142.485 9.859 C 147.182 13.565 151.82 17.38 156.389 21.331 C 157.169 22.006 158.817 23.6 158.037 24.617 C 157.553 25.165 156.942 24.979 156.438 24.568 Z" fill="rgb(140, 140, 140)"></path><path d="M 144.222 22.505 L 149.195 22.505 L 149.195 28.783 L 144.222 28.783 Z" fill="rgb(140, 140, 140)"></path><path d="M 68.376 26.7 L 68.376 35.415 C 68.376 35.415 68.287 37.635 66.649 37.86 C 65.011 38.094 64.547 37.508 64.261 37.048 C 63.975 36.578 63.777 34.965 63.777 34.965 L 66.461 31.317 L 68.376 26.69 Z" fill="rgb(140, 140, 140)"></path><path d="M 45.452 27.121 L 45.452 25.448 C 45.561 25.409 45.531 25.311 45.531 25.233 C 45.531 24.764 45.63 24.294 45.738 23.835 C 46.39 21.028 47.84 18.72 50.169 16.979 C 52.094 15.541 54.274 14.817 56.662 14.71 C 57.521 14.67 58.37 14.759 59.208 14.925 C 61.675 15.414 63.758 16.578 65.455 18.407 C 66.343 19.365 67.053 20.441 67.576 21.634 C 68.09 22.798 68.405 24.02 68.514 25.282 C 68.583 26.113 68.573 26.945 68.465 27.776 C 68.317 28.911 68.021 29.996 67.557 31.043 C 66.54 33.322 64.942 35.102 62.781 36.373 C 61.369 37.204 59.83 37.703 58.202 37.86 C 57.294 37.948 56.386 37.938 55.478 37.811 C 54.245 37.644 53.08 37.292 51.975 36.754 C 49.903 35.737 48.265 34.221 47.1 32.246 C 46.202 30.72 45.65 29.077 45.541 27.297 C 45.541 27.228 45.541 27.16 45.462 27.121 Z M 55.903 17.008 C 55.903 17.008 55.883 16.92 55.833 16.949 C 55.794 16.979 55.833 17.018 55.883 17.028 C 55.883 17.086 55.883 17.155 55.991 17.164 C 55.991 17.086 55.982 17.037 55.903 17.008 Z M 56.001 16.411 C 55.982 16.353 55.982 16.274 55.883 16.314 C 55.883 16.382 55.903 16.421 55.972 16.441 C 55.972 16.499 55.972 16.548 55.972 16.607 C 55.922 16.587 55.873 16.568 55.794 16.539 C 55.833 16.695 55.903 16.812 56.011 16.91 C 56.11 16.773 55.972 16.705 55.962 16.597 C 56.001 16.558 56.1 16.597 56.1 16.499 C 56.1 16.45 56.051 16.421 55.991 16.411 Z M 55.616 18.622 C 55.636 18.671 55.616 18.759 55.705 18.759 C 55.745 18.68 55.705 18.632 55.656 18.583 C 55.636 18.465 55.626 18.348 55.488 18.289 C 55.449 18.446 55.528 18.534 55.616 18.622 Z M 58.34 19.013 C 58.34 19.072 58.35 19.121 58.36 19.179 C 58.429 19.101 58.409 19.052 58.33 19.013 C 58.291 18.886 58.389 18.739 58.301 18.612 C 58.195 18.781 58.208 18.912 58.34 19.003 Z M 55.478 19.776 C 55.281 19.717 55.37 19.473 55.241 19.355 C 55.133 19.639 55.113 19.678 55.182 19.874 C 55.212 19.981 55.261 20.079 55.232 20.187 C 55.113 20.187 55.172 20.001 55.044 20.02 C 54.906 20.167 55.044 20.353 54.975 20.519 L 54.975 20.519 C 54.906 20.519 54.847 20.519 54.807 20.597 C 54.758 20.724 54.718 20.852 54.748 20.989 C 54.728 21.008 54.709 21.018 54.699 21.037 C 54.442 21.272 54.59 21.585 54.561 21.859 C 54.452 21.839 54.501 21.703 54.422 21.654 C 54.126 22.319 54.126 22.456 54.462 23.443 C 54.61 23.13 54.768 22.857 54.659 22.495 C 54.6 22.289 54.511 22.074 54.561 21.849 C 54.748 22.025 54.689 22.27 54.768 22.495 C 55.143 22.133 54.728 21.732 54.837 21.311 C 54.906 21.517 54.955 21.663 55.005 21.82 C 55.182 21.595 55.133 21.35 55.143 21.106 L 55.143 21.106 C 55.389 20.998 55.31 20.783 55.291 20.617 C 55.271 20.47 55.192 20.333 55.212 20.187 C 55.33 20.167 55.271 20.372 55.409 20.343 C 55.547 20.167 55.409 19.962 55.459 19.766 C 55.518 19.766 55.567 19.756 55.597 19.668 C 55.528 19.561 55.528 19.404 55.389 19.297 C 55.35 19.473 55.508 19.61 55.459 19.776 Z M 58.577 21.096 C 58.577 21.096 58.597 21.116 58.606 21.125 C 58.587 21.37 58.557 21.615 58.754 21.869 C 58.774 21.419 59.1 21.037 58.893 20.607 C 58.735 20.597 58.784 20.754 58.676 20.754 C 58.587 20.519 58.902 20.265 58.636 20.001 C 58.478 20.372 58.301 20.715 58.567 21.096 Z M 54.452 24.108 C 54.531 24.108 54.541 24.157 54.551 24.206 C 54.6 24.451 54.659 24.686 54.709 24.93 C 54.728 24.998 54.689 25.106 54.837 25.106 C 54.936 24.686 55.074 24.265 54.945 23.825 C 54.936 23.786 54.945 23.747 54.955 23.707 L 54.955 23.707 C 54.955 23.707 55.054 23.747 55.074 23.756 C 55.291 23.453 55.113 23.121 55.123 22.729 C 55.202 22.827 55.232 22.866 55.261 22.915 C 55.32 22.573 55.478 22.231 55.232 21.898 C 55.024 22.143 55.074 22.426 55.123 22.729 C 55.054 22.681 55.024 22.661 54.995 22.641 C 54.817 22.827 54.876 23.052 54.876 23.258 C 54.827 23.326 54.778 23.248 54.738 23.277 C 54.63 23.561 54.501 23.835 54.452 24.128 C 54.235 24.373 54.195 24.705 54.038 24.969 C 54.245 25.527 54.294 26.104 54.491 26.671 C 54.531 26.505 54.57 26.358 54.61 26.221 C 54.738 25.781 54.718 25.36 54.59 24.92 C 54.511 24.656 54.432 24.392 54.452 24.108 Z M 59.258 24.197 C 59.208 23.786 59.169 23.698 58.922 23.277 C 58.804 23.766 59.041 24.187 59.031 24.637 C 59.11 24.568 59.07 24.451 59.179 24.441 C 59.199 24.578 59.189 24.725 59.139 24.852 C 59.1 24.95 59.09 25.038 59.11 25.135 C 59.159 25.39 59.208 25.654 59.258 25.908 C 59.268 25.977 59.277 26.045 59.386 26.035 C 59.465 25.879 59.425 25.683 59.583 25.536 C 59.633 25.957 59.366 26.319 59.416 26.73 C 59.465 27.121 59.544 27.502 59.722 27.874 C 59.84 27.209 59.968 26.544 60.087 25.869 C 59.958 25.654 59.899 25.409 59.722 25.223 C 59.643 25.292 59.702 25.399 59.564 25.448 C 59.682 24.969 59.564 24.558 59.238 24.206 Z M 54.047 28.294 C 53.978 28.294 53.968 28.246 53.959 28.187 C 53.88 27.757 53.811 27.316 53.702 26.886 C 53.643 26.642 53.682 26.368 53.515 26.113 C 53.386 26.329 53.288 26.524 53.169 26.71 C 53.11 26.798 53.12 26.896 53.13 26.994 C 53.278 28.05 53.426 29.106 53.584 30.231 C 53.761 29.546 54.018 28.95 54.047 28.294 C 54.077 28.255 54.126 28.206 54.136 28.158 C 54.245 27.786 54.343 27.414 54.432 27.043 C 54.442 27.003 54.432 26.955 54.432 26.915 C 54.294 26.348 54.156 25.791 53.998 25.145 C 53.85 25.429 53.751 25.644 53.643 25.84 C 53.732 26.338 53.83 26.818 53.919 27.307 C 53.978 27.629 54.077 27.952 54.057 28.294 Z M 58.251 15.952 C 58.577 19.101 59.564 21.986 61.31 24.598 C 62.741 26.73 64.567 28.451 66.777 29.801 C 68.919 23.717 65.08 16.861 58.251 15.961 Z M 47.229 29.693 C 49.893 28.06 51.847 25.84 53.307 23.15 C 54.63 20.724 55.557 16.988 55.429 16.02 C 49.094 16.91 45.107 23.619 47.229 29.693 Z M 51.867 35.327 C 52.024 34.896 52.182 34.485 52.33 34.075 C 52.35 34.026 52.35 33.967 52.34 33.908 C 52.281 33.429 52.212 32.95 52.153 32.471 C 52.054 31.678 51.945 30.876 51.847 30.084 C 51.797 29.742 51.768 29.39 51.649 29.028 C 51.413 29.312 51.205 29.556 51.008 29.801 C 50.909 29.918 50.88 30.035 50.899 30.182 C 50.949 30.593 50.969 31.013 51.028 31.424 C 51.186 32.549 51.324 33.674 51.422 34.808 C 51.442 35.072 51.531 35.258 51.867 35.336 Z M 62.978 30.114 C 62.879 31.004 62.79 31.845 62.682 32.676 C 62.583 33.517 62.455 34.348 62.376 35.248 C 62.83 34.974 63.195 34.691 63.55 34.407 C 63.669 34.309 63.777 34.212 63.787 34.036 C 63.797 33.341 63.915 32.656 63.965 31.962 C 63.985 31.698 64.093 31.444 64.024 31.16 C 63.649 30.867 63.333 30.505 62.968 30.114 Z M 62.869 29.996 C 62.603 29.683 62.337 29.37 62.041 29.018 C 61.971 29.527 61.912 29.986 61.853 30.436 C 61.764 31.131 61.685 31.835 61.567 32.529 C 61.389 33.537 61.379 33.537 61.833 34.466 C 61.922 34.652 62.021 34.837 62.11 35.023 C 62.129 35.072 62.149 35.131 62.258 35.111 C 62.455 33.429 62.662 31.727 62.869 29.996 Z M 51.344 35.043 C 51.136 33.37 50.949 31.757 50.751 30.202 C 50.406 30.515 50.041 30.847 49.686 31.17 C 49.765 32.021 49.844 32.862 49.903 33.703 C 49.923 33.899 50.011 34.045 50.159 34.163 C 50.524 34.466 50.88 34.769 51.334 35.043 Z M 52.478 33.625 C 52.626 33.234 52.755 32.862 52.873 32.48 C 52.942 32.246 52.952 32.021 52.922 31.786 C 52.843 31.238 52.774 30.691 52.695 30.143 C 52.597 29.449 52.508 28.754 52.409 28.04 C 52.212 28.158 52.143 28.353 52.024 28.5 C 51.867 28.695 51.797 28.891 51.837 29.155 C 51.916 29.703 51.975 30.251 52.044 30.808 C 52.143 31.581 52.251 32.344 52.34 33.116 C 52.36 33.292 52.37 33.478 52.468 33.654 Z M 65.475 32.07 C 65.534 31.18 65.583 30.339 65.642 29.497 C 65.267 29.224 64.892 28.94 64.448 28.617 C 64.36 29.497 64.281 30.29 64.202 31.062 C 64.616 31.434 65.021 31.757 65.465 32.079 Z M 61.3 33.331 C 61.3 33.331 61.34 33.322 61.36 33.312 C 61.429 32.735 61.508 32.158 61.577 31.581 C 61.675 30.788 61.784 29.996 61.883 29.194 C 61.932 28.783 61.685 28.334 61.3 28.07 C 61.271 28.539 61.182 29.008 61.123 29.468 C 61.014 30.26 60.916 31.062 60.807 31.854 C 60.787 31.962 60.787 32.07 60.827 32.177 C 60.994 32.559 61.143 32.94 61.3 33.322 Z M 49.301 28.686 C 48.886 28.999 48.511 29.282 48.146 29.556 C 48.107 30.26 48.215 31.727 48.334 31.962 C 48.758 31.698 49.123 31.356 49.518 31.004 C 49.449 30.251 49.37 29.497 49.291 28.676 Z M 63.017 29.869 C 63.383 30.241 63.688 30.593 64.133 30.945 C 64.133 30.065 64.3 29.272 64.33 28.49 C 63.985 28.187 63.669 27.903 63.313 27.59 C 63.215 28.392 63.126 29.126 63.027 29.879 Z M 49.646 30.886 C 49.982 30.554 50.268 30.27 50.554 29.996 C 50.663 29.889 50.692 29.762 50.682 29.615 C 50.643 29.233 50.623 28.842 50.554 28.461 C 50.505 28.206 50.534 27.942 50.436 27.62 C 50.09 27.991 49.735 28.275 49.409 28.568 C 49.488 29.331 49.567 30.065 49.656 30.876 Z M 53.011 26.994 C 52.834 27.277 52.686 27.502 52.547 27.737 C 52.498 27.825 52.528 27.923 52.547 28.021 C 52.656 28.813 52.755 29.605 52.863 30.397 C 52.922 30.847 52.991 31.307 53.051 31.757 C 53.268 31.209 53.534 30.691 53.445 30.084 C 53.426 29.938 53.396 29.781 53.376 29.634 C 53.258 28.774 53.14 27.913 53.011 26.984 Z M 60.728 27.043 C 60.6 27.913 60.471 28.744 60.373 29.585 C 60.333 29.918 60.205 30.241 60.284 30.573 C 60.373 30.945 60.501 31.317 60.679 31.718 C 60.718 31.542 60.758 31.424 60.768 31.297 C 60.896 30.309 60.994 29.321 61.172 28.343 C 61.212 28.148 61.261 27.923 61.152 27.727 C 61.024 27.502 60.876 27.287 60.718 27.043 Z M 63.896 34.026 C 64.527 33.546 65.021 32.979 65.465 32.334 C 65.031 31.991 64.616 31.669 64.172 31.317 C 64.073 32.255 63.985 33.146 63.896 34.026 Z M 62.406 26.612 C 62.366 26.681 62.337 26.71 62.337 26.749 C 62.258 27.356 62.179 27.962 62.11 28.559 C 62.1 28.656 62.11 28.754 62.179 28.832 C 62.406 29.087 62.583 29.4 62.86 29.615 C 62.988 29.37 63.165 27.991 63.146 27.395 C 62.909 27.14 62.672 26.876 62.415 26.593 Z M 50.564 27.522 C 50.653 28.216 50.702 28.911 50.84 29.634 C 51.146 29.37 51.344 29.067 51.561 28.793 C 51.64 28.695 51.63 28.588 51.62 28.48 C 51.57 28.07 51.531 27.659 51.482 27.248 C 51.462 27.062 51.413 26.886 51.373 26.651 C 51.087 26.964 50.85 27.219 50.564 27.532 Z M 60.126 30.143 C 60.126 30.143 60.166 30.133 60.185 30.123 C 60.304 29.194 60.383 28.255 60.56 27.336 C 60.659 26.847 60.471 26.524 60.225 26.182 C 60.146 26.241 60.116 26.299 60.106 26.368 C 60.018 26.857 59.929 27.346 59.85 27.835 C 59.8 28.118 59.712 28.402 59.781 28.695 C 59.899 29.175 60.008 29.654 60.126 30.143 Z M 49.834 33.83 C 49.735 32.94 49.656 32.119 49.557 31.248 C 49.173 31.61 48.778 31.835 48.452 32.187 C 48.837 32.774 49.271 33.292 49.834 33.83 Z M 61.636 25.683 C 61.537 26.387 61.458 27.033 61.369 27.698 C 61.557 27.933 61.685 28.236 61.942 28.471 C 61.981 28.373 62.021 28.294 62.031 28.216 C 62.09 27.747 62.139 27.287 62.218 26.818 C 62.267 26.514 62.198 26.28 61.971 26.074 C 61.863 25.977 61.774 25.849 61.646 25.683 Z M 52.084 25.771 C 51.906 25.986 51.768 26.153 51.63 26.329 C 51.541 26.436 51.492 26.563 51.521 26.71 C 51.61 27.16 51.659 27.61 51.699 28.07 C 51.709 28.197 51.758 28.314 51.797 28.461 C 52.202 28.011 52.498 27.571 52.281 26.974 C 52.281 26.945 52.281 26.915 52.281 26.896 C 52.222 26.544 52.212 26.182 52.094 25.781 Z M 65.593 32.119 C 66.067 31.512 66.55 30.534 66.59 30.114 C 66.333 29.947 66.067 29.781 65.771 29.595 C 65.711 30.446 65.662 31.258 65.603 32.128 Z M 61.261 27.483 C 61.35 26.818 61.439 26.172 61.527 25.527 C 61.369 25.321 61.261 25.096 61.064 24.94 C 61.034 24.969 61.014 24.989 61.004 25.008 C 60.916 25.243 60.935 25.497 60.886 25.742 C 60.708 26.661 60.708 26.661 61.202 27.444 C 61.202 27.453 61.221 27.463 61.261 27.483 Z M 52.735 24.891 C 52.597 24.979 52.557 25.096 52.478 25.194 C 52.291 25.419 52.212 25.664 52.261 25.957 C 52.34 26.436 52.399 26.925 52.468 27.444 C 52.636 27.297 52.676 27.111 52.794 26.974 C 52.972 26.769 52.982 26.524 52.942 26.27 C 52.873 25.82 52.814 25.37 52.745 24.891 Z M 60.541 24.108 C 60.471 24.509 60.452 24.881 60.333 25.233 C 60.166 25.722 60.393 26.074 60.669 26.456 C 60.738 25.977 60.787 25.546 60.866 25.106 C 60.935 24.725 60.827 24.412 60.541 24.099 Z M 53.07 26.417 C 53.189 26.329 53.218 26.192 53.288 26.094 C 53.465 25.82 53.515 25.546 53.406 25.223 C 53.337 24.998 53.317 24.764 53.288 24.529 C 53.268 24.412 53.248 24.294 53.159 24.197 C 52.893 24.451 52.804 24.754 52.873 25.106 C 52.952 25.527 53.001 25.947 53.07 26.407 Z M 59.376 23.796 C 59.495 24.06 59.603 24.314 59.741 24.627 C 59.84 24.236 59.899 23.913 59.998 23.59 C 60.116 23.179 59.929 22.886 59.662 22.534 C 59.554 23.003 59.465 23.404 59.376 23.796 Z M 53.998 22.593 C 53.919 22.749 53.85 22.915 53.761 23.062 C 53.702 23.17 53.672 23.267 53.702 23.375 C 53.791 23.747 53.889 24.128 53.978 24.509 C 54.511 23.874 54.235 23.238 53.998 22.593 Z M 48.038 31.444 C 48.077 30.867 48.077 30.29 47.939 29.664 C 47.742 29.85 47.515 29.908 47.367 30.114 C 47.515 30.583 47.742 31.013 48.038 31.444 Z M 60.126 23.443 C 60.057 23.756 60.018 24.05 59.919 24.324 C 59.761 24.764 59.889 25.126 60.156 25.507 C 60.225 25.106 60.254 24.715 60.373 24.353 C 60.481 24.001 60.402 23.737 60.126 23.453 Z M 53.288 23.942 C 53.376 24.441 53.475 24.93 53.574 25.497 C 53.741 25.145 53.949 24.901 53.86 24.549 C 53.771 24.187 53.682 23.825 53.593 23.443 C 53.436 23.6 53.376 23.786 53.278 23.942 Z M 59.317 23.522 C 59.386 23.179 59.455 22.866 59.514 22.553 C 59.583 22.211 59.514 22.015 59.268 21.742 C 59.218 21.957 59.179 22.172 59.11 22.377 C 58.981 22.788 59.05 23.15 59.307 23.531 Z M 58.962 22.583 C 59.05 22.192 59.1 21.888 59.179 21.595 C 59.228 21.399 59.199 21.253 59.011 21.106 C 59.011 21.585 58.676 22.015 58.962 22.573 Z M 58.458 19.385 C 58.36 19.671 58.347 19.909 58.419 20.099 C 58.636 19.737 58.646 19.678 58.458 19.385 Z M 55.587 19.345 C 55.725 19.14 55.685 18.993 55.399 18.641 C 55.33 18.915 55.518 19.111 55.587 19.345 Z M 55.429 21.194 C 55.33 21.455 55.34 21.667 55.459 21.83 C 55.459 21.624 55.626 21.429 55.429 21.194 Z M 55.952 17.693 C 56.031 17.438 55.873 17.321 55.685 17.116 C 55.685 17.409 55.814 17.546 55.952 17.693 Z M 55.597 17.888 C 55.528 18.133 55.676 18.279 55.833 18.416 C 55.853 18.201 55.705 18.054 55.597 17.888 Z M 55.843 17.859 C 55.784 17.898 55.804 17.947 55.814 17.986 C 55.824 18.045 55.853 18.094 55.942 18.025 C 55.942 17.966 55.922 17.908 55.843 17.859 Z M 58.133 17.81 C 58.064 17.898 58.074 17.986 58.133 18.074 C 58.212 17.986 58.182 17.898 58.133 17.81 Z M 55.942 16.02 C 55.942 16.02 55.893 16.089 55.922 16.118 C 55.952 16.157 55.991 16.206 56.051 16.147 C 56.07 16.059 56.011 16.04 55.942 16.02 Z M 58.202 18.416 C 58.261 18.358 58.261 18.299 58.202 18.231 C 58.143 18.309 58.152 18.358 58.202 18.416 Z" fill="rgb(140, 140, 140)"></path><path d="M 59.169 24.451 C 59.169 24.353 59.11 24.236 59.258 24.187 C 59.238 24.275 59.297 24.392 59.169 24.451 Z" fill="rgb(140, 140, 140)"></path><path d="M 54.965 23.698 C 54.827 23.619 54.876 23.512 54.886 23.385 C 55.005 23.483 54.965 23.59 54.965 23.698 Z" fill="rgb(140, 140, 140)"></path><path d="M 54.748 20.989 C 54.817 21.067 54.827 21.145 54.787 21.243 C 54.679 21.214 54.728 21.106 54.699 21.037 C 54.718 21.018 54.738 21.008 54.748 20.989 Z" fill="rgb(140, 140, 140)"></path><path d="M 55.133 21.106 C 55.005 21.057 55.084 20.959 55.074 20.881 C 55.153 20.94 55.162 21.018 55.143 21.106 L 55.143 21.106 Z" fill="rgb(140, 140, 140)"></path><path d="M 54.965 20.519 C 55.103 20.558 55.064 20.646 55.034 20.744 C 54.926 20.695 54.965 20.597 54.965 20.519 Z" fill="rgb(140, 140, 140)"></path><path d="M 58.577 21.096 C 58.587 21.018 58.597 20.949 58.616 20.813 C 58.695 20.959 58.695 21.047 58.616 21.116 C 58.606 21.116 58.597 21.096 58.587 21.086 Z" fill="rgb(140, 140, 140)"></path></g></svg>