<svg xmlns="http://www.w3.org/2000/svg" xmlns:xlink="http://www.w3.org/1999/xlink" viewBox="0 0 221 58"><g transform="translate(27.04 7)"><path d="M 166.215 20.82 C 166.411 32.58 129.353 42.703 83.768 43.367 C 38.206 44.023 0.884 34.954 0.71 23.217 C 0.536 11.465 37.587 1.312 83.156 0.656 C 128.741 0 166.048 9.068 166.215 20.82 Z M 13.843 23.029 C 14.009 34.133 45.426 42.756 83.753 42.206 C 122.095 41.656 153.255 32.12 153.081 21.016 C 152.93 9.89 121.521 1.266 83.156 1.817 C 44.837 2.367 13.692 11.91 13.843 23.029 Z" fill="rgb(62, 89, 184)"></path><path d="M 83.134 0.045 L 87.393 0 L 91.615 0.023 L 95.768 0.106 L 99.831 0.234 L 103.857 0.422 L 107.799 0.656 L 111.658 0.927 L 115.427 1.266 L 119.112 1.628 L 122.714 2.05 L 126.188 2.533 L 129.579 3.038 L 132.842 3.588 L 135.999 4.176 L 139.027 4.809 L 141.927 5.488 L 144.706 6.189 L 147.349 6.928 L 149.849 7.711 L 152.183 8.518 L 154.388 9.385 L 156.419 10.252 L 158.308 11.156 L 160.022 12.106 L 161.57 13.079 L 162.922 14.074 L 164.108 15.129 L 165.104 16.184 L 165.89 17.308 L 166.486 18.446 L 166.849 19.607 L 167 20.813 L 166.894 22.019 L 166.554 23.18 L 166.011 24.341 L 165.248 25.479 L 164.296 26.579 L 163.133 27.612 L 161.797 28.675 L 160.294 29.685 L 158.625 30.68 L 156.759 31.653 L 154.743 32.587 L 152.583 33.492 L 150.249 34.381 L 147.772 35.226 L 145.167 36.047 L 142.41 36.831 L 139.533 37.57 L 136.505 38.286 L 133.37 38.987 L 130.131 39.62 L 126.762 40.231 L 123.288 40.804 L 119.709 41.332 L 116.046 41.821 L 112.277 42.244 L 108.441 42.643 L 104.506 42.982 L 100.504 43.276 L 96.418 43.533 L 92.287 43.744 L 88.073 43.872 L 83.813 43.977 L 79.554 44 L 75.355 43.977 L 71.224 43.894 L 67.138 43.766 L 63.136 43.6 L 59.194 43.367 L 55.312 43.065 L 51.543 42.749 L 47.858 42.364 L 44.278 41.942 L 40.781 41.475 L 37.413 40.97 L 34.136 40.397 L 30.979 39.809 L 27.95 39.198 L 25.05 38.52 L 22.271 37.804 L 19.643 37.065 L 17.143 36.281 L 14.795 35.474 L 12.589 34.63 L 10.558 33.741 L 8.67 32.829 L 6.956 31.894 L 5.43 30.921 L 4.055 29.911 L 2.885 28.871 L 1.888 27.793 L 1.08 26.715 L 0.506 25.569 L 0.128 24.386 L 0 23.202 L 0.106 21.996 L 0.423 20.813 L 0.974 19.652 L 1.737 18.529 L 2.711 17.428 L 3.852 16.35 L 5.181 15.295 L 6.691 14.277 L 8.383 13.282 L 10.226 12.332 L 12.242 11.383 L 14.417 10.47 L 16.751 9.604 L 19.213 8.759 L 21.841 7.938 L 24.597 7.131 L 27.475 6.392 L 30.48 5.676 L 33.614 4.975 L 36.877 4.342 L 40.245 3.731 L 43.697 3.158 L 47.276 2.631 L 50.939 2.163 L 54.708 1.719 L 58.567 1.319 L 62.486 0.98 L 66.512 0.686 L 70.582 0.43 L 74.713 0.241 L 78.905 0.09 L 83.164 0.008 Z M 0.71 23.217 C 0.876 34.954 38.206 44.023 83.768 43.367 C 129.353 42.711 166.411 32.58 166.215 20.82 C 166.048 9.068 128.741 0 83.156 0.656 C 37.587 1.312 0.536 11.465 0.71 23.217 Z" fill="rgb(62, 89, 184)"></path><path d="M 34.521 14.443 L 35.102 9.234 L 25.541 9.234 L 22.906 33.861 L 26.47 33.861 L 27.543 24.016 L 32.731 24.016 L 33.26 19.139 L 28.056 19.139 L 28.562 14.443 Z" fill="rgb(62, 89, 184)"></path><path d="M 38.742 12.061 L 35.555 12.061 L 33.237 33.854 L 41.605 33.854 L 42.103 29.24 L 36.907 29.24 Z" fill="rgb(62, 89, 184)"></path><path d="M 48.704 12.061 L 45.788 19.893 L 44.384 12.061 L 41.136 12.061 L 43.787 25.336 L 42.888 33.854 L 46.075 33.854 L 46.936 25.607 L 52.351 12.061 Z" fill="rgb(62, 89, 184)"></path><path d="M 61.21 9.234 L 57.245 24.589 L 56.558 9.234 L 52.971 9.234 L 54.421 33.861 L 58.212 33.861 L 64.918 9.234 Z" fill="rgb(62, 89, 184)"></path><path d="M 73.543 16.674 L 74.018 12.061 L 65.009 12.061 L 62.69 33.861 L 71.775 33.861 L 72.274 29.24 L 66.345 29.24 L 66.821 24.793 L 72.228 24.793 L 72.697 20.474 L 67.289 20.474 L 67.697 16.674 Z" fill="rgb(62, 89, 184)"></path><path d="M 83.927 15.28 C 83.768 14.533 83.534 13.915 83.232 13.44 C 82.915 12.943 82.514 12.574 82.054 12.355 C 81.638 12.159 81.178 12.061 80.687 12.061 C 80.634 12.061 80.581 12.061 80.551 12.061 L 75.053 12.061 L 72.734 33.854 L 75.891 33.854 L 76.782 25.622 L 78.648 25.622 C 78.829 25.622 78.988 25.645 79.131 25.697 C 79.237 25.735 79.343 25.818 79.426 25.954 C 79.539 26.112 79.622 26.338 79.69 26.617 C 79.758 26.919 79.796 27.318 79.796 27.801 C 79.796 28.494 79.773 29.21 79.735 29.919 C 79.69 30.642 79.675 31.366 79.675 32.075 C 79.675 32.323 79.682 32.565 79.705 32.798 C 79.728 33.032 79.75 33.273 79.781 33.53 L 79.818 33.854 L 82.96 33.854 L 82.877 33.432 C 82.817 33.138 82.779 32.776 82.764 32.369 C 82.741 31.947 82.733 31.509 82.733 31.034 C 82.733 30.394 82.749 29.738 82.771 29.082 C 82.794 28.419 82.809 27.853 82.809 27.371 C 82.809 26.504 82.733 25.713 82.575 25.011 C 82.454 24.469 82.243 24.032 81.948 23.707 C 82.182 23.572 82.401 23.391 82.598 23.165 C 82.922 22.803 83.209 22.351 83.443 21.815 C 83.67 21.295 83.851 20.692 83.98 20.014 C 84.108 19.35 84.168 18.642 84.168 17.918 C 84.168 16.878 84.093 15.981 83.934 15.25 M 80.332 20.956 C 80.143 21.175 79.932 21.34 79.698 21.438 C 79.456 21.544 79.214 21.597 78.957 21.597 L 77.213 21.597 L 77.772 16.38 L 79.652 16.38 C 79.841 16.38 80.022 16.403 80.196 16.448 C 80.332 16.486 80.453 16.561 80.558 16.682 C 80.679 16.818 80.785 17.036 80.868 17.323 C 80.951 17.639 80.996 18.069 80.996 18.612 C 80.996 19.154 80.936 19.644 80.808 20.036 C 80.687 20.413 80.528 20.722 80.332 20.948" fill="rgb(62, 89, 184)"></path><path d="M 93.457 21.906 C 93.729 21.582 93.956 21.182 94.145 20.707 C 94.326 20.24 94.469 19.712 94.56 19.132 C 94.651 18.559 94.696 17.956 94.696 17.353 C 94.696 16.328 94.613 15.468 94.447 14.812 C 94.273 14.126 94.016 13.576 93.684 13.169 C 93.337 12.747 92.906 12.453 92.4 12.295 C 91.924 12.144 91.388 12.069 90.807 12.069 L 85.92 12.069 L 83.602 33.861 L 89.764 33.861 C 90.384 33.861 90.98 33.695 91.539 33.356 C 92.083 33.032 92.559 32.557 92.967 31.939 C 93.367 31.336 93.692 30.582 93.926 29.685 C 94.16 28.796 94.273 27.755 94.273 26.594 C 94.273 25.539 94.13 24.597 93.843 23.783 C 93.624 23.172 93.329 22.69 92.967 22.351 C 93.14 22.237 93.306 22.087 93.45 21.906 M 89.651 24.469 C 89.832 24.469 90.029 24.484 90.218 24.522 C 90.361 24.544 90.489 24.612 90.61 24.725 C 90.746 24.853 90.867 25.049 90.958 25.313 C 91.056 25.592 91.109 25.991 91.109 26.496 C 91.109 27.552 90.95 28.351 90.641 28.863 C 90.233 29.527 89.802 29.527 89.659 29.527 L 87.136 29.527 L 87.688 24.461 L 89.644 24.461 Z M 91.124 20.074 C 90.769 20.594 90.444 20.594 90.346 20.594 L 88.111 20.594 L 88.564 16.388 L 90.701 16.388 C 90.95 16.388 91.124 16.478 91.275 16.682 C 91.381 16.818 91.547 17.194 91.547 18.182 C 91.547 19.034 91.403 19.674 91.131 20.074" fill="rgb(62, 89, 184)"></path><path d="M 96.818 12.061 L 94.477 33.854 L 97.649 33.854 L 99.998 12.061 Z" fill="rgb(62, 89, 184)"></path><path d="M 109.793 16.674 L 110.268 12.061 L 101.259 12.061 L 98.94 33.861 L 108.026 33.861 L 108.524 29.24 L 102.596 29.24 L 103.071 24.793 L 108.479 24.793 L 108.947 20.474 L 103.54 20.474 L 103.947 16.674 Z" fill="rgb(62, 89, 184)"></path><path d="M 120.177 15.28 C 120.018 14.533 119.784 13.915 119.482 13.44 C 119.165 12.943 118.765 12.574 118.304 12.355 C 117.889 12.159 117.428 12.061 116.937 12.061 C 116.884 12.061 116.831 12.061 116.801 12.061 L 111.303 12.061 L 108.985 33.854 L 112.141 33.854 L 113.033 25.622 L 114.898 25.622 C 115.079 25.622 115.238 25.645 115.381 25.697 C 115.495 25.735 115.593 25.818 115.683 25.954 C 115.797 26.112 115.88 26.338 115.948 26.617 C 116.016 26.919 116.053 27.318 116.053 27.801 C 116.053 28.494 116.031 29.21 115.993 29.919 C 115.955 30.642 115.933 31.366 115.933 32.075 C 115.933 32.323 115.94 32.565 115.963 32.798 C 115.985 33.032 116.008 33.273 116.038 33.53 L 116.076 33.854 L 119.218 33.854 L 119.135 33.432 C 119.074 33.138 119.036 32.776 119.021 32.369 C 118.999 31.947 118.991 31.509 118.991 31.034 C 118.991 30.394 119.006 29.738 119.029 29.082 C 119.052 28.419 119.067 27.853 119.067 27.371 C 119.067 26.504 118.991 25.713 118.833 25.011 C 118.712 24.469 118.5 24.032 118.206 23.707 C 118.44 23.572 118.659 23.391 118.855 23.165 C 119.18 22.803 119.467 22.351 119.701 21.815 C 119.935 21.295 120.109 20.692 120.237 20.014 C 120.358 19.35 120.426 18.642 120.426 17.918 C 120.426 16.878 120.351 15.981 120.192 15.25 M 116.582 20.956 C 116.393 21.175 116.182 21.34 115.948 21.438 C 115.714 21.544 115.472 21.597 115.208 21.597 L 113.463 21.597 L 114.022 16.38 L 115.902 16.38 C 116.091 16.38 116.272 16.403 116.446 16.448 C 116.582 16.486 116.703 16.561 116.816 16.682 C 116.937 16.818 117.043 17.036 117.118 17.323 C 117.209 17.639 117.247 18.069 117.247 18.612 C 117.247 19.154 117.186 19.644 117.058 20.036 C 116.937 20.413 116.778 20.722 116.582 20.948" fill="rgb(62, 89, 184)"></path><path d="M 120.275 28.592 L 119.724 33.861 L 122.888 33.861 L 123.462 28.592 Z" fill="rgb(62, 89, 184)"></path><path d="M 135.666 20.104 L 135.666 19.75 C 135.681 18.453 135.576 17.292 135.364 16.297 C 135.145 15.295 134.836 14.435 134.428 13.75 C 134.012 13.041 133.506 12.498 132.925 12.129 C 132.328 11.752 131.664 11.563 130.961 11.563 C 129.949 11.563 129.028 11.948 128.22 12.709 C 127.457 13.433 126.808 14.405 126.287 15.611 C 125.773 16.802 125.373 18.189 125.093 19.742 C 124.821 21.288 124.685 22.946 124.685 24.672 C 124.685 27.725 125.116 30.092 125.969 31.728 C 126.868 33.454 128.175 34.329 129.866 34.329 C 130.523 34.329 131.143 34.163 131.701 33.846 C 132.253 33.53 132.751 33.024 133.189 32.339 C 133.612 31.675 133.99 30.808 134.322 29.768 C 134.654 28.735 134.941 27.454 135.183 25.976 L 135.251 25.562 L 132.049 25.562 L 132.019 25.893 C 131.973 26.421 131.875 26.934 131.732 27.424 C 131.588 27.906 131.414 28.336 131.203 28.698 C 131.007 29.044 130.78 29.316 130.531 29.504 C 130.017 29.911 129.458 29.798 129.073 29.429 C 128.809 29.173 128.582 28.811 128.409 28.358 C 128.22 27.884 128.084 27.326 127.993 26.7 C 127.903 26.074 127.857 25.388 127.857 24.68 C 127.857 23.692 127.925 22.667 128.061 21.634 C 128.197 20.609 128.409 19.667 128.688 18.83 C 128.96 18.016 129.307 17.353 129.723 16.848 C 130.093 16.403 130.501 16.184 130.976 16.184 C 131.127 16.184 131.581 16.184 132.011 16.968 C 132.336 17.579 132.502 18.514 132.502 19.75 L 132.502 20.112 L 135.666 20.112 Z" fill="rgb(62, 89, 184)"></path><path d="M 144.268 12.061 L 143.4 20.149 L 139.85 20.149 L 140.726 12.061 L 137.539 12.061 L 135.198 33.854 L 138.37 33.854 L 139.352 24.763 L 142.901 24.763 L 141.919 33.854 L 145.106 33.854 L 147.455 12.061 Z" fill="rgb(62, 89, 184)"></path></g></svg>