<?xml version="1.0" encoding="UTF-8"?><svg id="Calque_2" xmlns="http://www.w3.org/2000/svg" viewBox="0 0 221.14 58.4"><defs><style>.cls-1{fill-rule:evenodd;}.cls-1,.cls-2{fill:#909091;}</style></defs><g id="Calque_1-2"><path class="cls-1" d="M110.15.87C170.51,0,219.91,12.03,220.13,27.62c.26,15.6-48.81,29.03-109.17,29.91C50.63,58.4,1.21,46.37.98,30.8.75,15.21,49.81,1.74,110.15.87M110.15,2.41C59.41,3.14,18.17,15.8,18.37,30.55c.22,14.73,41.82,26.17,92.57,25.44,50.77-.73,92.03-13.38,91.8-28.11-.2-14.76-41.79-26.2-92.59-25.47"/><path class="cls-1" d="M110.12.06l5.64-.06,5.59.03,5.5.11,5.38.17,5.33.25,5.22.31,5.11.36,4.99.45,4.88.48,4.77.56,4.6.64,4.49.67,4.32.73,4.18.78,4.01.84,3.84.9,3.68.93,3.5.98,3.31,1.04,3.09,1.07,2.92,1.15,2.69,1.15,2.5,1.2,2.27,1.26,2.05,1.29,1.79,1.32,1.57,1.4,1.32,1.4,1.04,1.49.79,1.51.48,1.54.2,1.6-.14,1.6-.45,1.54-.72,1.54-1.01,1.51-1.26,1.46-1.54,1.37-1.77,1.41-1.99,1.34-2.21,1.32-2.47,1.29-2.67,1.24-2.86,1.2-3.09,1.18-3.28,1.12-3.45,1.09-3.65,1.04-3.81.98-4.01.95-4.15.93-4.29.84-4.46.81-4.6.76-4.74.7-4.85.65-4.99.56-5.08.53-5.21.45-5.3.39-5.41.34-5.47.28-5.58.17-5.64.14-5.64.03-5.56-.03-5.47-.11-5.41-.17-5.3-.22-5.22-.31-5.14-.4-4.99-.42-4.88-.51-4.74-.56-4.63-.62-4.46-.67-4.34-.76-4.18-.78-4.01-.81-3.84-.9-3.68-.95-3.48-.98-3.31-1.04-3.11-1.07-2.92-1.12-2.69-1.18-2.5-1.21-2.27-1.24-2.02-1.29-1.82-1.34-1.55-1.38-1.32-1.43-1.07-1.43-.76-1.52-.5-1.57-.17-1.57.14-1.6.42-1.57.73-1.54,1.01-1.49,1.29-1.46,1.51-1.43,1.76-1.4,2-1.35,2.24-1.32,2.44-1.26,2.67-1.26,2.88-1.21,3.09-1.15,3.26-1.12,3.48-1.09,3.65-1.07,3.81-.98,3.98-.95,4.15-.93,4.32-.84,4.46-.81,4.57-.76,4.74-.7,4.85-.62,4.99-.59,5.11-.53,5.19-.45,5.33-.39,5.39-.34,5.47-.25,5.55-.2,5.64-.11ZM110.15.87C49.81,1.74.75,15.21.98,30.8c.22,15.57,49.65,27.6,109.98,26.73,60.36-.87,109.43-14.31,109.17-29.91C219.91,12.03,170.51,0,110.15.87"/><polygon class="cls-2" points="45.75 19.16 46.52 12.25 33.86 12.25 30.37 44.92 35.09 44.92 36.51 31.86 43.38 31.86 44.08 25.39 37.19 25.39 37.86 19.16 45.75 19.16"/><polygon class="cls-2" points="51.34 16 47.12 16 44.05 44.91 55.13 44.91 55.79 38.79 48.91 38.79 51.34 16"/><polygon class="cls-2" points="64.53 16 60.67 26.39 58.81 16 54.51 16 58.02 33.61 56.83 44.91 61.05 44.91 62.19 33.97 69.36 16 64.53 16"/><polygon class="cls-2" points="81.09 12.25 75.84 32.62 74.93 12.25 70.18 12.25 72.1 44.92 77.12 44.92 86 12.25 81.09 12.25"/><polygon class="cls-2" points="97.42 22.12 98.05 16 86.12 16 83.05 44.92 95.08 44.92 95.74 38.79 87.89 38.79 88.52 32.89 95.68 32.89 96.3 27.16 89.14 27.16 89.68 22.12 97.42 22.12"/><path class="cls-2" d="M111.17,20.27c-.21-.99-.52-1.81-.92-2.44-.42-.66-.95-1.15-1.56-1.44-.55-.26-1.16-.39-1.81-.39-.07,0-.14,0-.18,0h-7.28l-3.07,28.91h4.18l1.18-10.92h2.47c.24,0,.45.03.64.1.14.05.28.16.39.34.15.21.26.51.35.88.09.4.14.93.14,1.57,0,.92-.03,1.87-.08,2.81-.06.96-.08,1.92-.08,2.86,0,.33.01.65.04.96.03.31.06.63.1.97l.05.43h4.16l-.11-.56c-.08-.39-.13-.87-.15-1.41-.03-.56-.04-1.14-.04-1.77,0-.85.02-1.72.05-2.59.03-.88.05-1.63.05-2.27,0-1.15-.1-2.2-.31-3.13-.16-.72-.44-1.3-.83-1.73.31-.18.6-.42.86-.72.43-.48.81-1.08,1.12-1.79.3-.69.54-1.49.71-2.39.17-.88.25-1.82.25-2.78,0-1.38-.1-2.57-.31-3.54M106.41,27.8c-.25.29-.53.51-.84.64-.32.14-.64.21-.98.21h-2.31l.74-6.92h2.49c.25,0,.49.03.72.09.18.05.34.15.48.31.16.18.3.47.41.85.11.42.17.99.17,1.71s-.08,1.37-.25,1.89c-.16.5-.37.91-.63,1.21"/><path class="cls-2" d="M123.79,29.06c.36-.43.66-.96.91-1.59.24-.62.43-1.32.55-2.09.12-.76.18-1.56.18-2.36,0-1.36-.11-2.5-.33-3.37-.23-.91-.57-1.64-1.01-2.18-.46-.56-1.03-.95-1.7-1.16-.63-.2-1.34-.3-2.11-.3h-6.47l-3.07,28.91h8.16c.82,0,1.61-.22,2.35-.67.72-.43,1.35-1.06,1.89-1.88.53-.8.96-1.8,1.27-2.99.31-1.18.46-2.56.46-4.1,0-1.4-.19-2.65-.57-3.73-.29-.81-.68-1.45-1.16-1.9.23-.15.45-.35.64-.59M118.75,32.46c.24,0,.5.02.75.07.19.03.36.12.52.27.18.17.34.43.46.78.13.37.2.9.2,1.57,0,1.4-.21,2.46-.62,3.14-.54.88-1.11.88-1.3.88h-3.34l.73-6.72h2.59ZM120.7,26.63c-.47.69-.9.69-1.03.69h-2.96l.6-5.58h2.83c.33,0,.56.12.76.39.14.18.36.68.36,1.99,0,1.13-.19,1.98-.55,2.51"/><polygon class="cls-2" points="128.24 16 125.14 44.91 129.34 44.91 132.45 16 128.24 16"/><polygon class="cls-2" points="145.42 22.12 146.05 16 134.12 16 131.05 44.92 143.08 44.92 143.74 38.79 135.89 38.79 136.52 32.89 143.68 32.89 144.3 27.16 137.14 27.16 137.68 22.12 145.42 22.12"/><path class="cls-2" d="M159.17,20.27c-.21-.99-.52-1.81-.92-2.44-.42-.66-.95-1.15-1.56-1.44-.55-.26-1.16-.39-1.81-.39-.07,0-.14,0-.18,0h-7.28l-3.07,28.91h4.18l1.18-10.92h2.47c.24,0,.45.03.64.1.15.05.28.16.4.34.15.21.26.51.35.88.09.4.14.93.14,1.57,0,.92-.03,1.87-.08,2.81-.05.96-.08,1.92-.08,2.86,0,.33.01.65.04.96.03.31.06.63.1.97l.05.43h4.16l-.11-.56c-.08-.39-.13-.87-.15-1.41-.03-.56-.04-1.14-.04-1.77,0-.85.02-1.72.05-2.59.03-.88.05-1.63.05-2.27,0-1.15-.1-2.2-.31-3.13-.16-.72-.44-1.3-.83-1.73.31-.18.6-.42.86-.72.43-.48.81-1.08,1.12-1.79.31-.69.54-1.49.71-2.39.16-.88.25-1.82.25-2.78,0-1.38-.1-2.57-.31-3.54M154.41,27.8c-.25.29-.53.51-.84.64-.31.14-.63.21-.98.21h-2.31l.74-6.92h2.49c.25,0,.49.03.72.09.18.05.34.15.49.31.16.18.3.47.4.85.12.42.17.99.17,1.71s-.08,1.37-.25,1.89c-.16.5-.37.91-.63,1.21"/><polygon class="cls-2" points="159.3 37.93 158.57 44.92 162.76 44.92 163.52 37.93 159.3 37.93"/><path class="cls-2" d="M179.68,26.67v-.47c.02-1.72-.12-3.26-.4-4.58-.29-1.33-.7-2.47-1.24-3.38-.55-.94-1.22-1.66-1.99-2.15-.79-.5-1.67-.75-2.6-.75-1.34,0-2.56.51-3.63,1.52-1.01.96-1.87,2.25-2.56,3.85-.68,1.58-1.21,3.42-1.58,5.48-.36,2.05-.54,4.25-.54,6.54,0,4.05.57,7.19,1.7,9.36,1.19,2.29,2.92,3.45,5.16,3.45.87,0,1.69-.22,2.43-.64.73-.42,1.39-1.09,1.97-2,.56-.88,1.06-2.03,1.5-3.41.44-1.37.82-3.07,1.14-5.03l.09-.55h-4.24l-.04.44c-.06.7-.19,1.38-.38,2.03-.19.64-.42,1.21-.7,1.69-.26.46-.56.82-.89,1.07-.68.54-1.42.39-1.93-.1-.35-.34-.65-.82-.88-1.42-.25-.63-.43-1.37-.55-2.2-.12-.83-.18-1.74-.18-2.68,0-1.31.09-2.67.27-4.04.18-1.36.46-2.61.83-3.72.36-1.08.82-1.96,1.37-2.63.49-.59,1.03-.88,1.66-.88.2,0,.8,0,1.37,1.04.43.81.65,2.05.65,3.69v.48h4.19Z"/><polygon class="cls-2" points="191.07 16 189.92 26.73 185.22 26.73 186.38 16 182.16 16 179.06 44.91 183.26 44.91 184.56 32.85 189.26 32.85 187.96 44.91 192.18 44.91 195.29 16 191.07 16"/></g></svg>