<?xml version="1.0" encoding="UTF-8"?><svg id="Calque_2" xmlns="http://www.w3.org/2000/svg" xmlns:xlink="http://www.w3.org/1999/xlink" viewBox="0 0 649.9 357.12"><defs><style>.cls-1{fill:none;}.cls-2{clip-path:url(#clippath-1);}.cls-3{clip-path:url(#clippath-3);}.cls-4{clip-path:url(#clippath-4);}.cls-5{clip-path:url(#clippath-2);}.cls-6{clip-path:url(#clippath-7);}.cls-7{clip-path:url(#clippath-6);}.cls-8{clip-path:url(#clippath-5);}.cls-9{fill:#555;}.cls-10{opacity:.43;}.cls-11{clip-path:url(#clippath);}</style><clipPath id="clippath"><path class="cls-1" d="M206.66,253.48c-2.3,3.9-4.55,7.95-7.38,11.47-1.98,2.47-4.68,4.7-7.51,6.2-4.45,2.34-7.66.19-7.25-4.81.23-3.23,1.01-6.54,2.34-9.49,4.98-11.35,10.27-22.54,15.46-33.76,1.03-2.24,2.17-4.41,3.65-7.38-5.57,0-10.33.06-15.1-.04-2.28-.02-3.73.84-4.77,2.97-1.41,2.89-3.12,5.59-4.7,8.39-.86-4.98-2.53-8.86-6.77-11.03-3.94-1.98-8.16-2.4-12.55-1.14-2.61.76-5.06,1.75-7.34,3.04-2.74,1.52-5.27,3.37-7.63,5.59-6.26,5.84-11.26,12.51-15.16,19.84-2.24,4.2-4.13,8.6-5.69,13.18-2.17,6.33-2.89,12.91-2.11,19.51.7,5.99,3.02,11.18,9.11,13.86,6.39,2.8,12.1,1.12,16.87-3.21,3.71-3.33,6.68-7.53,9.85-11.45,1.48-1.83,2.7-3.9,5.02-7.34,0,5.02.02,8.29-.04,11.54-.13,9.53,9.41,13.62,15.82,11.11,2.36-.89,4.85-1.73,6.81-3.25,12.27-9.22,19.93-21.76,25.81-35.68-3.31-1.67-5.19-.76-6.73,1.88ZM175.89,233.04c-2.3,12.95-7.78,26-19.4,35.85-.19.15-.4.32-.61.42-3.29,2.17-6.81,4.01-10.65,1.83-3.96-2.21-4.01-6.37-3.18-10.14,2.87-13.14,8.37-24.99,18.2-34.46,1.75-1.69,4.07-3.06,6.39-3.88,5.48-1.88,8.9.61,9.26,6.37.02.74,0,1.5,0,4.01Z"/></clipPath><clipPath id="clippath-1"><path class="cls-1" d="M363.83,92.48c-.29-2.83-3.74-4.51-4.11-7.33-3.26.5-6.94,1.27-8.67,4.08-1.01,1.65-1.13,3.68-1.22,5.61-.04.8-.07,1.61-.11,2.41-.06,1.44-.13,2.87-.19,4.31-.19,4.25-.38,8.5-.38,12.75,0,5.86.4,11.8,2.3,17.35,1.81,5.27,5.01,10.58,3.8,16.01-.53,2.38-1.91,4.7-1.44,7.1.51,2.58,3.18,4.34,5.8,4.44,2.63.1,5.14-1.16,7.19-2.8,4.75-3.81,7.52-9.73,8.28-15.77.68-5.44-.24-11.15-2.85-16-1.07-1.98-2.15-3.54-2.58-5.77-.49-2.51-.77-5.17-2.24-7.35-2-2.97-4-5.41-5.05-8.93-.39-1.31-.66-2.69-.4-4.03.4-2.1,2.07-3.95,1.85-6.07Z"/></clipPath><clipPath id="clippath-2"><path class="cls-1" d="M596.16,171.8c-2.74,1.09-5.64,2.62-7.59,4.73-6.21,6.66-11.99,13.68-19.23,22.06,3.53-.42,5.45-.21,6.87-.93,7.23-3.65,14.41-7.41,21.4-11.45,2.11-1.21,3.89-3.29,5.27-5.33,1.21-1.81,2.08-4.1.57-6.39-1.48-2.23-4.52-3.77-7.29-2.68Z"/></clipPath><clipPath id="clippath-3"><path class="cls-1" d="M233.07,63.74c2.93.57,6.6,2.68,7.99,5.25.7,1.18,1.08,2.53,1.69,3.73,1.29,2.47,3.23,3.14,4.98,5.25,1.1,1.22,1.79,3.06,1.22,4.6-.34,1.12-1.18,1.96-1.92,2.8-4.28,5.42-4.85,12.86-4.41,19.74.4,6.94,1.48,13.98-.44,20.62-.84,3.23-2.43,6.2-4.01,9.22,2.49-2.89,7.02-3.02,9.81-5.42,1.88-1.54,2.85-3.84,3.84-6.09,1.92-4.45,4.24-8.73,6.47-13.05,4.47-8.18,9.05-17.17,7.97-26.44-.53-4.28,5.36-5.19,8.33-7.3,1.58-1.05,5.88-4.43,7.82-2.47-.04,0-8.54,15.9-9.24,18.16-.84,2.8-1.62,6.31-.06,9.09,2.28,4.03,7.66,4.03,10.95,6.92,5.25,4.49,1.94,13.12-2.17,20.5,3.44-.42,6.92-.63,10.46-.63,4.34,0,8.84.34,13.35.97,6.87.95,13.24,2.61,19.15,5,.27-1.35.53-2.68.8-4.05,1.58-8.12,1.75-17.57,6.81-24.4l1.1-3.08c.99-2.19,1.29-4.77,1.08-7.17-.17-1.96-.23-4.15-.86-6.03-.49-1.56-1.52-2.97-1.9-4.56-.84-3.27-.76-6.18-.97-9.43-.23-3.44-1.96-7.3-2.89-10.61-.95-3.44-1.27-6.37-.34-9.74,1.96-7.02,2.93-14.83,2.32-22.08-.21-2.74-.84-5.48-.34-8.16.27-1.46,1.01-2.85,2.09-3.86.93-.89,1.92-.97,3.16-1.05,1.24-.13,2.51.38,3.44,1.14,2.13,1.75,2.93,4.3,3.99,6.73.93,2.13,1.9,4.24,2.89,6.35,1.98,4.07,4.09,8.22,6.94,11.79,1.41,1.81,4.15,4.91,6.75,3.29.27-.19.53-.42.74-.67,1.31-1.43,3.44-.63,6.24,1.31,2.38,1.64,5.48,3.1,6.54,6.05.36.86.42,1.81.42,2.76,0,1.24-.17,2.57-.17,3.82,0,1.86.38,3.63.84,5.55.21,1.27.57,2.55.84,3.9.32,1.41.7,2.85,1.29,4.11.78,1.64,2.02,3.06,2.72,4.7.78,1.94.8,4.11,1.12,6.2.17.91.27,1.75.8,2.47.49.78,1.33,1.24,2.09,1.69,2.34,1.41,4.93,2.66,7.19,4.26,2.09,1.43,3.23,3.75,4.47,5.93,2.66,4.85,4.62,10.02,5.84,15.29.46,1.86.82,3.8,1.58,5.48.67,1.46,1.64,2.76,2.32,4.15.74,1.54,1.1,3.23,1.62,4.79.74,2.21,1.86,4.34,3.1,6.39,2.13,3.33,5.15,6.5,5.57,10.5.04.32.06.63.06.97.02,1.35,1.48,2.21,2.72,1.69,1.62-.67,3.25-1.27,4.85-1.77,1.54-.49,2.19-2.21,1.5-3.63-.84-1.71-1.41-3.54-1.96-5.4-1.16-3.9-2.34-7.87-3.54-11.79-.3-.93-.57-1.9-.7-2.93-.15-1.71.23-3.48.23-5.23,0-4.62-3.1-8.63-5.23-12.72-2.02-3.9-2.99-7.91-3.69-12.27-.25-1.81-.44-2.3.76-3.73,1.14-1.39,2.4-2.11,2.4-4.13,0-1.6-.84-2.97-.86-4.56-.13-2.89,2.68-5.02,5.4-5.93,2.7-.97,5.69-1.31,8.03-2.93.53-.36.97-.78,1.54-.93,1.12-.32,2.21.36,3.31.42,2.59.27,4.98-2.26,7.4-1.54,1.2.3,1.98,1.27,2.7,2.13,1.1,1.37,2.09,2.78,3.37,3.8.76.53,1.6.8,2.26,1.39-1.01.57-1.98,1.1-2.85,1.81-6.45,5.61-7.72,7.51-6.45,8.65,1.69,1.67,5.12,2.74,9.22,3.65,5.84,1.48,12.48,2.97,15.25,5.5,8.18,2.38,12.06,3.69,12.06,3.69,0,.13-3.56,6.81-3.56,7.78,0,1.9.11,1.79,1.64,2.97,5.93,4.62,22.97,4.91,15.06,17.23-1.88,2.85-4.77,4.87-7.51,6.77-6.47,4.45-12.95,8.92-19.38,13.37-.21.15-.42.3-.59.42,5.5,2.53,9.91,5.97,13.37,10.44,4.07,5.34,5.97,11.73,5.63,18.07.04.57.46.97.91.97.4,0,.74-.25.89-.57.93-1.58,1.86-3.14,2.83-4.7,6.47-10.54,10.46-14.83,23.94-14.83h3.08c1.62.02,3.16.11,4.91.23l2.34.15c4.01.21,7.66,2.45,9.7,5.9,5-5.21,11.01-6.47,15.58-6.47,1.03,0,2.11.06,3.23.19.63.08,1.35.11,2.34.11.89,0,1.79-.02,2.76-.06,1.27-.02,2.57-.04,4.03-.04,4.3,0,8.29,2.28,10.44,6.01,2.15,3.75,2.13,8.35,0,12.1-1.5,2.49-2.87,4.87-4.26,7.19-1.14,1.98-2.3,3.88-3.4,5.78,1.1-.74,2.15-1.52,3.21-2.34,3.54-2.8,6.77-5.95,10.35-8.65,3.82-4.47,7.47-8.69,11.26-12.76.63-.65,1.31-1.29,1.98-1.9,5.19-4.49,13.2-8.5,20.2-6.47,3.37.97,6.81,1.71,10.33,2.02,3.21.27,6.45.11,9.55-.7,1.35-.34,3.04-.72,4.11-1.67,1.01-.93,2.05-1.75,3.16-2.55,2.28-1.75,4.3-3.69,6.12-5.82.86-1.08,1.69-2.38,1.33-3.67-.21-.8-.84-1.39-1.52-1.96-14.42-12.76-32.64-20.14-50.49-27.29-6.26-2.47-12.46-4.96-18.68-7.44-2.53-1.08-5.12-2.07-7.4-3.44-3.42-1.98-6.33-4.64-9.7-6.64-1.88-1.03-3.84-1.9-5.76-2.87-9.47-4.91-17.88-12.48-26.55-18.66-.97-.74-1.94-1.41-3.06-1.86-2.24-.97-4.79-.8-7.25-1.12-3.9-.57-7.57-2.38-10.44-5.17-2.13-2.13-3.82-4.85-6.66-6.07-3.12-1.33-6.75-.46-10.12.36-3.61.84-7.23,1.5-10.88,1.96-1.5.17-3.04.51-4.53.8-1.67.27-3.42-.36-4.98-.8-5.12-1.58-10.61-2.09-15.99-1.54-1.37.17-2.85.42-4.3.3-1.14-.06-2.66-.36-3.52-1.14-.67-.61-.84-1.48-1.67-2.05-.63-.46-1.41-.7-2.17-.95-4.07-1.22-8.6-2-12.84-1.41-4.11.57-8.31,2.26-12.51,1.2-.44-.08-.84-.23-1.14-.51-.3-.34-.55-.72-.76-1.24-.08-.15-.17-.25-.23-.42-1.31-2.21-3.37-3.46-4.72-5.5-1.5-2.19-2.72-4.49-4.81-6.05-3.16-2.32-6.87-3.75-10.76-4.01-1.08-.06-2.17-.06-3.02-.63-1.62-.84-1.96-2.93-3.04-4.47-2.05-2.74-6.24-2.89-9.17-4.83-1.71-1.08-2.97-2.83-4.75-3.94-2.51-1.56-5.67-1.75-8.39-2.95-3.73-1.64-6.33-5.06-8.88-8.22-4.13-5.15-8.77-10-13.73-14.4-1.52-1.35-3.16-2.78-5.1-3.31-1.96-.57-4.07-.36-6.09-.13-5.8.65-11.73,1.35-17.04,3.88-7.25,3.37-12.59,9.87-17.27,16.41-3.58,4.98-6.9,10.19-11.05,14.7-2.19,2.32-3.86,3.9-6.94,4.62-3.06.65-6.12.8-9.15.84-6.69.13-13.39.3-20.06,0-2.47-.08-4.89-.27-7.23.57-1.5.57-2.85,1.54-4.37,2.19-1.62.67-3.44.97-5.19,1.48-3.96,1.1-7.23,3.5-11.05,4.74-3.94,1.22-7.78,4.34-11.43,6.41-1.54.89-3.06,1.75-4.64,2.61-6.45,3.56-13.1,6.85-20.01,9.38-2.76,1.03-5.65,1.92-8.56,1.5-1.94-.3-3.88-1.31-5.78-1.9-5.61-1.62-11.51.19-16.93,2.17-5.46,1.96-11.09,4.2-16.85,3.59-8.86-.95-13.43-3.96-22.25-1.35-14.83,4.41-29.63,11.58-44.26,17.5-7.78,3.16-15.65,6.07-23.75,8.14-6.45,1.62-17.88,1.12-22.61,6.64-1.52,1.77-1.29,4.37-.86,6.6,1.5,7.97,4.74,15.56,9.49,22.21,2.26,3.18,3.67,5.5,7.53,6.9,3.71,1.35,7.78,1.56,11.68,1.35,4.83-.25,9.6-1.08,14.42-.86,4.18.19,8.33,1.03,12.32,2.32,7.42,2.45,14.11,6.75,19.23,12.65,5.29,6.12,8.35,12.93,9,19.99.3-.36.61-.76.91-1.12,9.49-11.6,20.79-19.17,33.55-22.52,2.8-.72,5.65-1.08,8.46-1.08,9.34,0,17.38,3.9,22.52,10.23,1.14,1.39,3.4.53,3.25-1.29l-.3-3.9c-.19-1.52-.57-3.06-.25-4.49,1.22-6.22,11.24-8.54,15.56-12.04,6.77-5.5,11.79-13.2,15.27-21.11,2.07-4.68,3.16-9.74,6.73-13.67,3.16-3.5,7.91-5.25,11.07-8.84,5.5-6.41,8.1-18.49,11.54-26.23,1.41-3.23,2.93-6.37,6.54-5.74ZM488.37,86.13c2.51.15,3.46.57,5.25,2.09,3.88,3.27,7.32,6.62,10.33,10.82,1.54.84,3.16,1.58,4.7,2.47,3.1,1.86,5.61,4.51,8.79,6.14,3.1,1.67,4.15,5.69,6.6,8.14.91.89,1.96,1.58,3.06,2.3,3.06,2.02,6.28,4.01,8.94,6.6.63.59,1.27,1.29,1.81,2.02-1.69.65-3.5,1.01-5.31,1.01-2.47-.06-4.93-.78-7.44-.78-1.33,0-2.66.15-3.96.02-4.22-.25-8.48-2.11-12.29-3.69-2.78-1.16-5.46-2.7-7.09-5.25-.7-.97-1.16-2.09-1.73-3.08-1.43-2.55-3.71-4.58-4.66-7.3-.27-.91-.46-1.92-.97-2.7-.91-1.31-2.47-1.81-3.71-2.8-1.54-1.24-2.19-3.16-2.95-4.91-.72-1.75-1.71-3.37-2.66-5-1.16-2.24-3.73-3.48-4.74-5.69,0,0,7.32-.46,8.03-.4ZM204.6,84.78c-.4.78-1.05,1.29-1.73,1.75-6.62,4.43-13.71,8.03-20.29,12.61-6.5,4.49-12.59,10.08-15.96,17.25-.63,1.29-1.24,2.76-2.36,3.67-1.33.99-3.06,1.12-4.7,1.27-6.98.76-13.79,2.72-20.06,5.88-2.87,1.39-5.19,3.44-8.39,3.58-1.71.15-3.33.08-4.96-.21-.8-.08-3.65-1.56-4.24-1.41,8.69-2.99,13.69-11.77,20.54-17.84,1.5-1.41,3.12-2.66,4.87-3.8,3.71-2.51,7.84-4.56,11.92-6.52,0-.76,9.3-4.93,10.4-5.55,3.4-1.96,6.77-3.94,10.21-5.78,7.21-3.96,14.38-5.38,22.4-7.19.67-.17,1.39-.25,1.9.06.76.46.84,1.48.46,2.21Z"/></clipPath><clipPath id="clippath-4"><path class="cls-1" d="M444.48,186.56c-.69.42-1.27,1.02-2.05,1.66,5.49,3.62,10.82,4.28,14.8,2.23,2.26-1.12,4.04-3.13,5.18-5.97,2.08-5.18,1.6-10.43-1.99-15.1-1.93-2.5-4.28-4.4-6.9-5.82-1.96-1.12-4.1-1.96-6.33-2.62-6.18-1.84-12.12-2.05-17.81-.99-5.15.96-10.1,2.95-14.92,5.73-.48.27-.93.54-1.42.84-9.82,6.03-18.02,13.95-25.35,22.78-14.83,17.81-26.91,37.4-37.04,58.23-1.48,3.01-3.26,5.88-4.88,8.8-.42-.18-.84-.39-1.27-.57.42-1.63.72-3.25,1.27-4.82,4.49-13.47,8.56-27,10.01-41.2,1.87-18.32-2.44-34.81-14.86-48.58-5.7-6.33-12.27-10.94-19.65-14.13-5.61-2.47-11.69-4.1-18.17-5-10.76-1.51-20.95-.99-30.53,1.72-8.62,2.44-16.76,6.66-24.32,12.78-14.71,11.87-22.24,31.92-14.68,51.2,10.19,26.04,44.3,35.38,67.69,18.87,8.2-5.79,11.27-14.1,9.61-24.02-1.12-6.66-6.96-11.81-13.71-12.21-4.73-.27-7.66,1.57-9.58,6.24,6.12-.15,10.16,2.56,12.09,8.41,1.93,5.88.54,11.21-3.41,15.52-2.29,2.47-5.55,4.49-8.74,5.67-12.75,4.61-32.01-3.44-37.67-20.22-6.3-18.69,1.81-40.51,18.96-50.84,2.65-1.6,5.36-2.89,8.11-3.89,9.31-3.5,19.05-3.59,29.14-.72,2.68.75,5.18,1.69,7.53,2.77,10.7,4.97,17.87,13.5,20.76,26.01,1.33,5.88,2.62,12.09,2.14,17.99-.9,11.57-2.59,23.15-4.82,34.54-3.89,19.95-10.46,39.09-20.07,57.86,9.1,0,17.69-.12,26.28.09,3.1.09,3.89-1.84,4.67-3.98,8.32-23.27,19.83-44.94,33.09-65.7,8.35-13.05,17.48-25.56,28.75-36.26,4.22-4.01,8.62-7.9,13.5-10.94,3.07-1.96,6.36-3.53,9.92-4.64,1.12-.36,2.26-.66,3.44-.9,2.95-.6,6.09-1.02,9.01-.57,4.91.75,8.11,3.98,9.22,8.92,1.06,4.82-.72,8.44-5,10.85Z"/></clipPath><clipPath id="clippath-5"><path class="cls-1" d="M583.32,270.56c.89,2.8,1.39,5,2.19,7.11,2.97,7.53,8.25,11.94,16.55,12.36,5.95.3,11.66-.44,16.98-3.25,13.92-7.44,23.87-18.6,30.56-32.79.36-.78.21-1.81.3-2.72-1.22-.11-2.61-.63-3.61-.21-1.03.42-1.73,1.73-2.49,2.72-2.07,2.87-3.82,6.03-6.2,8.63-6.2,6.71-13.5,11.54-23.18,11.11-5.34-.23-9.97-4.15-10.9-8.98-.91-4.64.15-6.24,4.93-7.32,1.73-.42,3.5-.61,5.25-.99,11.26-2.51,20.71-8.06,27.82-17.25,3.02-3.92,4.85-8.2,4.81-13.33,0-4.66-2.07-7.8-6.2-9.51-5-2.05-10.16-2.72-15.58-1.12-6.71,1.98-12.44,5.55-17.57,10.21-8.37,7.66-14.38,16.98-19.44,27.01-1.77,3.59-3.75,7.25-6.41,10.21-6.12,6.81-13.54,11.56-23.22,11.07-5.65-.3-10.27-4.62-10.84-9.85-.49-4.22.27-5.31,4.43-6.31,1.71-.42,3.46-.7,5.21-1.03,11.6-2.38,21.22-8.03,28.51-17.48,3.02-3.88,4.79-8.22,4.77-13.31-.02-4.7-2.19-7.8-6.33-9.45-5-2.05-10.19-2.68-15.58-1.05-6.73,2.02-12.42,5.61-17.55,10.29-8.98,8.16-15.18,18.26-20.43,29.04-3.02,6.28-6.83,11.89-12.57,15.99-2.34,1.71-5.15,2.53-7.82.97-3.02-1.73-2.66-4.83-1.94-7.51,1.27-4.62,2.64-9.26,4.43-13.71,6.73-16.53,14.78-32.37,23.3-48.02,1.41-2.59,2.87-5.21,4.32-7.8,3.8-6.85,7.82-13.54,12.32-21.26-4.07,0-7.32.32-10.52-.06-5.12-.59-8.46,1.18-10.99,5.8-5.69,10.35-11.98,20.43-17.59,30.83-.74,1.41-1.5,2.83-2.21,4.24-6.58,12.84-12.27,26.13-18.24,39.27-2.89,6.31-6.56,12-12,16.43-2.68,2.17-5.82,3.69-9.07,1.69-3.23-1.96-2.4-5.29-1.6-8.25,1.12-3.9,2.3-7.78,3.75-11.56,5.42-13.83,11.89-27.12,18.9-40.19,2.97-5.74,6.12-11.39,9.24-17.06,3.77-6.81,7.82-13.5,12-20.77-2.62-.15-4.6-.32-6.6-.36-10.97-.08-11.03-.11-16.7,9.07-4.45,7.3-8.73,14.68-12.82,22.19-8.06,14.74-15.31,29.88-21.7,45.45-2.3,5.55-5.46,10.86-8.9,15.8-1.77,2.53-4.79,4.56-7.66,5.95-3.73,1.81-6.81-.27-6.56-4.37.21-3.48.93-7.13,2.34-10.29,5.19-11.81,10.76-23.45,16.17-35.18.82-1.71,1.64-3.42,2.85-5.93-5.34,0-9.89.13-14.4-.06-2.99-.13-4.62,1.18-5.86,3.73-1.22,2.64-2.85,5.06-4.68,8.27-2.59-11.43-9.03-15.44-19.02-12.72-.25.08-.49.21-.74.27-5.55,1.43-10.14,4.51-14.21,8.44-11.3,10.78-18.9,23.75-22.27,39.01-1.27,5.74-1.1,11.49.23,17.31,1.9,8.46,12.63,15.16,22.31,8.65,3.88-2.61,7.13-6.37,10.27-9.97,2.45-2.8,4.26-6.18,7.38-10.88,0,4.66-.08,7.59,0,10.52.36,10.57,7.72,15.33,17.69,11.62,4.91-1.79,8.63-5.23,12.17-8.86,1.86-1.92,3.69-3.88,6.09-6.47.36,2.13.57,3.1.7,4.09,1.39,10.57,9.28,15.42,19.04,11.01,4.26-1.94,7.84-5.4,11.56-8.41,2.26-1.86,4.15-4.18,6.85-6.98.34,2.4.53,3.65.67,4.87,1.29,9.74,8.77,14.4,18.05,10.92,3.02-1.12,5.99-2.85,8.37-4.98,4.32-3.9,8.14-8.29,12.72-13.03.76,2.15,1.33,3.8,1.96,5.44,3.06,7.89,8.56,12.25,17.21,12.59,6.52.23,12.76-.76,18.16-4.41,5-3.4,9.64-7.34,14.4-11.09,1.48-1.16,2.76-2.53,4.45-4.03ZM619.47,227.6c3.02-3.12,6.5-5.76,10.97-6.43,5.42-.82,7.68,2,5.84,7.11-.17.49-.34.97-.55,1.41-4.51,9.83-18.16,19.99-30.22,21.97,2.76-9.7,7.57-17.36,13.96-24.06ZM568.73,223.36c2.21-1.41,5.19-2.02,7.84-2.17,2.95-.19,4.72,2.32,3.94,5.15-.57,2.17-1.5,4.41-2.8,6.18-6.77,9.24-15.25,16.26-26.51,19.32-.4.11-.91-.3-1.94-.67,3.69-11.28,9.26-21.19,19.46-27.79ZM404.87,268.83c-.17.17-.38.32-.59.42-3.29,2.17-6.81,4.07-10.65,1.96-4.34-2.4-4.09-6.87-3.16-10.84,2.8-12.34,8.01-23.47,16.91-32.71,1.2-1.27,2.55-2.47,4.01-3.44,3.1-2.05,6.54-3.16,10.02-1.2,3.18,1.81,2.85,5.1,2.95,8.27-2.38,14.61-7.84,27.67-19.49,37.54Z"/></clipPath><clipPath id="clippath-6"><path class="cls-1" d="M182.98,306.18c-6.45-2.05-10.92-.27-14.53,5.97,1.08.19,2.05.3,3.02.49,6.83,1.12,10.73,4.64,11.47,11.22.67,5.99-1.9,10.99-6.56,14.61-6.64,5.15-14.17,6.33-22.31,4.32-10.35-2.55-18.83-8.54-26.99-15.06-17.46-13.9-33.15-29.92-51.96-42.16-2.59-1.67-2.59-2.57.08-5.46,6.54-7.17,11.85-15.14,16.58-23.6,1.16-2.05,3.1-4.15,5.21-5.1,9.32-4.09,17.8-9.45,25.5-15.88,2.02-1.64,3.99-3.4,5.93-5.21,6.83-6.45,12.82-13.48,17.65-21.26,3.5-5.65,6.39-11.7,8.54-18.26,1.16-3.54,2.07-7.44,2.13-11.13v-.74c-.15-10.76-10.48-17.42-21.91-14.42-11.24,2.91-20.01,9.62-27.25,18.43-2.24,2.72-4.3,5.55-6.2,8.46-6.66,9.97-11.58,20.86-15.44,32.31-2.45,7.17-4.56,14.47-6.96,21.66-1.75,5.27-1.88,5.17-7.53,5.42-9.09.42-17.8-1.41-25.83-5.29-24.21-11.66-34.33-32.67-26.89-57.57,3.92-13.07,12.42-22.48,25.98-26.61,3.14-.93,6.35-1.27,9.47-1.05,6.14.46,11.89,3.08,15.63,7.42,2.95,3.4,4.01,7.59,3.59,11.58-.65,6.9-5.69,13.14-12.76,13.5-1.12.06-2.24.38-3.9.7,2.95,5.61,7.28,7.11,12.4,6.14,6.9-1.33,12.02-5.17,14.66-11.89.13-.27.23-.57.32-.84,2.95-8.41.84-15.88-4.89-22.48-6.35-7.3-14.91-10.38-24.25-11.03-2.53-.19-5-.19-7.44,0-10.48.72-19.95,4.74-28.55,11.6-15.9,12.65-22.27,31.11-17.29,51.69,4.2,17.44,16.62,28.05,32.46,34.8,10.1,4.34,20.79,6.28,31.82,6.37,2.45,0,5.1-.89,7.91,1.35-2.4,4.58-4.62,9.41-7.38,13.88-3.48,5.63-3.77,5.42-10.46,3.61-10.27-2.83-20.56-2.83-30.66.84-4.58,1.67-8.73,4.11-10.92,8.79-2.38,5.12-.84,9.83,4.45,11.79,3.52,1.31,7.38,2.15,11.09,2.24,10.59.27,20.58-2.24,29.86-7.42,5.27-2.95,5.65-3.12,9.51,1.43,6.6,7.7,12.89,15.67,19,23.75,6.6,8.73,13.62,17.06,21.74,24.38,17.29,15.61,42.39,19.65,63.56,7.99,9.07-4.98,16.79-11.49,20.37-21.68,3.37-9.64-1.52-19.55-11.03-22.54ZM116.57,201.18c2.15-4.28,4.43-8.5,6.87-12.65,2.3-3.86,5.21-7.44,8.14-10.88,1.46-1.69,3.44-3.04,5.42-4.07,4.68-2.38,8.2-.44,8.35,4.66.08,2.99-.3,6.14-1.14,8.96-1.62,5.5-3.84,10.67-6.52,15.52-5.76,10.59-13.69,19.68-22.78,28.01-4.26,3.86-9.07,7.06-13.67,10.61-.42-.4-.84-.8-1.27-1.18,5.23-13.14,10.31-26.32,16.58-38.97ZM36.79,290.22c-2.15-.06-4.01-.95-4.47-3.27-.53-2.43,1.14-3.82,3.1-4.51,6.54-2.24,13.01-3.21,19.74,1.5-5.67,4.77-11.7,6.43-18.37,6.28Z"/></clipPath><clipPath id="clippath-7"><path class="cls-1" d="M647.73,345.6c-.93,1.05-2.02,1.9-3.29,2.56-1.24.69-2.53,1.02-3.89,1.02-2.14,0-3.53-.72-4.1-2.2-.57-1.45-.87-3.53-.87-6.18v-22.78h13.8v-5.06h-13.8v-11.69h-7.41c-.18,3.25-1.21,6.03-3.04,8.35-1.87,2.29-4.49,3.47-7.87,3.53v4.88h5.42v26.34c0,3.98,1.05,7.08,3.16,9.34.64.68,1.36,1.24,2.15,1.72h-10.55v-3.56c-1.27,0-2.5-.27-3.68-.87-1.15-.57-1.75-1.78-1.75-3.65v-22.24c0-4.13-1.21-7.47-3.65-9.98-2.44-2.47-5.7-3.74-9.76-3.74-3.32,0-6.21.81-8.65,2.41-2.44,1.6-4.37,3.65-5.76,6.15h-.6l-2.62-8.38-14.77,4.37v3.65c1.93,0,3.32.39,4.16,1.15.84.75,1.27,2.05,1.27,3.92v22.69c0,1.87-.57,3.07-1.75,3.65-1.18.6-2.38.87-3.68.87v3.56h-11.69l9.89-3.19v-3.69c-2.11.25-3.56-.02-4.39-.8-.8-.78-1.22-2.38-1.22-4.77v-14.49c0-5.82-1.54-10.1-4.62-12.91-3.08-2.8-7.13-4.2-12.15-4.2s-8.88,1.22-12.21,3.63c-3.31,2.4-5.5,5.97-6.62,10.61l4.2,1.05c.86-2.61,2.17-4.58,3.88-5.9,1.73-1.31,3.88-1.96,6.52-1.96,3.31,0,5.48.93,6.56,2.8,1.1,1.86,1.62,4.18,1.62,6.96v2.09c-5.17,1.14-9.38,2.32-12.74,3.52-3.73,1.33-6.58,3.02-8.5,5-1.96,2.02-2.93,4.49-2.93,7.47,0,3.27,1.03,5.76,3.12,7.55.55.48,1.15.88,1.78,1.23h-15.98v-3.56c-1.51,0-2.98-.27-4.46-.87-1.45-.57-2.17-1.78-2.17-3.65v-16.58c.3-1.42.84-2.71,1.66-3.89.81-1.21,1.81-2.17,2.98-2.89,1.15-.72,2.35-1.08,3.56-1.08,1.57,0,2.71.33,3.41.99.69.69,1.21,1.69,1.48,3.01h3.32v-14.23c-.51-.33-1.24-.63-2.14-.9-.9-.27-1.75-.39-2.56-.39-3.44,0-6.09,1.12-7.99,3.35-1.9,2.26-3.26,4.88-4.07,7.9h-.6l-1.93-11.06-15.43,4.37v3.65c1.93,0,3.28.39,4.16,1.15.84.75,1.27,2.05,1.27,3.92v22.69c0,1.87-.6,3.07-1.75,3.65-1.18.6-2.41.87-3.68.87v3.56h-12.54l10.28-3.11v-3.68c-1.93.06-3.32-.3-4.16-1.08-.84-.78-1.27-2.08-1.27-3.89v-30.71h-3.65l-14.68,3.68v3.65c1.36,0,2.41.15,3.19.39.78.27,1.36.78,1.69,1.57.36.81.54,1.99.54,3.56v17.54c-.75,1.51-1.78,2.68-3.07,3.56-1.27.87-2.74,1.33-4.43,1.33-3.92,0-5.85-2.5-5.85-7.5v-27.76h-3.68l-14.65,3.68v3.65c1.33,0,2.38.15,3.13.39.75.27,1.33.78,1.69,1.57.39.81.57,1.99.57,3.56v17.36c0,4.13,1.18,7.44,3.53,9.95.92.96,1.95,1.73,3.09,2.32h-22.43l9.87-3.19v-3.69c-2.07.25-3.52-.02-4.34-.8-.8-.78-1.22-2.38-1.22-4.77v-14.49c0-5.82-1.54-10.1-4.62-12.91-3.1-2.8-7.13-4.2-12.15-4.2s-8.88,1.22-12.19,3.63c-3.33,2.4-5.55,5.97-6.64,10.61l4.2,1.05c.86-2.61,2.17-4.58,3.88-5.9,1.69-1.31,3.86-1.96,6.47-1.96,3.33,0,5.53.93,6.6,2.8,1.1,1.86,1.6,4.18,1.6,6.96v2.09c-5.19,1.14-9.41,2.32-12.72,3.52-3.73,1.33-6.58,3.02-8.5,5-1.96,2.02-2.93,4.49-2.93,7.47,0,3.27,1.03,5.76,3.08,7.55.56.48,1.17.88,1.81,1.23h-14.54c.38-.18.76-.34,1.14-.54,2.71-1.48,4.97-3.59,6.78-6.33l-2.2-2.95c-.93,1.05-2.02,1.9-3.25,2.56-1.27.69-2.56,1.02-3.89,1.02-2.17,0-3.53-.72-4.1-2.2-.6-1.45-.87-3.53-.87-6.18v-22.78h13.77v-5.06h-13.77v-11.69h-7.41c-.18,3.25-1.21,6.03-3.07,8.35-1.84,2.29-4.46,3.47-7.84,3.53v4.88h5.39v26.34c0,3.98,1.05,7.08,3.19,9.34.63.68,1.35,1.24,2.13,1.72h-21.93c.33-.12.68-.22,1-.36,2.74-1.18,4.82-2.86,6.24-5.06,1.42-2.17,2.14-4.61,2.14-7.29,0-2.83-.72-5.18-2.17-7.05-1.48-1.87-3.19-3.32-5.21-4.37-1.99-1.05-4.61-2.17-7.81-3.41-2.14-.75-3.83-1.42-5.06-1.99-1.21-.6-2.23-1.27-3.01-2.05-.78-.78-1.18-1.75-1.18-2.86,0-1.45.66-2.59,2.02-3.44,1.33-.84,3.16-1.27,5.49-1.27,2.86,0,5.18.84,6.93,2.53,1.78,1.69,2.8,4.28,3.01,7.78h3.77l1.06-11.6c-1.69-.99-3.86-1.84-6.51-2.53-2.65-.69-5.39-1.05-8.26-1.05-3.77,0-7.02.66-9.73,1.96-2.68,1.33-4.73,3.04-6.15,5.24-1.39,2.17-2.08,4.52-2.08,7.02,0,2.68.69,4.91,2.08,6.66,1.42,1.78,3.07,3.16,5.03,4.16,1.93.99,4.49,2.05,7.62,3.22,2.26.87,4.01,1.6,5.24,2.17,1.21.6,2.23,1.3,3.04,2.14.81.84,1.24,1.87,1.24,3.01,0,1.51-.75,2.68-2.23,3.5-1.48.81-3.41,1.24-5.73,1.24-3.13,0-5.79-.93-7.93-2.77-2.17-1.81-3.38-4.67-3.68-8.5h-3.74l-1.42,12.06c2,1.16,4.34,2.14,7.05,2.93h-21.66c1.15-.44,2.26-.98,3.3-1.63,3.29-2.02,6.01-5.21,8.08-9.51l-3.23-2.09c-1.33,2.55-3.02,4.41-5,5.55-2.02,1.14-4.22,1.69-6.6,1.69-4.24,0-7.51-1.52-9.83-4.58-2.13-2.85-3.25-6.73-3.4-11.73h28.05c.06-4.7-.65-8.71-2.21-11.98-1.54-3.25-3.75-5.69-6.64-7.32-2.87-1.62-6.26-2.45-10.14-2.45-4.32,0-8.14,1.01-11.51,2.95-3.37,2-6.01,4.74-7.87,8.27-1.86,3.52-2.78,7.53-2.78,12s.93,8.39,2.83,11.79c1.9,3.37,4.47,5.97,7.78,7.76.91.5,1.86.92,2.84,1.27h-13.72v-3.89c-1.98-.55-3.61-1.6-4.87-3.21-1.31-1.58-2.72-3.94-4.28-7.02-1.52-2.89-2.93-5.27-4.2-7.04-1.29-1.81-2.97-3.37-5.08-4.72-2.15-1.33-4.83-1.68-4.83-1.68v-.59c7.26-1.59,9.29-2.29,12.44-5.32,3.21-3.09,5.06-6.45,5.06-10.65,0-4.77-1.86-8.65-5.63-11.64-3.73-2.99-9.43-4.51-17.06-4.51h-30.43v4.05c2.38,0,4.22.51,5.48,1.56,1.29,1.01,1.92,2.34,1.92,3.92v41.33c0,1.6-.63,2.91-1.92,3.96-1.27,1.01-3.1,1.56-5.48,1.56v4.01h72.94c2.46.85,5.14,1.29,8.04,1.29,2.75,0,5.3-.43,7.66-1.29h22.36c.1.03.2.06.3.09,2.98.81,6.12,1.21,9.37,1.21s6.07-.44,8.53-1.3h22.45c1.78,1.03,3.92,1.57,6.44,1.57s4.82-.53,7.11-1.57h15.02c1.67.86,3.59,1.29,5.76,1.29s4.17-.42,6.01-1.29h10.94l.51,1.29,3.98-1.29h23.06c1.77.86,3.81,1.3,6.15,1.3s4.4-.43,6.29-1.3h10.13l.4,1.24,4.09-1.24h12.94s24.95,0,24.95,0h0s16.22,0,16.22,0c1.66.86,3.58,1.29,5.79,1.29s4.14-.42,5.98-1.29h10.95l.51,1.29,3.98-1.29h12.06s23.75,0,23.75,0h0s3.74,0,3.74,0h0s23.75,0,23.75,0h0s10.75,0,10.75,0c1.79,1.03,3.92,1.57,6.43,1.57,2.98,0,5.82-.72,8.53-2.23,2.68-1.48,4.94-3.59,6.75-6.33l-2.17-2.95ZM289.79,321.47c1.52-2.53,3.69-3.8,6.54-3.8,2.61,0,4.53,1.2,5.78,3.58,1.03,2.05,1.54,4.6,1.54,7.68h-15.99c.25-3.04.97-5.55,2.13-7.47ZM244.93,355.43v-3.89c-2.89,0-5.12-.55-6.62-1.56-1.52-1.05-2.28-2.36-2.28-3.96v-45.61h4.43c3.63,0,6.73.78,9.36,2.32,2.62,1.54,4.51,4.66,4.51,9.36s-.96,7.87-3.61,9.45c-1.09.64-2.27,1.15-3.53,1.53-2.84.84-5.68,3.52-5.68,6.49.44.11.89.25,1.29.44,1.31.57,2.57,1.69,3.84,3.31,1.24,1.62,2.59,4.01,4.05,7.15,1.74,3.77,3.64,8.77,5.72,14.98h-11.47ZM404.09,339.25c.89-1.05,2.3-1.98,4.28-2.8,1.6-.65,3.65-1.33,6.18-2.02v9.7c-.76,1.03-1.75,1.9-2.97,2.57-1.27.65-2.57.99-3.9.99-1.62,0-2.87-.42-3.67-1.29-.82-.89-1.2-2.07-1.2-3.5s.42-2.64,1.29-3.65ZM407.51,355.43c.52-.25,1.04-.53,1.53-.85,2.28-1.5,4.22-3.61,5.78-6.35h.51l2.86,7.2h-10.68ZM458.45,355.43c.58-.28,1.15-.6,1.7-.97,2.35-1.6,4.16-3.5,5.36-5.73h.63l2.16,6.69h-9.85ZM535.49,339.25c.89-1.05,2.32-1.98,4.28-2.8,1.6-.65,3.67-1.33,6.2-2.02v9.7c-.74,1.03-1.77,1.9-2.99,2.57-1.27.65-2.57.99-3.9.99-1.62,0-2.87-.42-3.67-1.29-.82-.89-1.2-2.07-1.2-3.5s.42-2.64,1.29-3.65ZM538.92,355.43c.52-.25,1.03-.53,1.53-.85,2.28-1.5,4.22-3.61,5.78-6.35h.55l2.84,7.2h-10.69ZM589.96,355.43v-3.56c-1.3,0-2.5-.27-3.68-.87-1.15-.57-1.75-1.78-1.75-3.65v-22.09c.84-1.45,2.02-2.62,3.65-3.53,1.6-.9,3.26-1.36,5-1.36,3.95,0,5.94,2.5,5.94,7.5v19.47c0,1.87-.57,3.07-1.75,3.65-1.18.6-2.38.87-3.68.87v3.56h-3.74Z"/></clipPath><image id="image" width="2480" height="3508" xlink:href="../../../../Downloads/paper1-trans-white.png"/></defs><g id="Calque_1-2"><path class="cls-9" d="M637.44,146.66c-.21-.8-.84-1.39-1.52-1.96-14.42-12.76-32.64-20.14-50.49-27.29-6.26-2.47-12.46-4.96-18.68-7.44-2.53-1.08-5.12-2.07-7.4-3.44-3.42-1.98-6.33-4.64-9.7-6.64-1.88-1.03-3.84-1.9-5.76-2.87-9.47-4.91-17.88-12.48-26.55-18.66-.97-.74-1.94-1.41-3.06-1.86-2.24-.97-4.79-.8-7.25-1.12-3.9-.57-7.57-2.38-10.44-5.17-2.13-2.13-3.82-4.85-6.66-6.07-3.12-1.33-6.75-.46-10.12.36-3.61.84-7.23,1.5-10.88,1.96-1.5.17-3.04.51-4.53.8-1.67.27-3.42-.36-4.98-.8-5.12-1.58-10.61-2.09-15.99-1.54-1.37.17-2.85.42-4.3.3-1.14-.06-2.66-.36-3.52-1.14-.67-.61-.84-1.48-1.67-2.05-.63-.46-1.41-.7-2.17-.95-4.07-1.22-8.6-2-12.84-1.41-4.11.57-8.31,2.26-12.51,1.2-.44-.08-.84-.23-1.14-.51-.3-.34-.55-.72-.76-1.24-.08-.15-.17-.25-.23-.42-1.31-2.21-3.37-3.46-4.72-5.5-1.5-2.19-2.72-4.49-4.81-6.05-3.16-2.32-6.87-3.75-10.76-4.01-1.08-.06-2.17-.06-3.02-.63-1.62-.84-1.96-2.93-3.04-4.47-2.05-2.74-6.24-2.89-9.17-4.83-1.71-1.08-2.97-2.83-4.74-3.94-2.51-1.56-5.67-1.75-8.39-2.95-3.73-1.64-6.33-5.06-8.88-8.22-4.13-5.15-8.77-10-13.73-14.4-1.52-1.35-3.16-2.78-5.1-3.31-1.96-.57-4.07-.36-6.09-.13-5.8.65-11.73,1.35-17.04,3.88-7.25,3.37-12.59,9.87-17.27,16.41-3.58,4.98-6.9,10.19-11.05,14.7-2.19,2.32-3.86,3.9-6.94,4.62-3.06.65-6.12.8-9.15.84-6.69.13-13.39.3-20.06,0-2.47-.08-4.89-.27-7.23.57-1.5.57-2.85,1.54-4.37,2.19-1.62.67-3.44.97-5.19,1.48-3.96,1.1-7.23,3.5-11.05,4.74-3.94,1.22-7.78,4.34-11.43,6.41-1.54.89-3.06,1.75-4.64,2.61-6.45,3.56-13.1,6.85-20.01,9.38-2.76,1.03-5.65,1.92-8.56,1.5-1.94-.3-3.88-1.31-5.78-1.9-5.61-1.62-11.51.19-16.93,2.17-5.46,1.96-11.09,4.2-16.85,3.59-8.86-.95-13.43-3.96-22.25-1.35-14.83,4.41-29.63,11.58-44.26,17.5-7.78,3.16-15.65,6.07-23.75,8.14-6.45,1.62-17.88,1.12-22.61,6.64-1.52,1.77-1.29,4.37-.86,6.6,1.5,7.97,4.74,15.56,9.49,22.21,2.26,3.18,3.67,5.5,7.53,6.9,3.71,1.35,7.78,1.56,11.68,1.35,4.83-.25,9.6-1.08,14.42-.86,4.18.19,8.33,1.03,12.32,2.32,7.42,2.45,14.11,6.75,19.23,12.65,5.29,6.12,8.35,12.93,9,19.99.3-.36.61-.76.91-1.12,9.49-11.6,20.79-19.17,33.55-22.52,2.8-.72,5.65-1.08,8.46-1.08,9.34,0,17.38,3.9,22.52,10.23,1.14,1.39,3.4.53,3.25-1.29l-.3-3.9c-.19-1.52-.57-3.06-.25-4.49,1.22-6.22,11.24-8.54,15.56-12.04,6.77-5.5,11.79-13.2,15.27-21.11,2.07-4.68,3.16-9.74,6.73-13.67,3.16-3.5,7.91-5.25,11.07-8.84,5.5-6.41,8.1-18.49,11.54-26.23,1.41-3.23,2.93-6.37,6.54-5.74,2.93.57,6.6,2.68,7.99,5.25.7,1.18,1.08,2.53,1.69,3.73,1.29,2.47,3.23,3.14,4.98,5.25,1.1,1.22,1.79,3.06,1.22,4.6-.34,1.12-1.18,1.96-1.92,2.8-4.28,5.42-4.85,12.86-4.41,19.74.4,6.94,1.48,13.98-.44,20.62-.84,3.23-2.43,6.2-4.01,9.22,2.49-2.89,7.02-3.02,9.81-5.42,1.88-1.54,2.85-3.84,3.84-6.09,1.92-4.45,4.24-8.73,6.47-13.05,4.47-8.18,9.05-17.17,7.97-26.44-.53-4.28,5.36-5.19,8.33-7.3,1.58-1.05,5.88-4.43,7.82-2.47-.04,0-8.54,15.9-9.24,18.16-.84,2.8-1.62,6.31-.06,9.09,2.28,4.03,7.66,4.03,10.94,6.92,5.25,4.49,1.94,13.12-2.17,20.5,3.44-.42,6.92-.63,10.46-.63,4.34,0,8.84.34,13.35.97,6.87.95,13.24,2.61,19.15,5,.27-1.35.53-2.68.8-4.05,1.58-8.12,1.75-17.57,6.81-24.4l1.1-3.08c.99-2.19,1.29-4.77,1.08-7.17-.17-1.96-.23-4.15-.86-6.03-.48-1.56-1.52-2.97-1.9-4.56-.84-3.27-.76-6.18-.97-9.43-.23-3.44-1.96-7.3-2.89-10.61-.95-3.44-1.27-6.37-.34-9.74,1.96-7.02,2.93-14.83,2.32-22.08-.21-2.74-.84-5.48-.34-8.16.27-1.46,1.01-2.85,2.09-3.86.93-.89,1.92-.97,3.16-1.05,1.24-.13,2.51.38,3.44,1.14,2.13,1.75,2.93,4.3,3.99,6.73.93,2.13,1.9,4.24,2.89,6.35,1.98,4.07,4.09,8.22,6.94,11.79,1.41,1.81,4.15,4.91,6.75,3.29.27-.19.53-.42.74-.67,1.31-1.43,3.44-.63,6.24,1.31,2.38,1.64,5.48,3.1,6.54,6.05.36.86.42,1.81.42,2.76,0,1.24-.17,2.57-.17,3.82,0,1.86.38,3.63.84,5.55.21,1.27.57,2.55.84,3.9.32,1.41.7,2.85,1.29,4.11.78,1.64,2.02,3.06,2.72,4.7.78,1.94.8,4.11,1.12,6.2.17.91.27,1.75.8,2.47.49.78,1.33,1.24,2.09,1.69,2.34,1.41,4.93,2.66,7.19,4.26,2.09,1.43,3.23,3.75,4.47,5.93,2.66,4.85,4.62,10.02,5.84,15.29.46,1.86.82,3.8,1.58,5.48.67,1.46,1.64,2.76,2.32,4.15.74,1.54,1.1,3.23,1.62,4.79.74,2.21,1.86,4.34,3.1,6.39,2.13,3.33,5.15,6.5,5.57,10.5.04.32.06.63.06.97.02,1.35,1.48,2.21,2.72,1.69,1.62-.67,3.25-1.27,4.85-1.77,1.54-.49,2.19-2.21,1.5-3.63-.84-1.71-1.41-3.54-1.96-5.4-1.16-3.9-2.34-7.87-3.54-11.79-.3-.93-.57-1.9-.7-2.93-.15-1.71.23-3.48.23-5.23,0-4.62-3.1-8.63-5.23-12.72-2.02-3.9-2.99-7.91-3.69-12.27-.25-1.81-.44-2.3.76-3.73,1.14-1.39,2.4-2.11,2.4-4.13,0-1.6-.84-2.97-.86-4.56-.13-2.89,2.68-5.02,5.4-5.93,2.7-.97,5.69-1.31,8.03-2.93.53-.36.97-.78,1.54-.93,1.12-.32,2.21.36,3.31.42,2.59.27,4.98-2.26,7.4-1.54,1.2.3,1.98,1.27,2.7,2.13,1.1,1.37,2.09,2.78,3.37,3.8.76.53,1.6.8,2.26,1.39-1.01.57-1.98,1.1-2.85,1.81-6.45,5.61-7.72,7.51-6.45,8.65,1.69,1.67,5.12,2.74,9.22,3.65,5.84,1.48,12.48,2.97,15.25,5.5,8.18,2.38,12.06,3.69,12.06,3.69,0,.13-3.56,6.81-3.56,7.78,0,1.9.11,1.79,1.64,2.97,5.93,4.62,22.97,4.91,15.06,17.23-1.88,2.85-4.77,4.87-7.51,6.77-6.47,4.45-12.95,8.92-19.38,13.37-.21.15-.42.3-.59.42,5.5,2.53,9.91,5.97,13.37,10.44,4.07,5.34,5.97,11.73,5.63,18.07.04.57.46.97.91.97.4,0,.74-.25.89-.57.93-1.58,1.86-3.14,2.83-4.7,6.47-10.54,10.46-14.83,23.94-14.83h3.08c1.62.02,3.16.11,4.91.23l2.34.15c4.01.21,7.66,2.45,9.7,5.9,5-5.21,11.01-6.47,15.58-6.47,1.03,0,2.11.06,3.23.19.63.08,1.35.11,2.34.11.89,0,1.79-.02,2.76-.06,1.27-.02,2.57-.04,4.03-.04,4.3,0,8.29,2.28,10.44,6.01,2.15,3.75,2.13,8.35,0,12.1-1.5,2.49-2.87,4.87-4.26,7.19-1.14,1.98-2.3,3.88-3.4,5.78,1.1-.74,2.15-1.52,3.21-2.34,3.54-2.8,6.77-5.95,10.35-8.65,3.82-4.47,7.47-8.69,11.26-12.76.63-.65,1.31-1.29,1.98-1.9,5.19-4.49,13.2-8.5,20.2-6.47,3.37.97,6.81,1.71,10.33,2.02,3.21.27,6.45.11,9.55-.7,1.35-.34,3.04-.72,4.11-1.67,1.01-.93,2.05-1.75,3.16-2.55,2.28-1.75,4.3-3.69,6.12-5.82.86-1.08,1.69-2.38,1.33-3.67ZM204.6,84.78c-.4.78-1.05,1.29-1.73,1.75-6.62,4.43-13.71,8.03-20.29,12.61-6.5,4.49-12.59,10.08-15.96,17.25-.63,1.29-1.24,2.76-2.36,3.67-1.33.99-3.06,1.12-4.7,1.27-6.98.76-13.79,2.72-20.06,5.88-2.87,1.39-5.19,3.44-8.39,3.58-1.71.15-3.33.08-4.96-.21-.8-.08-3.65-1.56-4.24-1.41,8.69-2.99,13.69-11.77,20.54-17.84,1.5-1.41,3.12-2.66,4.87-3.8,3.71-2.51,7.84-4.56,11.92-6.52,0-.76,9.3-4.93,10.4-5.55,3.4-1.96,6.77-3.94,10.21-5.78,7.21-3.96,14.38-5.38,22.4-7.19.67-.17,1.39-.25,1.9.06.76.46.84,1.48.46,2.21ZM532.55,127.72c-2.47-.06-4.93-.78-7.44-.78-1.33,0-2.66.15-3.96.02-4.22-.25-8.48-2.11-12.29-3.69-2.78-1.16-5.46-2.7-7.09-5.25-.7-.97-1.16-2.09-1.73-3.08-1.43-2.55-3.71-4.58-4.66-7.3-.27-.91-.46-1.92-.97-2.7-.91-1.31-2.47-1.81-3.71-2.8-1.54-1.24-2.19-3.16-2.95-4.91-.72-1.75-1.71-3.37-2.66-5-1.16-2.24-3.73-3.48-4.74-5.69,0,0,7.32-.46,8.03-.4,2.51.15,3.46.57,5.25,2.09,3.88,3.27,7.32,6.62,10.33,10.82,1.54.84,3.16,1.58,4.7,2.47,3.1,1.86,5.61,4.51,8.79,6.14,3.1,1.67,4.15,5.69,6.6,8.14.91.89,1.96,1.58,3.06,2.3,3.06,2.02,6.28,4.01,8.94,6.6.63.59,1.27,1.29,1.81,2.02-1.69.65-3.5,1.01-5.31,1.01Z"/><path class="cls-9" d="M363.83,92.48c-.29-2.83-3.74-4.51-4.11-7.33-3.26.5-6.94,1.27-8.67,4.08-1.01,1.65-1.13,3.68-1.22,5.61-.04.8-.07,1.61-.11,2.41-.06,1.44-.13,2.87-.19,4.31-.19,4.25-.38,8.5-.38,12.75,0,5.86.4,11.8,2.3,17.35,1.81,5.27,5.01,10.58,3.8,16.01-.53,2.38-1.91,4.7-1.44,7.1.51,2.58,3.18,4.34,5.8,4.44,2.63.1,5.14-1.16,7.19-2.8,4.75-3.81,7.52-9.73,8.28-15.77.68-5.44-.24-11.15-2.85-16-1.07-1.98-2.15-3.54-2.58-5.77-.49-2.51-.77-5.17-2.24-7.35-2-2.97-4-5.41-5.05-8.93-.39-1.31-.66-2.69-.4-4.03.4-2.1,2.07-3.95,1.85-6.07Z"/><path class="cls-9" d="M646.29,251.05c-1.03.42-1.73,1.73-2.49,2.72-2.07,2.87-3.82,6.03-6.2,8.63-6.2,6.71-13.5,11.54-23.18,11.11-5.34-.23-9.97-4.15-10.9-8.98-.91-4.64.15-6.24,4.93-7.32,1.73-.42,3.5-.61,5.25-.99,11.26-2.51,20.71-8.06,27.82-17.25,3.02-3.92,4.85-8.2,4.81-13.33,0-4.66-2.07-7.8-6.2-9.51-5-2.05-10.16-2.72-15.58-1.12-6.71,1.98-12.44,5.55-17.57,10.21-8.37,7.66-14.38,16.98-19.44,27.01-1.77,3.59-3.75,7.25-6.41,10.21-6.12,6.81-13.54,11.56-23.22,11.07-5.65-.3-10.27-4.62-10.84-9.85-.48-4.22.27-5.31,4.43-6.31,1.71-.42,3.46-.7,5.21-1.03,11.6-2.38,21.22-8.03,28.51-17.48,3.02-3.88,4.79-8.22,4.77-13.31-.02-4.7-2.19-7.8-6.33-9.45-5-2.05-10.19-2.68-15.58-1.05-6.73,2.02-12.42,5.61-17.55,10.29-8.98,8.16-15.18,18.26-20.43,29.04-3.02,6.28-6.83,11.89-12.57,15.99-2.34,1.71-5.15,2.53-7.82.97-3.02-1.73-2.66-4.83-1.94-7.51,1.27-4.62,2.64-9.26,4.43-13.71,6.73-16.53,14.78-32.37,23.3-48.02,1.41-2.59,2.87-5.21,4.32-7.8,3.8-6.85,7.82-13.54,12.32-21.26-4.07,0-7.32.32-10.52-.06-5.12-.59-8.46,1.18-10.99,5.8-5.69,10.35-11.98,20.43-17.59,30.83-.74,1.41-1.5,2.83-2.21,4.24-6.58,12.84-12.27,26.13-18.24,39.27-2.89,6.31-6.56,12-12,16.43-2.68,2.17-5.82,3.69-9.07,1.69-3.23-1.96-2.4-5.29-1.6-8.25,1.12-3.9,2.3-7.78,3.75-11.56,5.42-13.83,11.89-27.12,18.9-40.19,2.97-5.74,6.12-11.39,9.24-17.06,3.77-6.81,7.82-13.5,12-20.77-2.62-.15-4.6-.32-6.6-.36-10.97-.08-11.03-.11-16.7,9.07-4.45,7.3-8.73,14.68-12.82,22.19-8.06,14.74-15.31,29.88-21.7,45.45-2.3,5.55-5.46,10.86-8.9,15.8-1.77,2.53-4.79,4.56-7.66,5.95-3.73,1.81-6.81-.27-6.56-4.37.21-3.48.93-7.13,2.34-10.29,5.19-11.81,10.76-23.45,16.17-35.18.82-1.71,1.64-3.42,2.85-5.93-5.34,0-9.89.13-14.4-.06-2.99-.13-4.62,1.18-5.86,3.73-1.22,2.64-2.85,5.06-4.68,8.27-2.59-11.43-9.03-15.44-19.02-12.72-.25.08-.48.21-.74.27-5.55,1.43-10.14,4.51-14.21,8.44-11.3,10.78-18.9,23.75-22.27,39.01-1.27,5.74-1.1,11.49.23,17.31,1.9,8.46,12.63,15.16,22.31,8.65,3.88-2.61,7.13-6.37,10.27-9.97,2.45-2.8,4.26-6.18,7.38-10.88,0,4.66-.08,7.59,0,10.52.36,10.57,7.72,15.33,17.69,11.62,4.91-1.79,8.63-5.23,12.17-8.86,1.86-1.92,3.69-3.88,6.09-6.47.36,2.13.57,3.1.7,4.09,1.39,10.57,9.28,15.42,19.04,11.01,4.26-1.94,7.84-5.4,11.56-8.41,2.26-1.86,4.15-4.18,6.85-6.98.34,2.4.53,3.65.67,4.87,1.29,9.74,8.77,14.4,18.05,10.92,3.02-1.12,5.99-2.85,8.37-4.98,4.32-3.9,8.14-8.29,12.72-13.03.76,2.15,1.33,3.8,1.96,5.44,3.06,7.89,8.56,12.25,17.21,12.59,6.52.23,12.76-.76,18.16-4.41,5-3.4,9.64-7.34,14.4-11.09,1.48-1.16,2.76-2.53,4.45-4.03.89,2.8,1.39,5,2.19,7.11,2.97,7.53,8.25,11.94,16.55,12.36,5.95.3,11.66-.44,16.98-3.25,13.92-7.44,23.87-18.6,30.56-32.79.36-.78.21-1.81.3-2.72-1.22-.11-2.61-.63-3.61-.21ZM619.47,227.6c3.02-3.12,6.5-5.76,10.97-6.43,5.42-.82,7.68,2,5.84,7.11-.17.48-.34.97-.55,1.41-4.51,9.83-18.16,19.99-30.22,21.97,2.76-9.7,7.57-17.36,13.96-24.06ZM568.73,223.36c2.21-1.41,5.19-2.02,7.84-2.17,2.95-.19,4.72,2.32,3.94,5.15-.57,2.17-1.5,4.41-2.8,6.18-6.77,9.24-15.25,16.26-26.51,19.32-.4.11-.91-.3-1.94-.67,3.69-11.28,9.26-21.19,19.46-27.79ZM404.87,268.83c-.17.17-.38.32-.59.42-3.29,2.17-6.81,4.07-10.65,1.96-4.34-2.4-4.09-6.87-3.16-10.84,2.8-12.34,8.01-23.47,16.91-32.71,1.2-1.27,2.55-2.47,4.01-3.44,3.1-2.05,6.54-3.16,10.02-1.2,3.18,1.81,2.85,5.1,2.95,8.27-2.38,14.61-7.84,27.67-19.49,37.54Z"/><path class="cls-9" d="M444.48,186.56c-.69.42-1.27,1.02-2.05,1.66,5.49,3.62,10.82,4.28,14.8,2.23,2.26-1.12,4.04-3.13,5.18-5.97,2.08-5.18,1.6-10.43-1.99-15.1-1.93-2.5-4.28-4.4-6.9-5.82-1.96-1.12-4.1-1.96-6.33-2.62-6.18-1.84-12.12-2.05-17.81-.99-5.15.96-10.1,2.95-14.92,5.73-.48.27-.93.54-1.42.84-9.83,6.03-18.02,13.95-25.35,22.78-14.83,17.81-26.91,37.4-37.04,58.23-1.48,3.01-3.25,5.88-4.88,8.8-.42-.18-.84-.39-1.27-.57.42-1.63.72-3.25,1.27-4.82,4.49-13.47,8.56-27,10.01-41.2,1.87-18.32-2.44-34.81-14.86-48.58-5.7-6.33-12.27-10.94-19.65-14.13-5.61-2.47-11.69-4.1-18.17-5-10.76-1.51-20.95-.99-30.53,1.72-8.62,2.44-16.76,6.66-24.32,12.78-14.71,11.87-22.24,31.92-14.68,51.2,10.19,26.04,44.3,35.38,67.69,18.87,8.2-5.79,11.27-14.1,9.61-24.02-1.12-6.66-6.96-11.81-13.71-12.21-4.73-.27-7.66,1.57-9.58,6.24,6.12-.15,10.16,2.56,12.09,8.41,1.93,5.88.54,11.21-3.41,15.52-2.29,2.47-5.55,4.49-8.74,5.67-12.75,4.61-32.01-3.44-37.67-20.22-6.3-18.69,1.81-40.51,18.96-50.84,2.65-1.6,5.36-2.89,8.11-3.89,9.31-3.5,19.05-3.59,29.14-.72,2.68.75,5.18,1.69,7.53,2.77,10.7,4.97,17.87,13.5,20.76,26.01,1.33,5.88,2.62,12.09,2.14,17.99-.9,11.57-2.59,23.15-4.82,34.54-3.89,19.95-10.46,39.09-20.07,57.86,9.1,0,17.69-.12,26.28.09,3.1.09,3.89-1.84,4.67-3.98,8.32-23.27,19.83-44.94,33.09-65.7,8.35-13.05,17.48-25.56,28.75-36.26,4.22-4.01,8.62-7.9,13.5-10.94,3.07-1.96,6.36-3.53,9.92-4.64,1.12-.36,2.26-.66,3.44-.9,2.95-.6,6.09-1.02,9.01-.57,4.91.75,8.11,3.98,9.22,8.92,1.05,4.82-.72,8.44-5,10.85Z"/><path class="cls-9" d="M206.66,253.48c-2.3,3.9-4.56,7.95-7.38,11.47-1.98,2.47-4.68,4.7-7.51,6.2-4.45,2.34-7.66.19-7.25-4.81.23-3.23,1.01-6.54,2.34-9.49,4.98-11.35,10.27-22.54,15.46-33.76,1.03-2.24,2.17-4.41,3.65-7.38-5.57,0-10.33.06-15.1-.04-2.28-.02-3.73.84-4.77,2.97-1.41,2.89-3.12,5.59-4.7,8.39-.86-4.98-2.53-8.86-6.77-11.03-3.94-1.98-8.16-2.4-12.55-1.14-2.61.76-5.06,1.75-7.34,3.04-2.74,1.52-5.27,3.37-7.63,5.59-6.26,5.84-11.26,12.51-15.16,19.84-2.24,4.2-4.13,8.6-5.69,13.18-2.17,6.33-2.89,12.91-2.11,19.51.7,5.99,3.02,11.18,9.11,13.86,6.39,2.8,12.1,1.12,16.87-3.21,3.71-3.33,6.69-7.53,9.85-11.45,1.48-1.83,2.7-3.9,5.02-7.34,0,5.02.02,8.29-.04,11.54-.13,9.53,9.41,13.62,15.82,11.11,2.36-.89,4.85-1.73,6.81-3.25,12.27-9.22,19.93-21.76,25.81-35.68-3.31-1.67-5.19-.76-6.73,1.88ZM175.89,233.04c-2.3,12.95-7.78,26-19.4,35.85-.19.15-.4.32-.61.42-3.29,2.17-6.81,4.01-10.65,1.83-3.96-2.21-4.01-6.37-3.18-10.14,2.87-13.14,8.37-24.99,18.2-34.46,1.75-1.69,4.07-3.06,6.39-3.88,5.48-1.88,8.9.61,9.26,6.37.02.74,0,1.5,0,4.01Z"/><path class="cls-9" d="M596.16,171.8c-2.74,1.09-5.64,2.62-7.59,4.73-6.21,6.66-12,13.68-19.23,22.06,3.53-.42,5.45-.21,6.87-.93,7.23-3.65,14.41-7.41,21.4-11.45,2.11-1.21,3.89-3.29,5.27-5.33,1.21-1.81,2.08-4.1.57-6.39-1.48-2.23-4.52-3.77-7.29-2.68Z"/><path class="cls-9" d="M182.98,306.18c-6.45-2.05-10.92-.27-14.53,5.97,1.08.19,2.05.3,3.02.49,6.83,1.12,10.73,4.64,11.47,11.22.67,5.99-1.9,10.99-6.56,14.61-6.64,5.15-14.17,6.33-22.31,4.32-10.35-2.55-18.83-8.54-26.99-15.06-17.46-13.9-33.15-29.92-51.96-42.16-2.59-1.67-2.59-2.57.08-5.46,6.54-7.17,11.85-15.14,16.58-23.6,1.16-2.05,3.1-4.15,5.21-5.1,9.32-4.09,17.8-9.45,25.5-15.88,2.02-1.64,3.99-3.4,5.93-5.21,6.83-6.45,12.82-13.48,17.65-21.26,3.5-5.65,6.39-11.7,8.54-18.26,1.16-3.54,2.07-7.44,2.13-11.13v-.74c-.15-10.76-10.48-17.42-21.91-14.42-11.24,2.91-20.01,9.62-27.25,18.43-2.24,2.72-4.3,5.55-6.2,8.46-6.66,9.97-11.58,20.86-15.44,32.31-2.45,7.17-4.56,14.47-6.96,21.66-1.75,5.27-1.88,5.17-7.53,5.42-9.09.42-17.8-1.41-25.83-5.29-24.21-11.66-34.33-32.67-26.89-57.57,3.92-13.07,12.42-22.48,25.98-26.61,3.14-.93,6.35-1.27,9.47-1.05,6.14.46,11.89,3.08,15.63,7.42,2.95,3.4,4.01,7.59,3.59,11.58-.65,6.9-5.69,13.14-12.76,13.5-1.12.06-2.24.38-3.9.7,2.95,5.61,7.28,7.11,12.4,6.14,6.9-1.33,12.02-5.17,14.66-11.89.13-.27.23-.57.32-.84,2.95-8.41.84-15.88-4.89-22.48-6.35-7.3-14.91-10.38-24.25-11.03-2.53-.19-5-.19-7.44,0-10.48.72-19.95,4.74-28.55,11.6-15.9,12.65-22.27,31.11-17.29,51.69,4.2,17.44,16.62,28.05,32.46,34.8,10.1,4.34,20.79,6.28,31.82,6.37,2.45,0,5.1-.89,7.91,1.35-2.4,4.58-4.62,9.41-7.38,13.88-3.48,5.63-3.77,5.42-10.46,3.61-10.27-2.83-20.56-2.83-30.66.84-4.58,1.67-8.73,4.11-10.92,8.79-2.38,5.12-.84,9.83,4.45,11.79,3.52,1.31,7.38,2.15,11.09,2.24,10.59.27,20.58-2.24,29.86-7.42,5.27-2.95,5.65-3.12,9.51,1.43,6.6,7.7,12.89,15.67,19,23.75,6.6,8.73,13.62,17.06,21.74,24.38,17.29,15.61,42.39,19.65,63.56,7.99,9.07-4.98,16.79-11.49,20.37-21.68,3.37-9.64-1.52-19.55-11.03-22.54ZM116.57,201.18c2.15-4.28,4.43-8.5,6.87-12.65,2.3-3.86,5.21-7.44,8.14-10.88,1.46-1.69,3.44-3.04,5.42-4.07,4.68-2.38,8.2-.44,8.35,4.66.08,2.99-.3,6.14-1.14,8.96-1.62,5.5-3.84,10.67-6.52,15.52-5.76,10.59-13.69,19.68-22.78,28.01-4.26,3.86-9.07,7.06-13.67,10.61-.42-.4-.84-.8-1.27-1.18,5.23-13.14,10.31-26.32,16.58-38.97ZM36.79,290.22c-2.15-.06-4.01-.95-4.47-3.27-.53-2.43,1.14-3.82,3.1-4.51,6.54-2.24,13.01-3.21,19.74,1.5-5.67,4.77-11.7,6.43-18.37,6.28Z"/><path class="cls-9" d="M269.29,348.34c-1.31-1.58-2.72-3.94-4.28-7.02-1.52-2.89-2.93-5.27-4.2-7.04-1.29-1.81-2.97-3.37-5.08-4.72-2.15-1.33-4.83-1.68-4.83-1.68v-.59c7.26-1.59,9.29-2.29,12.44-5.32,3.21-3.09,5.06-6.45,5.06-10.65,0-4.77-1.86-8.65-5.63-11.64-3.73-2.99-9.43-4.51-17.06-4.51h-30.43v4.05c2.38,0,4.22.51,5.48,1.56,1.29,1.01,1.92,2.34,1.92,3.92v41.33c0,1.6-.63,2.91-1.92,3.96-1.27,1.01-3.1,1.56-5.48,1.56v4.01h29.65v-4.01c-2.89,0-5.12-.55-6.62-1.56-1.52-1.05-2.28-2.36-2.28-3.96v-45.61h4.43c3.63,0,6.73.78,9.36,2.32,2.62,1.54,4.51,4.66,4.51,9.36s-.96,7.87-3.61,9.45c-1.09.64-2.27,1.15-3.53,1.53-2.84.84-5.68,3.52-5.68,6.49h0c.44.11.89.25,1.29.44,1.31.57,2.57,1.69,3.84,3.31,1.24,1.62,2.59,4.01,4.05,7.15,1.75,3.8,3.67,8.84,5.76,15.1h17.71v-4.01c-1.98-.55-3.61-1.6-4.87-3.21Z"/><path class="cls-9" d="M307.38,347.74c-2.02,1.14-4.22,1.69-6.6,1.69-4.24,0-7.51-1.52-9.83-4.58-2.13-2.85-3.25-6.73-3.4-11.73h28.05c.06-4.7-.65-8.71-2.21-11.98-1.54-3.25-3.75-5.69-6.64-7.32-2.87-1.62-6.26-2.45-10.14-2.45-4.32,0-8.14,1.01-11.51,2.95-3.37,2-6.01,4.74-7.87,8.27-1.86,3.52-2.78,7.53-2.78,12s.93,8.39,2.83,11.79c1.9,3.37,4.47,5.97,7.78,7.76,3.29,1.79,7.02,2.68,11.22,2.68s7.99-.99,11.26-3.04c3.29-2.02,6.01-5.21,8.08-9.51l-3.23-2.09c-1.33,2.55-3.02,4.41-5,5.55ZM289.79,321.47c1.52-2.53,3.69-3.8,6.54-3.8,2.61,0,4.53,1.2,5.78,3.58,1.03,2.05,1.54,4.6,1.54,7.68h-15.99c.25-3.04.97-5.55,2.13-7.47Z"/><path class="cls-9" d="M346.8,331.29c-1.99-1.05-4.61-2.17-7.81-3.41-2.14-.75-3.83-1.42-5.06-1.99-1.21-.6-2.23-1.27-3.01-2.05-.78-.78-1.18-1.75-1.18-2.86,0-1.45.66-2.59,2.02-3.44,1.33-.84,3.16-1.27,5.49-1.27,2.86,0,5.18.84,6.93,2.53,1.78,1.69,2.8,4.28,3.01,7.78h3.77l1.05-11.6c-1.69-.99-3.86-1.84-6.51-2.53-2.65-.69-5.39-1.05-8.26-1.05-3.77,0-7.02.66-9.73,1.96-2.68,1.33-4.73,3.04-6.15,5.24-1.39,2.17-2.08,4.52-2.08,7.02,0,2.68.69,4.91,2.08,6.66,1.42,1.78,3.07,3.16,5.03,4.16,1.93.99,4.49,2.05,7.62,3.22,2.26.87,4.01,1.6,5.24,2.17,1.21.6,2.23,1.3,3.04,2.14.81.84,1.24,1.87,1.24,3.01,0,1.51-.75,2.68-2.23,3.5-1.48.81-3.41,1.24-5.73,1.24-3.13,0-5.79-.93-7.93-2.77-2.17-1.81-3.38-4.67-3.68-8.5h-3.74l-1.42,12.06c2.17,1.27,4.73,2.32,7.75,3.13,2.98.81,6.12,1.21,9.37,1.21,3.83,0,7.11-.57,9.86-1.78,2.74-1.18,4.82-2.86,6.24-5.06,1.42-2.17,2.14-4.61,2.14-7.29,0-2.83-.72-5.18-2.17-7.05-1.48-1.87-3.19-3.32-5.21-4.37Z"/><path class="cls-9" d="M383.21,348.16c-1.27.69-2.56,1.02-3.89,1.02-2.17,0-3.53-.72-4.1-2.2-.6-1.45-.87-3.53-.87-6.18v-22.78h13.77v-5.06h-13.77v-11.69h-7.41c-.18,3.25-1.21,6.03-3.07,8.35-1.84,2.29-4.46,3.47-7.84,3.53v4.88h5.39v26.34c0,3.98,1.05,7.08,3.19,9.34,2.11,2.26,5.03,3.41,8.77,3.41,2.95,0,5.79-.72,8.5-2.23,2.71-1.48,4.97-3.59,6.78-6.33l-2.2-2.95c-.93,1.05-2.02,1.9-3.25,2.56Z"/><path class="cls-9" d="M428.61,347.74c-.8-.78-1.22-2.38-1.22-4.77v-14.49c0-5.82-1.54-10.1-4.62-12.91-3.1-2.8-7.13-4.2-12.15-4.2s-8.88,1.22-12.19,3.63c-3.33,2.4-5.55,5.97-6.64,10.61l4.2,1.05c.86-2.61,2.17-4.58,3.88-5.9,1.69-1.31,3.86-1.96,6.47-1.96,3.33,0,5.53.93,6.6,2.8,1.1,1.86,1.6,4.18,1.6,6.96v2.09c-5.19,1.14-9.41,2.32-12.72,3.52-3.73,1.33-6.58,3.02-8.5,5-1.96,2.02-2.93,4.49-2.93,7.47,0,3.27,1.03,5.76,3.08,7.55,2.09,1.77,4.68,2.64,7.8,2.64,2.87,0,5.44-.74,7.76-2.26,2.28-1.5,4.22-3.61,5.78-6.35h.51l3.42,8.6,14.21-4.6v-3.69c-2.07.25-3.52-.02-4.34-.8ZM414.55,344.12c-.76,1.03-1.75,1.9-2.97,2.57-1.27.65-2.57.99-3.9.99-1.62,0-2.87-.42-3.67-1.29-.82-.89-1.2-2.07-1.2-3.5s.42-2.64,1.29-3.65c.89-1.05,2.3-1.98,4.28-2.8,1.6-.65,3.65-1.33,6.18-2.02v9.7Z"/><path class="cls-9" d="M478.08,343.67v-30.71h-3.65l-14.68,3.68v3.65c1.36,0,2.41.15,3.19.39.78.27,1.36.78,1.69,1.57.36.81.54,1.99.54,3.56v17.54c-.75,1.51-1.78,2.68-3.07,3.56-1.27.87-2.74,1.33-4.43,1.33-3.92,0-5.85-2.5-5.85-7.5v-27.76h-3.68l-14.65,3.68v3.65c1.33,0,2.38.15,3.13.39.75.27,1.33.78,1.69,1.57.39.81.57,1.99.57,3.56v17.36c0,4.13,1.18,7.44,3.53,9.95,2.38,2.5,5.52,3.74,9.49,3.74,3.13,0,5.88-.78,8.23-2.38,2.35-1.6,4.16-3.5,5.36-5.73h.63l2.59,8.05,14.77-4.46v-3.68c-1.93.06-3.32-.3-4.16-1.08-.84-.78-1.27-2.08-1.27-3.89Z"/><path class="cls-9" d="M515.79,311.4c-3.44,0-6.09,1.12-7.99,3.35-1.9,2.26-3.25,4.88-4.07,7.9h-.6l-1.93-11.06-15.43,4.37v3.65c1.93,0,3.28.39,4.16,1.15.84.75,1.27,2.05,1.27,3.92v22.69c0,1.87-.6,3.07-1.75,3.65-1.18.6-2.41.87-3.68.87v3.68h24.95v-3.68c-1.51,0-2.98-.27-4.46-.87-1.45-.57-2.17-1.78-2.17-3.65v-16.58c.3-1.42.84-2.71,1.66-3.89.81-1.21,1.81-2.17,2.98-2.89,1.15-.72,2.35-1.08,3.56-1.08,1.57,0,2.71.33,3.41.99.69.69,1.21,1.69,1.48,3.01h3.32v-14.23c-.51-.33-1.24-.63-2.14-.9-.9-.27-1.75-.39-2.56-.39Z"/><path class="cls-9" d="M560.02,347.74c-.8-.78-1.22-2.38-1.22-4.77v-14.49c0-5.82-1.54-10.1-4.62-12.91-3.08-2.8-7.13-4.2-12.15-4.2s-8.88,1.22-12.21,3.63c-3.31,2.4-5.5,5.97-6.62,10.61l4.2,1.05c.86-2.61,2.17-4.58,3.88-5.9,1.73-1.31,3.88-1.96,6.52-1.96,3.31,0,5.48.93,6.56,2.8,1.1,1.86,1.62,4.18,1.62,6.96v2.09c-5.17,1.14-9.38,2.32-12.74,3.52-3.73,1.33-6.58,3.02-8.5,5-1.96,2.02-2.93,4.49-2.93,7.47,0,3.27,1.03,5.76,3.12,7.55,2.05,1.77,4.64,2.64,7.8,2.64,2.83,0,5.42-.74,7.72-2.26,2.28-1.5,4.22-3.61,5.78-6.35h.55l3.4,8.6,14.23-4.6v-3.69c-2.11.25-3.56-.02-4.39-.8ZM545.97,344.12c-.74,1.03-1.77,1.9-2.99,2.57-1.27.65-2.57.99-3.9.99-1.62,0-2.87-.42-3.67-1.29-.82-.89-1.2-2.07-1.2-3.5s.42-2.64,1.29-3.65c.89-1.05,2.32-1.98,4.28-2.8,1.6-.65,3.67-1.33,6.2-2.02v9.7Z"/><path class="cls-9" d="M612.02,347.35v-22.24c0-4.13-1.21-7.47-3.65-9.98-2.44-2.47-5.7-3.74-9.76-3.74-3.32,0-6.21.81-8.65,2.41-2.44,1.6-4.37,3.65-5.76,6.15h-.6l-2.62-8.38-14.77,4.37v3.65c1.93,0,3.32.39,4.16,1.15.84.75,1.27,2.05,1.27,3.92v22.69c0,1.87-.57,3.07-1.75,3.65-1.18.6-2.38.87-3.68.87v3.68h23.75v-3.68c-1.3,0-2.5-.27-3.68-.87-1.15-.57-1.75-1.78-1.75-3.65v-22.09c.84-1.45,2.02-2.62,3.65-3.53,1.6-.9,3.25-1.36,5-1.36,3.95,0,5.94,2.5,5.94,7.5v19.47c0,1.87-.57,3.07-1.75,3.65-1.18.6-2.38.87-3.68.87v3.68h23.75v-3.68c-1.27,0-2.5-.27-3.68-.87-1.15-.57-1.75-1.78-1.75-3.65Z"/><path class="cls-9" d="M644.45,348.16c-1.24.69-2.53,1.02-3.89,1.02-2.14,0-3.53-.72-4.1-2.2-.57-1.45-.87-3.53-.87-6.18v-22.78h13.8v-5.06h-13.8v-11.69h-7.41c-.18,3.25-1.21,6.03-3.04,8.35-1.87,2.29-4.49,3.47-7.87,3.53v4.88h5.42v26.34c0,3.98,1.05,7.08,3.16,9.34,2.14,2.26,5.06,3.41,8.77,3.41,2.98,0,5.82-.72,8.53-2.23,2.68-1.48,4.94-3.59,6.75-6.33l-2.17-2.95c-.93,1.05-2.02,1.9-3.29,2.56Z"/><g class="cls-10"><g class="cls-11"><use transform="translate(649.9 -475.15) rotate(90) scale(.47 .19)" xlink:href="#image"/></g><g class="cls-2"><use transform="translate(649.9 -475.15) rotate(90) scale(.47 .19)" xlink:href="#image"/></g><g class="cls-5"><use transform="translate(649.9 -475.15) rotate(90) scale(.47 .19)" xlink:href="#image"/></g><g class="cls-3"><use transform="translate(649.9 -475.15) rotate(90) scale(.47 .19)" xlink:href="#image"/></g><g class="cls-4"><use transform="translate(508.87 -507.55) rotate(79.75) scale(.47 .19)" xlink:href="#image"/></g><g class="cls-8"><use transform="translate(649.9 -475.15) rotate(90) scale(.47 .19)" xlink:href="#image"/></g><g class="cls-7"><use transform="translate(649.9 -475.15) rotate(90) scale(.47 .19)" xlink:href="#image"/></g><g class="cls-6"><use transform="translate(649.9 -475.15) rotate(90) scale(.47 .19)" xlink:href="#image"/></g></g></g></svg>