<svg xmlns="http://www.w3.org/2000/svg" viewBox="0 0 176 97" id="svg10668448913"><g transform="translate(6.042 2.749)"><path d="M 160.853 36.951 C 160.8 36.749 160.641 36.6 160.469 36.457 C 156.83 33.241 152.233 31.382 147.728 29.58 C 146.148 28.957 144.584 28.33 143.014 27.705 C 142.375 27.433 141.722 27.183 141.146 26.838 C 140.283 26.339 139.549 25.669 138.699 25.165 C 138.224 24.905 137.729 24.686 137.245 24.442 C 134.855 23.205 132.733 21.297 130.545 19.74 C 130.3 19.553 130.055 19.384 129.773 19.271 C 129.207 19.027 128.564 19.069 127.943 18.989 C 126.959 18.845 126.033 18.389 125.308 17.686 C 124.771 17.149 124.344 16.464 123.628 16.156 C 122.84 15.821 121.924 16.041 121.074 16.247 C 120.163 16.459 119.249 16.625 118.328 16.741 C 117.95 16.784 117.561 16.87 117.185 16.943 C 116.763 17.011 116.322 16.852 115.928 16.741 C 114.636 16.343 113.251 16.214 111.893 16.353 C 111.547 16.396 111.174 16.459 110.808 16.429 C 110.52 16.413 110.137 16.338 109.92 16.141 C 109.75 15.988 109.708 15.768 109.498 15.625 C 109.339 15.509 109.142 15.448 108.95 15.385 C 107.923 15.078 106.78 14.881 105.71 15.03 C 104.673 15.174 103.613 15.6 102.553 15.332 C 102.442 15.312 102.341 15.274 102.265 15.204 C 102.19 15.118 102.127 15.022 102.074 14.891 C 102.053 14.854 102.031 14.828 102.016 14.786 C 101.685 14.229 101.165 13.914 100.825 13.4 C 100.446 12.848 100.138 12.268 99.611 11.875 C 98.813 11.291 97.877 10.93 96.895 10.865 C 96.623 10.85 96.348 10.85 96.133 10.706 C 95.724 10.494 95.639 9.968 95.366 9.58 C 94.849 8.889 93.791 8.851 93.052 8.362 C 92.62 8.09 92.302 7.649 91.856 7.37 C 91.222 6.976 90.425 6.929 89.738 6.626 C 88.797 6.213 88.141 5.351 87.497 4.555 C 86.455 3.257 85.284 2.035 84.033 0.926 C 83.649 0.586 83.235 0.226 82.746 0.092 C 82.251 -0.051 81.718 0.001 81.209 0.059 C 79.745 0.223 78.248 0.4 76.908 1.037 C 75.079 1.886 73.731 3.524 72.55 5.172 C 71.647 6.427 70.809 7.74 69.762 8.876 C 69.209 9.461 68.788 9.859 68.01 10.041 C 67.238 10.204 66.466 10.242 65.701 10.252 C 64.013 10.285 62.322 10.328 60.639 10.252 C 60.016 10.232 59.405 10.184 58.814 10.396 C 58.436 10.54 58.095 10.784 57.712 10.948 C 57.303 11.117 56.843 11.192 56.402 11.321 C 55.402 11.598 54.577 12.203 53.613 12.515 C 52.619 12.823 51.65 13.609 50.729 14.13 C 50.34 14.355 49.957 14.571 49.558 14.788 C 47.93 15.685 46.252 16.514 44.508 17.152 C 43.812 17.411 43.082 17.636 42.348 17.53 C 41.858 17.454 41.369 17.2 40.889 17.051 C 39.474 16.643 37.985 17.099 36.617 17.598 C 35.239 18.092 33.818 18.656 32.365 18.502 C 30.129 18.263 28.975 17.505 26.75 18.162 C 23.007 19.274 19.272 21.08 15.58 22.572 C 13.617 23.368 11.631 24.102 9.587 24.623 C 7.959 25.031 5.075 24.905 3.881 26.296 C 3.497 26.742 3.555 27.398 3.664 27.96 C 4.042 29.968 4.86 31.881 6.059 33.556 C 6.629 34.358 6.985 34.942 7.959 35.295 C 8.895 35.635 9.922 35.688 10.907 35.635 C 12.125 35.572 13.329 35.363 14.546 35.418 C 15.6 35.466 16.648 35.678 17.655 36.003 C 19.527 36.62 21.215 37.704 22.508 39.191 C 23.842 40.733 24.615 42.449 24.779 44.228 C 24.854 44.137 24.933 44.036 25.008 43.946 C 27.403 41.023 30.255 39.115 33.475 38.271 C 34.182 38.09 34.901 37.999 35.61 37.999 C 37.967 37.999 39.996 38.982 41.293 40.577 C 41.581 40.927 42.151 40.71 42.113 40.252 L 42.038 39.269 C 41.99 38.886 41.894 38.498 41.974 38.137 C 42.282 36.57 44.811 35.985 45.901 35.103 C 47.61 33.718 48.876 31.777 49.755 29.784 C 50.277 28.605 50.552 27.33 51.453 26.339 C 52.251 25.457 53.449 25.016 54.247 24.112 C 55.635 22.496 56.291 19.452 57.159 17.502 C 57.515 16.688 57.898 15.897 58.809 16.056 C 59.549 16.199 60.475 16.731 60.826 17.379 C 61.002 17.676 61.098 18.016 61.252 18.318 C 61.578 18.941 62.067 19.11 62.509 19.641 C 62.786 19.949 62.961 20.413 62.817 20.801 C 62.731 21.083 62.519 21.294 62.332 21.506 C 61.252 22.872 61.108 24.747 61.219 26.48 C 61.32 28.229 61.593 30.003 61.108 31.676 C 60.896 32.49 60.495 33.239 60.096 34 C 60.725 33.271 61.868 33.239 62.572 32.634 C 63.046 32.246 63.291 31.666 63.541 31.099 C 64.026 29.978 64.611 28.899 65.174 27.811 C 66.302 25.75 67.458 23.484 67.185 21.148 C 67.051 20.07 68.538 19.841 69.287 19.309 C 69.686 19.044 70.771 18.192 71.261 18.686 C 71.251 18.686 69.106 22.693 68.929 23.263 C 68.717 23.968 68.52 24.853 68.914 25.553 C 69.489 26.569 70.847 26.569 71.675 27.297 C 72.999 28.428 72.164 30.603 71.127 32.463 C 71.995 32.357 72.873 32.304 73.767 32.304 C 74.862 32.304 75.997 32.39 77.136 32.548 C 78.869 32.788 80.477 33.206 81.968 33.808 C 82.036 33.468 82.102 33.133 82.17 32.788 C 82.569 30.742 82.612 28.36 83.889 26.639 L 84.166 25.863 C 84.416 25.311 84.492 24.661 84.439 24.056 C 84.396 23.562 84.381 23.011 84.222 22.537 C 84.101 22.144 83.838 21.788 83.742 21.388 C 83.53 20.564 83.551 19.83 83.498 19.011 C 83.44 18.145 83.003 17.172 82.768 16.338 C 82.529 15.471 82.448 14.733 82.682 13.883 C 83.177 12.115 83.422 10.147 83.268 8.32 C 83.215 7.629 83.056 6.939 83.182 6.263 C 83.25 5.895 83.437 5.545 83.71 5.291 C 83.944 5.066 84.194 5.046 84.507 5.026 C 84.82 4.993 85.14 5.122 85.375 5.313 C 85.913 5.754 86.115 6.397 86.382 7.009 C 86.617 7.546 86.862 8.078 87.111 8.609 C 87.611 9.635 88.143 10.681 88.863 11.58 C 89.219 12.036 89.91 12.818 90.566 12.409 C 90.634 12.361 90.7 12.304 90.753 12.241 C 91.083 11.88 91.621 12.082 92.328 12.571 C 92.928 12.984 93.711 13.352 93.978 14.095 C 94.069 14.312 94.084 14.551 94.084 14.791 C 94.084 15.103 94.041 15.438 94.041 15.753 C 94.041 16.222 94.137 16.668 94.253 17.152 C 94.306 17.472 94.397 17.794 94.465 18.135 C 94.546 18.49 94.642 18.853 94.791 19.17 C 94.987 19.583 95.3 19.941 95.477 20.355 C 95.674 20.843 95.679 21.39 95.76 21.917 C 95.803 22.146 95.828 22.358 95.962 22.539 C 96.085 22.736 96.297 22.852 96.489 22.965 C 97.08 23.32 97.733 23.635 98.303 24.039 C 98.831 24.399 99.119 24.984 99.431 25.533 C 100.103 26.755 100.597 28.058 100.905 29.386 C 101.021 29.855 101.112 30.343 101.304 30.767 C 101.473 31.135 101.718 31.462 101.889 31.812 C 102.076 32.201 102.167 32.626 102.298 33.02 C 102.485 33.576 102.768 34.113 103.081 34.63 C 103.618 35.469 104.38 36.268 104.486 37.276 C 104.496 37.356 104.501 37.434 104.501 37.52 C 104.506 37.86 104.875 38.077 105.188 37.946 C 105.597 37.777 106.008 37.626 106.412 37.5 C 106.8 37.376 106.964 36.943 106.79 36.585 C 106.578 36.154 106.434 35.693 106.296 35.224 C 106.003 34.242 105.705 33.241 105.402 32.253 C 105.327 32.019 105.258 31.775 105.226 31.515 C 105.188 31.084 105.284 30.638 105.284 30.197 C 105.284 29.033 104.501 28.023 103.964 26.992 C 103.454 26.009 103.209 24.999 103.033 23.9 C 102.97 23.444 102.922 23.32 103.224 22.96 C 103.512 22.61 103.83 22.428 103.83 21.919 C 103.83 21.516 103.618 21.171 103.613 20.77 C 103.58 20.042 104.289 19.505 104.976 19.276 C 105.657 19.032 106.412 18.946 107.002 18.538 C 107.136 18.447 107.247 18.341 107.391 18.303 C 107.674 18.223 107.949 18.394 108.226 18.409 C 108.88 18.477 109.483 17.84 110.094 18.021 C 110.396 18.097 110.593 18.341 110.775 18.558 C 111.053 18.903 111.302 19.258 111.625 19.515 C 111.817 19.649 112.029 19.717 112.196 19.866 C 111.941 20.009 111.696 20.143 111.477 20.322 C 109.849 21.735 109.528 22.214 109.849 22.502 C 110.275 22.922 111.141 23.192 112.176 23.421 C 113.649 23.794 115.325 24.17 116.024 24.807 C 118.088 25.407 119.068 25.737 119.068 25.737 C 119.068 25.77 118.169 27.453 118.169 27.698 C 118.169 28.176 118.197 28.149 118.583 28.446 C 120.079 29.61 124.38 29.683 122.384 32.788 C 121.909 33.506 121.18 34.015 120.488 34.494 C 118.856 35.615 117.22 36.741 115.598 37.863 C 115.545 37.901 115.492 37.938 115.449 37.969 C 116.837 38.606 117.95 39.473 118.823 40.599 C 119.85 41.945 120.329 43.555 120.244 45.153 C 120.254 45.296 120.36 45.397 120.473 45.397 C 120.574 45.397 120.66 45.334 120.698 45.254 C 120.932 44.855 121.167 44.462 121.412 44.069 C 123.045 41.413 124.052 40.332 127.453 40.332 L 128.231 40.332 C 128.639 40.337 129.028 40.36 129.47 40.39 L 130.06 40.428 C 131.072 40.481 131.993 41.045 132.508 41.915 C 133.77 40.602 135.287 40.284 136.44 40.284 C 136.7 40.284 136.972 40.299 137.255 40.332 C 137.414 40.352 137.596 40.36 137.846 40.36 C 138.07 40.36 138.297 40.355 138.542 40.345 C 138.863 40.34 139.191 40.335 139.559 40.335 C 140.644 40.335 141.651 40.909 142.194 41.849 C 142.736 42.794 142.731 43.953 142.194 44.898 C 141.815 45.526 141.469 46.125 141.119 46.71 C 140.831 47.209 140.538 47.688 140.261 48.167 C 140.538 47.98 140.803 47.784 141.071 47.577 C 141.964 46.871 142.779 46.078 143.683 45.397 C 144.647 44.271 145.568 43.207 146.524 42.182 C 146.683 42.018 146.855 41.857 147.024 41.703 C 148.334 40.572 150.355 39.561 152.121 40.073 C 152.972 40.317 153.84 40.504 154.728 40.582 C 155.538 40.65 156.356 40.609 157.138 40.405 C 157.479 40.32 157.906 40.224 158.176 39.984 C 158.43 39.75 158.693 39.543 158.973 39.342 C 159.548 38.901 160.058 38.412 160.517 37.875 C 160.734 37.603 160.944 37.276 160.853 36.951 Z M 51.622 21.357 C 51.521 21.554 51.357 21.683 51.186 21.798 C 49.515 22.915 47.726 23.822 46.065 24.976 C 44.425 26.107 42.888 27.516 42.038 29.323 C 41.879 29.648 41.725 30.018 41.442 30.248 C 41.106 30.497 40.67 30.53 40.256 30.568 C 38.494 30.759 36.776 31.253 35.194 32.049 C 34.469 32.4 33.884 32.916 33.076 32.951 C 32.645 32.989 32.236 32.972 31.825 32.899 C 31.623 32.878 30.903 32.505 30.755 32.543 C 32.948 31.79 34.209 29.577 35.938 28.048 C 36.317 27.692 36.725 27.377 37.167 27.09 C 38.103 26.458 39.146 25.941 40.175 25.447 C 40.175 25.256 42.522 24.205 42.8 24.049 C 43.658 23.555 44.508 23.056 45.376 22.592 C 47.196 21.594 49.005 21.237 51.029 20.78 C 51.198 20.738 51.38 20.717 51.509 20.796 C 51.7 20.911 51.721 21.168 51.625 21.352 Z M 134.383 32.178 C 133.76 32.163 133.139 31.981 132.506 31.981 C 132.17 31.981 131.834 32.019 131.506 31.986 C 130.441 31.923 129.366 31.455 128.405 31.057 C 127.703 30.764 127.027 30.376 126.616 29.734 C 126.439 29.489 126.323 29.207 126.179 28.957 C 125.818 28.315 125.243 27.803 125.003 27.118 C 124.935 26.889 124.887 26.634 124.758 26.438 C 124.529 26.107 124.135 25.981 123.822 25.732 C 123.433 25.42 123.269 24.936 123.078 24.495 C 122.896 24.054 122.646 23.646 122.406 23.235 C 122.113 22.67 121.465 22.358 121.21 21.801 C 121.21 21.801 123.057 21.685 123.236 21.7 C 123.87 21.738 124.11 21.844 124.561 22.227 C 125.541 23.051 126.409 23.895 127.168 24.953 C 127.557 25.165 127.966 25.351 128.354 25.576 C 129.137 26.044 129.77 26.712 130.573 27.123 C 131.355 27.544 131.62 28.557 132.238 29.174 C 132.468 29.398 132.733 29.572 133.01 29.754 C 133.783 30.263 134.595 30.764 135.266 31.417 C 135.425 31.566 135.587 31.742 135.723 31.926 C 135.297 32.09 134.84 32.18 134.383 32.18 Z" fill="rgb(140, 140, 140)"/><path d="M 91.805 23.298 C 91.732 22.585 90.861 22.161 90.768 21.451 C 89.945 21.577 89.017 21.771 88.58 22.479 C 88.325 22.895 88.295 23.406 88.272 23.892 C 88.262 24.094 88.255 24.298 88.244 24.5 C 88.229 24.863 88.212 25.223 88.196 25.586 C 88.149 26.657 88.101 27.728 88.101 28.799 C 88.101 30.275 88.202 31.772 88.681 33.171 C 89.138 34.499 89.945 35.837 89.64 37.205 C 89.506 37.805 89.158 38.389 89.277 38.994 C 89.405 39.644 90.079 40.088 90.74 40.113 C 91.404 40.138 92.037 39.821 92.555 39.407 C 93.753 38.447 94.452 36.956 94.644 35.434 C 94.816 34.063 94.584 32.624 93.925 31.402 C 93.655 30.903 93.382 30.51 93.274 29.948 C 93.15 29.315 93.08 28.645 92.709 28.096 C 92.204 27.347 91.699 26.732 91.434 25.845 C 91.336 25.515 91.268 25.168 91.333 24.83 C 91.434 24.301 91.856 23.835 91.8 23.3 Z" fill="rgb(140, 140, 140)"/><path d="M 163.086 63.256 C 162.827 63.361 162.65 63.692 162.458 63.941 C 161.936 64.664 161.494 65.461 160.893 66.116 C 159.329 67.807 157.487 69.024 155.044 68.915 C 153.696 68.857 152.528 67.87 152.293 66.652 C 152.063 65.483 152.331 65.08 153.537 64.808 C 153.974 64.702 154.42 64.654 154.862 64.558 C 157.704 63.926 160.088 62.527 161.883 60.212 C 162.645 59.224 163.107 58.145 163.097 56.853 C 163.097 55.678 162.574 54.887 161.532 54.456 C 160.27 53.94 158.968 53.771 157.6 54.174 C 155.907 54.673 154.461 55.572 153.166 56.747 C 151.054 58.677 149.537 61.026 148.26 63.553 C 147.814 64.458 147.314 65.38 146.643 66.126 C 145.098 67.842 143.226 69.039 140.783 68.915 C 139.357 68.84 138.191 67.751 138.047 66.433 C 137.926 65.37 138.116 65.095 139.165 64.843 C 139.597 64.737 140.039 64.667 140.48 64.584 C 143.408 63.984 145.835 62.56 147.675 60.179 C 148.437 59.201 148.884 58.107 148.879 56.825 C 148.874 55.641 148.326 54.859 147.281 54.444 C 146.019 53.927 144.71 53.768 143.349 54.179 C 141.651 54.688 140.215 55.593 138.921 56.772 C 136.654 58.828 135.09 61.373 133.765 64.09 C 133.003 65.672 132.041 67.086 130.593 68.119 C 130.002 68.55 129.293 68.757 128.619 68.363 C 127.857 67.927 127.948 67.146 128.13 66.471 C 128.45 65.307 128.796 64.138 129.248 63.016 C 130.946 58.851 132.978 54.859 135.128 50.916 C 135.483 50.263 135.852 49.603 136.218 48.95 C 137.177 47.224 138.191 45.538 139.327 43.593 C 138.3 43.593 137.48 43.674 136.672 43.578 C 135.38 43.429 134.537 43.875 133.899 45.039 C 132.463 47.647 130.875 50.187 129.46 52.808 C 129.273 53.163 129.081 53.521 128.902 53.877 C 127.241 57.112 125.806 60.461 124.299 63.772 C 123.57 65.362 122.643 66.796 121.271 67.912 C 120.594 68.459 119.802 68.842 118.982 68.338 C 118.167 67.844 118.376 67.005 118.578 66.259 C 118.861 65.277 119.158 64.299 119.524 63.346 C 120.892 59.861 122.525 56.512 124.294 53.219 C 125.043 51.772 125.838 50.349 126.626 48.92 C 127.577 47.204 128.599 45.518 129.654 43.686 C 128.993 43.648 128.493 43.606 127.988 43.595 C 125.22 43.575 125.205 43.568 123.774 45.881 C 122.651 47.721 121.571 49.58 120.539 51.473 C 118.505 55.187 116.675 59.002 115.063 62.926 C 114.482 64.324 113.685 65.662 112.817 66.907 C 112.37 67.544 111.608 68.056 110.884 68.406 C 109.942 68.862 109.165 68.338 109.228 67.305 C 109.281 66.428 109.463 65.508 109.819 64.712 C 111.128 61.736 112.534 58.803 113.899 55.847 C 114.106 55.416 114.313 54.985 114.618 54.353 C 113.271 54.353 112.123 54.386 110.984 54.338 C 110.23 54.305 109.819 54.635 109.506 55.278 C 109.198 55.943 108.786 56.553 108.325 57.362 C 107.671 54.481 106.046 53.471 103.525 54.156 C 103.462 54.176 103.404 54.209 103.338 54.224 C 101.937 54.585 100.779 55.361 99.752 56.351 C 96.9 59.068 94.982 62.336 94.132 66.181 C 93.811 67.628 93.854 69.077 94.19 70.543 C 94.669 72.675 97.377 74.363 99.82 72.723 C 100.799 72.065 101.619 71.118 102.412 70.21 C 103.03 69.505 103.487 68.653 104.274 67.469 C 104.274 68.643 104.254 69.381 104.274 70.12 C 104.365 72.783 106.222 73.983 108.738 73.048 C 109.978 72.597 110.916 71.73 111.81 70.815 C 112.279 70.331 112.741 69.838 113.347 69.185 C 113.437 69.722 113.49 69.966 113.523 70.216 C 113.874 72.879 115.865 74.101 118.328 72.99 C 119.403 72.501 120.307 71.629 121.245 70.871 C 121.816 70.402 122.293 69.817 122.974 69.112 C 123.06 69.717 123.108 70.032 123.143 70.339 C 123.469 72.793 125.356 73.968 127.698 73.091 C 128.46 72.808 129.21 72.373 129.81 71.836 C 130.901 70.853 131.865 69.747 133.02 68.552 C 133.212 69.094 133.356 69.51 133.515 69.923 C 134.287 71.911 135.675 73.01 137.858 73.096 C 139.504 73.154 141.078 72.904 142.441 71.984 C 143.703 71.128 144.874 70.135 146.075 69.19 C 146.448 68.898 146.771 68.552 147.198 68.174 C 147.423 68.88 147.549 69.434 147.751 69.966 C 148.5 71.864 149.833 72.975 151.927 73.081 C 153.429 73.156 154.87 72.97 156.212 72.262 C 159.725 70.387 162.236 67.575 163.924 63.999 C 164.015 63.802 163.977 63.543 164 63.314 C 163.692 63.286 163.341 63.155 163.089 63.261 Z M 156.318 57.346 C 157.08 56.56 157.959 55.895 159.087 55.726 C 160.454 55.52 161.025 56.23 160.56 57.518 C 160.517 57.639 160.475 57.762 160.422 57.873 C 159.283 60.35 155.839 62.91 152.795 63.409 C 153.492 60.965 154.706 59.035 156.318 57.346 Z M 143.514 56.278 C 144.071 55.923 144.823 55.769 145.492 55.731 C 146.236 55.683 146.683 56.316 146.486 57.029 C 146.342 57.576 146.108 58.14 145.78 58.586 C 144.071 60.915 141.931 62.684 139.09 63.455 C 138.989 63.482 138.86 63.379 138.6 63.286 C 139.531 60.443 140.937 57.946 143.511 56.283 Z M 102.162 67.736 C 102.119 67.779 102.066 67.817 102.013 67.842 C 101.183 68.389 100.295 68.867 99.326 68.336 C 98.23 67.731 98.293 66.605 98.528 65.604 C 99.235 62.495 100.549 59.69 102.795 57.362 C 103.098 57.042 103.439 56.739 103.807 56.495 C 104.59 55.978 105.458 55.698 106.336 56.192 C 107.139 56.648 107.055 57.478 107.08 58.276 C 106.48 61.958 105.102 65.249 102.162 67.736 Z" fill="rgb(140, 140, 140)"/><path d="M 112.158 47.005 C 111.984 47.111 111.837 47.262 111.641 47.423 C 113.026 48.335 114.371 48.502 115.376 47.985 C 115.946 47.703 116.395 47.196 116.683 46.481 C 117.208 45.175 117.087 43.852 116.181 42.676 C 115.693 42.046 115.1 41.567 114.439 41.209 C 113.945 40.927 113.405 40.715 112.842 40.549 C 111.282 40.085 109.783 40.032 108.347 40.299 C 107.048 40.541 105.799 41.043 104.582 41.743 C 104.461 41.811 104.347 41.879 104.224 41.955 C 101.743 43.475 99.676 45.47 97.826 47.695 C 94.084 52.183 91.036 57.12 88.479 62.369 C 88.106 63.127 87.659 63.85 87.248 64.586 C 87.142 64.541 87.036 64.488 86.927 64.442 C 87.033 64.032 87.109 63.624 87.248 63.228 C 88.381 59.834 89.408 56.424 89.774 52.846 C 90.246 48.23 89.158 44.074 86.024 40.604 C 84.585 39.009 82.927 37.848 81.065 37.044 C 79.649 36.421 78.115 36.011 76.479 35.784 C 73.764 35.403 71.193 35.534 68.775 36.217 C 66.6 36.832 64.545 37.895 62.638 39.438 C 58.925 42.429 57.025 47.481 58.933 52.339 C 61.504 58.901 70.112 61.255 76.015 57.094 C 78.084 55.635 78.859 53.541 78.44 51.042 C 78.158 49.363 76.684 48.066 74.98 47.965 C 73.787 47.897 73.047 48.361 72.563 49.537 C 74.107 49.5 75.127 50.182 75.614 51.657 C 76.101 53.138 75.75 54.481 74.753 55.567 C 74.175 56.19 73.353 56.699 72.548 56.996 C 69.33 58.158 64.47 56.129 63.041 51.901 C 61.452 47.191 63.498 41.693 67.826 39.09 C 68.495 38.687 69.179 38.362 69.873 38.11 C 72.222 37.228 74.68 37.205 77.226 37.928 C 77.903 38.117 78.534 38.354 79.127 38.626 C 81.827 39.879 83.636 42.028 84.366 45.18 C 84.701 46.662 85.027 48.227 84.906 49.714 C 84.679 52.629 84.252 55.547 83.689 58.417 C 82.708 63.445 81.05 68.268 78.625 72.997 C 80.921 72.997 83.089 72.967 85.257 73.02 C 86.039 73.043 86.238 72.557 86.435 72.017 C 88.535 66.153 91.439 60.693 94.786 55.462 C 96.893 52.173 99.197 49.021 102.041 46.325 C 103.106 45.314 104.216 44.334 105.448 43.568 C 106.222 43.074 107.053 42.678 107.951 42.399 C 108.234 42.308 108.521 42.232 108.819 42.172 C 109.564 42.021 110.356 41.915 111.093 42.028 C 112.332 42.217 113.14 43.031 113.42 44.276 C 113.685 45.49 113.238 46.403 112.158 47.01 Z" fill="rgb(140, 140, 140)"/><path d="M 52.142 63.868 C 51.562 64.851 50.991 65.871 50.28 66.758 C 49.78 67.381 49.099 67.943 48.384 68.321 C 47.261 68.91 46.451 68.368 46.555 67.109 C 46.613 66.295 46.81 65.461 47.145 64.717 C 48.402 61.857 49.737 59.037 51.047 56.21 C 51.307 55.646 51.594 55.099 51.968 54.35 C 50.562 54.35 49.361 54.365 48.157 54.34 C 47.582 54.335 47.216 54.552 46.953 55.089 C 46.598 55.817 46.166 56.497 45.767 57.203 C 45.55 55.948 45.129 54.97 44.059 54.423 C 43.065 53.924 42 53.819 40.892 54.136 C 40.233 54.328 39.615 54.577 39.04 54.902 C 38.348 55.285 37.71 55.751 37.114 56.311 C 35.534 57.782 34.272 59.463 33.288 61.31 C 32.723 62.369 32.246 63.477 31.852 64.631 C 31.305 66.227 31.123 67.885 31.32 69.548 C 31.497 71.057 32.082 72.365 33.619 73.04 C 35.231 73.746 36.672 73.323 37.876 72.231 C 38.812 71.392 39.564 70.334 40.362 69.346 C 40.735 68.885 41.043 68.363 41.629 67.497 C 41.629 68.762 41.634 69.586 41.619 70.405 C 41.586 72.806 43.993 73.837 45.611 73.204 C 46.207 72.98 46.835 72.768 47.33 72.385 C 50.426 70.062 52.359 66.902 53.843 63.394 C 53.008 62.973 52.533 63.203 52.145 63.868 Z M 44.377 58.717 C 43.796 61.981 42.414 65.269 39.481 67.751 C 39.433 67.789 39.38 67.832 39.327 67.857 C 38.497 68.404 37.609 68.867 36.64 68.318 C 35.64 67.761 35.628 66.713 35.837 65.763 C 36.561 62.452 37.949 59.466 40.43 57.079 C 40.872 56.654 41.457 56.308 42.043 56.102 C 43.426 55.628 44.289 56.255 44.379 57.707 C 44.384 57.893 44.379 58.085 44.379 58.717 Z" fill="rgb(140, 140, 140)"/><path d="M 150.436 43.286 C 149.744 43.56 149.012 43.946 148.52 44.477 C 146.953 46.156 145.492 47.925 143.667 50.036 C 144.558 49.93 145.043 49.983 145.401 49.802 C 147.226 48.882 149.038 47.935 150.802 46.917 C 151.334 46.612 151.783 46.088 152.132 45.574 C 152.437 45.117 152.656 44.54 152.275 43.963 C 151.902 43.401 151.135 43.013 150.436 43.288 Z" fill="rgb(140, 140, 140)"/><path d="M 46.166 77.148 C 44.538 76.631 43.41 77.08 42.499 78.652 C 42.772 78.7 43.017 78.728 43.261 78.776 C 44.985 79.058 45.969 79.945 46.156 81.603 C 46.325 83.112 45.677 84.372 44.501 85.284 C 42.825 86.582 40.925 86.88 38.87 86.373 C 36.259 85.73 34.119 84.221 32.059 82.578 C 27.653 79.075 23.694 75.039 18.947 71.954 C 18.293 71.533 18.293 71.307 18.967 70.578 C 20.617 68.772 21.957 66.763 23.151 64.631 C 23.444 64.115 23.933 63.586 24.466 63.346 C 26.818 62.316 28.958 60.965 30.901 59.345 C 31.411 58.931 31.908 58.488 32.397 58.032 C 34.121 56.407 35.633 54.635 36.852 52.675 C 37.735 51.251 38.464 49.726 39.007 48.073 C 39.299 47.181 39.529 46.199 39.544 45.269 L 39.544 45.082 C 39.506 42.371 36.9 40.693 34.015 41.449 C 31.179 42.182 28.965 43.873 27.138 46.093 C 26.573 46.778 26.053 47.491 25.574 48.224 C 23.893 50.737 22.651 53.481 21.677 56.366 C 21.059 58.173 20.526 60.013 19.921 61.824 C 19.479 63.152 19.446 63.127 18.021 63.19 C 15.727 63.296 13.529 62.835 11.502 61.857 C 5.393 58.919 2.839 53.625 4.716 47.35 C 5.705 44.057 7.851 41.685 11.272 40.645 C 12.065 40.41 12.875 40.325 13.662 40.38 C 15.212 40.496 16.663 41.156 17.607 42.25 C 18.351 43.107 18.619 44.162 18.513 45.168 C 18.349 46.907 17.077 48.479 15.293 48.57 C 15.01 48.585 14.727 48.665 14.308 48.746 C 15.053 50.16 16.146 50.538 17.438 50.293 C 19.179 49.958 20.471 48.991 21.137 47.297 C 21.17 47.229 21.195 47.154 21.218 47.086 C 21.962 44.966 21.43 43.084 19.984 41.421 C 18.381 39.581 16.221 38.805 13.864 38.641 C 13.226 38.593 12.602 38.593 11.987 38.641 C 9.342 38.823 6.952 39.836 4.782 41.564 C 0.769 44.752 -0.838 49.404 0.419 54.59 C 1.478 58.984 4.613 61.658 8.61 63.359 C 11.159 64.453 13.857 64.941 16.64 64.964 C 17.258 64.964 17.927 64.74 18.636 65.304 C 18.031 66.458 17.47 67.675 16.774 68.802 C 15.896 70.221 15.823 70.168 14.134 69.712 C 11.543 68.998 8.946 68.998 6.397 69.923 C 5.241 70.344 4.194 70.959 3.641 72.138 C 3.041 73.428 3.429 74.615 4.764 75.109 C 5.652 75.439 6.627 75.651 7.563 75.674 C 10.235 75.742 12.756 75.109 15.098 73.804 C 16.428 73.06 16.524 73.018 17.498 74.164 C 19.164 76.105 20.751 78.113 22.293 80.149 C 23.959 82.349 25.73 84.448 27.779 86.292 C 32.143 90.226 38.477 91.244 43.819 88.306 C 46.108 87.051 48.056 85.41 48.96 82.843 C 49.81 80.414 48.576 77.916 46.176 77.163 Z M 29.407 50.689 C 29.95 49.61 30.525 48.547 31.141 47.501 C 31.721 46.529 32.455 45.626 33.195 44.76 C 33.563 44.334 34.063 43.994 34.563 43.734 C 35.744 43.134 36.632 43.623 36.67 44.908 C 36.69 45.662 36.594 46.456 36.382 47.166 C 35.973 48.552 35.413 49.855 34.737 51.077 C 33.283 53.746 31.282 56.036 28.988 58.135 C 27.913 59.108 26.699 59.914 25.538 60.809 C 25.432 60.708 25.326 60.607 25.218 60.511 C 26.538 57.2 27.82 53.879 29.402 50.691 Z M 9.274 73.126 C 8.731 73.111 8.262 72.887 8.146 72.302 C 8.012 71.69 8.433 71.339 8.928 71.166 C 10.579 70.601 12.211 70.357 13.91 71.544 C 12.479 72.745 10.957 73.164 9.274 73.126 Z" fill="rgb(140, 140, 140)"/><path d="M 67.947 87.772 C 67.617 87.373 67.261 86.779 66.867 86.003 C 66.484 85.274 66.128 84.675 65.807 84.229 C 65.482 83.773 65.058 83.379 64.525 83.039 C 63.983 82.704 63.306 82.616 63.306 82.616 L 63.306 82.467 C 65.138 82.067 65.651 81.89 66.446 81.127 C 67.256 80.348 67.723 79.501 67.723 78.443 C 67.723 77.241 67.253 76.263 66.302 75.51 C 65.361 74.756 63.922 74.373 61.997 74.373 L 54.317 74.373 L 54.317 75.394 C 54.918 75.394 55.382 75.522 55.7 75.787 C 56.026 76.042 56.185 76.377 56.185 76.775 L 56.185 87.189 C 56.185 87.593 56.026 87.923 55.7 88.187 C 55.38 88.442 54.918 88.58 54.317 88.58 L 54.317 89.591 L 61.8 89.591 L 61.8 88.58 C 61.07 88.58 60.508 88.442 60.129 88.187 C 59.746 87.923 59.554 87.593 59.554 87.189 L 59.554 75.696 L 60.672 75.696 C 61.588 75.696 62.37 75.893 63.034 76.281 C 63.695 76.669 64.172 77.455 64.172 78.64 C 64.172 79.824 63.93 80.623 63.261 81.021 C 62.986 81.182 62.688 81.311 62.37 81.406 C 61.653 81.618 60.937 82.293 60.937 83.042 L 60.937 83.042 C 61.048 83.069 61.161 83.105 61.262 83.153 C 61.593 83.296 61.911 83.578 62.231 83.987 C 62.544 84.395 62.885 84.997 63.253 85.788 C 63.695 86.746 64.18 88.016 64.707 89.593 L 69.176 89.593 L 69.176 88.583 C 68.677 88.444 68.265 88.18 67.947 87.774 Z" fill="rgb(140, 140, 140)"/><path d="M 77.56 87.62 C 77.05 87.908 76.495 88.046 75.894 88.046 C 74.824 88.046 73.999 87.663 73.413 86.892 C 72.876 86.174 72.593 85.196 72.555 83.936 L 79.634 83.936 C 79.649 82.752 79.47 81.741 79.076 80.917 C 78.688 80.099 78.13 79.484 77.401 79.073 C 76.676 78.665 75.821 78.456 74.842 78.456 C 73.751 78.456 72.787 78.71 71.937 79.199 C 71.087 79.703 70.42 80.393 69.951 81.283 C 69.482 82.17 69.249 83.18 69.249 84.307 C 69.249 85.433 69.484 86.421 69.964 87.278 C 70.443 88.127 71.092 88.782 71.927 89.233 C 72.757 89.684 73.698 89.908 74.758 89.908 C 75.818 89.908 76.775 89.659 77.6 89.142 C 78.43 88.633 79.117 87.83 79.639 86.746 L 78.824 86.219 C 78.488 86.862 78.062 87.331 77.562 87.618 Z M 73.121 81.001 C 73.504 80.363 74.052 80.043 74.771 80.043 C 75.43 80.043 75.914 80.345 76.23 80.945 C 76.49 81.462 76.618 82.104 76.618 82.88 L 72.583 82.88 C 72.646 82.114 72.828 81.482 73.121 80.998 Z" fill="rgb(140, 140, 140)"/><path d="M 87.508 83.475 C 87.005 83.211 86.344 82.928 85.537 82.616 C 84.997 82.427 84.57 82.258 84.26 82.114 C 83.954 81.963 83.697 81.794 83.5 81.598 C 83.303 81.401 83.202 81.157 83.202 80.877 C 83.202 80.512 83.369 80.225 83.712 80.01 C 84.048 79.799 84.51 79.69 85.098 79.69 C 85.819 79.69 86.405 79.902 86.846 80.328 C 87.296 80.754 87.553 81.406 87.606 82.288 L 88.557 82.288 L 88.822 79.365 C 88.396 79.116 87.848 78.902 87.179 78.728 C 86.511 78.554 85.819 78.463 85.095 78.463 C 84.144 78.463 83.323 78.629 82.64 78.957 C 81.963 79.292 81.446 79.723 81.088 80.277 C 80.737 80.824 80.563 81.416 80.563 82.046 C 80.563 82.722 80.737 83.284 81.088 83.725 C 81.446 84.173 81.862 84.521 82.357 84.773 C 82.844 85.022 83.49 85.289 84.28 85.584 C 84.85 85.804 85.292 85.987 85.602 86.131 C 85.908 86.282 86.165 86.459 86.369 86.67 C 86.574 86.882 86.682 87.142 86.682 87.429 C 86.682 87.809 86.493 88.104 86.12 88.311 C 85.746 88.515 85.259 88.623 84.674 88.623 C 83.884 88.623 83.212 88.389 82.672 87.925 C 82.125 87.469 81.819 86.748 81.744 85.783 L 80.8 85.783 L 80.441 88.822 C 80.989 89.142 81.635 89.407 82.397 89.611 C 83.149 89.815 83.942 89.916 84.762 89.916 C 85.728 89.916 86.556 89.772 87.25 89.467 C 87.942 89.17 88.467 88.747 88.825 88.192 C 89.183 87.646 89.365 87.031 89.365 86.355 C 89.365 85.642 89.183 85.05 88.817 84.579 C 88.444 84.108 88.012 83.742 87.502 83.478 Z" fill="rgb(140, 140, 140)"/><path d="M 96.696 87.726 C 96.375 87.9 96.05 87.983 95.714 87.983 C 95.167 87.983 94.823 87.802 94.68 87.429 C 94.528 87.063 94.46 86.539 94.46 85.872 L 94.46 80.131 L 97.935 80.131 L 97.935 78.856 L 94.46 78.856 L 94.46 75.91 L 92.59 75.91 C 92.545 76.729 92.285 77.43 91.815 78.015 C 91.351 78.592 90.69 78.889 89.837 78.904 L 89.837 80.134 L 91.197 80.134 L 91.197 86.771 C 91.197 87.774 91.462 88.555 92.002 89.125 C 92.535 89.694 93.271 89.984 94.215 89.984 C 94.96 89.984 95.676 89.803 96.36 89.422 C 97.044 89.049 97.615 88.517 98.071 87.827 L 97.516 87.084 C 97.281 87.348 97.006 87.562 96.696 87.729 Z" fill="rgb(140, 140, 140)"/><path d="M 108.153 87.62 C 107.951 87.424 107.845 87.021 107.845 86.418 L 107.845 82.767 C 107.845 81.301 107.456 80.222 106.679 79.514 C 105.897 78.808 104.88 78.456 103.613 78.456 C 102.346 78.456 101.372 78.763 100.537 79.37 C 99.696 79.975 99.136 80.875 98.861 82.044 L 99.921 82.308 C 100.138 81.651 100.469 81.154 100.9 80.822 C 101.327 80.492 101.874 80.328 102.533 80.328 C 103.373 80.328 103.929 80.562 104.199 81.033 C 104.476 81.502 104.602 82.087 104.602 82.787 L 104.602 83.314 C 103.293 83.601 102.228 83.899 101.392 84.201 C 100.451 84.536 99.732 84.962 99.247 85.461 C 98.753 85.97 98.508 86.592 98.508 87.343 C 98.508 88.167 98.768 88.795 99.285 89.246 C 99.813 89.692 100.466 89.911 101.254 89.911 C 101.978 89.911 102.626 89.724 103.212 89.341 C 103.787 88.963 104.277 88.432 104.67 87.741 L 104.799 87.741 L 105.662 89.908 L 109.248 88.749 L 109.248 87.819 C 108.726 87.882 108.36 87.814 108.153 87.618 Z M 104.605 86.708 C 104.413 86.968 104.163 87.187 103.855 87.356 C 103.535 87.52 103.207 87.605 102.871 87.605 C 102.462 87.605 102.147 87.499 101.945 87.28 C 101.738 87.056 101.642 86.759 101.642 86.398 C 101.642 86.038 101.748 85.733 101.968 85.478 C 102.192 85.214 102.548 84.98 103.048 84.773 C 103.452 84.609 103.969 84.438 104.607 84.264 L 104.607 86.708 Z" fill="rgb(140, 140, 140)"/><path d="M 120.637 86.595 L 120.637 78.856 L 119.716 78.856 L 116.011 79.784 L 116.011 80.703 C 116.355 80.703 116.62 80.741 116.816 80.802 C 117.013 80.87 117.16 80.998 117.243 81.197 C 117.334 81.401 117.379 81.699 117.379 82.094 L 117.379 86.514 C 117.19 86.895 116.93 87.189 116.605 87.411 C 116.284 87.63 115.913 87.746 115.487 87.746 C 114.497 87.746 114.01 87.116 114.01 85.856 L 114.01 78.861 L 113.082 78.861 L 109.385 79.789 L 109.385 80.708 C 109.72 80.708 109.985 80.746 110.174 80.807 C 110.364 80.875 110.51 81.003 110.601 81.202 C 110.699 81.406 110.745 81.704 110.745 82.099 L 110.745 86.474 C 110.745 87.515 111.043 88.349 111.636 88.981 C 112.236 89.611 113.029 89.924 114.03 89.924 C 114.82 89.924 115.514 89.727 116.107 89.324 C 116.7 88.921 117.157 88.442 117.46 87.88 L 117.619 87.88 L 118.273 89.908 L 122 88.785 L 122 87.857 C 121.513 87.872 121.162 87.782 120.95 87.585 C 120.738 87.389 120.63 87.061 120.63 86.605 Z" fill="rgb(140, 140, 140)"/><path d="M 130.154 78.463 C 129.286 78.463 128.617 78.745 128.137 79.307 C 127.658 79.877 127.317 80.537 127.11 81.298 L 126.959 81.298 L 126.472 78.511 L 122.578 79.612 L 122.578 80.532 C 123.065 80.532 123.406 80.63 123.628 80.822 C 123.84 81.011 123.948 81.338 123.948 81.81 L 123.948 87.527 C 123.948 87.998 123.797 88.301 123.507 88.447 C 123.209 88.598 122.898 88.666 122.578 88.666 L 122.578 89.593 L 128.874 89.593 L 128.874 88.666 C 128.493 88.666 128.122 88.598 127.749 88.447 C 127.383 88.303 127.201 87.998 127.201 87.527 L 127.201 83.349 C 127.277 82.991 127.413 82.666 127.62 82.369 C 127.824 82.064 128.077 81.822 128.372 81.641 C 128.662 81.459 128.965 81.369 129.27 81.369 C 129.667 81.369 129.954 81.452 130.131 81.618 C 130.305 81.792 130.436 82.044 130.504 82.376 L 131.342 82.376 L 131.342 78.791 C 131.214 78.708 131.029 78.632 130.802 78.564 C 130.575 78.496 130.361 78.466 130.156 78.466 Z" fill="rgb(140, 140, 140)"/><path d="M 141.315 87.62 C 141.114 87.424 141.008 87.021 141.008 86.418 L 141.008 82.767 C 141.008 81.301 140.619 80.222 139.842 79.514 C 139.064 78.808 138.042 78.456 136.776 78.456 C 135.509 78.456 134.535 78.763 133.694 79.37 C 132.859 79.975 132.306 80.875 132.024 82.044 L 133.084 82.308 C 133.301 81.651 133.631 81.154 134.063 80.822 C 134.499 80.492 135.042 80.328 135.708 80.328 C 136.543 80.328 137.091 80.562 137.364 81.033 C 137.641 81.502 137.772 82.087 137.772 82.787 L 137.772 83.314 C 136.468 83.601 135.405 83.899 134.557 84.201 C 133.616 84.536 132.897 84.962 132.412 85.461 C 131.918 85.97 131.673 86.592 131.673 87.343 C 131.673 88.167 131.933 88.795 132.46 89.246 C 132.978 89.692 133.631 89.911 134.429 89.911 C 135.143 89.911 135.796 89.724 136.377 89.341 C 136.952 88.963 137.442 88.432 137.835 87.741 L 137.974 87.741 L 138.832 89.908 L 142.423 88.749 L 142.423 87.819 C 141.891 87.882 141.525 87.814 141.315 87.618 Z M 137.77 86.708 C 137.583 86.968 137.323 87.187 137.015 87.356 C 136.695 87.52 136.367 87.605 136.031 87.605 C 135.622 87.605 135.307 87.499 135.105 87.28 C 134.898 87.056 134.802 86.759 134.802 86.398 C 134.802 86.038 134.908 85.733 135.128 85.478 C 135.352 85.214 135.713 84.98 136.208 84.773 C 136.612 84.609 137.134 84.438 137.772 84.264 L 137.772 86.708 Z" fill="rgb(140, 140, 140)"/><path d="M 154.438 87.522 L 154.438 81.918 C 154.438 80.877 154.133 80.036 153.517 79.403 C 152.901 78.781 152.079 78.461 151.054 78.461 C 150.216 78.461 149.487 78.665 148.871 79.068 C 148.255 79.471 147.768 79.988 147.418 80.618 L 147.266 80.618 L 146.605 78.506 L 142.878 79.607 L 142.878 80.527 C 143.365 80.527 143.715 80.625 143.927 80.817 C 144.139 81.006 144.248 81.333 144.248 81.804 L 144.248 87.522 C 144.248 87.993 144.104 88.296 143.806 88.442 C 143.508 88.593 143.206 88.661 142.878 88.661 L 142.878 89.588 L 148.871 89.588 L 148.871 88.661 C 148.543 88.661 148.24 88.593 147.942 88.442 C 147.652 88.298 147.501 87.993 147.501 87.522 L 147.501 81.956 C 147.713 81.59 148.011 81.295 148.422 81.066 C 148.826 80.839 149.242 80.723 149.684 80.723 C 150.681 80.723 151.183 81.353 151.183 82.613 L 151.183 87.52 C 151.183 87.991 151.039 88.293 150.741 88.439 C 150.443 88.591 150.14 88.659 149.812 88.659 L 149.812 89.586 L 155.806 89.586 L 155.806 88.659 C 155.485 88.659 155.175 88.591 154.877 88.439 C 154.587 88.296 154.436 87.991 154.436 87.52 Z" fill="rgb(140, 140, 140)"/><path d="M 162.622 87.726 C 162.309 87.9 161.984 87.983 161.64 87.983 C 161.1 87.983 160.75 87.802 160.606 87.429 C 160.462 87.063 160.386 86.539 160.386 85.872 L 160.386 80.131 L 163.869 80.131 L 163.869 78.856 L 160.386 78.856 L 160.386 75.91 L 158.516 75.91 C 158.471 76.729 158.211 77.43 157.749 78.015 C 157.277 78.592 156.616 78.889 155.763 78.904 L 155.763 80.134 L 157.131 80.134 L 157.131 86.771 C 157.131 87.774 157.396 88.555 157.928 89.125 C 158.468 89.694 159.205 89.984 160.141 89.984 C 160.893 89.984 161.61 89.803 162.294 89.422 C 162.97 89.049 163.541 88.517 163.997 87.827 L 163.45 87.084 C 163.215 87.348 162.94 87.562 162.62 87.729 Z" fill="rgb(140, 140, 140)"/><g transform="translate(0 0)"><g transform="translate(31.243 53.956)"><path d="M 20.899 9.912 C 20.319 10.895 19.751 11.915 19.037 12.802 C 18.537 13.425 17.856 13.987 17.141 14.365 C 16.018 14.954 15.208 14.413 15.312 13.153 C 15.37 12.339 15.567 11.505 15.902 10.761 C 17.159 7.901 18.494 5.081 19.804 2.254 C 20.064 1.69 20.351 1.143 20.725 0.394 C 19.319 0.394 18.118 0.41 16.914 0.384 C 16.339 0.379 15.973 0.596 15.711 1.133 C 15.355 1.861 14.923 2.541 14.525 3.247 C 14.307 1.992 13.886 1.014 12.816 0.467 C 11.822 -0.031 10.757 -0.137 9.649 0.18 C 8.99 0.372 8.372 0.621 7.797 0.946 C 7.105 1.329 6.467 1.795 5.871 2.355 C 4.291 3.826 3.03 5.507 2.045 7.354 C 1.48 8.413 1.003 9.521 0.609 10.676 C 0.062 12.271 -0.12 13.929 0.077 15.592 C 0.254 17.101 0.839 18.409 2.376 19.084 C 3.989 19.79 5.43 19.367 6.633 18.276 C 7.57 17.436 8.319 16.378 9.119 15.39 C 9.492 14.929 9.8 14.407 10.386 13.541 C 10.386 14.806 10.391 15.63 10.376 16.449 C 10.343 18.85 12.75 19.881 14.368 19.248 C 14.964 19.024 15.592 18.812 16.087 18.429 C 19.183 16.106 21.116 12.946 22.6 9.438 C 21.765 9.017 21.29 9.247 20.902 9.912 Z M 13.134 4.761 C 12.554 8.025 11.171 11.313 8.238 13.795 C 8.19 13.833 8.137 13.876 8.084 13.901 C 7.254 14.448 6.366 14.911 5.397 14.362 C 4.397 13.805 4.385 12.757 4.594 11.807 C 5.318 8.496 6.706 5.51 9.187 3.123 C 9.629 2.698 10.214 2.352 10.8 2.146 C 12.183 1.672 13.046 2.299 13.137 3.751 C 13.142 3.937 13.137 4.129 13.137 4.761 Z" fill="transparent"/></g><g transform="translate(88.101 21.451)"><path d="M 3.705 1.847 C 3.631 1.134 2.761 0.711 2.667 0 C 1.845 0.126 0.916 0.32 0.479 1.028 C 0.225 1.444 0.194 1.955 0.172 2.442 C 0.162 2.643 0.154 2.847 0.144 3.049 C 0.129 3.412 0.111 3.772 0.096 4.135 C 0.048 5.206 0 6.277 0 7.348 C 0 8.825 0.101 10.321 0.58 11.72 C 1.037 13.048 1.845 14.386 1.539 15.754 C 1.406 16.354 1.057 16.939 1.176 17.543 C 1.305 18.194 1.978 18.637 2.64 18.662 C 3.303 18.687 3.937 18.37 4.454 17.957 C 5.653 16.997 6.352 15.505 6.544 13.983 C 6.715 12.612 6.483 11.173 5.824 9.951 C 5.554 9.452 5.282 9.059 5.173 8.497 C 5.05 7.865 4.979 7.194 4.608 6.645 C 4.103 5.897 3.599 5.282 3.334 4.395 C 3.235 4.065 3.167 3.717 3.233 3.379 C 3.334 2.85 3.755 2.384 3.7 1.85 Z" fill="transparent"/></g><g transform="translate(143.667 43.198)"><path d="M 6.768 0.088 C 6.077 0.362 5.345 0.748 4.853 1.28 C 3.286 2.958 1.827 4.727 0 6.839 C 0.891 6.733 1.375 6.786 1.734 6.604 C 3.558 5.684 5.37 4.737 7.134 3.719 C 7.667 3.414 8.116 2.89 8.464 2.376 C 8.769 1.92 8.989 1.343 8.608 0.766 C 8.234 0.204 7.467 -0.184 6.768 0.09 Z" fill="transparent"/></g><g transform="translate(3.58 0)"><path d="M 55.226 16.056 C 55.966 16.199 56.892 16.731 57.243 17.379 C 57.419 17.676 57.515 18.016 57.669 18.318 C 57.995 18.941 58.484 19.11 58.926 19.641 C 59.204 19.949 59.378 20.413 59.234 20.801 C 59.148 21.083 58.936 21.294 58.749 21.506 C 57.669 22.872 57.525 24.747 57.637 26.48 C 57.737 28.229 58.01 30.003 57.525 31.676 C 57.314 32.49 56.912 33.239 56.514 34 C 57.142 33.271 58.285 33.239 58.989 32.634 C 59.464 32.246 59.708 31.666 59.958 31.099 C 60.443 29.978 61.028 28.899 61.591 27.811 C 62.719 25.75 63.875 23.484 63.602 21.148 C 63.469 20.07 64.955 19.841 65.704 19.309 C 66.103 19.044 67.188 18.192 67.678 18.686 C 67.668 18.686 65.523 22.693 65.346 23.263 C 65.134 23.968 64.937 24.853 65.331 25.553 C 65.906 26.569 67.264 26.569 68.094 27.297 C 69.419 28.428 68.584 30.603 67.547 32.463 C 68.415 32.357 69.293 32.304 70.186 32.304 C 71.282 32.304 72.417 32.39 73.555 32.548 C 75.289 32.788 76.897 33.206 78.388 33.808 C 78.456 33.468 78.522 33.133 78.59 32.788 C 78.989 30.742 79.031 28.36 80.308 26.639 L 80.586 25.863 C 80.836 25.311 80.912 24.661 80.859 24.056 C 80.816 23.562 80.801 23.011 80.642 22.537 C 80.518 22.144 80.258 21.788 80.162 21.388 C 79.95 20.564 79.97 19.83 79.917 19.011 C 79.859 18.145 79.423 17.172 79.188 16.338 C 78.948 15.471 78.867 14.733 79.102 13.883 C 79.597 12.115 79.842 10.147 79.688 8.32 C 79.635 7.629 79.476 6.939 79.602 6.263 C 79.67 5.895 79.857 5.545 80.129 5.291 C 80.364 5.066 80.614 5.046 80.927 5.026 C 81.24 4.993 81.56 5.122 81.795 5.313 C 82.332 5.754 82.534 6.397 82.802 7.009 C 83.036 7.546 83.281 8.078 83.531 8.609 C 84.031 9.635 84.563 10.681 85.282 11.58 C 85.638 12.036 86.33 12.818 86.986 12.409 C 87.054 12.361 87.12 12.304 87.173 12.241 C 87.503 11.88 88.041 12.082 88.747 12.571 C 89.348 12.984 90.13 13.352 90.398 14.095 C 90.489 14.312 90.504 14.551 90.504 14.791 C 90.504 15.103 90.461 15.438 90.461 15.753 C 90.461 16.222 90.557 16.668 90.673 17.152 C 90.726 17.472 90.817 17.794 90.885 18.135 C 90.966 18.49 91.061 18.853 91.21 19.17 C 91.407 19.583 91.72 19.941 91.897 20.355 C 92.094 20.843 92.099 21.39 92.179 21.917 C 92.222 22.146 92.248 22.358 92.381 22.539 C 92.505 22.736 92.717 22.852 92.909 22.965 C 93.499 23.32 94.153 23.635 94.723 24.039 C 95.251 24.399 95.538 24.984 95.851 25.533 C 96.522 26.755 97.017 28.058 97.325 29.386 C 97.441 29.855 97.532 30.343 97.724 30.767 C 97.893 31.135 98.138 31.462 98.309 31.812 C 98.496 32.201 98.587 32.626 98.718 33.02 C 98.905 33.576 99.187 34.113 99.5 34.63 C 100.038 35.469 100.8 36.268 100.906 37.276 C 100.916 37.356 100.921 37.434 100.921 37.52 C 100.926 37.86 101.295 38.077 101.608 37.946 C 102.016 37.777 102.428 37.626 102.831 37.5 C 103.22 37.376 103.384 36.943 103.21 36.585 C 102.998 36.154 102.854 35.693 102.715 35.224 C 102.423 34.242 102.125 33.241 101.822 32.253 C 101.746 32.019 101.678 31.775 101.645 31.515 C 101.608 31.084 101.703 30.638 101.703 30.197 C 101.703 29.033 100.921 28.023 100.384 26.992 C 99.874 26.009 99.629 24.999 99.452 23.9 C 99.389 23.444 99.341 23.32 99.644 22.96 C 99.932 22.61 100.25 22.428 100.25 21.919 C 100.25 21.516 100.038 21.171 100.033 20.77 C 100 20.042 100.709 19.505 101.396 19.276 C 102.077 19.032 102.831 18.946 103.422 18.538 C 103.556 18.447 103.667 18.341 103.811 18.303 C 104.093 18.223 104.368 18.394 104.646 18.409 C 105.3 18.477 105.903 17.84 106.513 18.021 C 106.816 18.097 107.013 18.341 107.195 18.558 C 107.472 18.903 107.722 19.258 108.045 19.515 C 108.237 19.649 108.449 19.717 108.616 19.866 C 108.361 20.009 108.116 20.143 107.896 20.322 C 106.269 21.735 105.948 22.214 106.269 22.502 C 106.695 22.922 107.561 23.192 108.595 23.421 C 110.069 23.794 111.745 24.17 112.444 24.807 C 114.508 25.407 115.487 25.737 115.487 25.737 C 115.487 25.77 114.589 27.453 114.589 27.698 C 114.589 28.176 114.617 28.149 115.003 28.446 C 116.499 29.61 120.799 29.683 118.803 32.788 C 118.329 33.506 117.599 34.015 116.908 34.494 C 115.275 35.615 113.64 36.741 112.017 37.863 C 111.964 37.901 111.911 37.938 111.868 37.969 C 113.256 38.606 114.369 39.473 115.242 40.599 C 116.27 41.945 116.749 43.555 116.663 45.153 C 116.673 45.296 116.779 45.397 116.893 45.397 C 116.994 45.397 117.08 45.334 117.117 45.254 C 117.352 44.855 117.587 44.462 117.832 44.069 C 119.464 41.413 120.471 40.332 123.873 40.332 L 124.65 40.332 C 125.059 40.337 125.448 40.36 125.889 40.39 L 126.48 40.428 C 127.492 40.481 128.413 41.045 128.928 41.915 C 130.19 40.602 131.706 40.284 132.86 40.284 C 133.12 40.284 133.392 40.299 133.675 40.332 C 133.834 40.352 134.015 40.36 134.265 40.36 C 134.49 40.36 134.717 40.355 134.962 40.345 C 135.282 40.34 135.61 40.335 135.979 40.335 C 137.064 40.335 138.071 40.909 138.613 41.849 C 139.156 42.794 139.151 43.953 138.613 44.898 C 138.235 45.526 137.889 46.125 137.538 46.71 C 137.251 47.209 136.958 47.688 136.68 48.167 C 136.958 47.98 137.223 47.784 137.49 47.577 C 138.384 46.871 139.199 46.078 140.102 45.397 C 141.066 44.271 141.987 43.207 142.944 42.182 C 143.103 42.018 143.274 41.857 143.444 41.703 C 144.753 40.572 146.775 39.561 148.541 40.073 C 149.392 40.317 150.26 40.504 151.148 40.582 C 151.958 40.65 152.776 40.609 153.558 40.405 C 153.899 40.32 154.325 40.224 154.595 39.984 C 154.85 39.75 155.113 39.543 155.393 39.342 C 155.968 38.901 156.478 38.412 156.937 37.875 C 157.154 37.603 157.364 37.276 157.273 36.951 C 157.22 36.749 157.061 36.6 156.889 36.457 C 153.25 33.241 148.652 31.382 144.148 29.58 C 142.568 28.957 141.003 28.33 139.434 27.705 C 138.795 27.433 138.141 27.183 137.566 26.838 C 136.703 26.339 135.969 25.669 135.118 25.165 C 134.644 24.905 134.149 24.686 133.665 24.442 C 131.275 23.205 129.152 21.297 126.965 19.74 C 126.72 19.553 126.475 19.384 126.192 19.271 C 125.627 19.027 124.983 19.069 124.363 18.989 C 123.378 18.845 122.452 18.389 121.728 17.686 C 121.191 17.149 120.764 16.464 120.047 16.156 C 119.26 15.821 118.344 16.041 117.493 16.247 C 116.582 16.459 115.669 16.625 114.748 16.741 C 114.369 16.784 113.981 16.87 113.605 16.943 C 113.183 17.011 112.742 16.852 112.348 16.741 C 111.056 16.343 109.67 16.214 108.313 16.353 C 107.967 16.396 107.593 16.459 107.228 16.429 C 106.94 16.413 106.556 16.338 106.339 16.141 C 106.17 15.988 106.127 15.768 105.918 15.625 C 105.759 15.509 105.562 15.448 105.37 15.385 C 104.343 15.078 103.2 14.881 102.13 15.03 C 101.093 15.174 100.033 15.6 98.973 15.332 C 98.862 15.312 98.761 15.274 98.685 15.204 C 98.609 15.118 98.546 15.022 98.493 14.891 C 98.473 14.854 98.45 14.828 98.435 14.786 C 98.105 14.229 97.585 13.914 97.244 13.4 C 96.866 12.848 96.558 12.268 96.03 11.875 C 95.233 11.291 94.297 10.93 93.315 10.865 C 93.042 10.85 92.767 10.85 92.553 10.706 C 92.144 10.494 92.058 9.968 91.786 9.58 C 91.268 8.889 90.211 8.851 89.472 8.362 C 89.04 8.09 88.722 7.649 88.273 7.37 C 87.639 6.976 86.842 6.929 86.156 6.626 C 85.214 6.213 84.558 5.351 83.915 4.555 C 82.872 3.257 81.701 2.035 80.45 0.926 C 80.066 0.586 79.652 0.226 79.163 0.092 C 78.668 -0.051 78.136 0.001 77.626 0.059 C 76.162 0.223 74.666 0.4 73.326 1.037 C 71.496 1.886 70.148 3.524 68.967 5.172 C 68.064 6.427 67.226 7.74 66.179 8.876 C 65.626 9.461 65.205 9.859 64.427 10.041 C 63.655 10.204 62.883 10.242 62.118 10.252 C 60.43 10.285 58.739 10.328 57.056 10.252 C 56.433 10.232 55.822 10.184 55.232 10.396 C 54.853 10.54 54.512 10.784 54.129 10.948 C 53.72 11.117 53.261 11.192 52.819 11.321 C 51.82 11.598 50.994 12.203 50.03 12.515 C 49.036 12.823 48.067 13.609 47.146 14.13 C 46.757 14.355 46.374 14.571 45.975 14.788 C 44.347 15.685 42.669 16.514 40.925 17.152 C 40.229 17.411 39.499 17.636 38.765 17.53 C 38.276 17.454 37.786 17.2 37.307 17.051 C 35.891 16.643 34.402 17.099 33.034 17.598 C 31.656 18.092 30.235 18.656 28.782 18.502 C 26.546 18.263 25.393 17.505 23.167 18.162 C 19.424 19.274 15.689 21.08 11.997 22.572 C 10.034 23.368 8.048 24.102 6.004 24.623 C 4.376 25.031 1.492 24.905 0.298 26.296 C -0.085 26.742 -0.027 27.398 0.081 27.96 C 0.46 29.968 1.277 31.881 2.476 33.556 C 3.046 34.358 3.402 34.942 4.376 35.295 C 5.312 35.635 6.34 35.688 7.324 35.635 C 8.543 35.572 9.746 35.363 10.963 35.418 C 12.018 35.466 13.065 35.678 14.072 36.003 C 15.944 36.62 17.633 37.704 18.925 39.191 C 20.26 40.733 21.032 42.449 21.196 44.228 C 21.272 44.137 21.35 44.036 21.426 43.946 C 23.82 41.023 26.672 39.115 29.892 38.271 C 30.599 38.09 31.318 37.999 32.027 37.999 C 34.384 37.999 36.413 38.982 37.71 40.577 C 37.998 40.927 38.568 40.71 38.53 40.252 L 38.455 39.269 C 38.407 38.886 38.311 38.498 38.392 38.137 C 38.7 36.57 41.228 35.985 42.318 35.103 C 44.027 33.718 45.294 31.777 46.172 29.784 C 46.694 28.605 46.969 27.33 47.87 26.339 C 48.668 25.457 49.866 25.016 50.664 24.112 C 52.052 22.496 52.708 19.452 53.576 17.502 C 53.932 16.688 54.315 15.897 55.226 16.056 Z M 119.654 21.698 C 120.287 21.735 120.527 21.841 120.979 22.224 C 121.958 23.048 122.826 23.892 123.585 24.951 C 123.974 25.163 124.383 25.349 124.772 25.573 C 125.554 26.042 126.187 26.71 126.99 27.12 C 127.772 27.541 128.037 28.554 128.655 29.172 C 128.885 29.396 129.15 29.57 129.428 29.751 C 130.2 30.26 131.012 30.762 131.684 31.414 C 131.843 31.563 132.004 31.739 132.14 31.923 C 131.714 32.087 131.257 32.178 130.8 32.178 C 130.177 32.163 129.556 31.981 128.923 31.981 C 128.587 31.981 128.252 32.019 127.923 31.986 C 126.859 31.923 125.783 31.455 124.822 31.057 C 124.12 30.764 123.444 30.376 123.033 29.734 C 122.856 29.489 122.74 29.207 122.596 28.957 C 122.235 28.315 121.66 27.803 121.42 27.118 C 121.352 26.889 121.304 26.634 121.175 26.438 C 120.946 26.107 120.552 25.981 120.239 25.732 C 119.851 25.42 119.686 24.936 119.495 24.495 C 119.313 24.054 119.063 23.646 118.823 23.235 C 118.531 22.67 117.882 22.358 117.627 21.801 C 117.627 21.801 119.475 21.685 119.654 21.7 Z M 48.042 21.357 C 47.941 21.554 47.777 21.683 47.605 21.798 C 45.935 22.915 44.145 23.822 42.485 24.976 C 40.845 26.107 39.308 27.516 38.457 29.323 C 38.298 29.648 38.144 30.018 37.862 30.248 C 37.526 30.497 37.089 30.53 36.676 30.568 C 34.914 30.759 33.196 31.253 31.613 32.049 C 30.889 32.4 30.304 32.916 29.496 32.951 C 29.064 32.989 28.656 32.972 28.244 32.899 C 28.042 32.878 27.323 32.505 27.174 32.543 C 29.367 31.79 30.629 29.577 32.358 28.048 C 32.736 27.692 33.145 27.377 33.587 27.09 C 34.523 26.458 35.565 25.941 36.595 25.447 C 36.595 25.256 38.942 24.205 39.219 24.049 C 40.077 23.555 40.928 23.056 41.796 22.592 C 43.615 21.594 45.425 21.237 47.449 20.78 C 47.618 20.738 47.8 20.717 47.928 20.796 C 48.12 20.911 48.14 21.168 48.044 21.352 Z" fill="transparent"/></g><g transform="translate(58.181 35.574)"><path d="M 53.977 11.431 C 53.803 11.537 53.656 11.688 53.459 11.85 C 54.845 12.762 56.19 12.928 57.194 12.412 C 57.765 12.129 58.214 11.623 58.502 10.907 C 59.026 9.602 58.905 8.279 57.999 7.102 C 57.512 6.472 56.919 5.993 56.258 5.636 C 55.763 5.353 55.223 5.142 54.661 4.975 C 53.101 4.512 51.602 4.459 50.166 4.726 C 48.867 4.968 47.617 5.469 46.401 6.17 C 46.28 6.238 46.166 6.306 46.043 6.381 C 43.564 7.901 41.495 9.897 39.645 12.122 C 35.903 16.61 32.854 21.546 30.298 26.795 C 29.924 27.554 29.475 28.277 29.066 29.013 C 28.96 28.967 28.854 28.914 28.746 28.869 C 28.852 28.458 28.928 28.05 29.066 27.654 C 30.2 24.26 31.227 20.851 31.593 17.272 C 32.064 12.656 30.977 8.501 27.843 5.031 C 26.404 3.436 24.746 2.274 22.884 1.47 C 21.468 0.848 19.934 0.437 18.298 0.21 C 15.583 -0.17 13.011 -0.039 10.594 0.644 C 8.418 1.259 6.364 2.322 4.456 3.864 C 0.744 6.855 -1.156 11.908 0.752 16.766 C 3.323 23.328 11.931 25.681 17.834 21.521 C 19.903 20.062 20.678 17.968 20.259 15.468 C 19.976 13.79 18.503 12.492 16.799 12.391 C 15.606 12.323 14.866 12.787 14.382 13.964 C 15.926 13.926 16.946 14.609 17.433 16.083 C 17.92 17.565 17.569 18.908 16.572 19.994 C 15.994 20.616 15.172 21.125 14.367 21.423 C 11.149 22.584 6.289 20.556 4.86 16.327 C 3.27 11.618 5.317 6.119 9.645 3.516 C 10.314 3.113 10.998 2.788 11.692 2.536 C 14.041 1.654 16.499 1.631 19.045 2.355 C 19.722 2.544 20.353 2.781 20.946 3.053 C 23.646 4.305 25.455 6.455 26.185 9.607 C 26.52 11.089 26.846 12.653 26.725 14.14 C 26.497 17.056 26.071 19.974 25.508 22.844 C 24.527 27.871 22.869 32.694 20.443 37.424 C 22.74 37.424 24.908 37.394 27.075 37.447 C 27.858 37.469 28.057 36.983 28.254 36.444 C 30.353 30.58 33.258 25.119 36.604 19.888 C 38.712 16.6 41.016 13.447 43.86 10.751 C 44.925 9.74 46.035 8.76 47.267 7.994 C 48.041 7.5 48.872 7.105 49.77 6.825 C 50.053 6.734 50.34 6.659 50.638 6.598 C 51.383 6.447 52.175 6.341 52.912 6.455 C 54.151 6.644 54.958 7.457 55.239 8.702 C 55.506 9.917 55.057 10.829 53.977 11.436 Z" fill="transparent"/></g><g transform="translate(93.913 43.553)"><path d="M 53.282 24.619 C 53.507 25.325 53.633 25.879 53.835 26.411 C 54.584 28.308 55.917 29.42 58.011 29.525 C 59.513 29.601 60.954 29.415 62.296 28.706 C 65.809 26.832 68.32 24.019 70.008 20.444 C 70.099 20.247 70.061 19.988 70.084 19.758 C 69.776 19.731 69.425 19.6 69.173 19.705 C 68.913 19.811 68.736 20.141 68.545 20.391 C 68.022 21.114 67.581 21.91 66.98 22.565 C 65.415 24.256 63.573 25.473 61.13 25.365 C 59.783 25.307 58.614 24.319 58.38 23.102 C 58.15 21.933 58.417 21.53 59.624 21.258 C 60.06 21.152 60.507 21.104 60.949 21.008 C 63.79 20.376 66.175 18.977 67.969 16.661 C 68.731 15.674 69.193 14.595 69.183 13.302 C 69.183 12.128 68.661 11.337 67.618 10.906 C 66.357 10.389 65.054 10.221 63.687 10.624 C 61.993 11.123 60.547 12.022 59.253 13.197 C 57.141 15.127 55.624 17.475 54.347 20.003 C 53.9 20.907 53.401 21.83 52.729 22.576 C 51.185 24.292 49.312 25.489 46.87 25.365 C 45.444 25.289 44.278 24.201 44.134 22.883 C 44.01 21.82 44.202 21.545 45.252 21.293 C 45.683 21.187 46.125 21.117 46.567 21.033 C 49.494 20.434 51.922 19.01 53.761 16.629 C 54.524 15.651 54.97 14.557 54.965 13.275 C 54.96 12.09 54.413 11.309 53.368 10.893 C 52.106 10.377 50.796 10.218 49.436 10.629 C 47.738 11.138 46.302 12.042 45.007 13.222 C 42.741 15.278 41.176 17.823 39.851 20.54 C 39.089 22.122 38.128 23.536 36.679 24.569 C 36.089 25 35.38 25.206 34.706 24.813 C 33.944 24.377 34.035 23.596 34.216 22.921 C 34.537 21.757 34.882 20.587 35.334 19.466 C 37.033 15.301 39.064 11.309 41.214 7.366 C 41.57 6.713 41.938 6.053 42.304 5.4 C 43.263 3.674 44.278 1.988 45.413 0.043 C 44.386 0.043 43.566 0.123 42.759 0.028 C 41.467 -0.121 40.624 0.325 39.985 1.489 C 38.549 4.097 36.962 6.637 35.546 9.258 C 35.359 9.613 35.168 9.971 34.988 10.326 C 33.328 13.562 31.892 16.911 30.385 20.222 C 29.656 21.812 28.73 23.246 27.357 24.362 C 26.681 24.909 25.888 25.292 25.068 24.788 C 24.253 24.294 24.463 23.455 24.664 22.709 C 24.947 21.726 25.245 20.749 25.611 19.796 C 26.979 16.311 28.611 12.962 30.38 9.669 C 31.13 8.222 31.925 6.799 32.712 5.37 C 33.664 3.654 34.686 1.968 35.74 0.136 C 35.079 0.098 34.58 0.055 34.075 0.045 C 31.307 0.025 31.291 0.018 29.861 2.331 C 28.738 4.17 27.657 6.03 26.625 7.922 C 24.591 11.637 22.762 15.452 21.149 19.375 C 20.569 20.774 19.771 22.112 18.903 23.357 C 18.456 23.994 17.694 24.506 16.97 24.856 C 16.029 25.312 15.251 24.788 15.315 23.755 C 15.368 22.878 15.549 21.958 15.905 21.162 C 17.215 18.186 18.62 15.253 19.986 12.297 C 20.193 11.866 20.4 11.435 20.705 10.803 C 19.357 10.803 18.209 10.835 17.071 10.788 C 16.316 10.755 15.905 11.085 15.592 11.727 C 15.284 12.393 14.873 13.003 14.411 13.811 C 13.758 10.931 12.132 9.921 9.611 10.606 C 9.548 10.626 9.488 10.659 9.425 10.674 C 8.024 11.034 6.866 11.811 5.839 12.801 C 2.987 15.517 1.069 18.786 0.218 22.631 C -0.102 24.077 -0.059 25.526 0.277 26.993 C 0.756 29.125 3.464 30.813 5.907 29.173 C 6.886 28.515 7.706 27.567 8.498 26.66 C 9.117 25.955 9.573 25.103 10.361 23.919 C 10.361 25.093 10.341 25.831 10.361 26.57 C 10.452 29.233 12.309 30.433 14.825 29.498 C 16.064 29.047 17.003 28.18 17.896 27.265 C 18.366 26.781 18.827 26.287 19.433 25.635 C 19.524 26.171 19.577 26.416 19.61 26.665 C 19.961 29.329 21.952 30.551 24.415 29.44 C 25.49 28.951 26.393 28.079 27.332 27.321 C 27.902 26.852 28.379 26.267 29.061 25.562 C 29.146 26.166 29.194 26.481 29.23 26.789 C 29.555 29.243 31.443 30.417 33.785 29.541 C 34.547 29.258 35.296 28.822 35.897 28.286 C 36.987 27.303 37.951 26.197 39.107 25.002 C 39.299 25.544 39.443 25.96 39.602 26.373 C 40.374 28.361 41.762 29.46 43.945 29.546 C 45.59 29.604 47.165 29.354 48.528 28.434 C 49.789 27.578 50.96 26.585 52.161 25.64 C 52.535 25.347 52.858 25.002 53.284 24.624 Z M 62.405 13.794 C 63.167 13.008 64.045 12.342 65.173 12.173 C 66.541 11.967 67.111 12.677 66.647 13.965 C 66.604 14.089 66.561 14.21 66.508 14.32 C 65.37 16.797 61.925 19.358 58.882 19.857 C 59.578 17.412 60.792 15.482 62.405 13.794 Z M 49.6 12.725 C 50.158 12.37 50.91 12.216 51.579 12.179 C 52.323 12.131 52.77 12.763 52.573 13.476 C 52.429 14.023 52.194 14.588 51.866 15.034 C 50.158 17.362 48.018 19.131 45.176 19.902 C 45.075 19.93 44.947 19.826 44.687 19.733 C 45.618 16.891 47.023 14.394 49.598 12.73 Z M 8.249 24.183 C 8.206 24.226 8.153 24.264 8.1 24.289 C 7.269 24.836 6.381 25.315 5.412 24.783 C 4.317 24.178 4.38 23.052 4.615 22.051 C 5.321 18.942 6.636 16.137 8.882 13.809 C 9.185 13.489 9.525 13.186 9.894 12.942 C 10.676 12.425 11.544 12.146 12.423 12.64 C 13.225 13.096 13.142 13.925 13.167 14.724 C 12.566 18.405 11.189 21.696 8.249 24.183 Z" fill="transparent"/></g><g transform="translate(0 38.605)"><path d="M 46.166 38.542 C 44.538 38.026 43.41 38.474 42.499 40.047 C 42.772 40.095 43.017 40.122 43.261 40.17 C 44.985 40.452 45.969 41.339 46.156 42.997 C 46.325 44.507 45.677 45.767 44.501 46.679 C 42.825 47.977 40.925 48.274 38.87 47.768 C 36.259 47.125 34.119 45.616 32.059 43.973 C 27.653 40.47 23.694 36.433 18.947 33.349 C 18.293 32.928 18.293 32.701 18.967 31.973 C 20.617 30.166 21.957 28.158 23.151 26.026 C 23.444 25.509 23.933 24.98 24.466 24.741 C 26.818 23.71 28.958 22.36 30.901 20.739 C 31.411 20.326 31.908 19.883 32.397 19.426 C 34.121 17.801 35.633 16.03 36.852 14.069 C 37.735 12.645 38.464 11.121 39.007 9.468 C 39.299 8.576 39.529 7.593 39.544 6.663 L 39.544 6.477 C 39.506 3.765 36.9 2.087 34.015 2.843 C 31.179 3.576 28.965 5.267 27.138 7.487 C 26.573 8.173 26.053 8.886 25.574 9.619 C 23.893 12.131 22.651 14.876 21.677 17.761 C 21.059 19.568 20.526 21.407 19.921 23.219 C 19.479 24.547 19.446 24.522 18.021 24.585 C 15.727 24.69 13.529 24.229 11.502 23.252 C 5.393 20.313 2.839 15.019 4.716 8.745 C 5.705 5.451 7.851 3.08 11.272 2.039 C 12.065 1.805 12.875 1.719 13.662 1.775 C 15.212 1.891 16.663 2.551 17.607 3.644 C 18.351 4.501 18.619 5.557 18.513 6.562 C 18.349 8.301 17.077 9.874 15.293 9.964 C 15.01 9.979 14.727 10.06 14.308 10.141 C 15.053 11.554 16.146 11.932 17.438 11.688 C 19.179 11.353 20.471 10.385 21.137 8.692 C 21.17 8.624 21.195 8.548 21.218 8.48 C 21.962 6.361 21.43 4.478 19.984 2.815 C 18.381 0.976 16.221 0.2 13.864 0.036 C 13.226 -0.012 12.602 -0.012 11.987 0.036 C 9.342 0.217 6.952 1.23 4.782 2.959 C 0.769 6.147 -0.838 10.798 0.419 15.984 C 1.478 20.379 4.613 23.053 8.61 24.753 C 11.159 25.847 13.857 26.336 16.64 26.359 C 17.258 26.359 17.927 26.134 18.636 26.699 C 18.031 27.853 17.47 29.07 16.774 30.196 C 15.896 31.615 15.823 31.562 14.134 31.106 C 11.543 30.393 8.946 30.393 6.397 31.318 C 5.241 31.739 4.194 32.353 3.641 33.533 C 3.041 34.823 3.429 36.01 4.764 36.504 C 5.652 36.834 6.627 37.045 7.563 37.068 C 10.235 37.136 12.756 36.504 15.098 35.198 C 16.428 34.455 16.524 34.412 17.498 35.559 C 19.164 37.499 20.751 39.507 22.293 41.543 C 23.959 43.743 25.73 45.842 27.779 47.687 C 32.143 51.62 38.477 52.639 43.819 49.7 C 46.108 48.445 48.056 46.805 48.96 44.237 C 49.81 41.808 48.576 39.311 46.176 38.557 Z M 29.407 12.083 C 29.95 11.005 30.525 9.942 31.141 8.896 C 31.721 7.923 32.455 7.021 33.195 6.154 C 33.563 5.728 34.063 5.388 34.563 5.129 C 35.744 4.529 36.632 5.018 36.67 6.303 C 36.69 7.056 36.594 7.85 36.382 8.561 C 35.973 9.947 35.413 11.249 34.737 12.472 C 33.283 15.14 31.282 17.431 28.988 19.53 C 27.913 20.502 26.699 21.309 25.538 22.203 C 25.432 22.103 25.326 22.002 25.218 21.906 C 26.538 18.595 27.82 15.274 29.402 12.086 Z M 9.274 34.521 C 8.731 34.505 8.262 34.281 8.146 33.697 C 8.012 33.084 8.433 32.734 8.928 32.56 C 10.579 31.996 12.211 31.751 13.91 32.938 C 12.479 34.14 10.957 34.558 9.274 34.521 Z" fill="transparent"/></g><g transform="translate(54.317 74.386)"><path d="M 109.133 12.695 C 108.898 12.96 108.623 13.174 108.302 13.34 C 107.989 13.514 107.664 13.597 107.321 13.597 C 106.781 13.597 106.43 13.416 106.286 13.043 C 106.142 12.678 106.066 12.153 106.066 11.486 L 106.066 5.745 L 109.549 5.745 L 109.549 4.47 L 106.066 4.47 L 106.066 1.525 L 104.196 1.525 C 104.151 2.343 103.891 3.044 103.429 3.629 C 102.957 4.206 102.296 4.503 101.443 4.518 L 101.443 5.748 L 102.811 5.748 L 102.811 12.385 C 102.811 13.388 103.076 14.169 103.608 14.739 C 103.77 14.91 103.952 15.051 104.151 15.172 L 101.489 15.172 L 101.489 14.275 C 101.168 14.275 100.858 14.207 100.56 14.056 C 100.27 13.912 100.118 13.607 100.118 13.136 L 100.118 7.532 C 100.118 6.491 99.813 5.65 99.197 5.017 C 98.581 4.395 97.759 4.075 96.734 4.075 C 95.896 4.075 95.167 4.279 94.551 4.682 C 93.935 5.085 93.448 5.602 93.098 6.232 L 92.946 6.232 L 92.285 4.12 L 88.558 5.221 L 88.558 6.141 C 89.045 6.141 89.396 6.239 89.608 6.431 C 89.82 6.62 89.928 6.947 89.928 7.419 L 89.928 13.136 C 89.928 13.607 89.784 13.91 89.486 14.056 C 89.189 14.207 88.886 14.275 88.558 14.275 L 88.558 15.172 L 85.608 15.172 L 88.103 14.368 L 88.103 13.439 C 87.571 13.502 87.205 13.434 86.996 13.237 C 86.794 13.04 86.688 12.637 86.688 12.035 L 86.688 8.384 C 86.688 6.917 86.299 5.839 85.522 5.13 C 84.745 4.425 83.723 4.072 82.456 4.072 C 81.189 4.072 80.215 4.38 79.374 4.987 C 78.539 5.592 77.986 6.491 77.704 7.66 L 78.764 7.925 C 78.981 7.267 79.311 6.771 79.743 6.438 C 80.179 6.108 80.722 5.944 81.388 5.944 C 82.224 5.944 82.771 6.179 83.044 6.65 C 83.321 7.119 83.453 7.703 83.453 8.404 L 83.453 8.93 C 82.148 9.218 81.085 9.515 80.237 9.817 C 79.296 10.153 78.577 10.578 78.092 11.077 C 77.598 11.586 77.353 12.209 77.353 12.96 C 77.353 13.784 77.613 14.411 78.14 14.862 C 78.279 14.983 78.431 15.084 78.59 15.172 L 74.557 15.172 L 74.557 14.275 C 74.176 14.275 73.805 14.207 73.431 14.056 C 73.065 13.912 72.884 13.607 72.884 13.136 L 72.884 8.958 C 72.959 8.6 73.096 8.275 73.303 7.978 C 73.507 7.673 73.759 7.431 74.055 7.25 C 74.345 7.068 74.648 6.978 74.953 6.978 C 75.349 6.978 75.637 7.061 75.814 7.227 C 75.988 7.401 76.119 7.653 76.187 7.986 L 77.025 7.986 L 77.025 4.4 C 76.896 4.317 76.712 4.241 76.485 4.173 C 76.258 4.105 76.043 4.075 75.839 4.075 C 74.971 4.075 74.302 4.357 73.822 4.919 C 73.343 5.488 73 6.149 72.795 6.91 L 72.644 6.91 L 72.157 4.123 L 68.263 5.224 L 68.263 6.143 C 68.75 6.143 69.091 6.242 69.313 6.433 C 69.525 6.622 69.633 6.95 69.633 7.421 L 69.633 13.139 C 69.633 13.61 69.482 13.912 69.192 14.058 C 68.894 14.21 68.584 14.278 68.263 14.278 L 68.263 15.175 L 65.098 15.175 L 67.693 14.391 L 67.693 13.464 C 67.206 13.479 66.855 13.388 66.643 13.192 C 66.431 12.995 66.322 12.667 66.322 12.211 L 66.322 4.473 L 65.401 4.473 L 61.697 5.4 L 61.697 6.32 C 62.04 6.32 62.305 6.358 62.502 6.418 C 62.699 6.486 62.845 6.615 62.928 6.814 C 63.019 7.018 63.064 7.315 63.064 7.711 L 63.064 12.131 C 62.875 12.511 62.615 12.806 62.29 13.028 C 61.969 13.247 61.598 13.363 61.172 13.363 C 60.183 13.363 59.695 12.733 59.695 11.473 L 59.695 4.478 L 58.767 4.478 L 55.07 5.405 L 55.07 6.325 C 55.405 6.325 55.67 6.363 55.86 6.423 C 56.049 6.491 56.195 6.62 56.286 6.819 C 56.385 7.023 56.43 7.32 56.43 7.716 L 56.43 12.09 C 56.43 13.131 56.728 13.965 57.321 14.598 C 57.553 14.84 57.813 15.034 58.101 15.182 L 52.44 15.182 L 54.931 14.378 L 54.931 13.449 C 54.409 13.512 54.043 13.444 53.836 13.247 C 53.634 13.05 53.528 12.647 53.528 12.045 L 53.528 8.394 C 53.528 6.927 53.139 5.849 52.362 5.141 C 51.58 4.435 50.563 4.082 49.296 4.082 C 48.029 4.082 47.055 4.39 46.22 4.997 C 45.379 5.602 44.819 6.501 44.544 7.671 L 45.604 7.935 C 45.821 7.277 46.151 6.781 46.583 6.448 C 47.009 6.118 47.557 5.954 48.216 5.954 C 49.056 5.954 49.611 6.189 49.881 6.66 C 50.159 7.129 50.285 7.713 50.285 8.414 L 50.285 8.941 C 48.975 9.228 47.91 9.525 47.075 9.828 C 46.134 10.163 45.414 10.589 44.93 11.087 C 44.435 11.597 44.191 12.219 44.191 12.97 C 44.191 13.794 44.45 14.421 44.968 14.872 C 45.109 14.993 45.263 15.094 45.425 15.182 L 41.755 15.182 C 41.851 15.137 41.947 15.097 42.043 15.046 C 42.727 14.673 43.297 14.142 43.754 13.451 L 43.199 12.708 C 42.964 12.972 42.689 13.187 42.379 13.353 C 42.058 13.527 41.733 13.61 41.397 13.61 C 40.849 13.61 40.506 13.428 40.362 13.056 C 40.211 12.69 40.143 12.166 40.143 11.498 L 40.143 5.758 L 43.618 5.758 L 43.618 4.483 L 40.143 4.483 L 40.143 1.537 L 38.273 1.537 C 38.227 2.356 37.967 3.057 37.498 3.641 C 37.034 4.218 36.372 4.516 35.519 4.531 L 35.519 5.76 L 36.88 5.76 L 36.88 12.398 C 36.88 13.401 37.145 14.182 37.685 14.751 C 37.844 14.923 38.025 15.064 38.222 15.185 L 32.688 15.185 C 32.771 15.155 32.86 15.129 32.94 15.094 C 33.632 14.797 34.157 14.373 34.515 13.819 C 34.873 13.272 35.055 12.657 35.055 11.982 C 35.055 11.269 34.873 10.677 34.508 10.206 C 34.134 9.734 33.703 9.369 33.193 9.104 C 32.691 8.84 32.029 8.558 31.222 8.245 C 30.682 8.056 30.255 7.887 29.945 7.744 C 29.64 7.592 29.382 7.424 29.185 7.227 C 28.988 7.03 28.888 6.786 28.888 6.506 C 28.888 6.141 29.054 5.854 29.397 5.64 C 29.733 5.428 30.195 5.319 30.783 5.319 C 31.504 5.319 32.09 5.531 32.532 5.957 C 32.981 6.383 33.238 7.036 33.291 7.917 L 34.243 7.917 L 34.51 4.994 C 34.084 4.745 33.536 4.531 32.867 4.357 C 32.198 4.183 31.507 4.092 30.783 4.092 C 29.831 4.092 29.011 4.259 28.327 4.586 C 27.651 4.921 27.134 5.352 26.775 5.907 C 26.424 6.453 26.25 7.046 26.25 7.676 C 26.25 8.351 26.424 8.913 26.775 9.354 C 27.134 9.802 27.55 10.15 28.045 10.402 C 28.532 10.652 29.178 10.919 29.968 11.213 C 30.538 11.433 30.98 11.617 31.29 11.76 C 31.595 11.911 31.853 12.088 32.057 12.3 C 32.262 12.511 32.37 12.771 32.37 13.058 C 32.37 13.439 32.181 13.733 31.807 13.94 C 31.434 14.144 30.947 14.252 30.361 14.252 C 29.571 14.252 28.9 14.018 28.36 13.554 C 27.812 13.098 27.507 12.378 27.431 11.413 L 26.488 11.413 L 26.129 14.452 C 26.634 14.744 27.224 14.991 27.908 15.19 L 22.442 15.19 C 22.732 15.079 23.013 14.943 23.275 14.779 C 24.105 14.27 24.792 13.466 25.314 12.383 L 24.499 11.856 C 24.163 12.499 23.737 12.967 23.237 13.255 C 22.727 13.542 22.172 13.68 21.572 13.68 C 20.502 13.68 19.676 13.297 19.091 12.526 C 18.553 11.808 18.271 10.83 18.233 9.571 L 25.312 9.571 C 25.327 8.386 25.148 7.376 24.754 6.552 C 24.365 5.733 23.808 5.118 23.078 4.707 C 22.354 4.299 21.498 4.09 20.519 4.09 C 19.429 4.09 18.465 4.344 17.615 4.833 C 16.764 5.337 16.098 6.028 15.629 6.917 C 15.159 7.804 14.927 8.815 14.927 9.941 C 14.927 11.067 15.162 12.055 15.641 12.912 C 16.121 13.761 16.769 14.416 17.605 14.867 C 17.834 14.993 18.074 15.099 18.321 15.187 L 14.859 15.187 L 14.859 14.207 C 14.359 14.069 13.948 13.804 13.63 13.398 C 13.299 13 12.943 12.405 12.55 11.629 C 12.166 10.901 11.81 10.301 11.49 9.855 C 11.164 9.399 10.74 9.006 10.208 8.666 C 9.665 8.331 8.989 8.243 8.989 8.243 L 8.989 8.094 C 10.821 7.693 11.333 7.517 12.128 6.753 C 12.938 5.975 13.405 5.128 13.405 4.07 C 13.405 2.868 12.936 1.89 11.985 1.136 C 11.043 0.383 9.605 0 7.679 0 L 0 0 L 0 1.021 C 0.601 1.021 1.065 1.149 1.383 1.414 C 1.708 1.668 1.867 2.003 1.867 2.401 L 1.867 12.816 C 1.867 13.219 1.708 13.549 1.383 13.814 C 1.062 14.069 0.601 14.207 0 14.207 L 0 15.218 L 18.407 15.218 C 19.028 15.432 19.704 15.543 20.436 15.543 C 21.13 15.543 21.774 15.434 22.369 15.218 L 28.012 15.218 C 28.037 15.225 28.062 15.233 28.088 15.24 C 28.84 15.444 29.632 15.545 30.452 15.545 C 31.272 15.545 31.984 15.434 32.605 15.218 L 38.27 15.218 C 38.719 15.477 39.259 15.613 39.895 15.613 C 40.531 15.613 41.112 15.48 41.69 15.218 L 45.48 15.218 C 45.902 15.434 46.386 15.543 46.934 15.543 C 47.481 15.543 47.986 15.437 48.45 15.218 L 51.211 15.218 L 51.34 15.543 L 52.344 15.218 L 58.164 15.218 C 58.61 15.434 59.125 15.545 59.716 15.545 C 60.306 15.545 60.826 15.437 61.303 15.218 L 63.859 15.218 L 63.96 15.53 L 64.992 15.218 L 68.258 15.218 L 74.554 15.218 L 78.648 15.218 C 79.067 15.434 79.551 15.543 80.109 15.543 C 80.666 15.543 81.154 15.437 81.618 15.218 L 84.381 15.218 L 84.51 15.543 L 85.514 15.218 L 88.558 15.218 L 94.551 15.218 L 95.495 15.218 L 101.489 15.218 L 104.201 15.218 C 104.653 15.477 105.191 15.613 105.824 15.613 C 106.576 15.613 107.293 15.432 107.977 15.051 C 108.653 14.678 109.223 14.147 109.68 13.456 L 109.133 12.713 Z M 18.803 6.615 C 19.187 5.977 19.734 5.657 20.454 5.657 C 21.112 5.657 21.597 5.96 21.912 6.559 C 22.172 7.076 22.301 7.718 22.301 8.495 L 18.266 8.495 C 18.329 7.728 18.511 7.096 18.803 6.612 Z M 7.482 15.172 L 7.482 14.192 C 6.753 14.192 6.19 14.053 5.812 13.799 C 5.428 13.534 5.236 13.204 5.236 12.801 L 5.236 1.308 L 6.354 1.308 C 7.27 1.308 8.053 1.504 8.716 1.892 C 9.378 2.28 9.855 3.067 9.855 4.251 C 9.855 5.435 9.612 6.234 8.944 6.632 C 8.669 6.794 8.371 6.922 8.053 7.018 C 7.336 7.23 6.619 7.905 6.619 8.653 C 6.73 8.681 6.844 8.716 6.945 8.764 C 7.276 8.908 7.593 9.19 7.914 9.598 C 8.227 10.006 8.568 10.609 8.936 11.4 C 9.375 12.35 9.855 13.61 10.38 15.175 L 7.485 15.175 Z M 47.648 11.095 C 47.872 10.83 48.228 10.596 48.728 10.389 C 49.132 10.226 49.649 10.054 50.288 9.88 L 50.288 12.325 C 50.096 12.584 49.846 12.804 49.538 12.972 C 49.218 13.136 48.889 13.222 48.554 13.222 C 48.145 13.222 47.83 13.116 47.628 12.897 C 47.421 12.673 47.325 12.375 47.325 12.015 C 47.325 11.654 47.431 11.35 47.65 11.095 Z M 48.511 15.172 C 48.642 15.109 48.773 15.039 48.897 14.958 C 49.472 14.58 49.962 14.048 50.356 13.358 L 50.484 13.358 L 51.206 15.172 Z M 61.366 15.172 C 61.512 15.102 61.656 15.021 61.795 14.928 C 62.388 14.525 62.845 14.046 63.148 13.484 L 63.307 13.484 L 63.852 15.17 L 61.366 15.17 Z M 80.808 11.095 C 81.032 10.83 81.393 10.596 81.888 10.389 C 82.292 10.226 82.814 10.054 83.453 9.88 L 83.453 12.325 C 83.266 12.584 83.006 12.804 82.698 12.972 C 82.377 13.136 82.049 13.222 81.714 13.222 C 81.305 13.222 80.989 13.116 80.788 12.897 C 80.581 12.673 80.485 12.375 80.485 12.015 C 80.485 11.654 80.591 11.35 80.81 11.095 Z M 81.673 15.172 C 81.805 15.109 81.933 15.039 82.059 14.958 C 82.635 14.58 83.124 14.048 83.518 13.358 L 83.657 13.358 L 84.374 15.172 L 81.676 15.172 Z M 94.554 15.172 L 94.554 14.275 C 94.226 14.275 93.923 14.207 93.625 14.056 C 93.335 13.912 93.183 13.607 93.183 13.136 L 93.183 7.57 C 93.395 7.204 93.693 6.91 94.105 6.68 C 94.508 6.453 94.927 6.338 95.366 6.338 C 96.363 6.338 96.865 6.967 96.865 8.227 L 96.865 13.134 C 96.865 13.605 96.722 13.907 96.424 14.053 C 96.126 14.205 95.823 14.273 95.495 14.273 L 95.495 15.17 L 94.551 15.17 Z" fill="transparent"/></g></g></g></svg>