<?xml version="1.0" encoding="UTF-8"?><svg id="Calque_2" xmlns="http://www.w3.org/2000/svg" viewBox="0 0 124.23 70.26"><defs><style>.cls-1{fill:#909091;}</style></defs><g id="Calque_1-2"><g id="YEhBNa"><path class="cls-1" d="M33.37,56.94c-.11.11-.24.2-.37.29-1.33.9-2.76,1.18-4.32.7-.4-.12-.54-.28-.54-.7.02-1.36,0-2.72,0-4.08v-3.92c0-.87.03-.89.88-1.07,1.58-.31,3.01,0,4.27,1.03.17.14.33.31.52.07.19-.23,0-.37-.17-.51-.57-.47-1.21-.83-1.91-1.05-2.47-.77-5.22.33-6.48,2.55-1.34,2.36-.9,5.23,1.07,7.01,1.95,1.77,4.88,1.94,7.01.43.13-.09.25-.2.36-.3.15-.12.28-.27.13-.46-.14-.18-.3-.15-.46,0ZM95.29,47.53c-3.1,0-5.59,2.48-5.59,5.58,0,3.16,2.45,5.61,5.62,5.61,3.31.07,5.59-2.79,5.61-5.55.02-2.85-2.32-5.64-5.63-5.63ZM95.9,58.14c-.72.1-1.39,0-2.09-.19-.39-.1-.48-.29-.48-.66.02-1.39,0-2.77,0-4.16s.02-2.72,0-4.07c0-.44.12-.65.56-.77,2.76-.74,5.42.81,6.23,3.35.9,2.84-.92,6.04-4.22,6.5ZM10.24,58.2c-2.07-.03-4.13-.02-6.33-.02v-10.63H.32v11.16h.76c3.05,0,6.12,0,9.18,0,.25,0,.69.17.71-.23.02-.54-.48-.27-.72-.27ZM112.64,47.71c-.02-.15-.13-.21-.27-.22-.17,0-.23.12-.23.26-.01.16,0,.31,0,.46,0,1.47,0,2.93,0,4.4,0,.53-.05,1.05-.16,1.56-.61,2.83-3.58,4.6-6.29,3.79-.46-.14-.6-.34-.59-.81.03-2.91.01-5.81.01-8.72,0-.18,0-.37,0-.55.01-.29-.1-.42-.41-.42-1.05.02-2.09,0-3.13,0-.15.32-.12.53-.12.74,0,1.63.01,3.25.01,4.87,0,.53.04,1.04.19,1.55,1.16,3.99,5.83,5.2,8.7,3.07,1.52-1.12,2.31-2.72,2.31-4.65,0-1.62,0-3.24,0-4.87,0-.16,0-.32-.02-.47ZM45.75,58.12c-.04-.1-.09-.19-.14-.28-1.44-2.74-2.88-5.5-4.32-8.25-.32-.6-.62-1.21-.95-1.8-.23-.41-.42-.41-.67-.03-.07.11-.12.23-.18.35-1.18,2.23-2.35,4.48-3.53,6.72-.56,1.05-1.14,2.1-1.67,3.16-.1.18-.41.46-.06.67.32.19.44-.14.56-.36.23-.44.48-.87.69-1.32.13-.28.31-.37.61-.37,1.43.01,2.87.01,4.31,0,.3,0,.48.08.61.37.2.45.47.87.68,1.32.15.34.37.46.74.45.47-.02.94,0,1.41,0v-.02c.52,0,1.05.03,1.57,0,.46-.03.52-.16.34-.6ZM36,56c.76-1.43,1.47-2.8,2.25-4.31.79,1.5,1.52,2.88,2.27,4.31h-4.52ZM89.61,47.46c-2.8,0-5.6,0-8.4,0-.78,0-.78,0-.78.78,0,3.22,0,6.44,0,9.66,0,.25-.08.52.11.76h3.56v-6.58h3.52c.21,0,.47,0,.46-.29,0-.25-.17-.44-.45-.45-.19-.01-.37,0-.55,0h-3.01v-2.52c0-.79,0-.79.84-.8,1.57,0,3.14,0,4.71,0,.25,0,.68.17.67-.28-.01-.41-.43-.27-.69-.28ZM20.9,58.19c-1.8-.01-3.6,0-5.48,0v-6.1h3.49c.19,0,.42-.01.43-.24.02-.24-.12-.45-.4-.48-.18-.02-.37,0-.55,0h-2.98v-3.34h.8c1.57,0,3.14.01,4.71,0,.24,0,.68.19.67-.26,0-.44-.43-.28-.68-.28-2.85,0-5.7,0-8.56,0-.2,0-.42-.06-.59.14v11.08c.24.01.44.03.65.03,2.82,0,5.65,0,8.48-.01.25,0,.68.17.7-.24.01-.44-.43-.27-.68-.27ZM79.38,58.19h-5.84v-6.1h.5c.99,0,1.99,0,2.98,0,.18,0,.41.03.43-.23.03-.26-.12-.45-.4-.49-.17-.03-.36,0-.55,0h-2.94v-3.33c1.84,0,3.62,0,5.4-.01.25,0,.74.23.72-.29,0-.44-.45-.25-.69-.25-2.75-.01-5.5-.01-8.24,0-.28,0-.57-.05-.87.09v11.12c.14.01.25.04.35.04,2.96,0,5.92,0,8.87,0,.1,0,.21,0,.31,0,.18,0,.31-.07.3-.27-.01-.21-.15-.25-.33-.25ZM68.67,57.77c-.69-.91-1.38-1.83-2.09-2.77.12-.07.19-.14.28-.17,1.76-.72,2.49-2.72,2.18-4.19-.4-1.92-1.81-3.12-3.76-3.15-2.2-.03-4.4-.01-6.6-.01-.59,0-.6.02-.6.63v10.14c0,.15-.04.32.14.45h3.53v-3.52c1.37,0,2.67,0,3.97-.01.3,0,.41.18.56.37.57.77,1.16,1.55,1.73,2.32.17.23.36.45.53.68.13.17.28.24.46.09.17-.13.09-.27,0-.41-.1-.15-.21-.3-.32-.45ZM65.27,54.62c-1.15-.06-2.3-.01-3.52-.01v-6.47c.18-.19.41-.12.6-.12.99,0,1.99-.02,2.98,0,1.83.05,3.22,1.53,3.2,3.37-.03,2.03-1.85,3.29-3.25,3.22ZM124.07,58.14c-.19-.25-.37-.5-.56-.76-.59-.79-1.18-1.58-1.78-2.38.14-.09.23-.16.32-.2,1.73-.9,2.49-2.52,2.07-4.46-.36-1.65-1.89-2.86-3.74-2.89-2.18-.03-4.35-.01-6.52,0-.63,0-.64.02-.64.68,0,2.4,0,4.81,0,7.22,0,1.09,0,2.18,0,3.32h3.61c.12-1.17-.05-2.31.1-3.51,1.31,0,2.59,0,3.87,0,.27,0,.43.13.57.34.33.47.68.93,1.03,1.39.39.52.81,1.03,1.19,1.56.14.19.26.37.49.23.26-.15.11-.35-.02-.52ZM120.42,54.62c-1.15-.04-2.3,0-3.53,0v-6.6c1.38.04,2.73-.12,4.07.09,1.73.27,2.84,1.81,2.68,3.58-.16,1.74-1.74,2.98-3.23,2.93ZM57.34,58.29c-.1-.17-.25-.34-.37-.5-.68-.92-1.38-1.83-2.06-2.74.06-.07.08-.12.13-.14,1.87-1,2.51-2.25,2.29-4.37-.08-.72-.65-1.21-.77-1.89-.88-.55-1.71-1.18-2.83-1.18-2.2,0-4.4-.01-6.6-.01-.76,0-.76,0-.76.8,0,3.22,0,6.44,0,9.66,0,.23.02.46.04.74h3.65v-3.34c.19-.19.36-.14.51-.14,1.07,0,2.14.03,3.22-.02.4-.01.63.1.85.41.66.91,1.34,1.8,2.01,2.71.09.12.19.25.3.36.11.1.26.1.36.01.11-.08.12-.25.05-.36ZM53.72,54.61c-1.19.03-2.4,0-3.65,0v-6.6c1.43.06,2.81-.14,4.18.12,1.63.29,2.74,1.84,2.58,3.51-.15,1.65-1.49,2.94-3.11,2.97Z"/></g><rect class="cls-1" x=".32" y="62.41" width="123.91" height=".48"/><path class="cls-1" d="M35.12,66.92c-.17-.44-.41-.46-.82-.33,0,1.03,0,2.07,0,3.1,0,.18-.02.42.22.43.32,0,.23-.28.23-.47,0-.7,0-1.41,0-2.27.4.55.52,1.03.73,1.46.21.43.31.92.73,1.42.44-.99.83-1.89,1.23-2.78.13.79.13,1.53.13,2.28,0,.15-.02.34.19.36.27.02.26-.19.26-.37,0-1.06,0-2.11,0-3.14-.46-.17-.69-.06-.85.34-.29.74-.63,1.46-1.01,2.34-.4-.9-.76-1.61-1.04-2.36Z"/><path class="cls-1" d="M83.77,68.64c-.41-.6-.83-1.19-1.24-1.79-.2-.29-.41-.46-.79-.22,0,.3,0,.61,0,.92,0,.68,0,1.35,0,2.03,0,.21-.12.55.24.54.29,0,.19-.31.21-.5.01-.16,0-.31,0-.47,0-.59,0-1.17,0-1.76.25.16.4.37.54.57.43.62.88,1.22,1.28,1.86.19.3.39.39.71.24.13-.33.06-.67.07-1,0-.73,0-1.46,0-2.18,0-.15.03-.34-.19-.36-.28-.02-.26.19-.25.37,0,.16.01.31,0,.47-.04.61.07,1.23-.07,1.88-.27-.16-.37-.39-.52-.6Z"/><path class="cls-1" d="M79.75,69.9c0-.91.02-1.82,0-2.72,0-.22.19-.62-.2-.63-.4,0-.19.4-.21.62-.05.67.05,1.35-.07,2.03-.29-.08-.35-.3-.46-.47-.41-.6-.8-1.21-1.23-1.8-.19-.26-.38-.59-.85-.33,0,.29,0,.6,0,.91,0,.75,0,1.51,0,2.26,0,.16-.04.34.18.35.26.02.27-.18.27-.37,0-.13,0-.26,0-.39,0-.66,0-1.31,0-1.98.1.01.14,0,.15.02.53.76,1.07,1.53,1.6,2.29.18.26.34.54.78.38.02-.09.04-.14.04-.19Z"/><path class="cls-1" d="M24,68.67c0,.39,0,.78,0,1.17,0,.14.05.26.2.29.22.03.25-.13.25-.3,0-.16,0-.31,0-.47,0-.65,0-1.31,0-1.97.24.03.28.17.35.27.5.73,1,1.45,1.5,2.18.14.2.31.38.58.28.26-.09.19-.34.19-.54,0-.81,0-1.61,0-2.42,0-.16,0-.31-.01-.47-.01-.13-.13-.15-.23-.16-.11,0-.2.04-.2.17,0,.16,0,.31,0,.47,0,.68,0,1.36,0,2.04-.26-.03-.29-.17-.36-.27-.48-.68-.96-1.35-1.43-2.04-.19-.28-.38-.5-.82-.29,0,.7,0,1.38,0,2.05Z"/><path class="cls-1" d="M30.64,66.44c-1.05.04-1.83.88-1.81,1.95.01,1.07.85,1.88,1.9,1.85,1.08-.03,1.85-.83,1.84-1.91-.02-1.13-.84-1.94-1.93-1.9ZM30.66,69.84c-.77,0-1.35-.65-1.36-1.49,0-.85.63-1.51,1.44-1.49.81.03,1.38.68,1.35,1.57-.03.82-.63,1.43-1.43,1.41Z"/><path class="cls-1" d="M16.14,68.49c.08-.06.15-.11.21-.15.49-.32.67-.65.56-1.07-.12-.45-.4-.68-.99-.72-.41-.03-.83,0-1.34,0,0,1.12,0,2.26,0,3.39,0,.12.08.19.2.19.15,0,.24-.08.24-.23,0-.32,0-.63.01-.94,0-.17-.07-.38.17-.46.25-.08.39.09.49.27.22.35.43.71.64,1.07.14.26.31.41.63.2-.22-.54-.65-.98-.83-1.54ZM15.07,68.09c-.08-.4-.05-.75,0-1.14.46-.06.92-.17,1.27.25.14.17.16.39.02.57-.34.46-.81.3-1.29.32Z"/><path class="cls-1" d="M20.47,66.44c-1.03-.05-1.9.77-1.93,1.82-.03,1.08.75,1.96,1.76,1.99,1.12.03,1.94-.75,1.97-1.86.02-1.08-.74-1.91-1.8-1.95ZM20.4,69.84c-.81,0-1.41-.67-1.39-1.54.02-.83.62-1.45,1.4-1.44.83,0,1.39.64,1.38,1.54-.01.84-.6,1.45-1.39,1.44Z"/><path class="cls-1" d="M113.29,68.51c-.09-.12-.23-.21-.38-.34.38-.31.54-.7.31-1.16-.21-.44-.65-.47-1.07-.48-.36,0-.72-.06-1.09.07v3.5c.67.05,1.26.11,1.83-.12.62-.25.81-.94.4-1.47ZM111.49,66.97c.98-.12,1.33,0,1.34.48,0,.41-.28.6-.89.6q-.48,0-.45-1.08ZM112.49,69.68c-.31.07-.61.08-.95,0-.12-.37-.04-.76-.08-1.17.36-.13.65-.08.93-.06.36.01.58.21.62.57.04.38-.18.58-.52.66Z"/><path class="cls-1" d="M2.26,68.56c-.09-.14-.23-.26-.36-.41.32-.34.51-.69.28-1.14-.23-.43-.65-.5-1.07-.49-.36,0-.72-.06-1.1.06v3.51c.61.04,1.17.1,1.72-.07.72-.23.95-.85.54-1.47ZM.45,66.97c.26-.12.55-.1.82-.05.26.05.5.16.52.48.02.34-.17.5-.49.59-.29.08-.56,0-.85.03v-1.06ZM1.45,69.68c-.32.09-.65.05-.99.01v-1.21c.32-.11.65-.08.97-.02.34.06.54.26.54.64,0,.36-.24.5-.52.57Z"/><path class="cls-1" d="M123.34,68.51c.1-.07.17-.12.23-.15.49-.32.67-.65.57-1.07-.1-.43-.41-.68-.98-.74-.43-.05-.87-.05-1.34.01v2.52c0,.26-.01.52-.01.78,0,.15.06.25.23.26.17,0,.21-.12.21-.26,0-.28,0-.57,0-.86,0-.19-.09-.45.2-.51.28-.06.41.11.53.34.18.35.41.67.6,1,.15.27.32.37.65.21-.3-.52-.59-1.03-.88-1.54ZM122.29,68.04c-.11-.35-.03-.7-.03-1.1.38-.07.69-.08.99,0,.24.06.41.22.43.48.03.3-.12.49-.39.59-.32.13-.65.11-1.01.03Z"/><path class="cls-1" d="M108.39,68.5c.12-.07.18-.11.25-.15.48-.3.67-.65.56-1.07-.12-.46-.46-.68-.91-.72-.46-.04-.92-.09-1.42.03,0,1.07,0,2.1,0,3.14,0,.17-.03.41.24.39.26-.02.21-.24.21-.42.02-.39-.05-.78.06-1.16.37-.17.54.08.68.34.21.32.41.66.6,1,.13.23.3.35.61.19-.3-.52-.59-1.04-.88-1.56ZM107.35,68.05v-1.14c.35-.03.65-.05.95.03.29.08.44.27.43.57,0,.26-.15.44-.4.51-.3.08-.61.12-.98.03Z"/><path class="cls-1" d="M86.75,69.67c0,.32.08.48.44.47.54-.02,1.09,0,1.63,0,.14,0,.28-.01.29-.18.01-.21-.14-.24-.31-.23-.51,0-1.02,0-1.6,0,.08-.49-.07-.89.09-1.26.57-.14,1.15.13,1.75-.22-.6-.42-1.23-.04-1.8-.31-.02-.31-.06-.64.03-.97.31-.11.63-.02.93-.07.28-.04.66.2.91-.31h-2.34c0,1.07,0,2.08,0,3.09Z"/><path class="cls-1" d="M119.69,70.13c.16,0,.35,0,.35-.21,0-.2-.18-.21-.35-.21-.51,0-1.02,0-1.53,0v-1.22c.56-.23,1.19.14,1.79-.3-.63-.31-1.24-.04-1.83-.23.05-.36-.04-.69.06-1,.58-.21,1.22.12,1.78-.31-.74-.16-1.48-.12-2.26-.13v3.61c.7,0,1.34,0,1.99,0Z"/><path class="cls-1" d="M104.78,66.9c.14,0,.27,0,.27-.18,0-.18-.14-.19-.27-.19-.64,0-1.28,0-1.94,0v3.61c.68,0,1.33,0,1.97,0,.16,0,.34,0,.34-.21,0-.22-.2-.19-.35-.2-.51-.03-1.02.08-1.5-.07v-1.23c.32,0,.6.01.89,0,.26-.01.56.1.88-.22-.61-.35-1.22-.02-1.78-.25v-1.05c.55,0,1.02,0,1.48,0Z"/><path class="cls-1" d="M42.44,70.13c.71,0,1.38,0,2.05,0,.15,0,.27-.05.25-.21-.01-.16-.14-.2-.28-.2-.51,0-1.03,0-1.62,0,.06-.47-.06-.88.06-1.23.57-.21,1.17.13,1.68-.23-.05-.09-.07-.16-.1-.17-.5-.16-1.03,0-1.55-.09-.11-.36-.09-.71,0-1.05.58-.16,1.21.11,1.75-.29-.74-.15-1.47-.13-2.22-.13v3.6Z"/><path class="cls-1" d="M70.29,69.34c.11-.54-.11-.87-.79-1.15-.19-.08-.38-.15-.58-.22-.27-.1-.46-.28-.4-.58.06-.31.27-.47.6-.51.25-.03.45.03.65.17.15.1.31.06.38-.12.06-.15-.05-.25-.18-.29-.22-.07-.45-.16-.68-.17-.63-.04-1.13.3-1.25.83-.13.53.17.98.82,1.23.22.08.45.13.65.24.46.26.44.71-.02.97-.27.16-.55.15-.82.02-.12-.06-.22-.15-.33-.2-.15-.06-.25.04-.31.15-.06.11.02.2.1.26.28.21.62.24.92.28.66-.01,1.13-.36,1.24-.91Z"/><path class="cls-1" d="M8.73,69.4c.13-.59-.13-.97-.86-1.25-.17-.06-.34-.12-.51-.19-.26-.11-.43-.29-.39-.6.05-.35.31-.45.61-.5.21-.03.4.02.59.14.15.1.37.18.45-.07.06-.21-.14-.3-.32-.36-.38-.13-.76-.16-1.14,0-.39.16-.63.43-.67.87-.04.44.15.75.54.94.23.11.49.17.72.28.3.14.64.28.5.73-.11.34-.47.53-.87.46-.21-.03-.37-.17-.55-.28-.14-.08-.27.02-.34.11-.09.13,0,.24.11.32.24.18.53.2.81.24.69.04,1.2-.28,1.32-.83Z"/><path class="cls-1" d="M62.89,66.86c-.08-.18-.13-.34-.36-.34-.18.01-.26.12-.32.28-.46,1.08-.94,2.16-1.41,3.24.39.23.54-.02.6-.28.12-.51.45-.63.92-.57.17.03.36.03.54,0,.39-.06.63.08.73.48.07.28.19.57.67.35-.47-1.09-.92-2.14-1.36-3.18ZM61.8,68.85c.25-.62.46-1.11.68-1.66.36.48.45,1.01.7,1.54-.44.21-.85.04-1.38.12Z"/><path class="cls-1" d="M54.54,66.75c-.15-.34-.44-.32-.61.05-.49,1.07-.96,2.16-1.43,3.25.46.21.57-.09.64-.35.11-.41.36-.54.74-.49.13.01.26.01.39,0,.54-.06.97,0,1.1.65.05.28.25.37.57.16-.46-1.1-.91-2.2-1.39-3.27ZM53.58,68.79c.09-.59.47-1.04.6-1.65.37.52.43,1.1.78,1.67-.51.03-.92.06-1.38-.02Z"/><path class="cls-1" d="M73.85,66.9c-.07-.17-.09-.36-.33-.37-.26,0-.32.19-.41.39-.39.92-.81,1.84-1.21,2.76-.05.12-.23.25-.06.41.26.14.43-.03.46-.24.12-.65.56-.69,1.08-.64.3.03.61,0,.9,0q.41.88.89.82c-.45-1.05-.9-2.09-1.34-3.13ZM72.73,68.88c.27-.65.48-1.15.74-1.78.25.61.44,1.09.65,1.61-.44.23-.86.04-1.39.16Z"/><path class="cls-1" d="M99.4,69.87c.06.17.17.25.34.25.15,0,.23-.08.28-.22.42-1.1.85-2.2,1.27-3.3l-.32-.16c-.54.85-.73,1.9-1.22,2.85-.22-.23-.27-.49-.36-.72-.21-.56-.42-1.12-.62-1.68-.1-.29-.24-.46-.61-.27.41,1.09.82,2.18,1.22,3.27Z"/><path class="cls-1" d="M49.72,69.86c.06.17.15.26.33.26.19,0,.25-.12.31-.28.41-1.08.83-2.16,1.24-3.25-.47-.18-.52.15-.62.4-.29.75-.58,1.5-.87,2.25-.22-.09-.22-.24-.26-.35-.25-.65-.5-1.3-.74-1.96-.11-.29-.21-.55-.64-.33.41,1.08.83,2.17,1.24,3.25Z"/><path class="cls-1" d="M10.17,66.75c.33.36.81-.03,1.18.28,0,.8,0,1.63,0,2.46,0,.23-.14.62.24.61.4,0,.2-.41.21-.62.02-.84,0-1.69,0-2.49.43-.21.86.07,1.27-.3-.78-.25-2.51-.21-2.91.06Z"/><path class="cls-1" d="M58,68.65c0-.62,0-1.24,0-1.87,0-.16-.08-.24-.22-.25-.16-.01-.23.08-.23.23,0,1.1,0,2.21,0,3.37.63,0,1.17,0,1.71,0,.16,0,.34.01.35-.2.01-.22-.17-.21-.33-.21-.39,0-.78,0-1.21,0-.13-.41-.07-.74-.07-1.08Z"/><path class="cls-1" d="M65.77,68.32c0,.49,0,.98,0,1.48,0,.16,0,.33.22.33.22,0,.22-.17.22-.33,0-.98,0-1.97,0-2.95,0-.15.02-.33-.22-.33-.22,0-.23.16-.23.33,0,.49,0,.98,0,1.48h0Z"/><path class="cls-1" d="M4.27,68.25c0,.52,0,1.04,0,1.55,0,.17.03.32.24.32.16,0,.22-.11.22-.25,0-1.04,0-2.07,0-3.11,0-.15-.08-.24-.24-.24-.16,0-.22.1-.22.25,0,.49,0,.99,0,1.48h0Z"/><path class="cls-1" d="M115.78,68.31c0-.47,0-.94,0-1.4,0-.18.03-.39-.25-.37-.21.02-.21.19-.21.35,0,.96,0,1.92,0,2.89,0,.16.02.34.22.35.2,0,.24-.16.24-.33,0-.49,0-.99,0-1.48h0Z"/><path class="cls-1" d="M40.42,66.85c0-.16-.02-.32-.24-.3-.17.02-.19.15-.19.28,0,1.03,0,2.07.01,3.1,0,.14.12.22.42.16,0-1.08,0-2.16,0-3.24Z"/><path class="cls-1" d="M80.98,19.78c-.13-.08-.36.02-.52-.03-.32-.1-.71-.16-.91-.38-.47-.53-1.01-.51-1.58-.34-.31.08-.59.29-.9.38-.22.05-.53.07-.68-.04-.49-.37-.93-.81-1.46-1.29,1.35-.24,2.51-.41,3.66-.65.41-.09.84-.25,1.18-.49.46-.31.38-.61-.13-.81-.17-.07-.37-.11-.56-.1-.61.02-1.2.08-1.8.11-1.26.06-2.53.1-3.8.15.49-1.11.44-1.21,1.56-1.03.9.15,1.45-.28,1.78-1.11.11-.27.36-.51.6-.67.22-.12.52-.12.77-.18.86-.21,1.16-.97,1.57-1.6.12-.18.21-.52.12-.67-.1-.16-.43-.28-.65-.25-.47.06-.92.23-1.39.34-.17.04-.38.08-.54.03-.6-.23-.99-.13-1.3.42-.15.24-.22.54-.4.76-.16.18-.45.42-.63.39-.63-.12-1.25-.35-1.9-.54.63-.55,1.25-1.02,1.8-1.55.58-.57,1.13-1.18,1.66-1.8.12-.13.16-.41.1-.58-.04-.13-.3-.28-.45-.27-.26.02-.54.11-.75.26-.6.41-1.18.86-1.77,1.28-1.02.74-2.05,1.47-3.12,2.23-.09-1.23-.02-1.42,1.01-1.88.75-.35,1.01-.95,1.04-1.7.02-.25-.05-.53.02-.76.1-.34.25-.69.44-1.01.2-.35.52-.62.67-.98.16-.36.21-.78.25-1.17.02-.22,0-.59-.1-.63-.21-.09-.53-.07-.74.03-.25.12-.45.35-.63.57-.39.51-.73,1-1.47,1.09-.21.03-.44.47-.53.76-.09.29.01.63-.02.94-.01.16-.05.4-.16.45-.77.39-1.55.74-2.49,1.17.21-.49.36-.8.48-1.12.46-1.34.94-2.67,1.37-4.01.13-.4-.01-.86-.43-.94-.2-.04-.58.29-.74.55-.33.54-.57,1.12-.83,1.7-.61,1.36-1.23,2.72-1.85,4.09-.97-.78-1.04-1.14-.47-2.12.09-.15.18-.29.26-.45.35-.61.19-1.14-.22-1.65-.11-.14-.24-.26-.36-.39-.23-.25-.34-.49-.14-.87.26-.52.5-1.08.18-1.7-.16-.32-.27-.66-.44-.98-.13-.26-.31-.49-.47-.74h-.23c-.58.28-.79.74-.7,1.35.07.54-.09.97-.51,1.35-.47.43-.49,1.05-.14,1.61.12.2.3.39.33.6.05.26.05.6-.08.8-.38.58-.84,1.12-1.28,1.68-.13-.62-.27-1.3-.43-1.98-.22-.95-.43-1.9-.72-2.83-.13-.4-.29-1.03-.88-.9-.52.11-.39.68-.38,1.08.07,1.69.15,3.37.23,5.07.01.32,0,.65,0,1.01-.61-.3-.78-.73-.71-1.34.16-1.32-.13-1.77-1.37-2.15-.41-.13-.6-.31-.63-.76-.04-.48-.13-.95-.65-1.27-.35-.2-.52-.66-.81-.97-.26-.3-.55-.67-1.01-.36-.43.28-.45.67-.23,1.11.11.19.19.38.31.55.21.31.21.58.03.91-.37.7-.29,1.03.34,1.53.31.26.67.46.95.76.15.16.26.47.22.68-.09.48-.3.94-.48,1.47-.29-.35-.56-.68-.85-1.01-.73-.82-1.46-1.65-2.21-2.46-.25-.28-.6-.57-.94-.31-.35.27-.24.71-.03,1.05.65,1.06,1.33,2.11,2.01,3.16.42.66.85,1.32,1.28,1.99-.63.3-.94.16-1.19-.46-.26-.67-.53-1.35-1.34-1.51-.34-.07-.72.01-1.07.03-.43.02-.78-.07-1.03-.47-.39-.65-2.12-.98-2.84-.7-.37.15-.52.5-.29.83.26.36.54.65,1.06.72.26.04.61.41.7.69.25.8.61,1.38,1.65,1.25.67-.08.95.21,1.05.82.07.37.15.74.22,1.13-1.43-.46-2.85-.9-4.26-1.37-.45-.15-.89-.09-1.05.31-.17.44.26.69.61.86,1.65.85,3.3,1.69,4.96,2.54-.43.65-.47.63-1.06.24-.38-.26-.8-.46-1.22-.65-.58-.26-1.06-.13-1.52.33-.65.64-1.39.89-2.35.66-.67-.16-1.42-.25-2.04.29v.7c.36.36.76.52,1.29.48.26-.02.58.12.8.28.91.63,1.84.71,2.83.23.15-.07.43-.12.5-.04.39.38.73.82,1.15,1.31-1.02.19-1.93.36-2.84.54-.66.13-1.33.24-1.96.43-.2.06-.44.38-.44.58s.29.39.47.55c.1.07.26.08.39.07,1.43-.07,2.86-.14,4.29-.23.63-.03,1.26-.09,1.91-.14-.34.9-.36.91-1.23.77-.11-.02-.23,0-.34.02-.9.11-1.46.74-1.7,1.48-.31.92-.99,1.15-1.73,1.24-.64.07-1.07.31-1.43.8-.42.59-.43,1.05-.02,1.45.49.48.92.15,1.28-.15.47-.41.93-.52,1.54-.33.87.27.98.19,1.4-.6.2-.4.41-.79.6-1.16.76.25,1.39.46,2.17.72-1.2,1.01-2.29,1.94-3.4,2.85-.43.35-.73.97-.44,1.15.28.18.78.19,1.11.06.57-.24,1.09-.63,1.64-.97,1.19-.74,2.38-1.5,3.6-2.26.04,1.02-.12,1.23-1.05,1.52-.54.18-.98.52-1.09,1.08-.09.44-.02.9.02,1.35.04.35.12.61-.36.76-.32.1-.68.39-.83.68-.27.56-.46,1.18-.59,1.78-.04.22.15.56.34.73.14.12.5.12.66,0,.38-.25.7-.6,1.05-.91.39-.36.74-.82,1.21-1.08.55-.32.71-.67.57-1.27-.14-.63.08-1.26.99-1.17.33.04.68.01,1.06.01-.45,1.44-.92,2.81-1.3,4.2-.08.29.17.65.27.98.29-.08.59-.14.85-.27.15-.06.25-.24.32-.4.29-.6.54-1.23.84-1.82.45-.88.91-1.77,1.42-2.63.31-.53.82-.49,1.13.02.26.42.15.83-.38,1.17-.48.31-.72.8-.41,1.45.15.32.37.62.61.89.32.38.49.69.18,1.21-.47.8-.53,1.69-.09,2.54.11.2.46.34.69.35.18,0,.41-.23.55-.41.1-.14.08-.37.15-.54.23-.56.36-1.22.75-1.63.35-.38.49-.71.39-1.12-.09-.42-.36-.79-.5-1.19-.06-.18-.08-.48.02-.57.53-.5,1.1-.94,1.58-1.35.08.39.19,1.02.33,1.64.27,1.17.51,2.35.84,3.51.05.22.41.34.63.51.13-.21.38-.4.38-.61,0-1.83-.05-3.66-.09-5.49v-1.14c.92.25,1.2.86.97,1.66-.08.24-.01.59.11.83.32.64.86,1.05,1.56,1.27.2.05.5.33.49.49-.06,1.01.51,1.65,1.2,2.25.32.26.69.42,1.05.15.39-.29.47-.7.23-1.14-.15-.26-.37-.5-.48-.77-.11-.26-.22-.59-.15-.85.26-1.06.19-1.22-.8-1.67-.21-.1-.52-.33-.51-.48.05-.68.2-1.36.33-2.09.69.81,1.31,1.55,1.96,2.27.39.42.78.86,1.24,1.2.37.28.77.01.73-.47-.01-.2-.09-.4-.2-.57-.69-1.18-1.39-2.35-2.11-3.51-.29-.49-.62-.96-.93-1.44.99-.08,1.72.23,2.07,1.17.05.13.12.25.19.36.33.48,1,.75,1.57.55.48-.18.83-.09,1.13.31.13.18.29.33.44.48.46.46,1.33.62,1.93.36.56-.25.69-.75.28-1.2-.18-.19-.42-.32-.65-.45-.35-.2-.67-.39-.67-.87,0-.13-.1-.28-.17-.41-.41-.64-1.02-.48-1.62-.42-.17.01-.47-.11-.51-.24-.19-.58-.31-1.17-.45-1.78,1.38.46,2.71.93,4.06,1.32.26.07.6-.15.9-.23-.1-.26-.13-.64-.32-.77-.84-.55-1.71-1.03-2.58-1.5-.97-.52-1.96-.99-2.97-1.5.35-.47.7-.67,1.2-.38.18.11.38.18.57.28.72.38,1.41.34,2.13-.08.54-.32,1.16-.64,1.79-.32.79.42,1.46.16,2.08-.28.22-.17.47-.55.41-.74-.08-.25-.43-.44-.69-.59ZM79.54,21.01c-.72-.22-1.47-.3-2.14.13-.8.52-1.56.5-2.33.01-.66-.42-1.24-.29-1.81.15-.53.42-.51.8.09,1.1,1.63.82,3.25,1.64,4.87,2.47.22.11.4.28.59.42-.02.04-.04.1-.06.15-.21-.04-.42-.06-.62-.13-1.18-.4-2.35-.82-3.53-1.2-.19-.06-.55-.06-.63.05-.12.16-.09.46-.04.69.13.57.31,1.11.47,1.68.14.51.46.7.98.61.21-.04.42-.07.64-.08.37-.02.57.13.62.52.08.55.34.98.94,1.14.16.04.33.13.44.26.22.25.17.49-.19.54-.57.06-1.07-.06-1.44-.57-.54-.74-.89-.86-1.76-.63-.64.17-1.08-.18-1.26-.68-.38-1.04-1.07-1.5-2.15-1.41-.13.01-.27-.1-.4-.08-.2.04-.47.09-.56.22-.07.12.03.41.13.57,1.07,1.71,2.14,3.41,3.22,5.11-.06.05-.11.09-.17.15-.34-.38-.69-.75-1.02-1.13-.65-.74-1.29-1.5-1.95-2.23-.12-.12-.4-.24-.54-.19-.15.06-.27.31-.3.5-.1.68-.16,1.38-.25,2.07-.06.53.17.82.66,1.01.83.33.85.37.58,1.2-.19.57.1.96.38,1.38.18.28.63.58.22.93-.08.07-.6-.27-.84-.5-.39-.36-.6-.82-.55-1.4.04-.54-.27-.9-.83-1.04-1.04-.25-1.45-.88-1.32-1.94.1-.86-.52-1.66-1.38-1.79-.43-.07-.58.17-.57.54.04,2.1.09,4.19.14,6.29,0,.09-.04.19-.2.29-.17-.75-.34-1.5-.5-2.25-.24-1.14-.47-2.27-.72-3.4-.03-.15-.17-.34-.28-.37-.13-.02-.33.09-.44.2-.58.63-1.12,1.28-1.7,1.91-.29.32-.35.63-.07.98.13.15.2.34.31.49.37.53.32.93-.16,1.42-.35.36-.48.94-.67,1.43-.12.28-.18.58-.29.94-.6-.49-.58-1.13-.37-1.54.61-1.19.39-2.16-.48-3.09-.35-.38-.18-.75.25-1.01.46-.28.62-.73.57-1.25-.06-.57-.39-.95-.93-1.16-.37-.15-.7-.12-.9.25-.7,1.22-1.39,2.46-2.06,3.69-.29.53-.56,1.07-.95,1.56.22-1.79.96-3.43,1.4-5.28-.92.07-1.77.1-2.61.21-.43.07-.79.81-.62,1.43.15.58-.11.77-.55,1.03-.4.23-.7.64-1.03.98-.28.26-.52.57-.81.83-.07.06-.23.03-.36.04,0-.13-.05-.29-.01-.41.11-.37.2-.78.4-1.1.19-.31.46-.64.78-.78.59-.27.69-.67.54-1.23-.31-1.21-.05-1.65,1.18-2.02.68-.2,1.3-1.75.92-2.32-.2-.3-.46-.23-.71-.07-1.3.82-2.59,1.65-3.89,2.46-.57.36-1.14.69-1.72,1.04-.05-.06-.09-.11-.13-.17,1.44-1.27,2.87-2.53,4.45-3.91-1.1-.32-2.05-.61-3-.87-.39-.1-.67.13-.83.48-.04.09-.09.18-.13.26-.5.96-.5.92-1.61.82-.39-.04-.81.23-1.22.36-.3.09-.79.36-.86.26-.29-.32-.04-.68.27-.87.36-.22.78-.4,1.19-.48.78-.16,1.42-.42,1.75-1.25.17-.44.53-.85.91-1.16.24-.19.69-.28.99-.21.86.24,1.66-.91,1.54-1.55-.03-.12-.27-.28-.41-.27-.75.03-1.5.12-2.26.16-1.35.07-2.69.12-4.06.18-.09,0-.19-.07-.3-.23.8-.16,1.59-.32,2.4-.48.78-.16,1.55-.3,2.33-.46.5-.12.63-.5.3-.88-.32-.39-.67-.75-1-1.13-.31-.37-.69-.43-1.09-.24-.94.42-1.78.33-2.64-.26-.31-.23-.81-.19-1.22-.3-.15-.04-.28-.15-.42-.23.14-.08.27-.23.41-.23.42,0,.84.02,1.27.08.87.1,1.67-.01,2.31-.68.53-.56.83-.61,1.71-.18.24.13.45.3.67.46.67.46,1.4.3,1.8-.41.24-.41.03-.64-.33-.82-1.56-.78-3.13-1.57-4.68-2.36-.18-.09-.34-.21-.52-.31.02-.06.04-.1.06-.15.72.23,1.45.46,2.17.69.78.25,1.54.51,2.32.76.52.17.8-.07.69-.6-.1-.47-.2-.94-.32-1.41-.18-.69-.44-.89-1.19-.92-1.07-.03-1.08-.03-1.44-1.03-.19-.55-.56-.85-1.13-.96-.22-.05-.42-.19-.68-.31.55-.43,1.88-.26,2.28.3.47.69,1.11.73,1.8.69.85-.05,1.24.18,1.55,1,.07.19.13.4.25.57.39.54,1.13.68,1.73.37.41-.2.34-.53.14-.83-.82-1.28-1.67-2.56-2.51-3.85-.31-.47-.59-.96-.89-1.44.06-.04.12-.09.18-.12.87,1,1.75,2,2.63,3.01.22.24.39.53.61.78.3.32.64.24.78-.19.2-.61.4-1.22.57-1.84.1-.35.08-.65-.32-.89-.4-.23-.74-.56-1.12-.84-.38-.29-.43-.66-.16-1.02.32-.42.24-.76,0-1.17-.18-.31-.29-.66-.32-1.05.63.83,1.74,1.31,1.81,2.51.03.51.3.7.74.81,1.11.29,1.3.6,1.15,1.79-.09.76.49,1.75,1.2,1.96.11.03.41-.17.42-.29.04-.42.02-.85,0-1.28-.07-1.84-.15-3.69-.22-5.52-.01-.05.04-.11.12-.29.14.35.28.58.34.84.41,1.77.79,3.55,1.17,5.32.04.13.04.28.1.39.08.13.21.22.32.34.12-.13.31-.23.36-.38.08-.22.01-.52.12-.73.31-.62.63-1.23,1.04-1.79.46-.61.54-1,.16-1.68-.1-.19-.27-.37-.29-.56-.02-.3-.03-.75.14-.89.57-.46.65-1.03.62-1.67,0-.13-.03-.28.02-.4.04-.1.15-.18.24-.27.07.08.16.15.2.25.14.33.31.66.35,1.01.05.37.05.78-.1,1.1-.33.71-.25,1.22.34,1.75.6.53.6.89.2,1.6-.01.02-.02.03-.03.05-.78,1.39-.72,1.73.48,2.84.4.37.59.36.82-.15.64-1.35,1.24-2.72,1.85-4.08.3-.66.6-1.3.9-1.95.06.01.12.02.18.02,0,.2.03.41-.03.59-.56,1.46-1.14,2.92-1.69,4.39-.12.31-.13.67-.19,1,.34-.05.7-.04,1.02-.16.58-.2,1.13-.51,1.71-.73.7-.27,1.08-.73.98-1.51-.08-.6.05-.99.76-1.09.29-.04.53-.42.78-.66.28-.28.54-.59.87-.96-.1.56-.16,1-.27,1.43-.04.16-.17.32-.3.41-.58.39-.75.96-.75,1.61-.01.29-.01.59-.03.88-.04.47-.22.93-.7,1.05-1.14.29-1.42,1.06-1.29,2.12.03.21,0,.41,0,.63.7.29,1.11-.22,1.54-.51,1.25-.87,2.47-1.8,3.71-2.7.2-.15.44-.27.67-.4.03.04.07.08.1.12-.79.76-1.56,1.54-2.36,2.29-.31.3-.69.56-1.03.85-.41.37-.36.67.15.85.62.23,1.25.44,1.88.62.57.16.97-.05,1.25-.59.12-.22.22-.45.33-.68.18-.36.39-.51.83-.33.26.11.61.03.89-.03.42-.1.82-.26,1.26-.32-.37.8-.76,1.5-1.73,1.62-.65.08-1.07.45-1.27,1.11-.18.61-.5.74-1.35.7-1.23-.06-1.58.19-1.97,1.4-.18.56.04.78.62.74,1.86-.13,3.72-.22,5.58-.32.05,0,.1.04.17.19-.59.14-1.17.29-1.76.39-.82.15-1.65.24-2.46.39-.25.04-.47.22-.7.33.12.23.21.48.38.66.35.39.74.75,1.11,1.12.42.44.87.55,1.41.23.16-.1.34-.19.52-.27.48-.21.89-.24,1.36.16.35.3.9.37,1.36.52.18.06.36.07.57.11-.38.63-1,.81-1.61.64Z"/><path class="cls-1" d="M50.16,14.05c-.03.07-.05.14-.08.21.03-.07.06-.14.09-.21h-.01ZM49.17,20.78c-.07.01-.13.02-.2.04.06-.02.12-.02.19-.03.5-.07,1.01-.12,1.51-.17-.5.04-1,.1-1.5.16ZM50.46,11.03c-.11,0-.21-.01-.34-.01.24.01.45.02.66.03-.11,0-.21-.01-.32-.02ZM54.27,31.34s-.03.08-.05.11c.03-.03.05-.07.06-.11.01-.04.02-.08.02-.12-.01.04-.02.08-.03.12ZM55.58,29.08s-.06,0-.09.01h.09c.06,0,.12,0,.17-.01-.05,0-.11.01-.17,0ZM55.31,29.1s-.05.01-.08.02c.09-.02.17-.03.26-.03-.02-.01-.05,0-.07,0-.04,0-.07.01-.11.01ZM70.12,12.82h-.01s.05.06.08.09c-.02-.03-.05-.06-.07-.09ZM71.32,24.76s-.01,0-.01,0c.07.01.12.04.17.05-.05-.01-.1-.04-.16-.06ZM69.66,26.37c.87,1.32,1.73,2.65,2.59,3.97h.01c-.87-1.32-1.73-2.65-2.6-3.97ZM72.19,11.89c-.06.05-.11.09-.17.14.11-.09.23-.18.35-.27-.06.05-.12.09-.18.13ZM72.3,20.22h0s.08-.04.11-.06c-.03.02-.07.04-.11.06ZM72.84,22.54c.13.05.27.12.42.22-.15-.11-.29-.18-.42-.22ZM73.28,13.62h.01s.02-.04.04-.06c-.02.02-.04.04-.05.06ZM73.15,19.49s-.07,0-.1.02c.04-.01.07-.01.1-.01.19-.01.36-.02.53-.01-.18-.01-.35-.01-.53,0ZM74.46,27.8c-.29-.6-.57-1.2-.86-1.81.28.61.57,1.21.85,1.81-.01.01-.02.03-.04.05.02-.02.03-.03.05-.05ZM74.4,20.2s-.07-.06-.11-.07c.04.03.08.05.11.08.07.05.13.1.19.16-.06-.06-.12-.12-.19-.17ZM74.42,13.89c-.08-.03-.17-.05-.26-.08-.09-.02-.18-.04-.28-.06.19.04.37.09.54.15.07.02.14.04.21.06-.07-.02-.14-.04-.21-.07ZM72.91,17.28s.02.01.03.01c.63-.1,1.28-.19,1.92-.28-.65.09-1.3.18-1.95.27ZM76.26,17.02c.11-.02.22-.05.33-.07h0c-.11.01-.22.04-.33.07ZM78.58,20.16h-.01s.02.02.03.03c0-.01-.01-.02-.02-.03Z"/><path class="cls-1" d="M62.65,10.06c-5.1,0-8.99,4.06-9.05,8.87-.06,5,4.03,9.14,8.96,9.06,4.99.11,8.9-3.98,9.04-8.66.16-5.12-3.99-9.26-8.95-9.27ZM62.6,27.66c-4.66.05-8.68-3.79-8.64-8.66.03-4.8,3.79-8.61,8.66-8.62,4.8-.01,8.71,3.88,8.63,8.87-.08,4.61-3.96,8.48-8.65,8.41Z"/><path class="cls-1" d="M53.2,19.9c-.54-.27-1.1-.49-1.6-.82-.49-.33-.94-.74-1.38-1.15-.62-.57-1.25-.69-1.93-.31-.09.04-.18.1-.27.16-.12.09-.29.09-.48.05-.07,0-.14-.03-.21-.06.86-.19,1.31-1.5,2.45-.8-.27.02-.54.04-.81.06.35.04.65.15.92.31.06.03.11.06.16.1.16.1.32.22.46.35.15.12.3.25.45.38.04.03.08.07.13.09.06.06.13.1.2.14.16.1.32.18.49.25.21.08.42.15.63.22.03.01.07.02.1.04.07.02.13.05.18.09.04.03.08.06.12.09.04.03.07.06.1.1.06.07.11.14.14.22.02.04.04.08.05.12.02.04.03.08.04.12.03.08.04.17.06.25Z"/><path class="cls-1" d="M53.85,13.12c-.23.08-.41.11-.57.09-.04,0-.07-.01-.1-.03-.1-.03-.2-.09-.3-.19-.03-.03-.07-.07-.1-.11-.06-.08-.13-.17-.2-.27-.14-.23-.24-.49-.38-.72-.2-.33-.46-.57-.78-.71-.06-.02-.12-.05-.18-.06-.07-.03-.15-.04-.23-.05-.08-.01-.15-.02-.23-.02-.21-.01-.42-.02-.66-.03.04-.09.08-.17.13-.23.02-.03.04-.05.07-.08.19-.18.42-.17.64-.13.08.02.15.04.22.05.13.03.26.08.38.13.13.05.24.1.36.17.11.07.21.14.31.23.1.08.2.18.28.28.11.14.21.3.29.47.03.05.06.1.1.15.03.05.06.09.11.14.07.09.16.18.25.27.06.06.12.12.17.18.14.15.27.3.42.47Z"/><path class="cls-1" d="M78.73,20.35c-.89-.1-1.63.1-2.36.48-.09.04-.17.09-.26.14-.03.02-.06.03-.09.04-.08.02-.19,0-.3-.01-.13-.02-.26-.07-.38-.12-.06-.02-.12-.04-.17-.07-.22-.1-.4-.27-.58-.44-.06-.06-.12-.11-.19-.16-.07-.06-.14-.1-.21-.15-.01,0-.02-.01-.03-.02-.08-.04-.16-.08-.24-.11-.16-.06-.33-.09-.5-.09-.11,0-.22.01-.33.04-.09,0-.18.04-.27.08-.05.02-.11.04-.17.08-.04.01-.08.03-.13.06-.07.04-.14.08-.22.13h0c.02-.08.03-.15.05-.21.05-.12.11-.22.18-.29s.15-.13.23-.16c.06-.03.13-.04.19-.05.07-.02.13-.03.2-.03.18-.01.35-.01.53,0s.37.04.54.1c.04.02.08.03.12.05.09.03.18.09.27.16.05.04.09.07.13.11.09.08.17.18.24.29.06.09.11.17.17.24s.11.12.17.16c.28.22.58.14,1.07-.12.15-.08.3-.15.44-.22.09-.04.18-.08.27-.12.18-.07.36-.13.54-.15.07-.01.13-.01.19-.01.01,0,.03,0,.04,0,.16,0,.33.02.5.08.07.03.13.06.2.1h.01s.02.02.02.03c.03.02.05.05.07.09.02.02.04.04.06.07Z"/><path class="cls-1" d="M59.24,27.97s-.01.01-.01.02c-.08.18-.16.37-.23.55-.16.39-.29.79-.44,1.18-.18.49-.37.98-.61,1.45-.19.37-.41.72-.69,1.05-.06.08-.13.16-.21.24.08-.19.16-.38.23-.57.19-.49.34-1,.52-1.5.05-.15.1-.29.16-.43.05-.15.11-.3.18-.44.09-.19.18-.37.29-.55.05-.09.11-.18.17-.26.05-.08.11-.16.17-.23,0-.01.01-.02.02-.03.07-.09.14-.17.22-.25.07-.08.15-.16.23-.23Z"/><path class="cls-1" d="M56.87,28.05c-.16.3-.31.6-.55.8-.04.04-.09.07-.15.1-.06.04-.13.07-.21.09-.05.02-.11.03-.17.04h-.04s-.11.01-.17.01c-.12-.01-.23,0-.35.03-.1.01-.19.04-.28.07-.08.03-.16.07-.22.11-.06.03-.1.07-.14.12,0,.01-.02.03-.03.04-.04.05-.06.11-.08.17-.03.1-.04.22-.03.35,0,.15,0,.3-.01.46-.01.08-.02.16-.02.24-.02.14-.05.28-.09.42-.01.08-.03.16-.05.24-.01.04-.03.08-.06.11-.01.03-.03.05-.05.07-.03.04-.06.07-.1.1-.04.04-.09.09-.14.13-.04.03-.08.07-.12.11.13-.83.18-1.64.42-2.4.03-.1.13-.2.25-.29.06-.04.13-.08.2-.12.17-.09.35-.16.5-.22.62-.23,1.28-.38,1.39-1.19.03-.2.03-.39.04-.65.08.07.14.15.19.23.05.07.09.14.11.22.01.03.02.07.03.11.04.15.02.32-.07.5Z"/><path class="cls-1" d="M52.88,20.6c-.02.06-.03.12-.04.18-1.71.2-3.43.41-5.14.62-.02-.08-.03-.16-.05-.24.26-.06.5-.14.76-.21.12-.04.25-.07.37-.1.13-.03.26-.05.39-.07.5-.06,1-.12,1.5-.16.62-.07,1.25-.12,1.88-.18h.02s.05,0,.07.02c.03.01.05.02.08.04.05.03.11.07.16.1Z"/><path class="cls-1" d="M74.46,27.8s-.03.03-.05.05c-.02.02-.05.05-.07.07-.21-.24-.45-.47-.61-.74-.16-.28-.26-.61-.35-.92-.04-.14-.09-.27-.15-.39-.04-.11-.1-.21-.16-.3-.04-.06-.08-.12-.14-.18-.02-.04-.06-.09-.11-.12-.03-.04-.07-.08-.12-.11-.05-.04-.1-.08-.16-.11-.08-.05-.17-.09-.26-.12-.21-.08-.46-.11-.74-.1-.02,0-.04,0-.06,0-.05-.01-.1-.04-.17-.05,0,0,.01,0,.01,0,.08-.05.16-.1.24-.15.35-.2.66-.25.94-.15.04.01.07.02.1.04.04.02.08.04.12.07.16.11.3.27.44.49.19.28.3.62.44.93.29.61.57,1.21.86,1.81Z"/><path class="cls-1" d="M69.06,9.09c.16-.12.32-.26.5-.36.55-.31,1.12-.59,1.64-.94.15-.1.19-.41.22-.63.06-.37.08-.75.12-1.22.36.42.42.78.34,1.26-.18,1.07-.99,1.38-1.82,1.7-.3.12-.63.16-.95.24-.02-.02-.04-.04-.06-.06Z"/><path class="cls-1" d="M68.88,31.28c-.01.07-.01.14-.03.21-.02.14-.05.28-.08.42-.02.06-.04.13-.05.2-.05.01-.1.02-.15.03,0-.49.04-1,0-1.48,0-.11-.01-.21-.03-.31,0-.06-.02-.12-.03-.18-.02-.06-.03-.12-.05-.18-.03-.11-.07-.22-.13-.33-.03-.06-.06-.11-.09-.16-.03-.05-.06-.1-.11-.15-.03-.05-.07-.1-.12-.15-.07-.07-.15-.14-.24-.21-.19-.14-.43-.27-.72-.37.3-.1.53-.14.72-.11.1.02.18.04.26.09.04.02.08.05.12.08.04.03.08.07.11.11.12.11.23.26.34.45.06.1.11.21.15.32.04.09.07.18.08.27.02.06.03.12.04.17,0,.01.01.03,0,.04.02.08.03.17.03.26.03.32,0,.65-.02.98Z"/><path class="cls-1" d="M52.96,23.56c-.17.25-.37.41-.6.53-.09.04-.18.08-.27.11-.06.02-.13.04-.19.06-.02,0-.04,0-.07,0-.09.02-.18.04-.28.05-.12.02-.23.03-.35.04-.18.01-.36.02-.55.04-.1.01-.21.01-.31.02-.02.01-.05.01-.07.01-.07.01-.13.02-.2.03-.02-.05-.03-.09-.05-.14.18-.06.36-.12.55-.17.3-.08.6-.13.9-.21.11-.02.22-.05.32-.09.06-.02.12-.04.17-.06.02-.01.05-.02.07-.03.07-.03.14-.05.21-.09.18-.07.35-.16.46-.3.04-.04.07-.09.09-.15.01-.02.02-.04.02-.06.03-.06.04-.12.04-.2,0-.07,0-.15-.02-.24-.03-.16.1-.35.22-.54.04-.05.07-.1.1-.15.02-.03.03-.06.05-.09.4.58.35.77-.24,1.62Z"/><path class="cls-1" d="M72.26,30.34h-.01s-.02.03-.03.03c-.03.03-.06.05-.09.08-.09-.11-.19-.22-.28-.33-.2-.23-.39-.45-.58-.68-.1-.11-.19-.22-.28-.34s-.16-.24-.23-.37c-.15-.24-.27-.49-.43-.72-.22-.33-.51-.62-.72-.95-.06-.08-.09-.18-.11-.29-.03-.1-.04-.21-.07-.31.08-.03.15-.06.23-.09.87,1.32,1.73,2.65,2.6,3.97Z"/><path class="cls-1" d="M56.39,12.06c-.22-.09-.41-.14-.55-.21-.04-.01-.07-.03-.09-.06-.03-.01-.05-.03-.07-.06-.7-1.04-1.36-2.1-2.02-3.16-.08-.13-.1-.31-.08-.49.9,1.28,1.81,2.56,2.81,3.98Z"/><path class="cls-1" d="M57.7,8.67c-.6-.94-1.16-1.83-1.72-2.71.05-.03.1-.06.15-.09,1.09.58,1.81,1.83,1.58,2.8Z"/><path class="cls-1" d="M60.12,4.43c.66,1.25.59,3.86.05,4.77.04-.59.12-1.18.11-1.77,0-.58-.07-1.17-.16-1.75-.06-.4-.35-.79,0-1.25Z"/><path class="cls-1" d="M65.52,33.05c-.53-.48-.58-4.37-.26-4.62.09,1.55.17,3.08.26,4.62Z"/><path class="cls-1" d="M54.4,25.71c-.1.07-.19.14-.28.22-.28.23-.53.49-.79.75-.23.23-.46.46-.7.67-.15.12-.31.24-.47.34-.11.08-.22.15-.33.21-.14.07-.3.14-.46.19-.03-.04-.07-.08-.1-.12,1-.81,1.99-1.62,2.99-2.43.05.06.09.11.14.17Z"/><path class="cls-1" d="M76.59,16.94h0c-.11.03-.22.06-.33.08-.33.08-.66.16-.99.23-.28.06-.56.12-.84.14-.17.02-.33.03-.5.03s-.34-.01-.51-.03c-.16-.03-.32-.06-.48-.1-.01,0-.02-.01-.03-.01.65-.09,1.3-.18,1.95-.27.57-.08,1.14-.16,1.7-.24.01.06.02.11.03.17Z"/><path class="cls-1" d="M61.58,30.71v2.9c-.48-.74-.44-2.43,0-2.9Z"/><path class="cls-1" d="M53.15,15.22c-.06.05-.13.1-.18.14-.06.05-.12.09-.17.09h-.02c-.23-.1-.46-.19-.68-.29-.23-.1-.46-.2-.68-.3-.45-.2-.89-.4-1.34-.6.03-.07.05-.14.08-.21h.01c.84.33,1.67.65,2.59,1.01.13.05.26.1.39.16Z"/><path class="cls-1" d="M64.2,6.47c-.21.37-.45.72-.62,1.1-.17.36-.26.76-.41,1.21-.37-.36-.35-.78-.12-1.12.31-.45.72-.83,1.09-1.25.02.02.04.04.06.06Z"/><path class="cls-1" d="M72.37,11.76c-.12.09-.24.18-.35.27-.4.33-.81.64-1.18.99-.27.24-.36.27-.65-.11-.03-.03-.06-.06-.08-.09h.01c.28-.17.55-.33.82-.48.27-.16.53-.31.79-.46.18-.1.35-.2.52-.3.04.06.08.12.12.18Z"/><path class="cls-1" d="M75.88,13.18h0c-.02.08-.05.15-.08.21-.01.04-.03.07-.06.1-.02.06-.06.11-.12.16-.06.07-.13.13-.21.17-.12.08-.25.12-.39.15-.13.01-.26.01-.39-.01-.07-.02-.14-.04-.21-.06-.17-.06-.35-.11-.54-.15-.19-.04-.38-.08-.59-.13h-.01s.03-.04.05-.06c0-.02.03-.04.05-.05.05-.05.11-.08.17-.09.07-.02.14-.03.22-.03.05,0,.09,0,.14,0,0,0,.01,0,.02,0,.05.01.11.02.17.03.11.03.2.05.28.07.13.03.24.06.33.07.26.05.42.03.64-.07.08-.04.17-.09.29-.16.07-.04.14-.1.23-.15,0-.01.01-.01.01-.01Z"/><path class="cls-1" d="M69.11,9.15c-.3.53-.59,1.05-.88,1.58-.17.31-.39.49-.72.39.35-.56.66-1.11,1.02-1.64.12-.17.34-.26.52-.39.02.02.04.04.06.06Z"/><path class="cls-1" d="M64.14,6.41c.06-.18.18-.37.16-.54-.02-.26-.08-.68-.23-.74-.52-.22-.42-.56-.36-.97,1.21,1.23.98,1.87.49,2.31-.02-.02-.04-.04-.06-.06Z"/><path class="cls-1" d="M68.31,5.67c-.37.81-.52,1.71-1.1,2.43-.07-.03-.14-.06-.2-.09.37-.81.74-1.62,1.11-2.42.06.03.13.06.19.09Z"/><path class="cls-1" d="M49.71,24.57c-.06.06-.11.12-.16.19-.05.07-.09.14-.13.21,0,.01-.01.02-.01.03-.05.09-.1.17-.14.26-.1.18-.2.35-.34.49-.05.05-.1.1-.16.14-.06.05-.13.09-.21.13-.08.03-.17.06-.27.07-.08.02-.17.03-.27.03h-.05c.19-.16.36-.3.52-.43.09-.07.18-.15.26-.22s.14-.13.21-.2c.12-.12.23-.25.36-.38.06-.07.13-.13.19-.19.07-.05.13-.1.2-.13Z"/><path class="cls-1" d="M73.7,23.16c-.3-.06-.59-.12-.87-.18-.29-.06-.58-.12-.88-.19.27-.27.57-.35.89-.25.13.04.27.11.42.22.09.07.19.15.29.25.05.04.1.09.15.15Z"/></g></svg>