<svg xmlns="http://www.w3.org/2000/svg" viewBox="0 0 181 102" id="svg10917313919"><g transform="translate(3.01 2)"><g transform="translate(0.434 66.162)"><path d="M 46.293 13.259 C 46.139 13.412 45.957 13.538 45.775 13.663 C 43.912 14.919 41.909 15.309 39.724 14.64 C 39.164 14.472 38.968 14.249 38.968 13.663 C 38.996 11.766 38.968 9.87 38.968 7.973 L 38.968 2.505 C 38.968 1.291 39.01 1.263 40.2 1.012 C 42.413 0.58 44.416 1.012 46.181 2.449 C 46.419 2.644 46.643 2.881 46.91 2.547 C 47.176 2.226 46.91 2.031 46.671 1.835 C 45.873 1.18 44.977 0.678 43.996 0.371 C 40.536 -0.703 36.684 0.831 34.92 3.928 C 33.043 7.219 33.659 11.222 36.418 13.705 C 39.15 16.174 43.254 16.411 46.237 14.305 C 46.419 14.18 46.587 14.026 46.741 13.887 C 46.952 13.719 47.134 13.51 46.924 13.245 C 46.727 12.994 46.503 13.036 46.279 13.245 Z M 133.025 0.134 C 128.683 0.134 125.195 3.593 125.195 7.917 C 125.195 12.324 128.627 15.742 133.067 15.742 C 137.703 15.839 140.897 11.85 140.925 8 C 140.953 4.025 137.675 0.134 133.039 0.148 Z M 133.879 14.933 C 132.871 15.072 131.932 14.933 130.952 14.668 C 130.405 14.528 130.279 14.263 130.279 13.747 C 130.307 11.808 130.279 9.883 130.279 7.945 C 130.279 6.006 130.307 4.151 130.279 2.268 C 130.279 1.654 130.447 1.361 131.064 1.194 C 134.93 0.162 138.656 2.324 139.79 5.866 C 141.051 9.828 138.502 14.291 133.879 14.933 Z M 13.895 15.016 C 10.996 14.975 8.11 14.989 5.029 14.989 L 5.029 0.162 L 0 0.162 L 0 15.728 L 1.065 15.728 C 5.337 15.728 9.637 15.728 13.923 15.728 C 14.273 15.728 14.889 15.965 14.917 15.407 C 14.946 14.654 14.245 15.03 13.909 15.03 Z M 157.327 0.385 C 157.299 0.176 157.145 0.092 156.949 0.078 C 156.711 0.078 156.627 0.245 156.627 0.441 C 156.613 0.664 156.627 0.873 156.627 1.082 C 156.627 3.133 156.627 5.169 156.627 7.219 C 156.627 7.959 156.557 8.684 156.403 9.395 C 155.548 13.343 151.388 15.811 147.592 14.682 C 146.948 14.486 146.752 14.207 146.766 13.552 C 146.808 9.493 146.78 5.448 146.78 1.389 C 146.78 1.138 146.78 0.873 146.78 0.622 C 146.794 0.217 146.64 0.036 146.205 0.036 C 144.735 0.064 143.278 0.036 141.821 0.036 C 141.611 0.482 141.653 0.775 141.653 1.068 C 141.653 3.342 141.667 5.601 141.667 7.861 C 141.667 8.6 141.723 9.312 141.933 10.023 C 143.558 15.588 150.099 17.276 154.119 14.305 C 156.248 12.743 157.355 10.511 157.355 7.819 C 157.355 5.56 157.355 3.3 157.355 1.026 C 157.355 0.803 157.355 0.58 157.327 0.371 Z M 63.634 14.905 C 63.578 14.765 63.508 14.64 63.438 14.514 C 61.421 10.692 59.404 6.843 57.387 3.007 C 56.939 2.17 56.518 1.319 56.056 0.496 C 55.734 -0.076 55.468 -0.076 55.118 0.454 C 55.02 0.608 54.95 0.775 54.866 0.943 C 53.213 4.053 51.574 7.191 49.921 10.316 C 49.137 11.78 48.324 13.245 47.582 14.723 C 47.442 14.975 47.008 15.365 47.498 15.658 C 47.946 15.923 48.114 15.463 48.282 15.156 C 48.604 14.542 48.955 13.942 49.249 13.315 C 49.431 12.924 49.683 12.799 50.103 12.799 C 52.106 12.813 54.123 12.813 56.14 12.799 C 56.56 12.799 56.813 12.91 56.995 13.315 C 57.275 13.942 57.653 14.528 57.947 15.156 C 58.157 15.63 58.465 15.798 58.984 15.784 C 59.642 15.756 60.3 15.784 60.959 15.784 L 60.959 15.756 C 61.687 15.756 62.429 15.798 63.158 15.756 C 63.802 15.714 63.886 15.532 63.634 14.919 Z M 49.977 11.948 C 51.042 9.953 52.036 8.042 53.129 5.936 C 54.235 8.028 55.258 9.953 56.308 11.948 Z M 125.069 0.036 C 121.147 0.036 117.225 0.036 113.303 0.036 C 112.21 0.036 112.21 0.036 112.21 1.124 C 112.21 5.615 112.21 10.107 112.21 14.598 C 112.21 14.947 112.098 15.323 112.364 15.658 L 117.351 15.658 L 117.351 6.48 L 122.281 6.48 C 122.576 6.48 122.94 6.48 122.926 6.076 C 122.926 5.727 122.688 5.462 122.295 5.448 C 122.029 5.434 121.777 5.448 121.525 5.448 L 117.309 5.448 L 117.309 1.933 C 117.309 0.831 117.309 0.831 118.485 0.817 C 120.685 0.817 122.884 0.817 125.083 0.817 C 125.433 0.817 126.035 1.054 126.021 0.427 C 126.007 -0.145 125.419 0.05 125.055 0.036 Z M 28.826 15.002 C 26.305 14.989 23.784 15.002 21.151 15.002 L 21.151 6.494 L 26.039 6.494 C 26.305 6.494 26.627 6.48 26.641 6.159 C 26.669 5.825 26.473 5.532 26.081 5.49 C 25.829 5.462 25.563 5.49 25.311 5.49 L 21.137 5.49 L 21.137 0.831 L 22.257 0.831 C 24.456 0.831 26.655 0.845 28.854 0.831 C 29.191 0.831 29.807 1.096 29.793 0.468 C 29.793 -0.145 29.191 0.078 28.84 0.078 C 24.848 0.078 20.856 0.078 16.85 0.078 C 16.57 0.078 16.262 -0.006 16.024 0.273 L 16.024 15.728 C 16.36 15.742 16.64 15.77 16.934 15.77 C 20.884 15.77 24.848 15.77 28.812 15.756 C 29.163 15.756 29.765 15.993 29.793 15.421 C 29.807 14.807 29.191 15.044 28.84 15.044 Z M 110.74 15.002 L 102.559 15.002 L 102.559 6.494 L 103.26 6.494 C 104.647 6.494 106.047 6.494 107.434 6.494 C 107.686 6.494 108.008 6.536 108.036 6.173 C 108.078 5.811 107.868 5.546 107.476 5.49 C 107.238 5.448 106.972 5.49 106.706 5.49 L 102.587 5.49 L 102.587 0.845 C 105.165 0.845 107.658 0.845 110.151 0.831 C 110.501 0.831 111.188 1.152 111.16 0.427 C 111.16 -0.187 110.529 0.078 110.193 0.078 C 106.341 0.064 102.489 0.064 98.652 0.078 C 98.259 0.078 97.853 0.008 97.433 0.203 L 97.433 15.714 C 97.629 15.728 97.783 15.77 97.923 15.77 C 102.069 15.77 106.215 15.77 110.347 15.77 C 110.487 15.77 110.642 15.77 110.782 15.77 C 111.034 15.77 111.216 15.672 111.202 15.393 C 111.188 15.1 110.992 15.044 110.74 15.044 Z M 95.738 14.417 C 94.772 13.147 93.805 11.864 92.811 10.553 C 92.979 10.455 93.077 10.358 93.203 10.316 C 95.668 9.312 96.691 6.522 96.256 4.472 C 95.696 1.794 93.721 0.12 90.99 0.078 C 87.908 0.036 84.827 0.064 81.745 0.064 C 80.919 0.064 80.905 0.092 80.905 0.943 L 80.905 15.086 C 80.905 15.295 80.849 15.532 81.101 15.714 L 86.045 15.714 L 86.045 10.804 C 87.964 10.804 89.785 10.804 91.606 10.79 C 92.026 10.79 92.18 11.041 92.39 11.306 C 93.189 12.38 94.015 13.468 94.814 14.542 C 95.052 14.863 95.318 15.17 95.556 15.491 C 95.738 15.728 95.948 15.825 96.2 15.616 C 96.438 15.435 96.326 15.24 96.2 15.044 C 96.06 14.835 95.906 14.626 95.752 14.417 Z M 90.976 10.023 C 89.365 9.939 87.754 10.009 86.045 10.009 L 86.045 0.985 C 86.297 0.72 86.619 0.817 86.886 0.817 C 88.272 0.817 89.673 0.789 91.06 0.817 C 93.623 0.887 95.57 2.951 95.542 5.518 C 95.5 8.349 92.951 10.107 90.99 10.009 Z M 173.337 14.933 C 173.071 14.584 172.819 14.235 172.553 13.873 C 171.726 12.771 170.9 11.669 170.059 10.553 C 170.255 10.427 170.382 10.33 170.508 10.274 C 172.931 9.019 173.995 6.759 173.407 4.053 C 172.903 1.752 170.76 0.064 168.168 0.022 C 165.115 -0.02 162.075 0.008 159.036 0.022 C 158.153 0.022 158.139 0.05 158.139 0.971 C 158.139 4.318 158.139 7.68 158.139 11.041 C 158.139 12.562 158.139 14.082 158.139 15.672 L 163.196 15.672 C 163.364 14.04 163.126 12.45 163.336 10.776 C 165.171 10.776 166.964 10.776 168.757 10.776 C 169.135 10.776 169.359 10.957 169.555 11.25 C 170.017 11.906 170.508 12.548 170.998 13.189 C 171.544 13.915 172.132 14.626 172.665 15.365 C 172.861 15.63 173.029 15.881 173.351 15.686 C 173.715 15.477 173.505 15.198 173.323 14.961 Z M 168.224 10.023 C 166.614 9.967 165.003 10.023 163.28 10.023 L 163.28 0.817 C 165.213 0.873 167.104 0.65 168.981 0.943 C 171.404 1.319 172.959 3.467 172.735 5.936 C 172.511 8.363 170.297 10.093 168.21 10.023 Z M 79.868 15.142 C 79.728 14.905 79.518 14.668 79.35 14.445 C 78.397 13.161 77.417 11.892 76.464 10.623 C 76.548 10.525 76.576 10.455 76.646 10.427 C 79.266 9.033 80.162 7.289 79.854 4.332 C 79.742 3.328 78.944 2.644 78.776 1.696 C 77.543 0.929 76.38 0.05 74.812 0.05 C 71.73 0.05 68.648 0.036 65.567 0.036 C 64.502 0.036 64.502 0.036 64.502 1.152 C 64.502 5.643 64.502 10.135 64.502 14.626 C 64.502 14.947 64.53 15.267 64.558 15.658 L 69.671 15.658 L 69.671 10.999 C 69.937 10.734 70.175 10.804 70.385 10.804 C 71.884 10.804 73.383 10.846 74.896 10.776 C 75.456 10.762 75.778 10.916 76.086 11.348 C 77.011 12.617 77.963 13.859 78.902 15.128 C 79.028 15.295 79.168 15.477 79.322 15.63 C 79.476 15.77 79.686 15.77 79.826 15.644 C 79.98 15.532 79.994 15.295 79.896 15.142 Z M 74.798 10.009 C 73.131 10.051 71.436 10.009 69.685 10.009 L 69.685 0.803 C 71.688 0.887 73.621 0.608 75.54 0.971 C 77.823 1.375 79.378 3.537 79.154 5.866 C 78.944 8.168 77.067 9.967 74.798 10.009 Z" fill="rgb(140, 140, 140)"/></g><path d="M 0.434 87.72 L 0.434 87.051 L 173.995 87.051 L 173.995 87.72 Z" fill="rgb(140, 140, 140)"/><path d="M 49.179 93.341 C 48.941 92.728 48.604 92.7 48.03 92.881 C 48.03 94.318 48.03 95.768 48.03 97.205 C 48.03 97.456 48.002 97.791 48.338 97.805 C 48.786 97.805 48.66 97.414 48.66 97.149 C 48.66 96.173 48.66 95.182 48.66 93.983 C 49.221 94.75 49.389 95.42 49.683 96.019 C 49.977 96.619 50.117 97.303 50.705 98 C 51.322 96.619 51.868 95.364 52.428 94.122 C 52.61 95.224 52.61 96.256 52.61 97.303 C 52.61 97.512 52.582 97.777 52.877 97.805 C 53.255 97.833 53.241 97.54 53.241 97.289 C 53.241 95.81 53.241 94.346 53.241 92.909 C 52.596 92.672 52.274 92.825 52.05 93.383 C 51.644 94.415 51.168 95.42 50.635 96.647 C 50.075 95.392 49.571 94.401 49.179 93.355 Z" fill="rgb(140, 140, 140)"/><path d="M 117.323 95.74 C 116.749 94.904 116.16 94.081 115.586 93.244 C 115.306 92.839 115.012 92.602 114.479 92.937 C 114.479 93.355 114.479 93.788 114.479 94.22 C 114.479 95.169 114.479 96.103 114.479 97.052 C 114.479 97.344 114.311 97.819 114.816 97.805 C 115.222 97.805 115.082 97.372 115.11 97.107 C 115.124 96.884 115.11 96.675 115.11 96.452 C 115.11 95.629 115.11 94.82 115.11 93.997 C 115.46 94.22 115.67 94.513 115.866 94.792 C 116.468 95.657 117.099 96.494 117.659 97.386 C 117.925 97.805 118.205 97.93 118.654 97.721 C 118.836 97.261 118.738 96.787 118.752 96.326 C 118.752 95.308 118.752 94.29 118.752 93.286 C 118.752 93.076 118.794 92.811 118.485 92.783 C 118.093 92.755 118.121 93.048 118.135 93.299 C 118.135 93.523 118.149 93.732 118.135 93.955 C 118.079 94.806 118.233 95.671 118.037 96.577 C 117.659 96.354 117.519 96.033 117.309 95.74 Z" fill="rgb(140, 140, 140)"/><path d="M 111.692 97.498 C 111.692 96.229 111.72 94.959 111.692 93.704 C 111.692 93.397 111.958 92.839 111.412 92.825 C 110.852 92.825 111.146 93.383 111.118 93.69 C 111.048 94.625 111.188 95.573 111.02 96.521 C 110.614 96.41 110.529 96.103 110.375 95.866 C 109.801 95.029 109.255 94.178 108.653 93.355 C 108.386 92.993 108.12 92.532 107.462 92.895 C 107.462 93.299 107.462 93.732 107.462 94.164 C 107.462 95.21 107.462 96.27 107.462 97.317 C 107.462 97.54 107.406 97.791 107.714 97.805 C 108.078 97.833 108.092 97.554 108.092 97.289 C 108.092 97.107 108.092 96.926 108.092 96.745 C 108.092 95.824 108.092 94.917 108.092 93.983 C 108.232 93.997 108.288 93.983 108.302 94.011 C 109.045 95.071 109.801 96.145 110.543 97.205 C 110.796 97.568 111.02 97.958 111.636 97.735 C 111.664 97.609 111.692 97.54 111.692 97.47 Z" fill="rgb(140, 140, 140)"/><path d="M 33.603 95.782 C 33.603 96.326 33.603 96.87 33.603 97.414 C 33.603 97.609 33.673 97.777 33.883 97.819 C 34.191 97.861 34.233 97.637 34.233 97.4 C 34.233 97.177 34.233 96.968 34.233 96.745 C 34.233 95.838 34.233 94.917 34.233 93.997 C 34.569 94.039 34.625 94.234 34.723 94.373 C 35.424 95.392 36.124 96.396 36.824 97.414 C 37.021 97.693 37.259 97.944 37.637 97.805 C 38.001 97.679 37.903 97.33 37.903 97.052 C 37.903 95.922 37.903 94.806 37.903 93.676 C 37.903 93.453 37.903 93.244 37.889 93.02 C 37.875 92.839 37.707 92.811 37.567 92.797 C 37.413 92.797 37.287 92.853 37.287 93.034 C 37.287 93.258 37.287 93.467 37.287 93.69 C 37.287 94.638 37.287 95.587 37.287 96.535 C 36.923 96.494 36.881 96.298 36.782 96.159 C 36.11 95.21 35.438 94.276 34.779 93.313 C 34.513 92.923 34.247 92.616 33.631 92.909 C 33.631 93.885 33.631 94.834 33.631 95.768 Z" fill="rgb(140, 140, 140)"/><path d="M 42.904 92.672 C 41.433 92.728 40.34 93.899 40.368 95.392 C 40.382 96.884 41.559 98.014 43.03 97.972 C 44.542 97.93 45.621 96.814 45.607 95.308 C 45.579 93.732 44.43 92.602 42.904 92.658 Z M 42.932 97.414 C 41.853 97.414 41.041 96.508 41.027 95.336 C 41.027 94.15 41.909 93.23 43.044 93.258 C 44.178 93.299 44.977 94.206 44.935 95.447 C 44.893 96.591 44.052 97.442 42.932 97.414 Z" fill="rgb(140, 140, 140)"/><path d="M 22.593 95.531 C 22.705 95.447 22.803 95.378 22.887 95.322 C 23.574 94.876 23.826 94.415 23.672 93.829 C 23.504 93.202 23.112 92.881 22.285 92.825 C 21.711 92.783 21.123 92.825 20.408 92.825 C 20.408 94.387 20.408 95.978 20.408 97.554 C 20.408 97.721 20.52 97.819 20.688 97.819 C 20.898 97.819 21.025 97.707 21.025 97.498 C 21.025 97.052 21.025 96.619 21.039 96.187 C 21.039 95.95 20.941 95.657 21.277 95.545 C 21.627 95.434 21.823 95.671 21.963 95.922 C 22.271 96.41 22.565 96.912 22.859 97.414 C 23.056 97.777 23.294 97.986 23.742 97.693 C 23.434 96.94 22.831 96.326 22.579 95.545 Z M 21.095 94.973 C 20.983 94.415 21.025 93.927 21.095 93.383 C 21.739 93.299 22.383 93.146 22.873 93.732 C 23.07 93.969 23.098 94.276 22.901 94.527 C 22.425 95.169 21.767 94.945 21.095 94.973 Z" fill="rgb(140, 140, 140)"/><path d="M 28.658 92.672 C 27.216 92.602 25.997 93.746 25.955 95.21 C 25.913 96.717 27.006 97.944 28.42 97.986 C 29.989 98.028 31.138 96.94 31.18 95.392 C 31.208 93.885 30.143 92.728 28.658 92.672 Z M 28.56 97.414 C 27.426 97.414 26.585 96.48 26.613 95.266 C 26.641 94.108 27.482 93.244 28.574 93.258 C 29.737 93.258 30.521 94.15 30.507 95.406 C 30.493 96.577 29.667 97.428 28.56 97.414 Z" fill="rgb(140, 140, 140)"/><path d="M 158.672 95.559 C 158.546 95.392 158.349 95.266 158.139 95.085 C 158.672 94.652 158.896 94.108 158.574 93.467 C 158.279 92.853 157.663 92.811 157.075 92.797 C 156.571 92.797 156.066 92.714 155.548 92.895 L 155.548 97.777 C 156.487 97.847 157.313 97.93 158.111 97.609 C 158.98 97.261 159.246 96.298 158.672 95.559 Z M 156.15 93.411 C 157.523 93.244 158.013 93.411 158.027 94.081 C 158.027 94.652 157.635 94.917 156.781 94.917 C 156.332 94.917 156.122 94.415 156.15 93.411 Z M 157.551 97.191 C 157.117 97.289 156.697 97.303 156.22 97.191 C 156.052 96.675 156.164 96.131 156.108 95.559 C 156.613 95.378 157.019 95.447 157.411 95.475 C 157.915 95.489 158.223 95.768 158.279 96.27 C 158.335 96.8 158.027 97.079 157.551 97.191 Z" fill="rgb(140, 140, 140)"/><path d="M 3.152 95.629 C 3.026 95.434 2.829 95.266 2.647 95.057 C 3.096 94.583 3.362 94.095 3.04 93.467 C 2.717 92.867 2.129 92.769 1.541 92.783 C 1.037 92.783 0.532 92.7 0 92.867 L 0 97.763 C 0.854 97.819 1.639 97.902 2.409 97.665 C 3.418 97.344 3.74 96.48 3.166 95.615 Z M 0.616 93.411 C 0.98 93.244 1.387 93.272 1.765 93.341 C 2.129 93.411 2.465 93.564 2.493 94.011 C 2.521 94.485 2.255 94.708 1.807 94.834 C 1.401 94.945 1.023 94.834 0.616 94.876 L 0.616 93.397 Z M 2.017 97.191 C 1.569 97.317 1.107 97.261 0.63 97.205 L 0.63 95.517 C 1.079 95.364 1.541 95.406 1.989 95.489 C 2.465 95.573 2.745 95.852 2.745 96.382 C 2.745 96.884 2.409 97.079 2.017 97.177 Z" fill="rgb(140, 140, 140)"/><path d="M 172.749 95.559 C 172.889 95.461 172.987 95.392 173.071 95.35 C 173.757 94.904 174.009 94.443 173.869 93.857 C 173.729 93.258 173.295 92.909 172.497 92.825 C 171.894 92.755 171.278 92.755 170.62 92.839 L 170.62 96.354 C 170.62 96.717 170.606 97.079 170.606 97.442 C 170.606 97.651 170.69 97.791 170.928 97.805 C 171.166 97.805 171.222 97.637 171.222 97.442 C 171.222 97.052 171.222 96.647 171.222 96.243 C 171.222 95.978 171.096 95.615 171.502 95.531 C 171.894 95.447 172.076 95.685 172.244 96.005 C 172.497 96.494 172.819 96.94 173.085 97.4 C 173.295 97.777 173.533 97.916 173.995 97.693 C 173.575 96.968 173.169 96.256 172.763 95.545 Z M 171.278 94.904 C 171.124 94.415 171.236 93.927 171.236 93.369 C 171.768 93.272 172.202 93.258 172.623 93.369 C 172.959 93.453 173.197 93.676 173.225 94.039 C 173.267 94.457 173.057 94.722 172.679 94.862 C 172.23 95.043 171.768 95.015 171.264 94.904 Z" fill="rgb(140, 140, 140)"/><path d="M 151.808 95.545 C 151.976 95.447 152.06 95.392 152.158 95.336 C 152.831 94.917 153.097 94.429 152.943 93.843 C 152.775 93.202 152.298 92.895 151.668 92.839 C 151.024 92.783 150.379 92.714 149.679 92.881 C 149.679 94.373 149.679 95.81 149.679 97.261 C 149.679 97.498 149.637 97.833 150.015 97.805 C 150.379 97.777 150.309 97.47 150.309 97.219 C 150.337 96.675 150.239 96.131 150.393 95.601 C 150.912 95.364 151.15 95.712 151.346 96.075 C 151.64 96.521 151.92 96.996 152.186 97.47 C 152.368 97.791 152.607 97.958 153.041 97.735 C 152.621 97.01 152.214 96.284 151.808 95.559 Z M 150.351 94.917 L 150.351 93.327 C 150.842 93.286 151.262 93.258 151.682 93.369 C 152.088 93.481 152.298 93.746 152.284 94.164 C 152.284 94.527 152.074 94.778 151.724 94.876 C 151.304 94.987 150.87 95.043 150.351 94.917 Z" fill="rgb(140, 140, 140)"/><path d="M 121.497 97.177 C 121.497 97.623 121.609 97.847 122.113 97.833 C 122.87 97.805 123.64 97.833 124.396 97.833 C 124.593 97.833 124.789 97.819 124.803 97.582 C 124.817 97.289 124.607 97.247 124.368 97.261 C 123.654 97.261 122.94 97.261 122.127 97.261 C 122.239 96.577 122.029 96.019 122.253 95.503 C 123.052 95.308 123.864 95.685 124.705 95.196 C 123.864 94.611 122.982 95.141 122.183 94.764 C 122.155 94.332 122.099 93.871 122.225 93.411 C 122.66 93.258 123.108 93.383 123.528 93.313 C 123.92 93.258 124.452 93.592 124.803 92.881 L 121.525 92.881 C 121.525 94.373 121.525 95.782 121.525 97.191 Z" fill="rgb(140, 140, 140)"/><path d="M 167.636 97.819 C 167.86 97.819 168.126 97.819 168.126 97.526 C 168.126 97.247 167.874 97.233 167.636 97.233 C 166.922 97.233 166.207 97.233 165.493 97.233 L 165.493 95.531 C 166.277 95.21 167.16 95.726 168 95.113 C 167.118 94.68 166.263 95.057 165.437 94.792 C 165.507 94.29 165.381 93.829 165.521 93.397 C 166.333 93.104 167.23 93.564 168.014 92.965 C 166.978 92.742 165.941 92.797 164.849 92.783 L 164.849 97.819 C 165.829 97.819 166.726 97.819 167.636 97.819 Z" fill="rgb(140, 140, 140)"/><path d="M 146.752 93.313 C 146.948 93.313 147.13 93.313 147.13 93.062 C 147.13 92.811 146.934 92.797 146.752 92.797 C 145.855 92.797 144.959 92.797 144.034 92.797 L 144.034 97.833 C 144.987 97.833 145.897 97.833 146.794 97.833 C 147.018 97.833 147.27 97.833 147.27 97.54 C 147.27 97.233 146.99 97.275 146.78 97.261 C 146.065 97.219 145.351 97.372 144.679 97.163 L 144.679 95.447 C 145.127 95.447 145.519 95.461 145.925 95.447 C 146.289 95.434 146.71 95.587 147.158 95.141 C 146.303 94.652 145.449 95.113 144.665 94.792 L 144.665 93.327 C 145.435 93.327 146.093 93.327 146.738 93.327 Z" fill="rgb(140, 140, 140)"/><path d="M 59.432 97.819 C 60.426 97.819 61.365 97.819 62.303 97.819 C 62.513 97.819 62.681 97.749 62.653 97.526 C 62.639 97.303 62.457 97.247 62.261 97.247 C 61.547 97.247 60.819 97.247 59.992 97.247 C 60.076 96.591 59.908 96.019 60.076 95.531 C 60.875 95.238 61.715 95.713 62.429 95.21 C 62.359 95.085 62.331 94.987 62.289 94.973 C 61.589 94.75 60.847 94.973 60.118 94.848 C 59.964 94.346 59.992 93.857 60.118 93.383 C 60.931 93.16 61.813 93.537 62.569 92.979 C 61.533 92.769 60.51 92.797 59.46 92.797 L 59.46 97.819 Z" fill="rgb(140, 140, 140)"/><path d="M 98.441 96.717 C 98.595 95.964 98.287 95.503 97.335 95.113 C 97.069 95.001 96.803 94.904 96.522 94.806 C 96.144 94.666 95.878 94.415 95.962 93.997 C 96.046 93.564 96.34 93.341 96.803 93.286 C 97.153 93.244 97.433 93.327 97.713 93.523 C 97.923 93.662 98.147 93.606 98.245 93.355 C 98.329 93.146 98.175 93.007 97.993 92.951 C 97.685 92.853 97.363 92.728 97.041 92.714 C 96.158 92.658 95.458 93.132 95.29 93.871 C 95.108 94.611 95.528 95.238 96.438 95.587 C 96.747 95.699 97.069 95.768 97.349 95.922 C 97.993 96.284 97.965 96.912 97.321 97.275 C 96.943 97.498 96.55 97.484 96.172 97.303 C 96.004 97.219 95.864 97.093 95.71 97.024 C 95.5 96.94 95.36 97.079 95.276 97.233 C 95.192 97.386 95.304 97.512 95.416 97.596 C 95.808 97.888 96.284 97.93 96.705 97.986 C 97.629 97.972 98.287 97.484 98.441 96.717 Z" fill="rgb(140, 140, 140)"/><path d="M 12.214 96.8 C 12.396 95.978 12.032 95.447 11.01 95.057 C 10.771 94.973 10.533 94.89 10.295 94.792 C 9.931 94.638 9.693 94.387 9.749 93.955 C 9.819 93.467 10.183 93.327 10.603 93.258 C 10.897 93.216 11.164 93.286 11.43 93.453 C 11.64 93.592 11.948 93.704 12.06 93.355 C 12.144 93.062 11.864 92.937 11.612 92.853 C 11.08 92.672 10.547 92.63 10.015 92.853 C 9.469 93.076 9.133 93.453 9.077 94.067 C 9.021 94.68 9.287 95.113 9.833 95.378 C 10.155 95.531 10.519 95.615 10.841 95.768 C 11.262 95.964 11.738 96.159 11.542 96.787 C 11.388 97.261 10.883 97.526 10.323 97.428 C 10.029 97.386 9.805 97.191 9.553 97.038 C 9.357 96.926 9.175 97.065 9.077 97.191 C 8.95 97.372 9.077 97.526 9.231 97.637 C 9.567 97.888 9.973 97.916 10.365 97.972 C 11.332 98.028 12.046 97.582 12.214 96.814 Z" fill="rgb(140, 140, 140)"/><path d="M 88.076 93.258 C 87.964 93.007 87.894 92.783 87.572 92.783 C 87.32 92.797 87.208 92.951 87.124 93.174 C 86.479 94.68 85.807 96.187 85.149 97.693 C 85.695 98.014 85.905 97.665 85.989 97.303 C 86.157 96.591 86.619 96.424 87.278 96.508 C 87.516 96.549 87.782 96.549 88.034 96.508 C 88.58 96.424 88.917 96.619 89.057 97.177 C 89.155 97.568 89.323 97.972 89.995 97.665 C 89.337 96.145 88.707 94.68 88.09 93.23 Z M 86.549 96.033 C 86.9 95.169 87.194 94.485 87.502 93.718 C 88.006 94.387 88.132 95.127 88.482 95.866 C 87.866 96.159 87.292 95.922 86.549 96.033 Z" fill="rgb(140, 140, 140)"/><path d="M 76.38 93.104 C 76.17 92.63 75.764 92.658 75.526 93.174 C 74.84 94.666 74.181 96.187 73.523 97.707 C 74.167 98 74.321 97.582 74.419 97.219 C 74.573 96.647 74.924 96.466 75.456 96.535 C 75.638 96.549 75.82 96.549 76.002 96.535 C 76.759 96.452 77.361 96.535 77.543 97.442 C 77.613 97.833 77.893 97.958 78.341 97.665 C 77.697 96.131 77.067 94.597 76.394 93.104 Z M 75.036 95.95 C 75.162 95.127 75.694 94.499 75.876 93.648 C 76.394 94.373 76.478 95.182 76.969 95.978 C 76.254 96.019 75.68 96.061 75.036 95.95 Z" fill="rgb(140, 140, 140)"/><path d="M 103.428 93.313 C 103.33 93.076 103.302 92.811 102.966 92.797 C 102.601 92.797 102.517 93.062 102.391 93.341 C 101.845 94.625 101.257 95.908 100.697 97.191 C 100.627 97.358 100.374 97.54 100.612 97.763 C 100.977 97.958 101.215 97.721 101.257 97.428 C 101.425 96.521 102.041 96.466 102.77 96.535 C 103.19 96.577 103.624 96.535 104.03 96.535 C 104.413 97.354 104.829 97.735 105.277 97.679 C 104.647 96.215 104.016 94.764 103.4 93.313 Z M 101.859 96.075 C 102.237 95.169 102.531 94.471 102.896 93.592 C 103.246 94.443 103.512 95.113 103.806 95.838 C 103.19 96.159 102.601 95.894 101.859 96.061 Z" fill="rgb(140, 140, 140)"/><path d="M 139.216 97.456 C 139.3 97.693 139.454 97.805 139.692 97.805 C 139.902 97.805 140.014 97.693 140.084 97.498 C 140.673 95.964 141.275 94.429 141.863 92.895 L 141.415 92.672 C 140.659 93.857 140.392 95.322 139.706 96.647 C 139.398 96.326 139.328 95.964 139.202 95.643 C 138.908 94.862 138.614 94.081 138.333 93.299 C 138.193 92.895 137.997 92.658 137.479 92.923 C 138.053 94.443 138.628 95.964 139.188 97.484 Z" fill="rgb(140, 140, 140)"/><path d="M 69.629 97.442 C 69.713 97.679 69.839 97.805 70.091 97.805 C 70.357 97.805 70.441 97.637 70.525 97.414 C 71.1 95.908 71.688 94.401 72.262 92.881 C 71.604 92.63 71.534 93.09 71.394 93.439 C 70.988 94.485 70.581 95.531 70.175 96.577 C 69.867 96.452 69.867 96.243 69.811 96.089 C 69.461 95.182 69.111 94.276 68.775 93.355 C 68.62 92.951 68.48 92.588 67.878 92.895 C 68.452 94.401 69.041 95.922 69.615 97.428 Z" fill="rgb(140, 140, 140)"/><path d="M 14.231 93.104 C 14.693 93.606 15.366 93.062 15.884 93.495 C 15.884 94.611 15.884 95.768 15.884 96.926 C 15.884 97.247 15.688 97.791 16.22 97.777 C 16.78 97.777 16.5 97.205 16.514 96.912 C 16.542 95.74 16.514 94.555 16.514 93.439 C 17.117 93.146 17.719 93.537 18.293 93.02 C 17.201 92.672 14.777 92.728 14.217 93.104 Z" fill="rgb(140, 140, 140)"/><path d="M 81.227 95.754 C 81.227 94.89 81.227 94.025 81.227 93.146 C 81.227 92.923 81.115 92.811 80.919 92.797 C 80.695 92.783 80.596 92.909 80.596 93.118 C 80.596 94.652 80.596 96.201 80.596 97.819 C 81.479 97.819 82.235 97.819 82.992 97.819 C 83.216 97.819 83.468 97.833 83.482 97.54 C 83.496 97.233 83.244 97.247 83.02 97.247 C 82.473 97.247 81.927 97.247 81.325 97.247 C 81.143 96.675 81.227 96.215 81.227 95.74 Z" fill="rgb(140, 140, 140)"/><path d="M 92.11 95.294 C 92.11 95.978 92.11 96.661 92.11 97.358 C 92.11 97.582 92.11 97.819 92.418 97.819 C 92.727 97.819 92.727 97.582 92.727 97.358 C 92.727 95.991 92.727 94.611 92.727 93.244 C 92.727 93.034 92.755 92.783 92.418 92.783 C 92.11 92.783 92.096 93.007 92.096 93.244 C 92.096 93.927 92.096 94.611 92.096 95.308 L 92.096 95.308 Z" fill="rgb(140, 140, 140)"/><path d="M 5.967 95.196 C 5.967 95.922 5.967 96.647 5.967 97.358 C 5.967 97.596 6.009 97.805 6.303 97.805 C 6.527 97.805 6.611 97.651 6.611 97.456 C 6.611 96.005 6.611 94.569 6.611 93.118 C 6.611 92.909 6.499 92.783 6.275 92.783 C 6.051 92.783 5.967 92.923 5.967 93.132 C 5.967 93.816 5.967 94.513 5.967 95.196 Z" fill="rgb(140, 140, 140)"/><path d="M 162.159 95.28 C 162.159 94.625 162.159 93.969 162.159 93.327 C 162.159 93.076 162.201 92.783 161.809 92.811 C 161.515 92.839 161.515 93.076 161.515 93.299 C 161.515 94.638 161.515 95.978 161.515 97.33 C 161.515 97.554 161.543 97.805 161.823 97.819 C 162.103 97.819 162.159 97.596 162.159 97.358 C 162.159 96.675 162.159 95.978 162.159 95.294 L 162.159 95.294 Z" fill="rgb(140, 140, 140)"/><path d="M 56.602 93.244 C 56.602 93.021 56.574 92.797 56.266 92.825 C 56.028 92.853 56 93.034 56 93.216 C 56 94.652 56 96.103 56.014 97.54 C 56.014 97.735 56.182 97.847 56.602 97.763 C 56.602 96.256 56.602 94.75 56.602 93.244 Z" fill="rgb(140, 140, 140)"/><path d="M 113.415 27.59 C 113.233 27.478 112.911 27.617 112.687 27.548 C 112.238 27.408 111.692 27.325 111.412 27.018 C 110.754 26.278 109.997 26.306 109.199 26.543 C 108.765 26.655 108.372 26.948 107.938 27.073 C 107.63 27.143 107.196 27.171 106.986 27.018 C 106.299 26.502 105.683 25.888 104.941 25.218 C 106.832 24.884 108.456 24.646 110.067 24.312 C 110.642 24.186 111.244 23.963 111.72 23.628 C 112.364 23.196 112.252 22.777 111.538 22.498 C 111.3 22.401 111.02 22.345 110.754 22.359 C 109.899 22.387 109.073 22.471 108.232 22.512 C 106.467 22.596 104.689 22.652 102.91 22.722 C 103.596 21.173 103.526 21.034 105.095 21.285 C 106.355 21.494 107.126 20.894 107.588 19.737 C 107.742 19.36 108.092 19.025 108.428 18.802 C 108.737 18.635 109.157 18.635 109.507 18.551 C 110.712 18.258 111.132 17.198 111.706 16.319 C 111.874 16.068 112 15.594 111.874 15.385 C 111.734 15.162 111.272 14.994 110.964 15.036 C 110.305 15.12 109.675 15.357 109.017 15.51 C 108.779 15.566 108.484 15.622 108.26 15.552 C 107.42 15.231 106.874 15.371 106.439 16.138 C 106.229 16.473 106.131 16.891 105.879 17.198 C 105.655 17.449 105.249 17.784 104.997 17.742 C 104.114 17.575 103.246 17.254 102.335 16.989 C 103.218 16.222 104.086 15.566 104.857 14.827 C 105.669 14.032 106.439 13.181 107.182 12.316 C 107.35 12.135 107.406 11.744 107.322 11.507 C 107.266 11.326 106.902 11.117 106.692 11.131 C 106.327 11.159 105.935 11.284 105.641 11.493 C 104.801 12.065 103.988 12.693 103.162 13.279 C 101.733 14.311 100.29 15.329 98.792 16.389 C 98.666 14.673 98.764 14.408 100.206 13.767 C 101.257 13.279 101.621 12.442 101.663 11.396 C 101.691 11.047 101.593 10.656 101.691 10.336 C 101.831 9.861 102.041 9.373 102.307 8.927 C 102.587 8.439 103.036 8.062 103.246 7.56 C 103.47 7.058 103.54 6.472 103.596 5.928 C 103.624 5.621 103.596 5.105 103.456 5.049 C 103.162 4.924 102.714 4.952 102.419 5.091 C 102.069 5.258 101.789 5.579 101.537 5.886 C 100.991 6.597 100.514 7.281 99.478 7.406 C 99.184 7.448 98.862 8.062 98.736 8.467 C 98.609 8.871 98.75 9.345 98.708 9.778 C 98.694 10.001 98.638 10.336 98.483 10.405 C 97.405 10.949 96.312 11.438 94.996 12.037 C 95.29 11.354 95.5 10.921 95.668 10.475 C 96.312 8.606 96.985 6.751 97.587 4.882 C 97.769 4.324 97.573 3.682 96.985 3.571 C 96.705 3.515 96.172 3.975 95.948 4.338 C 95.486 5.091 95.15 5.9 94.786 6.709 C 93.931 8.606 93.063 10.503 92.194 12.414 C 90.836 11.326 90.738 10.824 91.536 9.457 C 91.662 9.248 91.788 9.052 91.9 8.829 C 92.39 7.978 92.166 7.239 91.592 6.528 C 91.438 6.332 91.256 6.165 91.088 5.984 C 90.766 5.635 90.611 5.3 90.892 4.77 C 91.256 4.045 91.592 3.264 91.144 2.399 C 90.92 1.953 90.766 1.479 90.527 1.032 C 90.345 0.67 90.093 0.349 89.869 0 L 89.547 0 C 88.735 0.391 88.44 1.032 88.566 1.883 C 88.665 2.636 88.44 3.236 87.852 3.766 C 87.194 4.366 87.166 5.231 87.656 6.012 C 87.824 6.291 88.076 6.556 88.118 6.849 C 88.188 7.211 88.188 7.685 88.006 7.964 C 87.474 8.773 86.83 9.527 86.213 10.308 C 86.031 9.443 85.835 8.494 85.611 7.546 C 85.303 6.221 85.009 4.896 84.602 3.599 C 84.42 3.041 84.196 2.162 83.37 2.343 C 82.641 2.497 82.824 3.292 82.838 3.85 C 82.936 6.207 83.048 8.55 83.16 10.921 C 83.174 11.368 83.16 11.828 83.16 12.33 C 82.305 11.912 82.067 11.312 82.165 10.461 C 82.389 8.62 81.983 7.992 80.246 7.462 C 79.672 7.281 79.406 7.03 79.364 6.402 C 79.308 5.733 79.182 5.077 78.453 4.631 C 77.963 4.352 77.725 3.71 77.319 3.278 C 76.955 2.859 76.548 2.343 75.904 2.776 C 75.302 3.166 75.274 3.71 75.582 4.324 C 75.736 4.589 75.848 4.854 76.016 5.091 C 76.31 5.523 76.31 5.9 76.058 6.36 C 75.54 7.337 75.652 7.797 76.534 8.494 C 76.969 8.857 77.473 9.136 77.865 9.555 C 78.075 9.778 78.229 10.21 78.173 10.503 C 78.047 11.173 77.753 11.814 77.501 12.553 C 77.095 12.065 76.717 11.605 76.31 11.145 C 75.288 10.001 74.265 8.843 73.215 7.713 C 72.865 7.323 72.374 6.918 71.898 7.281 C 71.408 7.658 71.562 8.271 71.856 8.746 C 72.767 10.224 73.719 11.689 74.671 13.153 C 75.26 14.074 75.862 14.994 76.464 15.929 C 75.582 16.347 75.148 16.152 74.798 15.287 C 74.433 14.353 74.055 13.404 72.921 13.181 C 72.444 13.083 71.912 13.195 71.422 13.223 C 70.82 13.251 70.329 13.125 69.979 12.567 C 69.433 11.661 67.01 11.2 66.001 11.591 C 65.483 11.8 65.273 12.288 65.595 12.749 C 65.959 13.251 66.351 13.655 67.08 13.753 C 67.444 13.809 67.934 14.325 68.06 14.715 C 68.41 15.831 68.915 16.64 70.371 16.459 C 71.31 16.347 71.702 16.752 71.842 17.603 C 71.94 18.119 72.052 18.635 72.15 19.179 C 70.147 18.537 68.158 17.923 66.183 17.268 C 65.553 17.059 64.937 17.142 64.712 17.7 C 64.474 18.314 65.077 18.663 65.567 18.9 C 67.878 20.085 70.189 21.257 72.514 22.443 C 71.912 23.349 71.856 23.321 71.03 22.777 C 70.497 22.415 69.909 22.136 69.321 21.871 C 68.508 21.508 67.836 21.689 67.192 22.331 C 66.281 23.224 65.245 23.572 63.9 23.252 C 62.962 23.028 61.911 22.903 61.043 23.656 L 61.043 24.633 C 61.547 25.135 62.107 25.358 62.85 25.302 C 63.214 25.274 63.662 25.469 63.97 25.693 C 65.245 26.571 66.547 26.683 67.934 26.013 C 68.144 25.916 68.536 25.846 68.634 25.958 C 69.181 26.488 69.657 27.101 70.245 27.785 C 68.817 28.05 67.542 28.287 66.267 28.538 C 65.343 28.719 64.404 28.873 63.522 29.138 C 63.242 29.221 62.906 29.668 62.906 29.947 C 62.906 30.226 63.312 30.491 63.564 30.714 C 63.704 30.812 63.928 30.826 64.11 30.812 C 66.113 30.714 68.116 30.616 70.119 30.491 C 71.002 30.449 71.884 30.365 72.795 30.295 C 72.318 31.551 72.29 31.565 71.072 31.369 C 70.918 31.342 70.75 31.369 70.595 31.397 C 69.335 31.551 68.55 32.43 68.214 33.462 C 67.78 34.745 66.828 35.066 65.791 35.191 C 64.895 35.289 64.292 35.624 63.788 36.307 C 63.2 37.13 63.186 37.772 63.76 38.33 C 64.446 38.999 65.049 38.539 65.553 38.12 C 66.211 37.549 66.856 37.395 67.71 37.66 C 68.929 38.037 69.083 37.925 69.671 36.823 C 69.951 36.265 70.245 35.721 70.511 35.205 C 71.576 35.554 72.458 35.847 73.551 36.21 C 71.87 37.618 70.343 38.915 68.789 40.185 C 68.186 40.673 67.766 41.538 68.172 41.789 C 68.564 42.04 69.265 42.054 69.727 41.872 C 70.525 41.538 71.254 40.994 72.024 40.52 C 73.691 39.487 75.358 38.427 77.067 37.367 C 77.123 38.79 76.899 39.083 75.596 39.487 C 74.84 39.738 74.223 40.213 74.069 40.994 C 73.943 41.607 74.041 42.249 74.097 42.877 C 74.153 43.365 74.265 43.728 73.593 43.937 C 73.145 44.076 72.64 44.481 72.43 44.885 C 72.052 45.666 71.786 46.531 71.604 47.368 C 71.548 47.675 71.814 48.149 72.08 48.386 C 72.276 48.554 72.781 48.554 73.005 48.386 C 73.537 48.038 73.985 47.549 74.475 47.117 C 75.022 46.615 75.512 45.973 76.17 45.611 C 76.941 45.164 77.165 44.676 76.969 43.839 C 76.773 42.96 77.081 42.082 78.355 42.207 C 78.818 42.263 79.308 42.221 79.84 42.221 C 79.21 44.23 78.551 46.141 78.019 48.079 C 77.907 48.484 78.257 48.986 78.397 49.446 C 78.804 49.335 79.224 49.251 79.588 49.07 C 79.798 48.986 79.938 48.735 80.036 48.512 C 80.442 47.675 80.793 46.796 81.213 45.973 C 81.843 44.746 82.487 43.504 83.202 42.305 C 83.636 41.566 84.35 41.621 84.785 42.333 C 85.149 42.919 84.995 43.49 84.252 43.965 C 83.58 44.397 83.244 45.081 83.678 45.987 C 83.888 46.434 84.196 46.852 84.532 47.229 C 84.981 47.759 85.219 48.191 84.785 48.916 C 84.126 50.032 84.042 51.274 84.658 52.459 C 84.813 52.738 85.303 52.933 85.625 52.947 C 85.877 52.947 86.199 52.627 86.395 52.375 C 86.535 52.18 86.507 51.859 86.605 51.622 C 86.928 50.841 87.11 49.921 87.656 49.349 C 88.146 48.819 88.342 48.358 88.202 47.787 C 88.076 47.201 87.698 46.685 87.502 46.127 C 87.418 45.876 87.39 45.457 87.53 45.332 C 88.272 44.634 89.071 44.02 89.743 43.449 C 89.855 43.993 90.009 44.871 90.205 45.736 C 90.583 47.368 90.92 49.014 91.382 50.632 C 91.452 50.939 91.956 51.106 92.264 51.343 C 92.446 51.05 92.797 50.785 92.797 50.492 C 92.797 47.94 92.727 45.387 92.671 42.835 L 92.671 41.245 C 93.959 41.594 94.351 42.444 94.029 43.56 C 93.917 43.895 94.015 44.383 94.183 44.718 C 94.632 45.611 95.388 46.182 96.368 46.489 C 96.649 46.559 97.069 46.95 97.055 47.173 C 96.971 48.582 97.769 49.474 98.736 50.311 C 99.184 50.674 99.702 50.897 100.206 50.52 C 100.753 50.116 100.865 49.544 100.528 48.93 C 100.318 48.568 100.01 48.233 99.856 47.856 C 99.702 47.494 99.548 47.033 99.646 46.671 C 100.01 45.192 99.912 44.969 98.525 44.341 C 98.231 44.202 97.797 43.881 97.811 43.672 C 97.881 42.723 98.091 41.775 98.273 40.757 C 99.24 41.886 100.108 42.919 101.019 43.923 C 101.565 44.509 102.111 45.122 102.756 45.597 C 103.274 45.987 103.834 45.611 103.778 44.941 C 103.764 44.662 103.652 44.383 103.498 44.146 C 102.531 42.5 101.551 40.868 100.542 39.25 C 100.136 38.567 99.674 37.911 99.24 37.242 C 100.627 37.13 101.649 37.562 102.139 38.874 C 102.209 39.055 102.307 39.222 102.405 39.376 C 102.868 40.045 103.806 40.422 104.605 40.143 C 105.277 39.892 105.767 40.017 106.187 40.575 C 106.369 40.826 106.594 41.036 106.804 41.245 C 107.448 41.886 108.667 42.11 109.507 41.747 C 110.291 41.398 110.473 40.701 109.899 40.073 C 109.647 39.808 109.311 39.627 108.989 39.445 C 108.498 39.167 108.05 38.902 108.05 38.232 C 108.05 38.051 107.91 37.841 107.812 37.66 C 107.238 36.767 106.383 36.991 105.543 37.074 C 105.305 37.088 104.885 36.921 104.829 36.74 C 104.562 35.931 104.394 35.108 104.198 34.257 C 106.131 34.898 107.994 35.554 109.885 36.098 C 110.249 36.196 110.726 35.889 111.146 35.777 C 111.006 35.414 110.964 34.884 110.698 34.703 C 109.521 33.936 108.302 33.266 107.084 32.611 C 105.725 31.886 104.338 31.23 102.924 30.519 C 103.414 29.863 103.904 29.584 104.605 29.989 C 104.857 30.142 105.137 30.24 105.403 30.379 C 106.411 30.909 107.378 30.853 108.386 30.268 C 109.143 29.821 110.011 29.375 110.894 29.821 C 112 30.407 112.939 30.044 113.807 29.431 C 114.115 29.194 114.465 28.664 114.381 28.399 C 114.269 28.05 113.779 27.785 113.415 27.576 Z M 111.398 29.305 C 110.389 28.998 109.339 28.887 108.4 29.486 C 107.28 30.212 106.215 30.184 105.137 29.5 C 104.212 28.915 103.4 29.096 102.602 29.71 C 101.859 30.295 101.887 30.826 102.728 31.244 C 105.011 32.388 107.28 33.531 109.549 34.689 C 109.857 34.843 110.109 35.08 110.375 35.275 C 110.347 35.331 110.319 35.414 110.291 35.484 C 109.997 35.428 109.703 35.401 109.423 35.303 C 107.77 34.745 106.131 34.159 104.478 33.629 C 104.212 33.545 103.708 33.545 103.596 33.699 C 103.428 33.922 103.47 34.34 103.54 34.661 C 103.722 35.456 103.974 36.21 104.198 37.005 C 104.394 37.716 104.843 37.981 105.571 37.855 C 105.865 37.8 106.159 37.758 106.467 37.744 C 106.986 37.716 107.266 37.925 107.336 38.469 C 107.448 39.236 107.812 39.836 108.653 40.059 C 108.877 40.115 109.115 40.241 109.269 40.422 C 109.577 40.771 109.507 41.105 109.003 41.175 C 108.204 41.259 107.504 41.091 106.986 40.38 C 106.229 39.348 105.739 39.18 104.52 39.501 C 103.624 39.738 103.008 39.25 102.756 38.553 C 102.223 37.102 101.257 36.461 99.744 36.586 C 99.562 36.6 99.366 36.447 99.184 36.475 C 98.904 36.53 98.525 36.6 98.399 36.781 C 98.301 36.949 98.441 37.353 98.581 37.576 C 100.08 39.962 101.579 42.333 103.092 44.704 C 103.008 44.774 102.938 44.829 102.854 44.913 C 102.377 44.383 101.887 43.867 101.425 43.337 C 100.514 42.305 99.618 41.245 98.694 40.227 C 98.525 40.059 98.133 39.892 97.937 39.962 C 97.727 40.045 97.559 40.394 97.517 40.659 C 97.377 41.607 97.293 42.584 97.167 43.546 C 97.083 44.286 97.405 44.69 98.091 44.955 C 99.254 45.415 99.282 45.471 98.904 46.629 C 98.638 47.424 99.044 47.968 99.436 48.554 C 99.688 48.944 100.318 49.363 99.744 49.851 C 99.632 49.948 98.904 49.474 98.567 49.153 C 98.021 48.651 97.727 48.01 97.797 47.201 C 97.853 46.447 97.419 45.945 96.635 45.75 C 95.178 45.401 94.603 44.523 94.786 43.044 C 94.926 41.845 94.057 40.729 92.853 40.547 C 92.25 40.45 92.04 40.785 92.054 41.301 C 92.11 44.23 92.18 47.145 92.25 50.074 C 92.25 50.2 92.194 50.339 91.97 50.479 C 91.732 49.432 91.494 48.386 91.27 47.34 C 90.934 45.75 90.611 44.174 90.261 42.598 C 90.219 42.389 90.023 42.124 89.869 42.082 C 89.687 42.054 89.407 42.207 89.253 42.361 C 88.44 43.239 87.684 44.146 86.872 45.025 C 86.465 45.471 86.381 45.904 86.774 46.392 C 86.956 46.601 87.054 46.866 87.208 47.075 C 87.726 47.814 87.656 48.372 86.984 49.056 C 86.493 49.558 86.311 50.367 86.045 51.05 C 85.877 51.441 85.793 51.859 85.639 52.362 C 84.799 51.678 84.827 50.785 85.121 50.213 C 85.975 48.554 85.667 47.201 84.448 45.904 C 83.958 45.373 84.196 44.857 84.799 44.495 C 85.443 44.104 85.667 43.477 85.597 42.751 C 85.513 41.956 85.051 41.426 84.294 41.133 C 83.776 40.924 83.314 40.966 83.034 41.482 C 82.053 43.184 81.087 44.913 80.148 46.629 C 79.742 47.368 79.364 48.121 78.818 48.805 C 79.126 46.308 80.162 44.02 80.779 41.44 C 79.49 41.538 78.299 41.58 77.123 41.733 C 76.52 41.831 76.016 42.863 76.254 43.728 C 76.464 44.537 76.1 44.802 75.484 45.164 C 74.924 45.485 74.503 46.057 74.041 46.531 C 73.649 46.894 73.313 47.326 72.907 47.689 C 72.809 47.773 72.584 47.731 72.402 47.745 C 72.402 47.563 72.332 47.34 72.388 47.173 C 72.542 46.657 72.668 46.085 72.949 45.638 C 73.215 45.206 73.593 44.746 74.041 44.551 C 74.868 44.174 75.008 43.616 74.798 42.835 C 74.363 41.147 74.728 40.533 76.45 40.017 C 77.403 39.738 78.271 37.576 77.739 36.781 C 77.459 36.363 77.095 36.461 76.745 36.684 C 74.924 37.827 73.117 38.985 71.296 40.115 C 70.497 40.617 69.699 41.077 68.887 41.566 C 68.817 41.482 68.761 41.412 68.704 41.328 C 70.721 39.557 72.725 37.8 74.938 35.875 C 73.397 35.428 72.066 35.024 70.736 34.661 C 70.189 34.522 69.797 34.843 69.573 35.331 C 69.517 35.456 69.447 35.582 69.391 35.693 C 68.69 37.032 68.69 36.977 67.136 36.837 C 66.589 36.781 66.001 37.158 65.427 37.339 C 65.007 37.465 64.32 37.841 64.222 37.702 C 63.816 37.256 64.166 36.753 64.6 36.488 C 65.105 36.182 65.693 35.931 66.267 35.819 C 67.36 35.596 68.256 35.233 68.718 34.075 C 68.957 33.462 69.461 32.89 69.993 32.457 C 70.329 32.192 70.96 32.067 71.38 32.165 C 72.584 32.499 73.705 30.895 73.537 30.003 C 73.495 29.835 73.159 29.612 72.963 29.626 C 71.912 29.668 70.862 29.793 69.797 29.849 C 67.906 29.947 66.029 30.017 64.11 30.1 C 63.984 30.1 63.844 30.003 63.69 29.779 C 64.811 29.556 65.917 29.333 67.052 29.11 C 68.144 28.887 69.223 28.691 70.315 28.468 C 71.016 28.301 71.198 27.771 70.736 27.241 C 70.287 26.697 69.797 26.195 69.335 25.665 C 68.901 25.149 68.368 25.065 67.808 25.33 C 66.491 25.916 65.315 25.79 64.11 24.967 C 63.676 24.646 62.976 24.702 62.401 24.549 C 62.191 24.493 62.009 24.34 61.813 24.228 C 62.009 24.116 62.191 23.907 62.387 23.907 C 62.976 23.907 63.564 23.935 64.166 24.019 C 65.385 24.158 66.505 24.005 67.402 23.07 C 68.144 22.289 68.564 22.219 69.797 22.819 C 70.133 23.001 70.427 23.238 70.736 23.461 C 71.674 24.102 72.696 23.879 73.257 22.889 C 73.593 22.317 73.299 21.996 72.795 21.745 C 70.609 20.657 68.41 19.555 66.239 18.453 C 65.987 18.328 65.763 18.161 65.511 18.021 C 65.539 17.937 65.567 17.882 65.595 17.812 C 66.603 18.133 67.626 18.453 68.634 18.774 C 69.727 19.123 70.792 19.486 71.884 19.834 C 72.612 20.071 73.005 19.737 72.851 18.997 C 72.71 18.342 72.57 17.686 72.402 17.031 C 72.15 16.068 71.786 15.789 70.736 15.748 C 69.237 15.706 69.223 15.706 68.718 14.311 C 68.452 13.544 67.934 13.125 67.136 12.972 C 66.828 12.902 66.547 12.707 66.183 12.539 C 66.954 11.94 68.817 12.177 69.377 12.958 C 70.035 13.92 70.932 13.976 71.898 13.92 C 73.089 13.851 73.635 14.171 74.069 15.315 C 74.167 15.58 74.251 15.873 74.419 16.11 C 74.966 16.863 76.002 17.059 76.843 16.626 C 77.417 16.347 77.319 15.887 77.039 15.469 C 75.89 13.683 74.699 11.898 73.523 10.098 C 73.089 9.443 72.696 8.759 72.276 8.09 C 72.36 8.034 72.444 7.964 72.528 7.923 C 73.747 9.317 74.98 10.712 76.212 12.121 C 76.52 12.456 76.759 12.86 77.067 13.209 C 77.487 13.655 77.963 13.544 78.159 12.944 C 78.439 12.093 78.72 11.242 78.958 10.377 C 79.098 9.889 79.07 9.471 78.509 9.136 C 77.949 8.815 77.473 8.355 76.941 7.964 C 76.408 7.56 76.338 7.044 76.717 6.542 C 77.165 5.956 77.053 5.482 76.717 4.91 C 76.464 4.477 76.31 3.989 76.268 3.445 C 77.151 4.603 78.706 5.272 78.804 6.946 C 78.846 7.658 79.224 7.923 79.84 8.076 C 81.395 8.481 81.661 8.913 81.451 10.573 C 81.325 11.633 82.137 13.014 83.132 13.307 C 83.286 13.348 83.706 13.069 83.72 12.902 C 83.776 12.316 83.748 11.716 83.72 11.117 C 83.622 8.55 83.51 5.97 83.412 3.417 C 83.398 3.348 83.468 3.264 83.58 3.013 C 83.776 3.501 83.972 3.822 84.056 4.184 C 84.63 6.653 85.163 9.136 85.695 11.605 C 85.751 11.786 85.751 11.995 85.835 12.149 C 85.947 12.33 86.129 12.456 86.283 12.623 C 86.451 12.442 86.718 12.302 86.788 12.093 C 86.9 11.786 86.802 11.368 86.956 11.075 C 87.39 10.21 87.838 9.359 88.412 8.578 C 89.057 7.727 89.169 7.183 88.636 6.235 C 88.496 5.97 88.258 5.719 88.23 5.454 C 88.202 5.035 88.188 4.408 88.426 4.212 C 89.225 3.571 89.337 2.776 89.295 1.883 C 89.295 1.702 89.253 1.492 89.323 1.325 C 89.379 1.186 89.533 1.074 89.659 0.948 C 89.757 1.06 89.883 1.158 89.939 1.297 C 90.135 1.757 90.373 2.218 90.429 2.706 C 90.499 3.222 90.499 3.794 90.289 4.24 C 89.827 5.231 89.939 5.942 90.766 6.681 C 91.606 7.42 91.606 7.923 91.046 8.913 C 91.032 8.941 91.018 8.955 91.004 8.983 C 89.911 10.921 89.995 11.396 91.676 12.944 C 92.236 13.46 92.502 13.446 92.825 12.735 C 93.721 10.852 94.561 8.941 95.416 7.044 C 95.836 6.123 96.256 5.231 96.677 4.324 C 96.761 4.338 96.845 4.352 96.929 4.352 C 96.929 4.631 96.971 4.924 96.887 5.175 C 96.102 7.211 95.29 9.248 94.519 11.298 C 94.351 11.73 94.337 12.233 94.253 12.693 C 94.73 12.623 95.234 12.637 95.682 12.47 C 96.494 12.191 97.265 11.758 98.077 11.451 C 99.058 11.075 99.59 10.433 99.45 9.345 C 99.338 8.508 99.52 7.964 100.514 7.825 C 100.921 7.769 101.257 7.239 101.607 6.904 C 101.999 6.514 102.363 6.081 102.826 5.565 C 102.686 6.346 102.602 6.96 102.447 7.56 C 102.391 7.783 102.209 8.006 102.027 8.132 C 101.215 8.676 100.977 9.471 100.977 10.377 C 100.963 10.782 100.963 11.2 100.935 11.605 C 100.879 12.26 100.627 12.902 99.954 13.069 C 98.357 13.474 97.965 14.548 98.147 16.026 C 98.189 16.319 98.147 16.598 98.147 16.905 C 99.128 17.31 99.702 16.598 100.304 16.194 C 102.055 14.98 103.764 13.683 105.501 12.428 C 105.781 12.219 106.117 12.051 106.439 11.87 C 106.481 11.926 106.537 11.981 106.579 12.037 C 105.473 13.097 104.394 14.185 103.274 15.231 C 102.84 15.65 102.307 16.013 101.831 16.417 C 101.257 16.933 101.327 17.352 102.041 17.603 C 102.91 17.923 103.792 18.216 104.675 18.467 C 105.473 18.691 106.033 18.398 106.425 17.644 C 106.594 17.338 106.734 17.017 106.888 16.696 C 107.14 16.194 107.434 15.985 108.05 16.236 C 108.414 16.389 108.905 16.278 109.297 16.194 C 109.885 16.054 110.445 15.831 111.062 15.748 C 110.543 16.863 109.997 17.84 108.639 18.007 C 107.728 18.119 107.14 18.635 106.86 19.555 C 106.608 20.406 106.159 20.588 104.969 20.532 C 103.246 20.448 102.756 20.797 102.209 22.484 C 101.957 23.266 102.265 23.572 103.078 23.517 C 105.683 23.335 108.288 23.21 110.894 23.07 C 110.964 23.07 111.034 23.126 111.132 23.335 C 110.305 23.531 109.493 23.74 108.667 23.879 C 107.518 24.089 106.355 24.214 105.221 24.423 C 104.871 24.479 104.562 24.73 104.24 24.884 C 104.408 25.204 104.534 25.553 104.773 25.804 C 105.263 26.348 105.809 26.85 106.327 27.366 C 106.916 27.98 107.546 28.134 108.302 27.687 C 108.526 27.548 108.779 27.422 109.031 27.311 C 109.703 27.018 110.277 26.976 110.936 27.534 C 111.426 27.952 112.196 28.05 112.841 28.259 C 113.093 28.343 113.345 28.357 113.639 28.412 C 113.107 29.291 112.238 29.542 111.384 29.305 Z" fill="rgb(140, 140, 140)"/><path d="M 70.245 19.597 C 70.203 19.695 70.175 19.792 70.133 19.89 C 70.175 19.792 70.217 19.695 70.259 19.597 Z M 68.859 28.984 C 68.761 28.998 68.676 29.012 68.578 29.04 C 68.662 29.012 68.747 29.012 68.845 28.998 C 69.545 28.901 70.259 28.831 70.96 28.761 C 70.259 28.817 69.559 28.901 68.859 28.984 Z M 70.665 15.385 C 70.511 15.385 70.371 15.371 70.189 15.371 C 70.525 15.385 70.82 15.399 71.114 15.413 C 70.96 15.413 70.82 15.399 70.665 15.385 Z M 76.002 43.714 C 76.002 43.714 75.96 43.825 75.932 43.867 C 75.974 43.825 76.002 43.769 76.016 43.714 C 76.03 43.658 76.044 43.602 76.044 43.546 C 76.03 43.602 76.016 43.658 76.002 43.714 Z M 77.837 40.561 C 77.837 40.561 77.753 40.561 77.711 40.575 L 77.837 40.575 C 77.921 40.575 78.005 40.575 78.075 40.561 C 78.005 40.561 77.921 40.575 77.837 40.561 Z M 77.459 40.589 C 77.459 40.589 77.389 40.603 77.347 40.617 C 77.473 40.589 77.585 40.575 77.711 40.575 C 77.683 40.561 77.641 40.575 77.613 40.575 C 77.557 40.575 77.515 40.589 77.459 40.589 Z M 98.203 17.882 L 98.189 17.882 C 98.189 17.882 98.259 17.965 98.301 18.007 C 98.273 17.965 98.231 17.923 98.203 17.882 Z M 99.884 34.536 L 99.87 34.536 C 99.968 34.55 100.038 34.592 100.108 34.605 C 100.038 34.592 99.968 34.55 99.884 34.522 Z M 97.559 36.781 C 98.778 38.623 99.982 40.478 101.187 42.319 L 101.201 42.319 C 99.982 40.478 98.778 38.623 97.559 36.781 Z M 101.103 16.584 C 101.019 16.654 100.949 16.71 100.865 16.78 C 101.019 16.654 101.187 16.529 101.355 16.403 C 101.271 16.473 101.187 16.529 101.103 16.584 Z M 101.257 28.203 L 101.257 28.203 C 101.257 28.203 101.369 28.147 101.411 28.12 C 101.369 28.147 101.313 28.175 101.257 28.203 Z M 102.013 31.439 C 102.195 31.509 102.391 31.607 102.601 31.746 C 102.391 31.593 102.195 31.495 102.013 31.439 Z M 102.63 18.997 L 102.644 18.997 C 102.644 18.997 102.672 18.942 102.7 18.914 C 102.672 18.942 102.644 18.97 102.63 18.997 Z M 102.447 27.185 C 102.447 27.185 102.349 27.185 102.307 27.213 C 102.363 27.199 102.405 27.199 102.447 27.199 C 102.714 27.185 102.952 27.171 103.19 27.185 C 102.938 27.171 102.7 27.171 102.447 27.185 Z M 104.282 38.776 C 103.876 37.939 103.484 37.102 103.078 36.251 C 103.47 37.102 103.876 37.939 104.268 38.776 C 104.254 38.79 104.24 38.818 104.212 38.846 C 104.24 38.818 104.254 38.804 104.282 38.776 Z M 104.198 28.175 C 104.198 28.175 104.1 28.092 104.044 28.078 C 104.1 28.12 104.156 28.147 104.198 28.189 C 104.296 28.259 104.38 28.329 104.464 28.412 C 104.38 28.329 104.296 28.245 104.198 28.175 Z M 104.226 19.374 C 104.114 19.332 103.988 19.304 103.862 19.262 C 103.736 19.235 103.61 19.207 103.47 19.179 C 103.736 19.235 103.988 19.304 104.226 19.388 C 104.324 19.416 104.422 19.444 104.52 19.472 C 104.422 19.444 104.324 19.416 104.226 19.374 Z M 102.111 24.102 C 102.111 24.102 102.139 24.116 102.153 24.116 C 103.036 23.977 103.946 23.851 104.843 23.726 C 103.932 23.851 103.022 23.977 102.111 24.102 Z M 106.804 23.74 C 106.958 23.712 107.112 23.67 107.266 23.642 L 107.266 23.642 C 107.112 23.656 106.958 23.698 106.804 23.74 Z M 110.053 28.12 L 110.039 28.12 C 110.039 28.12 110.067 28.147 110.081 28.161 C 110.081 28.147 110.067 28.134 110.053 28.12 Z" fill="rgb(140, 140, 140)"/><path d="M 87.74 14.032 C 80.596 14.032 75.148 19.695 75.064 26.404 C 74.98 33.378 80.709 39.153 87.614 39.041 C 94.603 39.194 100.08 33.49 100.276 26.962 C 100.5 19.82 94.688 14.046 87.74 14.032 Z M 87.67 38.581 C 81.143 38.65 75.512 33.294 75.568 26.502 C 75.61 19.806 80.877 14.492 87.698 14.478 C 94.421 14.464 99.898 19.89 99.786 26.85 C 99.674 33.28 94.239 38.678 87.67 38.581 Z" fill="rgb(140, 140, 140)"/><path d="M 74.503 27.757 C 73.747 27.38 72.963 27.073 72.262 26.613 C 71.576 26.153 70.946 25.581 70.329 25.009 C 69.461 24.214 68.578 24.047 67.626 24.577 C 67.5 24.633 67.374 24.716 67.248 24.8 C 67.08 24.925 66.842 24.925 66.575 24.87 C 66.477 24.87 66.379 24.828 66.281 24.786 C 67.486 24.521 68.116 22.694 69.713 23.67 C 69.335 23.698 68.957 23.726 68.578 23.754 C 69.069 23.81 69.489 23.963 69.867 24.186 C 69.951 24.228 70.021 24.27 70.091 24.326 C 70.315 24.465 70.539 24.633 70.736 24.814 C 70.946 24.981 71.156 25.163 71.366 25.344 C 71.422 25.386 71.478 25.442 71.548 25.469 C 71.632 25.553 71.73 25.609 71.828 25.665 C 72.052 25.804 72.276 25.916 72.514 26.013 C 72.809 26.125 73.103 26.223 73.397 26.32 C 73.439 26.334 73.495 26.348 73.537 26.376 C 73.635 26.404 73.719 26.446 73.789 26.502 C 73.845 26.543 73.901 26.585 73.957 26.627 C 74.013 26.669 74.055 26.711 74.097 26.767 C 74.181 26.864 74.251 26.962 74.293 27.073 C 74.321 27.129 74.349 27.185 74.363 27.241 C 74.391 27.297 74.405 27.352 74.419 27.408 C 74.461 27.52 74.475 27.645 74.503 27.757 Z" fill="rgb(140, 140, 140)"/><path d="M 75.414 18.3 C 75.092 18.412 74.84 18.453 74.615 18.426 C 74.559 18.426 74.517 18.412 74.475 18.384 C 74.335 18.342 74.195 18.258 74.055 18.119 C 74.013 18.077 73.957 18.021 73.915 17.965 C 73.831 17.854 73.733 17.728 73.635 17.589 C 73.439 17.268 73.299 16.905 73.103 16.584 C 72.823 16.124 72.458 15.789 72.01 15.594 C 71.926 15.566 71.842 15.524 71.758 15.51 C 71.66 15.469 71.548 15.455 71.436 15.441 C 71.324 15.427 71.226 15.413 71.114 15.413 C 70.82 15.399 70.525 15.385 70.189 15.371 C 70.245 15.245 70.301 15.134 70.371 15.05 C 70.399 15.008 70.427 14.98 70.469 14.939 C 70.736 14.687 71.058 14.701 71.366 14.757 C 71.478 14.785 71.576 14.813 71.674 14.827 C 71.856 14.869 72.038 14.939 72.206 15.008 C 72.388 15.078 72.542 15.148 72.71 15.245 C 72.865 15.343 73.005 15.441 73.145 15.566 C 73.285 15.678 73.425 15.817 73.537 15.957 C 73.691 16.152 73.831 16.375 73.943 16.612 C 73.985 16.682 74.027 16.752 74.083 16.822 C 74.125 16.891 74.167 16.947 74.237 17.017 C 74.335 17.142 74.461 17.268 74.587 17.393 C 74.671 17.477 74.756 17.561 74.826 17.644 C 75.022 17.854 75.204 18.063 75.414 18.3 Z" fill="rgb(140, 140, 140)"/><path d="M 110.263 28.385 C 109.017 28.245 107.98 28.524 106.958 29.054 C 106.832 29.11 106.72 29.18 106.594 29.249 C 106.551 29.277 106.509 29.291 106.467 29.305 C 106.355 29.333 106.201 29.305 106.047 29.291 C 105.865 29.263 105.683 29.194 105.515 29.124 C 105.431 29.096 105.347 29.068 105.277 29.026 C 104.969 28.887 104.717 28.65 104.464 28.412 C 104.38 28.329 104.296 28.259 104.198 28.189 C 104.1 28.106 104.002 28.05 103.904 27.98 C 103.89 27.98 103.876 27.966 103.862 27.952 C 103.75 27.896 103.638 27.841 103.526 27.799 C 103.302 27.715 103.064 27.673 102.826 27.673 C 102.672 27.673 102.517 27.687 102.363 27.729 C 102.237 27.729 102.111 27.785 101.985 27.841 C 101.915 27.868 101.831 27.896 101.747 27.952 C 101.691 27.966 101.635 27.994 101.565 28.036 C 101.467 28.092 101.369 28.147 101.257 28.217 L 101.257 28.217 C 101.285 28.106 101.299 28.008 101.327 27.924 C 101.397 27.757 101.481 27.617 101.579 27.52 C 101.677 27.422 101.789 27.338 101.901 27.297 C 101.985 27.255 102.083 27.241 102.167 27.227 C 102.265 27.199 102.349 27.185 102.447 27.185 C 102.7 27.171 102.938 27.171 103.19 27.185 C 103.442 27.199 103.708 27.241 103.946 27.325 C 104.002 27.352 104.058 27.366 104.114 27.394 C 104.24 27.436 104.366 27.52 104.492 27.617 C 104.562 27.673 104.619 27.715 104.675 27.771 C 104.801 27.882 104.913 28.022 105.011 28.175 C 105.095 28.301 105.165 28.412 105.249 28.51 C 105.333 28.608 105.403 28.677 105.487 28.733 C 105.879 29.04 106.299 28.929 106.986 28.566 C 107.196 28.454 107.406 28.357 107.602 28.259 C 107.728 28.203 107.854 28.147 107.98 28.092 C 108.232 27.994 108.484 27.91 108.737 27.882 C 108.835 27.868 108.919 27.868 109.003 27.868 C 109.017 27.868 109.045 27.868 109.059 27.868 C 109.283 27.868 109.521 27.896 109.759 27.98 C 109.857 28.022 109.941 28.064 110.039 28.12 L 110.053 28.12 C 110.053 28.12 110.081 28.147 110.081 28.161 C 110.123 28.189 110.151 28.231 110.179 28.287 C 110.207 28.315 110.235 28.343 110.263 28.385 Z" fill="rgb(140, 140, 140)"/><path d="M 82.964 39.013 C 82.964 39.013 82.95 39.027 82.95 39.041 C 82.838 39.292 82.726 39.557 82.627 39.808 C 82.403 40.352 82.221 40.91 82.011 41.454 C 81.759 42.137 81.493 42.821 81.157 43.477 C 80.891 43.993 80.582 44.481 80.19 44.941 C 80.106 45.053 80.008 45.164 79.896 45.276 C 80.008 45.011 80.12 44.746 80.218 44.481 C 80.484 43.797 80.695 43.086 80.947 42.389 C 81.017 42.179 81.087 41.984 81.171 41.789 C 81.241 41.58 81.325 41.37 81.423 41.175 C 81.549 40.91 81.675 40.659 81.829 40.408 C 81.899 40.282 81.983 40.157 82.067 40.045 C 82.137 39.934 82.221 39.822 82.305 39.724 C 82.305 39.711 82.319 39.697 82.333 39.683 C 82.431 39.557 82.529 39.445 82.641 39.334 C 82.74 39.222 82.852 39.111 82.964 39.013 Z" fill="rgb(140, 140, 140)"/><path d="M 79.644 39.125 C 79.42 39.543 79.21 39.962 78.874 40.241 C 78.818 40.296 78.748 40.338 78.663 40.38 C 78.579 40.436 78.481 40.478 78.369 40.506 C 78.299 40.533 78.215 40.547 78.131 40.561 L 78.075 40.561 C 78.075 40.561 77.921 40.575 77.837 40.575 C 77.669 40.561 77.515 40.575 77.347 40.617 C 77.207 40.631 77.081 40.673 76.955 40.715 C 76.843 40.757 76.731 40.812 76.646 40.868 C 76.562 40.91 76.506 40.966 76.45 41.036 C 76.45 41.05 76.422 41.077 76.408 41.091 C 76.352 41.161 76.324 41.245 76.296 41.328 C 76.254 41.468 76.24 41.635 76.254 41.817 C 76.254 42.026 76.254 42.235 76.24 42.458 C 76.226 42.57 76.212 42.681 76.212 42.793 C 76.184 42.988 76.142 43.184 76.086 43.379 C 76.072 43.49 76.044 43.602 76.016 43.714 C 76.002 43.769 75.974 43.825 75.932 43.867 C 75.918 43.909 75.89 43.937 75.862 43.965 C 75.82 44.02 75.778 44.062 75.722 44.104 C 75.666 44.16 75.596 44.23 75.526 44.286 C 75.47 44.327 75.414 44.383 75.358 44.439 C 75.54 43.281 75.61 42.151 75.946 41.091 C 75.988 40.952 76.128 40.812 76.296 40.687 C 76.38 40.631 76.478 40.575 76.576 40.519 C 76.815 40.394 77.067 40.296 77.277 40.213 C 78.145 39.892 79.07 39.683 79.224 38.553 C 79.266 38.274 79.266 38.009 79.28 37.646 C 79.392 37.744 79.476 37.855 79.546 37.967 C 79.616 38.065 79.672 38.162 79.7 38.274 C 79.714 38.316 79.728 38.371 79.742 38.427 C 79.798 38.636 79.77 38.874 79.644 39.125 Z" fill="rgb(140, 140, 140)"/><path d="M 74.055 28.733 C 74.027 28.817 74.013 28.901 73.999 28.984 C 71.604 29.263 69.195 29.556 66.8 29.849 C 66.772 29.738 66.758 29.626 66.729 29.514 C 67.094 29.431 67.43 29.319 67.794 29.221 C 67.962 29.166 68.144 29.124 68.312 29.082 C 68.494 29.04 68.676 29.012 68.859 28.984 C 69.559 28.901 70.259 28.817 70.96 28.761 C 71.828 28.664 72.71 28.594 73.593 28.51 L 73.621 28.51 C 73.621 28.51 73.691 28.51 73.719 28.538 C 73.761 28.552 73.789 28.566 73.831 28.594 C 73.901 28.636 73.985 28.691 74.055 28.733 Z" fill="rgb(140, 140, 140)"/><path d="M 104.282 38.776 C 104.282 38.776 104.24 38.818 104.212 38.846 C 104.184 38.874 104.142 38.915 104.114 38.943 C 103.82 38.609 103.484 38.288 103.26 37.911 C 103.036 37.521 102.896 37.06 102.77 36.628 C 102.714 36.433 102.644 36.251 102.559 36.084 C 102.503 35.931 102.419 35.791 102.335 35.666 C 102.279 35.582 102.223 35.498 102.139 35.414 C 102.111 35.359 102.055 35.289 101.985 35.247 C 101.943 35.191 101.887 35.135 101.817 35.094 C 101.747 35.038 101.677 34.982 101.593 34.94 C 101.481 34.87 101.355 34.815 101.229 34.773 C 100.935 34.661 100.584 34.619 100.192 34.633 C 100.164 34.633 100.136 34.633 100.108 34.633 C 100.038 34.619 99.968 34.578 99.87 34.564 L 99.884 34.564 C 99.996 34.494 100.108 34.424 100.22 34.354 C 100.711 34.075 101.145 34.006 101.537 34.145 C 101.593 34.159 101.635 34.173 101.677 34.201 C 101.733 34.229 101.789 34.257 101.845 34.299 C 102.069 34.452 102.265 34.675 102.461 34.982 C 102.728 35.373 102.882 35.847 103.078 36.279 C 103.484 37.13 103.876 37.967 104.282 38.804 Z" fill="rgb(140, 140, 140)"/><path d="M 96.719 12.679 C 96.943 12.512 97.167 12.316 97.419 12.177 C 98.189 11.744 98.988 11.354 99.716 10.866 C 99.926 10.726 99.982 10.294 100.024 9.987 C 100.108 9.471 100.136 8.941 100.192 8.285 C 100.697 8.871 100.781 9.373 100.669 10.043 C 100.416 11.535 99.282 11.968 98.119 12.414 C 97.699 12.581 97.237 12.637 96.789 12.749 C 96.761 12.721 96.733 12.693 96.705 12.665 Z" fill="rgb(140, 140, 140)"/><path d="M 96.466 43.63 C 96.452 43.728 96.452 43.825 96.424 43.923 C 96.396 44.118 96.354 44.313 96.312 44.509 C 96.284 44.592 96.256 44.69 96.242 44.788 C 96.172 44.802 96.102 44.816 96.032 44.829 C 96.032 44.146 96.088 43.435 96.032 42.765 C 96.032 42.612 96.018 42.472 95.99 42.333 C 95.99 42.249 95.962 42.165 95.948 42.082 C 95.92 41.998 95.906 41.914 95.878 41.831 C 95.836 41.677 95.78 41.524 95.696 41.37 C 95.654 41.287 95.612 41.217 95.57 41.147 C 95.528 41.077 95.486 41.008 95.416 40.938 C 95.374 40.868 95.318 40.798 95.248 40.729 C 95.15 40.631 95.038 40.533 94.912 40.436 C 94.646 40.241 94.309 40.059 93.903 39.92 C 94.323 39.78 94.646 39.724 94.912 39.766 C 95.052 39.794 95.164 39.822 95.276 39.892 C 95.332 39.92 95.388 39.962 95.444 40.003 C 95.5 40.045 95.556 40.101 95.598 40.157 C 95.766 40.31 95.92 40.519 96.074 40.785 C 96.158 40.924 96.228 41.077 96.284 41.231 C 96.34 41.356 96.382 41.482 96.396 41.607 C 96.424 41.691 96.438 41.775 96.452 41.845 C 96.452 41.859 96.466 41.886 96.452 41.9 C 96.48 42.012 96.494 42.137 96.494 42.263 C 96.536 42.709 96.494 43.17 96.466 43.63 Z" fill="rgb(140, 140, 140)"/><path d="M 74.167 32.862 C 73.929 33.211 73.649 33.434 73.327 33.601 C 73.201 33.657 73.075 33.713 72.949 33.755 C 72.865 33.783 72.767 33.81 72.682 33.838 C 72.654 33.838 72.626 33.838 72.584 33.838 C 72.458 33.866 72.332 33.894 72.192 33.908 C 72.024 33.936 71.87 33.95 71.702 33.964 C 71.45 33.978 71.198 33.992 70.932 34.02 C 70.792 34.034 70.637 34.034 70.497 34.048 C 70.469 34.061 70.427 34.061 70.399 34.061 C 70.301 34.075 70.217 34.089 70.119 34.103 C 70.091 34.034 70.077 33.978 70.049 33.908 C 70.301 33.824 70.553 33.741 70.82 33.671 C 71.24 33.559 71.66 33.49 72.08 33.378 C 72.234 33.35 72.388 33.308 72.528 33.252 C 72.612 33.225 72.696 33.197 72.767 33.169 C 72.795 33.155 72.837 33.141 72.865 33.127 C 72.963 33.085 73.061 33.057 73.159 33.001 C 73.411 32.904 73.649 32.778 73.803 32.583 C 73.859 32.527 73.901 32.457 73.929 32.374 C 73.943 32.346 73.957 32.318 73.957 32.29 C 73.999 32.206 74.013 32.123 74.013 32.011 C 74.013 31.913 74.013 31.802 73.985 31.676 C 73.943 31.453 74.125 31.188 74.293 30.923 C 74.349 30.853 74.391 30.784 74.433 30.714 C 74.461 30.672 74.475 30.63 74.503 30.588 C 75.064 31.397 74.994 31.662 74.167 32.848 Z" fill="rgb(140, 140, 140)"/><path d="M 101.201 42.319 L 101.187 42.319 C 101.187 42.319 101.159 42.361 101.145 42.361 C 101.103 42.403 101.061 42.43 101.019 42.472 C 100.893 42.319 100.753 42.165 100.627 42.012 C 100.346 41.691 100.08 41.384 99.814 41.063 C 99.674 40.91 99.548 40.757 99.422 40.589 C 99.296 40.422 99.198 40.254 99.1 40.073 C 98.89 39.738 98.722 39.39 98.497 39.069 C 98.189 38.609 97.783 38.204 97.489 37.744 C 97.405 37.632 97.363 37.493 97.335 37.339 C 97.293 37.2 97.279 37.046 97.237 36.907 C 97.349 36.865 97.447 36.823 97.559 36.781 C 98.778 38.623 99.982 40.478 101.201 42.319 Z" fill="rgb(140, 140, 140)"/><path d="M 78.972 16.822 C 78.663 16.696 78.397 16.626 78.201 16.529 C 78.145 16.515 78.103 16.487 78.075 16.445 C 78.033 16.431 78.005 16.403 77.977 16.361 C 76.997 14.911 76.072 13.432 75.148 11.954 C 75.036 11.772 75.008 11.521 75.036 11.27 C 76.296 13.056 77.571 14.841 78.972 16.822 Z" fill="rgb(140, 140, 140)"/><path d="M 80.807 12.093 C 79.966 10.782 79.182 9.541 78.397 8.313 C 78.467 8.271 78.537 8.229 78.607 8.188 C 80.134 8.997 81.143 10.74 80.821 12.093 Z" fill="rgb(140, 140, 140)"/><path d="M 84.196 6.179 C 85.121 7.923 85.023 11.563 84.266 12.832 C 84.322 12.009 84.434 11.186 84.42 10.364 C 84.42 9.555 84.322 8.732 84.196 7.923 C 84.112 7.365 83.706 6.821 84.196 6.179 Z" fill="rgb(140, 140, 140)"/><path d="M 91.76 46.099 C 91.018 45.429 90.948 40.003 91.396 39.655 C 91.522 41.817 91.634 43.951 91.76 46.099 Z" fill="rgb(140, 140, 140)"/><path d="M 76.184 35.861 C 76.044 35.958 75.918 36.056 75.792 36.168 C 75.4 36.488 75.05 36.851 74.685 37.214 C 74.363 37.535 74.041 37.855 73.705 38.148 C 73.495 38.316 73.271 38.483 73.047 38.623 C 72.893 38.734 72.739 38.832 72.584 38.915 C 72.388 39.013 72.164 39.111 71.94 39.18 C 71.898 39.125 71.842 39.069 71.8 39.013 C 73.201 37.883 74.587 36.753 75.988 35.624 C 76.058 35.707 76.114 35.777 76.184 35.861 Z" fill="rgb(140, 140, 140)"/><path d="M 107.266 23.628 L 107.266 23.628 C 107.112 23.67 106.958 23.712 106.804 23.74 C 106.341 23.851 105.879 23.963 105.417 24.061 C 105.025 24.144 104.633 24.228 104.24 24.256 C 104.002 24.284 103.778 24.298 103.54 24.298 C 103.302 24.298 103.064 24.284 102.826 24.256 C 102.601 24.214 102.377 24.172 102.153 24.116 C 102.139 24.116 102.125 24.102 102.111 24.102 C 103.022 23.977 103.932 23.851 104.843 23.726 C 105.641 23.614 106.439 23.503 107.224 23.391 C 107.238 23.475 107.252 23.545 107.266 23.628 Z" fill="rgb(140, 140, 140)"/><path d="M 86.241 42.835 L 86.241 46.88 C 85.569 45.848 85.625 43.49 86.241 42.835 Z" fill="rgb(140, 140, 140)"/><path d="M 74.433 21.229 C 74.349 21.299 74.251 21.369 74.181 21.424 C 74.097 21.494 74.013 21.55 73.943 21.55 L 73.915 21.55 C 73.593 21.41 73.271 21.285 72.963 21.145 C 72.64 21.006 72.318 20.866 72.01 20.727 C 71.38 20.448 70.764 20.169 70.133 19.89 C 70.175 19.792 70.203 19.695 70.245 19.597 L 70.259 19.597 C 71.436 20.058 72.598 20.504 73.887 21.006 C 74.069 21.076 74.251 21.145 74.433 21.229 Z" fill="rgb(140, 140, 140)"/><path d="M 89.911 9.024 C 89.617 9.541 89.281 10.029 89.043 10.559 C 88.805 11.061 88.679 11.619 88.468 12.247 C 87.95 11.744 87.978 11.159 88.3 10.684 C 88.735 10.057 89.309 9.527 89.827 8.941 C 89.855 8.969 89.883 8.997 89.911 9.024 Z" fill="rgb(140, 140, 140)"/><path d="M 101.355 16.403 C 101.187 16.529 101.019 16.654 100.865 16.78 C 100.304 17.24 99.73 17.672 99.212 18.161 C 98.834 18.495 98.708 18.537 98.301 18.007 C 98.259 17.965 98.217 17.923 98.189 17.882 L 98.203 17.882 C 98.595 17.644 98.974 17.421 99.352 17.212 C 99.73 16.989 100.094 16.78 100.458 16.57 C 100.711 16.431 100.949 16.291 101.187 16.152 C 101.243 16.236 101.299 16.319 101.355 16.403 Z" fill="rgb(140, 140, 140)"/><path d="M 106.271 18.384 L 106.271 18.384 C 106.243 18.495 106.201 18.593 106.159 18.677 C 106.145 18.732 106.117 18.774 106.075 18.816 C 106.047 18.9 105.991 18.97 105.907 19.039 C 105.823 19.137 105.725 19.221 105.613 19.276 C 105.445 19.388 105.263 19.444 105.067 19.486 C 104.885 19.5 104.703 19.5 104.52 19.472 C 104.422 19.444 104.324 19.416 104.226 19.388 C 103.988 19.304 103.736 19.235 103.47 19.179 C 103.204 19.123 102.938 19.067 102.644 18.997 L 102.63 18.997 C 102.63 18.997 102.672 18.942 102.7 18.914 C 102.7 18.886 102.742 18.858 102.77 18.844 C 102.84 18.774 102.924 18.732 103.008 18.718 C 103.106 18.691 103.204 18.677 103.316 18.677 C 103.386 18.677 103.442 18.677 103.512 18.677 C 103.512 18.677 103.526 18.677 103.54 18.677 C 103.61 18.691 103.694 18.705 103.778 18.718 C 103.932 18.76 104.058 18.788 104.17 18.816 C 104.352 18.858 104.506 18.9 104.633 18.914 C 104.997 18.983 105.221 18.956 105.529 18.816 C 105.641 18.76 105.767 18.691 105.935 18.593 C 106.033 18.537 106.131 18.453 106.257 18.384 C 106.257 18.37 106.271 18.37 106.271 18.37 Z" fill="rgb(140, 140, 140)"/><path d="M 96.789 12.763 C 96.368 13.502 95.962 14.227 95.556 14.966 C 95.318 15.399 95.01 15.65 94.547 15.51 C 95.038 14.729 95.472 13.962 95.976 13.223 C 96.144 12.986 96.452 12.86 96.705 12.679 C 96.733 12.707 96.761 12.735 96.789 12.763 Z" fill="rgb(140, 140, 140)"/><path d="M 89.827 8.941 C 89.911 8.69 90.079 8.425 90.051 8.188 C 90.023 7.825 89.939 7.239 89.729 7.155 C 89.001 6.849 89.141 6.374 89.225 5.802 C 90.92 7.518 90.597 8.411 89.911 9.024 C 89.883 8.997 89.855 8.969 89.827 8.941 Z" fill="rgb(140, 140, 140)"/><path d="M 95.668 7.909 C 95.15 9.038 94.94 10.294 94.127 11.298 C 94.029 11.256 93.931 11.214 93.847 11.173 C 94.365 10.043 94.884 8.913 95.402 7.797 C 95.486 7.839 95.584 7.881 95.668 7.923 Z" fill="rgb(140, 140, 140)"/><path d="M 69.615 34.271 C 69.531 34.354 69.461 34.438 69.391 34.536 C 69.321 34.633 69.265 34.731 69.209 34.829 C 69.209 34.843 69.195 34.857 69.195 34.87 C 69.125 34.996 69.055 35.108 68.999 35.233 C 68.859 35.484 68.718 35.721 68.522 35.917 C 68.452 35.986 68.382 36.056 68.298 36.112 C 68.214 36.182 68.116 36.237 68.004 36.293 C 67.892 36.335 67.766 36.377 67.626 36.391 C 67.514 36.419 67.388 36.433 67.248 36.433 L 67.178 36.433 C 67.444 36.21 67.682 36.014 67.906 35.833 C 68.032 35.735 68.158 35.624 68.27 35.526 C 68.382 35.428 68.466 35.345 68.564 35.247 C 68.732 35.08 68.887 34.898 69.069 34.717 C 69.153 34.619 69.251 34.536 69.335 34.452 C 69.433 34.382 69.517 34.313 69.615 34.271 Z" fill="rgb(140, 140, 140)"/><path d="M 103.218 32.304 C 102.798 32.22 102.391 32.137 101.999 32.053 C 101.593 31.969 101.187 31.886 100.767 31.788 C 101.145 31.411 101.565 31.3 102.013 31.439 C 102.195 31.495 102.391 31.593 102.601 31.746 C 102.728 31.844 102.868 31.955 103.008 32.095 C 103.078 32.151 103.148 32.22 103.218 32.304 Z" fill="rgb(140, 140, 140)"/></g></svg>