<?xml version="1.0" encoding="UTF-8"?><svg id="Calque_2" xmlns="http://www.w3.org/2000/svg" viewBox="0 0 116.98 68.04"><defs><style>.cls-1{fill:#909091;}</style></defs><g id="Calque_1-2"><g id="noDUzA.tif"><path class="cls-1" d="M108.5,46.9c1.47.8,1.91,2.39,1.04,3.94-1.32,2.33-2.67,4.64-4.01,6.95-.26.45-.5.92-.79,1.36-.82,1.25-1.95,1.96-3.49,1.95-1.46-.01-2.91,0-4.37,0-.39,0-.82,0-1.13-.21-.49-.35-.91-.23-1.38,0-.38.19-.82.22-1.25.21-1.38,0-2.76,0-4.14,0-.57,0-1.13,0-1.64-.28-.15-.08-.29-.07-.44,0-.56.26-1.16.28-1.77.28-4.08,0-8.16,0-12.23,0-2.35,0-3.6-2.06-2.51-4.15.31-.58.66-1.14.99-1.71.31-.55.31-.55-.29-.55-.72,0-1.44,0-2.16,0-.23,0-.51.05-.69-.06-.65-.36-.86.05-1.12.52-.72,1.29-1.46,2.56-2.21,3.83-.82,1.4-2.02,2.15-3.68,2.13-1.38-.02-2.76.06-4.14-.02-2.53-.13-5.05.08-7.58.02-2.54-.05-5.09.05-7.63-.03-2.55-.08-5.09.08-7.64.03-2.54-.05-5.09,0-7.63-.02-.47,0-.72.15-.95.56-.81,1.46-1.66,2.89-2.49,4.34-.21.37-.44.73-.76,1.03-1.24,1.2-3.1,1.02-4.01-.44-.91-1.46-1.76-2.97-2.63-4.45-.02-.03-.05-.07-.05-.1-.09-.95-.73-.96-1.48-.93-1.07.05-2.14.02-3.2,0-.23,0-.51.05-.69-.06-.81-.47-1.56-.31-2.39-.02-.49.17-1.08.07-1.62.08-1.17,0-2.33,0-3.5,0-2.31,0-3.57-2.11-2.45-4.13.94-1.69,1.93-3.36,2.9-5.04.6-1.04,1.19-2.09,1.8-3.12.84-1.43,2.07-2.19,3.77-2.19,6.8.01,13.59,0,20.39,0,.47,0,.93.02,1.38.17.1.04.24.07.33.04.85-.32,1.73-.2,2.6-.2,3.63-.01,7.26-.07,10.89.02,2.84.07,5.67-.14,8.51-.01.39.02.58-.11.77-.45.86-1.54,1.75-3.06,2.63-4.59.4-.69.93-1.24,1.71-1.5,1.14-.38,2.33,0,2.95,1.02.92,1.5,1.79,3.04,2.69,4.56,0,.02.02.04.02.05.08.98.75.92,1.48.91,3.36-.03,6.72,0,10.08-.01.51,0,1.01.03,1.48.26.15.07.27.09.44.02.58-.26,1.2-.28,1.82-.28,4.04,0,8.08,0,12.12,0,.49,0,.98.03,1.42.26.46.25.8-.24,1.22-.17-.09.53-.11,1.07-.14,1.6-.04.71-.56,1.2-.92,1.75-.18.27-.53-.01-.8.08-.13.04-.26.06-.39.09.08-.25.14-.48-.28-.34-.17.06-.34.09-.58.16.23-.37.53-.39.81-.37.24.02.37-.06.39-.3.02-.23-.05-.43-.29-.5-.13-.04-.27-.04-.4-.04-4.15,0-8.31,0-12.46,0-.66,0-1.18.27-1.53.8-.41.63-.79,1.29-1.14,1.96-.31.59-.13.88.53.88,1.44,0,2.87,0,4.31,0,.69,0,1.19-.31,1.55-.86.19-.29.35-.6.53-.9.26-.43.62-.75,1.1-.9.26-.08.55-.15.76.09.21.24.13.51-.01.76-.32.58-.64,1.15-.98,1.72-.41.68-.98,1.05-1.81,1.03-1.96-.03-3.92,0-5.88-.01-.75,0-1.31.32-1.69.95-.7,1.18-1.39,2.37-2.07,3.57-.37.66-.18.98.58.98,4.13,0,8.27,0,12.4,0,.71,0,1.25-.3,1.6-.89,1.26-2.16,2.5-4.33,3.74-6.5.38-.3.58-.85,1.31-.93-.61.86-.89,1.71-1.02,2.63-.89,1.54-1.79,3.08-2.68,4.62-.44.77-.28,1.06.6,1.07,1.3,0,2.6-.02,3.9,0,.9.02,1.5-.36,1.94-1.12,1.32-2.32,2.67-4.63,4.01-6.94.19-.33.4-.62.72-.81.37-.22.81-.48,1.18-.16.39.34.05.75-.14,1.09-1.32,2.3-2.66,4.59-3.98,6.89-.42.74-.25,1.03.59,1.04,1.36,0,2.72,0,4.07,0,.76,0,1.3-.33,1.68-.95.26-.43.51-.87.76-1.3.99-1.75,1.99-3.5,2.98-5.25.16-.07.23-.19.22-.37.34-.4.56-.87.8-1.32.27-.52.15-.73-.44-.9.34-.7.48-1.54,1.31-1.9ZM19.1,48.82c-3.42,0-6.84,0-10.25,0-.78,0-1.36.31-1.74.96-1.58,2.71-3.14,5.44-4.7,8.16-.38.66-.21.94.54.94,1.34,0,2.68-.02,4.02.01.9.02,1.5-.37,1.94-1.13,1.31-2.31,2.65-4.6,3.97-6.91.21-.36.45-.67.82-.88.36-.21.78-.41,1.13-.1.4.35.03.71-.15,1.03-1.33,2.32-2.67,4.64-3.99,6.96-.42.74-.26,1.02.6,1.02,1.28,0,2.56-.03,3.84.01.97.03,1.6-.38,2.07-1.21,1.28-2.26,2.59-4.5,3.89-6.75.18-.32.37-.65.68-.86.39-.26.86-.57,1.28-.22.43.36.04.78-.16,1.14-1.63,2.84-3.28,5.67-4.92,8.51-.32.55-.49,1.1-.14,1.7.78,1.34,1.57,2.67,2.36,4.01.28.46.49.47.83.05.1-.12.18-.26.25-.39,2.88-4.99,5.75-9.97,8.63-14.96.47-.81.32-1.09-.6-1.09-3.4,0-6.8,0-10.19,0ZM48.03,58.88c1.63,0,3.26,0,4.89,0,2.22,0,2.33.27,3.65-2.09,1.63-2.89,3.3-5.74,4.95-8.61.28-.49.51-1.01.21-1.54-.81-1.43-1.66-2.85-2.49-4.26-.19-.32-.45-.28-.67-.05-.15.15-.25.34-.36.52-.93,1.61-1.86,3.22-2.78,4.83-.43.75-1.02,1.16-1.93,1.14-1.92-.03-3.84,0-5.76-.02-.83,0-1.41.36-1.81,1.05-1.54,2.67-3.08,5.34-4.61,8.01-.42.74-.26,1.01.6,1.01,2.04,0,4.08,0,6.11,0ZM38.55,48.82c-2,0-4,.02-6,0-.9-.01-1.51.36-1.93,1.13-.38.7-.79,1.38-1.19,2.06-1.13,1.95-2.25,3.89-3.37,5.84-.42.74-.25,1.04.58,1.04,4.1,0,8.19,0,12.29,0,.7,0,1.26-.26,1.63-.83.4-.62.77-1.26,1.12-1.9.33-.61.13-.92-.55-.92-1.42,0-2.83,0-4.25,0-.69,0-1.18.32-1.55.87-.21.3-.37.63-.56.95-.26.43-.64.72-1.12.88-.27.09-.55.12-.76-.1-.23-.24-.11-.52.02-.76.35-.63.69-1.26,1.08-1.86.38-.59.93-.9,1.66-.9,2,.01,4,0,6,0,.71,0,1.25-.3,1.6-.88.73-1.21,1.44-2.44,2.13-3.67.36-.63.16-.94-.58-.94-2.08,0-4.15,0-6.23,0ZM69.12,48.82c-1.63,0-3.26.01-4.89,0-2.29-.02-2.36-.11-3.6,2.07-1.31,2.31-2.65,4.6-3.97,6.9-.46.81-.3,1.09.61,1.09,1.22,0,2.45-.04,3.67.01,1.03.04,1.71-.37,2.21-1.26,1.28-2.28,2.62-4.53,3.92-6.79.31-.53.71-.92,1.31-1.07.22-.06.47-.09.66.11.21.22.13.48.02.71-.17.35-.4.67-.57,1.01-.28.57-.11.86.51.86,1.46,0,2.91,0,4.37,0,.69,0,1.18-.33,1.53-.9.36-.59.71-1.2,1.04-1.81.35-.63.16-.93-.58-.93-2.08,0-4.15,0-6.23,0Z"/><path class="cls-1" d="M106.84,51.02c.01.17-.06.29-.22.37-.32-.02-.43-.18-.39-.5.07-.48.1-.96.17-1.44.07-.47-.26-.49-.58-.57-.41-.11-.32.24-.39.41-.3.75-.51,1.54-.93,2.25-.11.18-.16.54-.47.38-.29-.14-.08-.4.01-.6.32-.73.63-1.45.94-2.18.04-.09.18-.2,0-.28-.1-.05-.24-.04-.32.07-.17.23-.34.47-.5.71-.27.4-.53.81-.81,1.2-.11.16-.26.33-.48.17-.21-.15-.17-.38-.05-.57.08-.13.2-.23.3-.36.33-.42.77-.77,1.03-1.25.61-.71,1.24-1.4,1.73-2.2.3-.18.43-.49.61-.77.48-.75.47-.79-.21-1.37-.8-.68-1.7-1.22-2.43-1.99-.22-.24-.59-.29-.86-.09-.96.68-2.04,1.23-2.66,2.3-.13.23-.34.4-.56.57-.44.34-.97.65-1,1.32-.87.63-1.54,1.47-2.32,2.19-.19.02-.31.16-.41.29-.53.69-1.31.99-2.07,1.33-.32.14-.65.28-.92.48-.33.25-.45.12-.49-.42-.38,1.02-.94,1.73-1.08,2.63-.02.14-.04.34-.23.35-.17.02-.11-.24-.26-.27.13-.91.41-1.77,1.02-2.63-.73.08-.93.63-1.31.93-.3.02-.37-.15-.3-.4.15-.59.55-.84,1.13-.88.13-.03.27-.04.39-.09.27-.09.62.2.8-.08.36-.55.88-1.05.92-1.75.03-.54.05-1.07.14-1.6.31-.4-.03-.81.02-1.23.07-.6-.48-.53-.85-.64-.16-.05-.31-.16-.45-.26-.32-.25-.63-.52-.95-.77-.92-.73-1.83-1.35-3.14-1.06-.9.2-1.83.04-2.73-.31-.62-.24-1.33-.24-2-.31-.46-.05-.46-.02-.52-.5-.02-.13-.13-.12-.22-.14-.24-.06-.48-.14-.7-.26-.38-.21-.57-.44-.29-.87.08-.12.12-.31.08-.44-.25-.87.3-1.34.87-1.79.52-.4,1.02-.81,1.44-1.34.71-.89,1.67-1.24,2.78-1.13.47.05.66-.09.85-.57.39-1,.93-1.95,1.44-2.91.23-.44.43-.87.21-1.36-.08-.18.02-.24.13-.32.01,0,.02-.02.03-.04-.01.02-.04.03-.03.05.04.15.04.37.13.42.53.3.2.72.17,1.08-.08.8.46,1.41.58,2.22.58-.64,1.11-1.21,1.62-1.79.22-.25.09-.6.16-.89.06-.24.09-.49.21-.72,0,.33.02.65,0,.98-.02.24.15.13.24.17,0,0,0,0,0,0-.05.32-.15.61-.32.9-.37.64-.04,1.33-.08,1.99-.01.19.06.41-.02.57-.29.61.19.59.44.45,1.25-.7,2.72-1.06,3.61-2.33.63-.91,1.63-1.36,2.51-1.94,1.61-1.07,3.31-1.95,5.31-1.98,1.79-.02,3.35.69,4.86,1.56.18.11.37.21.55.31.04.02.08.04.11.06,0-.04-.02-.09-.03-.13-.27-.65-.26-1.36-.43-2.03-.29-1.16-.98-2.13-1.66-3.09-.42-.6-.84-1.2-1.24-1.81-.13-.19-.36-.43-.26-.62.15-.28.39.17.61.04,0,.02.02.04.02.06,0-.01,0-.03,0-.03-.01,0-.03-.01-.04-.02-.04-.42-.43-.61-.6-.95-.09-.17-.29-.35-.18-.51.14-.21.34,0,.51.05.27.07.5.29.87.24-.51-.56-1.22-.86-1.65-1.57.59-.03.98.36,1.56.4-.54-.67-1.04-1.27-1.61-1.96.62,0,.98.42,1.52.47-.15-.41-.48-.6-.75-.84-.27-.25-.61-.45-.75-.88.55,0,.9.52,1.43.44-.03.07.02.09.07.09.02,0,.04-.03.07-.04-.05-.01-.09-.03-.14-.04-.2-.4-.64-.47-.96-.71-1.15-.86-2.24-1.79-3.25-2.81-.11-.11-.3-.22-.21-.38.12-.22.31-.02.45.02.48.13.93.38,1.55.38-.61-.52-1.15-.97-1.69-1.43-.09-.08-.27-.15-.19-.31.09-.17.24-.05.36-.02.38.07.75.16,1.24.26-.37-.4-.78-.56-1.13-.79-.21-.14-.44-.25-.64-.41-.15-.12-.48-.21-.36-.45.13-.26.37.01.56.05.26.05.5.19.84.18-.33-.55-1.01-.79-1.2-1.43.37-.1.65.2,1.01.14-.09-.33-.4-.46-.57-.71-.11-.17-.41-.26-.35-.49.08-.29.39.08.56-.12.01-.42-.48-.56-.6-.93.34-.18.61.16.97.03-.36-.43-.7-.84-1.1-1.33.64,0,1.11.23,1.61.42.14-.51-.42-.83-.36-1.37.29.17.53.31.78.45.03.08.1.14.16.08.07-.07-.05-.11-.09-.16-.11-.2-.23-.4-.35-.6-.17-.28-.15-.24.12-.43.2-.14.16-.41.12-.64-.03-.18-.23-.31-.18-.6.48.46,1.06.13,1.61.32.57.2,1.06-.48.88-1.07-.08-.25.06-.4.19-.57.3-.38.61-.75.89-1.14.09-.13.21-.14.32-.2.32-.19.69-.33.87-.73.05-.12.1-.88.52-.15.09.16.3-.13.42-.26.09-.09.24-.31.28-.19.3.73.68.12.89.01.61-.3,1.25-.48,1.91-.63.28-.06.61-.18.84.16.1.14.28.08.44.06.2-.03.4-.09.69.05-.8.77-1.61,1.44-2.27,2.23-.49.59-.92,1.28-.96,2.11,0,.09-.02.19-.05.28-.43,1.1-.13,2.29-.45,3.44.46-.07.39-.52.76-.73,0,.68-.15,1.3.07,1.91.19.07.22-.32.39-.2.19.14.04.35,0,.53-.07.4-.14.8-.2,1.2-.02.11-.05.25.09.3.13.05.2-.09.28-.16.26-.25.35-.63.72-.89.08.56.15,1.04.22,1.53.23.05.27-.13.36-.24.11-.13.21-.35.4-.27.19.07.07.31.12.47.01.04,0,.08,0,.12.02.18-.12.44.11.51.18.06.25-.2.37-.31.07-.07.12-.15.29-.11-.06.57-.12,1.14-.19,1.71.26.07.3-.22.45-.2.15.03.12.12.14.19.11.46-.18.94.27,1.42.2.21-.01.81-.04,1.24-.02.28-.03.56-.04.86.39-.04.45-.44.86-.5-.22,1.15-.71,2.2-.87,3.33.24.05.24-.28.5-.19-.16.56-.32,1.15-.51,1.84.25-.18.39-.29.6-.44.1.52-.38.85-.27,1.32.32-.01.38-.47.77-.46-.22.76-.88,1.3-1.07,2.16.25-.16.43-.27.61-.39.04.02.07.04.11.06-.28.59-.56,1.17-.85,1.76-.02.03-.06.07-.05.08.04.06.08.04.13,0,.28-.03.47-.35.86-.27-.44.89-1.04,1.66-1.36,2.63.38-.09.58-.34.84-.49.15-.08.31-.27.46-.15.18.14-.01.32-.08.47-.38.8-.79,1.58-1.34,2.4.59-.03.87-.56,1.46-.57-.53.74-1.23,1.23-1.63,1.95-.02.04-.04.07-.06.11l.14-.02c.28-.04.52-.25.93-.22-.69.68-1.43,1.17-2.06,1.94.47-.08.84-.14,1.2-.21.1-.02.21-.04.23.09,0,.05-.05.15-.11.18-.71.3-1.27.99-2.27.81.3.23.52.37.71.55.16.15.31.35-.04.47-.22.08-.12.16-.04.29.09.16-.04.67-.18.87-.11.17.17.55-.3.52,0-.02,0-.04-.02-.05,0,0-.02,0-.04,0,.02.01.04.02.06.03-.04.26.26.7-.35.64.06.5-.6.72-.48,1.3.06.3-.14.71-.34.98-.22.29-.6.47-.53.92-.37.05-.16.52-.5.67-.25.11-.2.54-.49.79-.43.38-.44,1.09-.83,1.55-.41.5-.69,1.05-.8,1.7-.07.4-.28.78-.43,1.17-.83.36-.96,1.2-1.31,1.9-.35.7-.39,1.46-.36,2.22ZM83.72,39.4c.55.35,1,.64,1.52.81.92.3,1.71-.2,1.82-1.14.01-.1.03-.19.05-.28.11-.44-.25-.98-.7-1.03-.85-.1-1.56.29-1.91,1.09-.14.32-.29.59-.78.56Z"/><path class="cls-1" d="M43.43,65.33c0-.7,0-1.4,0-2.1,0-.23,0-.42.33-.41.99.02,1.98-.02,2.97.06,1,.08,1.45.77,1.27,1.75-.04.21-.09.46-.27.56-.68.38-.44.75-.08,1.2.27.35.43.78.66,1.16.17.29.07.37-.23.36-.35-.01-.7-.02-1.05,0-.31.02-.5-.08-.64-.37-.21-.43-.46-.85-.71-1.27-.11-.19-.26-.39-.49-.32-.21.06-.1.3-.11.46-.02.23,0,.47,0,.7-.01.92.11.79-.81.8-.82,0-.82,0-.82-.84,0-.58,0-1.16,0-1.75ZM45.52,64.82c.32-.04.79.06.82-.41.03-.46-.4-.43-.73-.44-.28-.01-.59-.08-.57.4.01.34.09.52.47.45Z"/><path class="cls-1" d="M40.06,68.01c-1.71,0-2.66-.92-2.66-2.6,0-1.74.92-2.69,2.63-2.69,1.7,0,2.64.92,2.65,2.61.01,1.74-.9,2.68-2.62,2.68ZM41.02,65.22c-.01-.07-.02-.29-.08-.49-.12-.45-.44-.7-.88-.72-.45-.02-.77.25-.91.67-.07.2-.1.42-.11.63-.04.85.38,1.44,1,1.44.63,0,.97-.49.98-1.53Z"/><path class="cls-1" d="M55.78,68.04c-1.28-.02-1.92-.37-2.23-1.23-.15-.42-.16-.73.44-.67.21.02.43-.02.64-.05.24-.04.42,0,.47.28.05.22.21.38.41.46.33.12.7.14.86-.23.19-.43-.2-.53-.49-.62-.44-.15-.9-.24-1.33-.41-.66-.27-.98-.79-.94-1.39.04-.61.43-1.1,1.08-1.3.7-.21,1.42-.21,2.12-.01.26.07.5.21.69.42.24.27.47.6.35.94-.1.27-.49.13-.74.16-.36.05-.77.16-.95-.37-.07-.21-.35-.23-.57-.21-.17.01-.37.06-.38.29,0,.2.16.26.31.3.41.12.83.2,1.24.33.94.3,1.34.81,1.3,1.62-.04.84-.57,1.43-1.48,1.62-.26.06-.54.06-.81.09Z"/><path class="cls-1" d="M29.76,68.02c-1-.03-1.82-.13-2.26-1.02-.3-.62-.2-.79.46-.86.47-.05.93-.19,1.16.47.11.31.5.34.82.25.2-.05.36-.18.36-.4,0-.22-.15-.35-.35-.41-.46-.15-.93-.26-1.39-.43-.61-.22-1.03-.61-1.06-1.31-.03-.67.35-1.21,1.05-1.43.7-.22,1.41-.22,2.12-.03.3.08.57.24.77.49.2.25.39.56.3.85-.1.31-.48.14-.72.18-.39.07-.8.12-1-.4-.06-.17-.29-.19-.46-.19-.2,0-.41.03-.45.27-.04.23.17.29.33.34.41.12.83.19,1.24.33.94.31,1.32.81,1.27,1.64-.05.81-.57,1.39-1.46,1.58-.28.06-.58.07-.73.09Z"/><path class="cls-1" d="M32.6,65.37c0-.72,0-1.43,0-2.15,0-.2-.02-.41.28-.4.95.03,1.9-.1,2.84.07.83.15,1.19.63,1.2,1.52,0,.87-.42,1.45-1.2,1.61-.19.04-.38.05-.58.06q-.9.04-.9.96c0,.88,0,.88-.9.87-.84,0-.74.1-.74-.74,0-.6,0-1.2,0-1.8ZM34.25,64.42c0,.28-.09.61.37.56.32-.04.66-.1.66-.5,0-.42-.34-.5-.69-.53-.42-.03-.33.27-.34.47Z"/><path class="cls-1" d="M50.79,62.82c.62,0,1.24.02,1.86,0,.36-.02.5.1.45.46-.02.13-.02.27,0,.41.06.4-.08.53-.5.52-1.05-.03-1.05,0-1.05,1.07,0,.74-.01,1.47,0,2.21,0,.31-.08.44-.42.45-1.25.03-1.25.04-1.25-1.19,0-.7-.02-1.4,0-2.09.01-.34-.08-.51-.45-.46-.13.02-.27-.02-.41,0-.56.1-.71-.12-.71-.69,0-.57.16-.74.72-.69.58.05,1.16.01,1.75.01Z"/><path class="cls-1" d="M77.83,65.18c.93.65,1.11,1.5.49,2.2-.37.42-.88.47-1.38.5-.54.03-1.09,0-1.63.01-.3.01-.41-.08-.4-.39.01-1.41.02-2.83,0-4.24,0-.33.13-.38.41-.38.54.02,1.09,0,1.63,0,.63,0,1.15.22,1.39.84.23.61,0,1.08-.51,1.45ZM76.48,67.25c.23,0,.47.02.7,0,.46-.04.76-.27.79-.76.03-.52-.28-.78-.75-.87-.26-.05-.54-.03-.81-.03-.79,0-.79,0-.79.79q0,.9.86.88ZM76.46,63.47q-.84.01-.84.87c0,.14,0,.27,0,.41,0,.13.04.24.19.23.48-.01.97.07,1.44-.07.35-.1.48-.35.47-.7-.01-.35-.17-.61-.51-.68-.24-.05-.5-.04-.75-.05Z"/><path class="cls-1" d="M88.89,65.64c.74.59,1.07,1.41,1.6,2.17-.49.15-.81.12-1.05-.34-.22-.43-.51-.83-.78-1.22-.12-.17-.27-.34-.45-.44-.37-.22-.83-.19-1.19-.08-.29.09-.09.51-.12.79-.03.33-.02.66,0,.99.01.26-.06.39-.35.39-.3,0-.35-.12-.35-.38,0-1.42.01-2.83,0-4.25,0-.32.11-.39.4-.38.7.02,1.4,0,2.1.01.88.03,1.31.38,1.44,1.15.11.67-.23,1.19-1,1.49-.05.02-.11.05-.23.1ZM87.94,63.5s0-.01,0-.02c-.25,0-.5,0-.75,0-.11,0-.27-.03-.28.12-.02.44-.01.89,0,1.33,0,.12.12.14.22.14.56-.01,1.12.06,1.67-.05.42-.08.64-.35.64-.77,0-.43-.28-.67-.68-.73-.26-.04-.54,0-.81,0Z"/><path class="cls-1" d="M74.29,67.82c-.56.16-.86.01-1.08-.42-.2-.4-.46-.76-.72-1.13-.15-.22-.32-.44-.59-.54-.81-.3-1.19-.04-1.19.81,0,.33-.01.66,0,.99.02.29-.11.36-.38.36-.26,0-.33-.1-.33-.34,0-1.46,0-2.91,0-4.37,0-.29.15-.3.36-.3.74,0,1.48-.01,2.21.02.82.03,1.24.41,1.36,1.17.1.62-.24,1.15-.93,1.43-.09.04-.18.08-.3.13.7.6,1.07,1.4,1.58,2.19ZM71.72,63.5s0,0,0-.01c-.25,0-.5,0-.75,0-.15,0-.26.02-.26.21,0,.39,0,.77,0,1.16,0,.18.11.22.26.22.54-.02,1.08.05,1.61-.05.42-.08.66-.36.66-.76,0-.44-.28-.71-.72-.76-.27-.03-.54,0-.81,0Z"/><path class="cls-1" d="M67.22,67.89c-.48,0-.97-.01-1.45,0-.31.01-.4-.1-.4-.4.01-1.41.01-2.83,0-4.24,0-.28.08-.37.36-.37.95.01,1.9,0,2.85,0,.2,0,.38-.01.38.29,0,.34-.2.31-.42.31-.68,0-1.36.01-2.04,0-.3,0-.44.04-.44.4-.01,1.11-.03,1.1,1.08,1.1.43,0,.85,0,1.28,0,.19,0,.33.02.33.27,0,.25-.09.34-.34.33-.66-.01-1.32,0-1.98,0-.26,0-.36.06-.38.35-.07,1.34-.08,1.34,1.25,1.34.47,0,.93,0,1.4,0,.21,0,.38,0,.37.3,0,.27-.13.33-.36.32-.5,0-1.01,0-1.51,0Z"/><path class="cls-1" d="M81.55,65.39c0-.7,0-1.4,0-2.09,0-.28.04-.42.37-.41.95.02,1.9.01,2.85,0,.25,0,.34.07.34.33,0,.24-.12.28-.33.28-.7,0-1.4,0-2.09,0-.3,0-.44.04-.44.4,0,1.11-.03,1.11,1.07,1.11.43,0,.85,0,1.28,0,.19,0,.34,0,.34.26,0,.25-.08.35-.33.34-.64-.01-1.28.01-1.92,0-.31,0-.43.06-.44.4-.02,1.29-.04,1.29,1.24,1.29.48,0,.97,0,1.45,0,.21,0,.32.07.32.3,0,.21-.06.32-.3.32-1.03,0-2.06-.01-3.08,0-.32,0-.32-.18-.32-.41,0-.7,0-1.4,0-2.09Z"/><path class="cls-1" d="M62.55,67.13c.51-1.34.98-2.5,1.4-3.68.16-.47.38-.7.94-.51-.47,1.19-.95,2.38-1.42,3.57-.13.32-.28.64-.39.97-.09.27-.21.42-.53.41-.31,0-.39-.17-.48-.4-.52-1.37-1.06-2.74-1.58-4.11-.05-.14-.32-.37-.02-.47.25-.08.55-.11.68.3.29.9.63,1.79.95,2.68.13.36.26.72.45,1.25Z"/><path class="cls-1" d="M79.7,65.36c0-.68,0-1.35,0-2.03,0-.24-.02-.45.34-.45.34,0,.36.15.36.42,0,1.39,0,2.78,0,4.17,0,.26-.02.43-.36.43-.36,0-.34-.21-.34-.46,0-.7,0-1.39,0-2.09Z"/><path class="cls-1" d="M81.81,39.86c-.03.22.04.51-.2.5-.23-.02-.43-.25-.44-.53,0-.26.22-.39.42-.39.28,0,.15.29.22.42Z"/><path class="cls-1" d="M92.99,31.72c-.04.08-.08.15-.12.23,0,0,0,0,0,0,0-.09.01-.18.11-.23h0Z"/><path class="cls-1" d="M92.98,31.73s.03-.05.04-.07c0,0-.02-.01-.03-.02,0,.03,0,.05,0,.08,0,0,0,0,0,0Z"/><path class="cls-1" d="M98.78,46.61c.87,0,1.74,0,2.6.01.05.02.09.04.14.06,0-.03.02-.06.03-.09,0,0,.04-.02.04-.02.07.02.15.04.22.06.1.22-.19.31-.15.51.63.02,1.17-.24,1.69-.55.04,0,.08.02.12.03-.04.26,0,.42.33.44.6.05,1.13-.02,1.55-.5.18.02.37.04.55.06-.49.8-1.12,1.49-1.73,2.2-.13,0-.27-.02-.4-.02-.11-.2.05-.26.16-.36.2-.17.47-.27.58-.56-.67.29-1.44.37-1.97.94-2.03,0-4.05-.02-6.08-.03.78-.72,1.45-1.56,2.32-2.19Z"/><path class="cls-1" d="M48.61,57.99c-.54,0-.72-.36-.44-.85.46-.83.94-1.65,1.42-2.47.74-1.29,1.48-2.59,2.22-3.88.29-.51.7-.88,1.28-1.02.24-.06.52-.08.69.17.14.22.08.45-.05.66-1.24,2.17-2.48,4.34-3.73,6.5-.31.53-.8.83-1.38.9Z"/><path class="cls-1" d="M38.56,50.31c-.02.06-.05.19-.11.31-.38.67-.75,1.35-1.18,2-.28.43-.71.72-1.25.76-.51.04-.77-.27-.56-.72.39-.82.83-1.62,1.39-2.34.29-.37.72-.59,1.22-.59.33,0,.51.15.49.57Z"/><path class="cls-1" d="M79.73,57.98c-.47,0-.72-.29-.53-.7.41-.87.86-1.73,1.48-2.48.07-.09.17-.16.27-.21.37-.22.79-.49,1.18-.16.42.36.06.74-.13,1.09-.29.52-.6,1.04-.91,1.56-.32.53-.81.82-1.37.91Z"/><path class="cls-1" d="M106.06,49.2c-.07.96-.27,1.89-.56,2.8-.04.12-.12.27-.28.23-.16-.05-.14-.22-.13-.35.09-.97.48-1.84.98-2.69Z"/><path class="cls-1" d="M92.99,51.3c.14.51.29,1.01.41,1.5.02.08,0,.21-.05.27-.07.07-.18.01-.26-.04-.52-.29-.61-1.31-.1-1.73Z"/><path class="cls-1" d="M102.54,48.83c.53-.57,1.3-.65,1.97-.94-.11.29-.38.39-.58.56-.12.1-.28.16-.16.36-.23.03-.45.05-.66.16-.2.1-.45.21-.56-.14Z"/><path class="cls-1" d="M105.35,46.57c-.42.48-.95.55-1.55.5-.33-.03-.37-.18-.33-.44.8-.29,1.47-.82,2.23-1.19.2-.1.24-.27,0-.44-.24-.17-.49-.32-.77-.38-.76-.17-1.34-.68-2.02-1-.19-.09-.62-.28-.38-.54.22-.24.7-.53,1.03-.21.8.78,1.76,1.32,2.66,1.94.23.16.3.34.2.64-.19.55-.54.92-1.08,1.13Z"/><path class="cls-1" d="M103.34,46.59c-.52.31-1.06.57-1.69.55-.04-.19.25-.29.15-.51.01-.02.03-.03.04-.05.44-.04.75-.26.91-.68h0c.7.12,1.34-.13,1.98-.34,0,0,0,0,0,0-.48.33-1.01.58-1.39,1.04Z"/><path class="cls-1" d="M101.81,46.64c-.07-.02-.15-.04-.22-.06.14-.48.59-.61.96-.84.17-.11.13.13.21.18,0,0,0,0,0,0-.42.07-.68.36-.91.68-.02.01-.03.03-.04.05Z"/><path class="cls-1" d="M101.55,46.59s-.02.06-.03.09c-.05-.02-.09-.04-.14-.06.06-.01.11-.02.17-.03Z"/><path class="cls-1" d="M104.97,45.44c-.08.04-.16.08-.24.11,0,0,0,0,0,0,.05-.11.15-.1.24-.11h0Z"/><path class="cls-1" d="M104.98,45.45c.04-.12.15-.08.23-.12h0c-.08.03-.15.07-.23.11,0,0,0,0,0,0Z"/><path class="cls-1" d="M105.21,45.33l.02-.04s-.02.02-.03.03c0,0,0,0,0,0Z"/><path class="cls-1" d="M85.88,39.86c-.36-.04-.72-.19-.79-.63-.06-.34.42-.72.85-.69.4.03.78.16.91.57.08.23-.6.76-.97.76Z"/></g></g></svg>