<svg xmlns="http://www.w3.org/2000/svg" xmlns:xlink="http://www.w3.org/1999/xlink" viewBox="0 0 151 88"><g transform="translate(-0.025 0.725)"><g transform="translate(0 0)"><path d="M 140.128 60.633 C 142.026 61.667 142.594 63.724 141.471 65.729 C 139.766 68.742 138.023 71.73 136.293 74.717 C 135.957 75.299 135.648 75.907 135.273 76.476 C 134.214 78.093 132.755 79.011 130.767 78.998 C 128.882 78.985 127.009 78.998 125.124 78.998 C 124.621 78.998 124.065 78.998 123.665 78.727 C 123.032 78.274 122.49 78.429 121.883 78.727 C 121.393 78.972 120.824 79.011 120.269 78.998 C 118.487 78.998 116.705 78.998 114.924 78.998 C 114.188 78.998 113.465 78.998 112.806 78.636 C 112.612 78.533 112.432 78.546 112.238 78.636 C 111.515 78.972 110.74 78.998 109.952 78.998 C 104.684 78.998 99.416 78.998 94.161 78.998 C 91.127 78.998 89.513 76.334 90.92 73.631 C 91.32 72.881 91.772 72.156 92.198 71.419 C 92.599 70.708 92.599 70.708 91.824 70.708 C 90.894 70.708 89.965 70.708 89.035 70.708 C 88.738 70.708 88.376 70.773 88.144 70.63 C 87.305 70.165 87.033 70.695 86.698 71.303 C 85.768 72.971 84.813 74.614 83.844 76.256 C 82.785 78.067 81.236 79.037 79.093 79.011 C 77.311 78.985 75.529 79.089 73.747 78.985 C 70.48 78.817 67.226 79.089 63.96 79.011 C 60.68 78.947 57.387 79.076 54.108 78.972 C 50.815 78.869 47.535 79.076 44.243 79.011 C 40.963 78.947 37.671 79.011 34.391 78.985 C 33.784 78.985 33.461 79.179 33.164 79.71 C 32.118 81.598 31.021 83.447 29.949 85.323 C 29.678 85.801 29.381 86.267 28.968 86.655 C 27.367 88.207 24.965 87.974 23.79 86.086 C 22.615 84.198 21.517 82.245 20.394 80.33 C 20.368 80.292 20.33 80.24 20.33 80.201 C 20.213 78.972 19.387 78.959 18.419 78.998 C 17.037 79.063 15.655 79.024 14.287 78.998 C 13.99 78.998 13.628 79.063 13.396 78.921 C 12.35 78.313 11.381 78.52 10.31 78.895 C 9.677 79.115 8.915 78.985 8.218 78.998 C 6.707 78.998 5.21 78.998 3.699 78.998 C 0.716 78.998 -0.911 76.269 0.535 73.657 C 1.749 71.471 3.027 69.311 4.28 67.138 C 5.055 65.793 5.816 64.435 6.604 63.103 C 7.689 61.254 9.277 60.271 11.472 60.271 C 20.252 60.284 29.019 60.271 37.8 60.271 C 38.407 60.271 39 60.296 39.582 60.49 C 39.711 60.542 39.891 60.581 40.008 60.542 C 41.105 60.128 42.241 60.284 43.365 60.284 C 48.052 60.271 52.739 60.193 57.426 60.309 C 61.093 60.4 64.747 60.128 68.414 60.296 C 68.918 60.322 69.163 60.154 69.408 59.714 C 70.519 57.723 71.668 55.757 72.804 53.778 C 73.321 52.886 74.005 52.174 75.012 51.838 C 76.484 51.346 78.021 51.838 78.821 53.157 C 80.009 55.097 81.133 57.089 82.295 59.055 C 82.295 59.081 82.321 59.107 82.321 59.12 C 82.424 60.387 83.289 60.309 84.232 60.296 C 88.57 60.258 92.908 60.296 97.247 60.284 C 97.905 60.284 98.551 60.322 99.158 60.62 C 99.352 60.71 99.507 60.736 99.726 60.646 C 100.475 60.309 101.276 60.284 102.076 60.284 C 107.293 60.284 112.509 60.284 117.726 60.284 C 118.358 60.284 118.991 60.322 119.559 60.62 C 120.153 60.943 120.592 60.309 121.134 60.4 C 121.018 61.085 120.992 61.784 120.954 62.469 C 120.902 63.388 120.23 64.021 119.766 64.733 C 119.533 65.082 119.081 64.72 118.733 64.836 C 118.565 64.888 118.397 64.914 118.229 64.953 C 118.332 64.629 118.41 64.332 117.868 64.513 C 117.648 64.59 117.429 64.629 117.119 64.72 C 117.416 64.241 117.803 64.215 118.165 64.241 C 118.474 64.267 118.642 64.164 118.668 63.853 C 118.694 63.556 118.604 63.297 118.294 63.206 C 118.126 63.155 117.945 63.155 117.777 63.155 C 112.419 63.155 107.047 63.155 101.689 63.155 C 100.837 63.155 100.165 63.504 99.713 64.189 C 99.184 65.004 98.693 65.858 98.241 66.724 C 97.841 67.487 98.073 67.863 98.926 67.863 C 100.785 67.863 102.631 67.863 104.491 67.863 C 105.382 67.863 106.027 67.462 106.492 66.75 C 106.737 66.375 106.944 65.974 107.176 65.586 C 107.512 65.03 107.977 64.616 108.597 64.422 C 108.932 64.319 109.307 64.228 109.578 64.539 C 109.849 64.849 109.746 65.198 109.565 65.522 C 109.152 66.272 108.739 67.009 108.3 67.746 C 107.77 68.626 107.034 69.104 105.963 69.078 C 103.432 69.039 100.901 69.078 98.37 69.065 C 97.402 69.065 96.679 69.479 96.188 70.294 C 95.284 71.82 94.393 73.359 93.515 74.911 C 93.038 75.765 93.283 76.179 94.264 76.179 C 99.597 76.179 104.943 76.179 110.275 76.179 C 111.192 76.179 111.889 75.791 112.341 75.028 C 113.968 72.234 115.569 69.428 117.17 66.621 C 117.661 66.233 117.919 65.522 118.862 65.418 C 118.074 66.53 117.713 67.63 117.545 68.82 C 116.396 70.811 115.233 72.803 114.084 74.795 C 113.516 75.791 113.723 76.166 114.859 76.179 C 116.538 76.179 118.216 76.153 119.895 76.179 C 121.057 76.205 121.832 75.713 122.4 74.73 C 124.104 71.73 125.847 68.742 127.577 65.754 C 127.823 65.328 128.094 64.953 128.507 64.707 C 128.985 64.422 129.553 64.086 130.031 64.5 C 130.534 64.94 130.095 65.47 129.85 65.91 C 128.146 68.884 126.415 71.846 124.711 74.821 C 124.169 75.778 124.388 76.153 125.473 76.166 C 127.229 76.166 128.985 76.166 130.728 76.166 C 131.709 76.166 132.407 75.739 132.897 74.937 C 133.233 74.381 133.556 73.812 133.879 73.256 C 135.157 70.992 136.448 68.729 137.726 66.466 C 137.933 66.375 138.023 66.22 138.01 65.987 C 138.449 65.47 138.734 64.862 139.043 64.28 C 139.392 63.607 139.237 63.336 138.475 63.116 C 138.914 62.211 139.095 61.124 140.167 60.659 Z M 24.694 63.116 C 20.278 63.116 15.862 63.116 11.459 63.116 C 10.452 63.116 9.703 63.517 9.212 64.358 C 7.172 67.863 5.158 71.393 3.144 74.911 C 2.653 75.765 2.872 76.127 3.841 76.127 C 5.571 76.127 7.301 76.101 9.031 76.14 C 10.194 76.166 10.968 75.661 11.536 74.679 C 13.228 71.691 14.958 68.729 16.663 65.741 C 16.934 65.276 17.244 64.875 17.721 64.603 C 18.186 64.332 18.728 64.073 19.18 64.474 C 19.697 64.927 19.219 65.392 18.987 65.806 C 17.269 68.807 15.539 71.807 13.835 74.808 C 13.292 75.765 13.499 76.127 14.61 76.127 C 16.262 76.127 17.915 76.088 19.568 76.14 C 20.82 76.179 21.634 75.649 22.241 74.575 C 23.893 71.652 25.585 68.755 27.263 65.845 C 27.496 65.431 27.741 65.004 28.141 64.733 C 28.645 64.396 29.252 63.995 29.794 64.448 C 30.349 64.914 29.846 65.457 29.588 65.923 C 27.483 69.596 25.352 73.256 23.235 76.929 C 22.822 77.64 22.602 78.352 23.054 79.128 C 24.061 80.861 25.081 82.581 26.101 84.314 C 26.463 84.909 26.734 84.922 27.173 84.379 C 27.302 84.223 27.405 84.042 27.496 83.874 C 31.214 77.42 34.92 70.98 38.639 64.526 C 39.246 63.478 39.052 63.116 37.864 63.116 C 33.474 63.116 29.084 63.116 24.707 63.116 Z M 62.049 76.127 C 64.153 76.127 66.258 76.127 68.363 76.127 C 71.229 76.127 71.371 76.476 73.075 73.424 C 75.18 69.686 77.336 66 79.467 62.288 C 79.829 61.654 80.125 60.982 79.738 60.296 C 78.692 58.447 77.595 56.61 76.523 54.787 C 76.278 54.373 75.942 54.425 75.658 54.722 C 75.464 54.916 75.335 55.162 75.193 55.395 C 73.992 57.477 72.791 59.559 71.604 61.642 C 71.048 62.612 70.286 63.142 69.111 63.116 C 66.632 63.077 64.153 63.116 61.674 63.09 C 60.602 63.09 59.854 63.556 59.337 64.448 C 57.349 67.901 55.36 71.355 53.385 74.808 C 52.842 75.765 53.049 76.114 54.159 76.114 C 56.793 76.114 59.427 76.114 62.049 76.114 Z M 49.808 63.116 C 47.225 63.116 44.643 63.142 42.061 63.116 C 40.899 63.103 40.111 63.582 39.569 64.577 C 39.078 65.483 38.549 66.362 38.032 67.242 C 36.573 69.764 35.127 72.273 33.681 74.795 C 33.138 75.752 33.358 76.14 34.43 76.14 C 39.724 76.14 45.005 76.14 50.299 76.14 C 51.202 76.14 51.925 75.804 52.403 75.067 C 52.92 74.265 53.397 73.437 53.849 72.609 C 54.275 71.82 54.017 71.419 53.139 71.419 C 51.306 71.419 49.485 71.419 47.652 71.419 C 46.761 71.419 46.128 71.833 45.65 72.544 C 45.379 72.932 45.172 73.359 44.927 73.773 C 44.591 74.329 44.101 74.704 43.481 74.911 C 43.132 75.028 42.771 75.067 42.5 74.782 C 42.203 74.472 42.358 74.109 42.525 73.799 C 42.977 72.984 43.416 72.169 43.92 71.393 C 44.411 70.63 45.121 70.229 46.063 70.229 C 48.646 70.242 51.228 70.229 53.811 70.229 C 54.727 70.229 55.425 69.841 55.877 69.091 C 56.819 67.526 57.736 65.935 58.627 64.345 C 59.092 63.53 58.833 63.129 57.878 63.129 C 55.192 63.129 52.519 63.129 49.834 63.129 Z M 89.28 63.116 C 87.175 63.116 85.071 63.129 82.966 63.116 C 80.009 63.09 79.919 62.974 78.318 65.793 C 76.626 68.781 74.896 71.743 73.192 74.717 C 72.598 75.765 72.804 76.127 73.979 76.127 C 75.555 76.127 77.143 76.075 78.718 76.14 C 80.048 76.192 80.926 75.661 81.572 74.51 C 83.224 71.562 84.955 68.651 86.633 65.729 C 87.033 65.043 87.55 64.539 88.325 64.345 C 88.609 64.267 88.932 64.228 89.177 64.487 C 89.448 64.771 89.345 65.108 89.203 65.405 C 88.983 65.858 88.686 66.272 88.467 66.711 C 88.105 67.449 88.325 67.824 89.125 67.824 C 91.01 67.824 92.883 67.824 94.768 67.824 C 95.659 67.824 96.291 67.397 96.743 66.66 C 97.208 65.897 97.66 65.108 98.086 64.319 C 98.538 63.504 98.293 63.116 97.337 63.116 C 94.652 63.116 91.979 63.116 89.293 63.116 Z" fill="rgb(140, 140, 140)"></path><path d="M 137.985 65.961 C 137.998 66.181 137.907 66.336 137.701 66.44 C 137.287 66.414 137.145 66.207 137.197 65.793 C 137.287 65.172 137.326 64.552 137.416 63.931 C 137.507 63.323 137.081 63.297 136.668 63.194 C 136.138 63.051 136.254 63.504 136.164 63.724 C 135.777 64.694 135.505 65.716 134.963 66.634 C 134.821 66.867 134.757 67.332 134.356 67.125 C 133.982 66.944 134.253 66.608 134.369 66.349 C 134.782 65.405 135.183 64.474 135.583 63.53 C 135.635 63.413 135.815 63.271 135.583 63.168 C 135.454 63.103 135.273 63.116 135.17 63.258 C 134.95 63.556 134.731 63.866 134.524 64.177 C 134.176 64.694 133.84 65.224 133.478 65.729 C 133.336 65.935 133.143 66.155 132.859 65.948 C 132.587 65.754 132.639 65.457 132.794 65.211 C 132.897 65.043 133.052 64.914 133.181 64.746 C 133.607 64.202 134.176 63.75 134.511 63.129 C 135.299 62.211 136.112 61.318 136.745 60.284 C 137.132 60.051 137.3 59.65 137.533 59.288 C 138.152 58.318 138.14 58.266 137.262 57.516 C 136.229 56.636 135.066 55.938 134.124 54.942 C 133.84 54.632 133.362 54.567 133.013 54.826 C 131.774 55.705 130.379 56.416 129.579 57.8 C 129.411 58.098 129.14 58.318 128.856 58.537 C 128.288 58.977 127.603 59.378 127.565 60.245 C 126.441 61.06 125.576 62.146 124.569 63.077 C 124.324 63.103 124.169 63.284 124.04 63.452 C 123.355 64.345 122.348 64.733 121.367 65.172 C 120.954 65.353 120.527 65.535 120.179 65.793 C 119.753 66.117 119.598 65.948 119.546 65.25 C 119.055 66.569 118.332 67.487 118.152 68.651 C 118.126 68.833 118.1 69.091 117.855 69.104 C 117.635 69.13 117.713 68.794 117.519 68.755 C 117.687 67.578 118.048 66.466 118.836 65.353 C 117.893 65.457 117.635 66.168 117.144 66.556 C 116.757 66.582 116.667 66.362 116.757 66.039 C 116.951 65.276 117.467 64.953 118.216 64.901 C 118.384 64.862 118.565 64.849 118.72 64.784 C 119.068 64.668 119.52 65.043 119.753 64.681 C 120.218 63.97 120.889 63.323 120.941 62.418 C 120.979 61.719 121.005 61.034 121.121 60.348 C 121.522 59.831 121.083 59.301 121.147 58.757 C 121.238 57.981 120.527 58.072 120.05 57.93 C 119.843 57.865 119.649 57.723 119.469 57.593 C 119.055 57.27 118.655 56.921 118.242 56.597 C 117.054 55.653 115.879 54.851 114.188 55.227 C 113.026 55.485 111.825 55.278 110.663 54.826 C 109.862 54.515 108.945 54.515 108.08 54.425 C 107.486 54.36 107.486 54.399 107.409 53.778 C 107.383 53.61 107.241 53.623 107.125 53.597 C 106.815 53.519 106.505 53.416 106.221 53.261 C 105.73 52.989 105.485 52.692 105.846 52.135 C 105.95 51.98 106.001 51.734 105.95 51.566 C 105.627 50.441 106.337 49.833 107.073 49.251 C 107.744 48.734 108.39 48.204 108.932 47.518 C 109.849 46.367 111.089 45.914 112.522 46.057 C 113.129 46.121 113.374 45.94 113.619 45.319 C 114.123 44.026 114.82 42.797 115.479 41.556 C 115.776 40.987 116.034 40.431 115.75 39.797 C 115.647 39.564 115.776 39.486 115.918 39.383 C 115.931 39.383 115.944 39.357 115.957 39.331 C 115.944 39.357 115.905 39.37 115.918 39.396 C 115.969 39.59 115.969 39.874 116.086 39.939 C 116.77 40.327 116.344 40.87 116.305 41.336 C 116.202 42.371 116.899 43.16 117.054 44.207 C 117.803 43.379 118.487 42.642 119.146 41.892 C 119.43 41.569 119.262 41.116 119.352 40.741 C 119.43 40.431 119.469 40.107 119.624 39.81 C 119.624 40.237 119.649 40.65 119.624 41.077 C 119.598 41.388 119.817 41.245 119.933 41.297 L 119.933 41.297 C 119.869 41.711 119.74 42.086 119.52 42.461 C 119.043 43.289 119.469 44.181 119.417 45.035 C 119.404 45.281 119.494 45.565 119.391 45.772 C 119.017 46.561 119.637 46.535 119.959 46.354 C 121.573 45.449 123.471 44.983 124.621 43.341 C 125.434 42.164 126.725 41.582 127.862 40.832 C 129.94 39.448 132.135 38.31 134.718 38.271 C 137.029 38.245 139.043 39.163 140.993 40.288 C 141.226 40.431 141.471 40.56 141.703 40.689 C 141.755 40.715 141.807 40.741 141.845 40.767 C 141.845 40.715 141.82 40.65 141.807 40.599 C 141.458 39.758 141.471 38.84 141.251 37.973 C 140.877 36.473 139.986 35.218 139.108 33.977 C 138.566 33.201 138.023 32.425 137.507 31.636 C 137.339 31.39 137.042 31.08 137.171 30.834 C 137.365 30.472 137.675 31.054 137.959 30.886 C 137.959 30.912 137.985 30.937 137.985 30.963 C 137.985 30.95 137.985 30.924 137.985 30.924 C 137.972 30.924 137.946 30.912 137.933 30.899 C 137.881 30.355 137.378 30.11 137.158 29.67 C 137.042 29.45 136.784 29.217 136.926 29.01 C 137.107 28.739 137.365 29.01 137.584 29.075 C 137.933 29.166 138.23 29.45 138.708 29.385 C 138.049 28.661 137.132 28.273 136.577 27.355 C 137.339 27.316 137.843 27.82 138.591 27.872 C 137.894 27.006 137.249 26.23 136.513 25.337 C 137.313 25.337 137.778 25.88 138.475 25.945 C 138.282 25.415 137.855 25.169 137.507 24.859 C 137.158 24.535 136.719 24.277 136.538 23.721 C 137.249 23.721 137.701 24.393 138.385 24.29 C 138.346 24.38 138.411 24.406 138.475 24.406 C 138.501 24.406 138.527 24.367 138.566 24.354 C 138.501 24.341 138.449 24.315 138.385 24.303 C 138.127 23.785 137.559 23.695 137.145 23.384 C 135.66 22.272 134.253 21.069 132.949 19.75 C 132.807 19.608 132.562 19.465 132.678 19.258 C 132.833 18.974 133.078 19.233 133.259 19.284 C 133.879 19.452 134.46 19.776 135.26 19.776 C 134.473 19.103 133.775 18.521 133.078 17.926 C 132.962 17.823 132.729 17.732 132.833 17.525 C 132.949 17.306 133.143 17.461 133.298 17.5 C 133.788 17.59 134.266 17.706 134.899 17.836 C 134.421 17.318 133.891 17.112 133.44 16.814 C 133.168 16.633 132.871 16.491 132.613 16.284 C 132.419 16.129 131.993 16.012 132.148 15.702 C 132.316 15.365 132.626 15.715 132.871 15.766 C 133.207 15.831 133.517 16.012 133.956 15.999 C 133.53 15.288 132.652 14.977 132.407 14.15 C 132.884 14.02 133.246 14.408 133.711 14.331 C 133.594 13.904 133.194 13.736 132.975 13.413 C 132.833 13.193 132.445 13.076 132.523 12.779 C 132.626 12.404 133.026 12.882 133.246 12.624 C 133.259 12.08 132.626 11.899 132.471 11.421 C 132.91 11.188 133.259 11.628 133.724 11.46 C 133.259 10.903 132.82 10.373 132.303 9.739 C 133.13 9.739 133.737 10.037 134.382 10.283 C 134.563 9.623 133.84 9.209 133.917 8.511 C 134.292 8.731 134.602 8.912 134.924 9.093 C 134.963 9.196 135.054 9.274 135.131 9.196 C 135.221 9.106 135.066 9.054 135.015 8.989 C 134.873 8.731 134.718 8.472 134.563 8.213 C 134.343 7.851 134.369 7.903 134.718 7.657 C 134.976 7.476 134.924 7.127 134.873 6.829 C 134.834 6.597 134.576 6.428 134.64 6.053 C 135.26 6.648 136.009 6.222 136.719 6.467 C 137.455 6.726 138.088 5.846 137.855 5.083 C 137.752 4.76 137.933 4.566 138.101 4.346 C 138.488 3.855 138.888 3.376 139.25 2.872 C 139.366 2.704 139.521 2.691 139.663 2.613 C 140.076 2.367 140.554 2.186 140.787 1.669 C 140.851 1.514 140.916 0.531 141.458 1.475 C 141.574 1.682 141.845 1.307 142 1.139 C 142.116 1.022 142.31 0.738 142.362 0.893 C 142.749 1.837 143.24 1.048 143.511 0.906 C 144.299 0.518 145.125 0.285 145.977 0.091 C 146.339 0.013 146.765 -0.142 147.062 0.298 C 147.191 0.479 147.423 0.401 147.63 0.376 C 147.888 0.337 148.146 0.259 148.521 0.44 C 147.488 1.436 146.442 2.303 145.59 3.324 C 144.957 4.087 144.402 4.98 144.35 6.053 C 144.35 6.17 144.324 6.299 144.286 6.416 C 143.73 7.838 144.118 9.377 143.705 10.865 C 144.299 10.774 144.208 10.192 144.686 9.92 C 144.686 10.8 144.492 11.602 144.776 12.391 C 145.022 12.481 145.06 11.977 145.28 12.132 C 145.525 12.313 145.332 12.585 145.28 12.818 C 145.19 13.335 145.099 13.852 145.022 14.37 C 144.996 14.512 144.957 14.693 145.138 14.758 C 145.306 14.822 145.396 14.641 145.499 14.551 C 145.835 14.227 145.951 13.736 146.429 13.4 C 146.532 14.124 146.623 14.745 146.713 15.378 C 147.01 15.443 147.062 15.21 147.178 15.068 C 147.32 14.9 147.449 14.615 147.695 14.719 C 147.94 14.809 147.785 15.12 147.849 15.327 C 147.862 15.378 147.849 15.43 147.849 15.482 C 147.875 15.715 147.695 16.051 147.991 16.141 C 148.224 16.219 148.314 15.883 148.469 15.741 C 148.56 15.65 148.624 15.547 148.844 15.598 C 148.766 16.336 148.689 17.073 148.598 17.81 C 148.934 17.9 148.986 17.525 149.179 17.551 C 149.373 17.59 149.334 17.706 149.36 17.797 C 149.502 18.392 149.128 19.013 149.709 19.634 C 149.967 19.905 149.696 20.681 149.657 21.237 C 149.631 21.599 149.618 21.962 149.605 22.35 C 150.109 22.298 150.187 21.781 150.716 21.703 C 150.432 23.19 149.799 24.548 149.593 26.01 C 149.902 26.074 149.902 25.648 150.238 25.764 C 150.032 26.488 149.825 27.251 149.58 28.144 C 149.902 27.911 150.083 27.769 150.354 27.575 C 150.484 28.247 149.864 28.674 150.006 29.282 C 150.419 29.269 150.496 28.674 151 28.687 C 150.716 29.67 149.864 30.368 149.618 31.481 C 149.941 31.274 150.174 31.131 150.406 30.976 C 150.458 31.002 150.496 31.028 150.548 31.054 C 150.187 31.817 149.825 32.567 149.451 33.33 C 149.425 33.369 149.373 33.421 149.386 33.434 C 149.438 33.511 149.489 33.485 149.554 33.434 C 149.915 33.395 150.161 32.981 150.664 33.084 C 150.096 34.235 149.321 35.231 148.908 36.486 C 149.399 36.369 149.657 36.046 149.993 35.852 C 150.187 35.749 150.393 35.503 150.587 35.658 C 150.819 35.839 150.574 36.072 150.484 36.266 C 149.993 37.301 149.463 38.31 148.753 39.37 C 149.515 39.331 149.877 38.646 150.638 38.633 C 149.954 39.59 149.05 40.224 148.534 41.155 C 148.508 41.207 148.482 41.245 148.456 41.297 L 148.637 41.271 C 148.999 41.22 149.309 40.948 149.838 40.987 C 148.947 41.866 147.991 42.5 147.178 43.496 C 147.785 43.392 148.263 43.315 148.727 43.224 C 148.857 43.198 148.999 43.173 149.024 43.341 C 149.024 43.405 148.96 43.535 148.882 43.573 C 147.966 43.961 147.243 44.854 145.951 44.621 C 146.339 44.919 146.623 45.1 146.868 45.332 C 147.075 45.526 147.268 45.785 146.816 45.94 C 146.532 46.044 146.662 46.147 146.765 46.315 C 146.881 46.522 146.713 47.182 146.532 47.441 C 146.39 47.66 146.752 48.152 146.145 48.113 C 146.145 48.087 146.145 48.061 146.119 48.048 C 146.119 48.048 146.093 48.048 146.068 48.048 C 146.093 48.061 146.119 48.074 146.145 48.087 C 146.093 48.424 146.481 48.993 145.693 48.915 C 145.771 49.562 144.918 49.846 145.073 50.596 C 145.151 50.984 144.893 51.515 144.634 51.864 C 144.35 52.239 143.86 52.472 143.95 53.054 C 143.472 53.118 143.743 53.726 143.304 53.92 C 142.982 54.063 143.046 54.619 142.672 54.942 C 142.116 55.433 142.104 56.352 141.6 56.947 C 141.071 57.593 140.709 58.305 140.567 59.145 C 140.477 59.663 140.205 60.154 140.012 60.659 C 138.94 61.124 138.772 62.211 138.32 63.116 C 137.868 64.021 137.817 65.004 137.855 65.987 Z M 108.132 50.933 C 108.842 51.385 109.423 51.76 110.094 51.98 C 111.282 52.368 112.302 51.722 112.444 50.506 C 112.457 50.376 112.483 50.26 112.509 50.144 C 112.651 49.575 112.186 48.876 111.605 48.812 C 110.508 48.682 109.591 49.187 109.139 50.221 C 108.958 50.635 108.765 50.984 108.132 50.946 Z" fill="rgb(140, 140, 140)"></path><path d="M 56.109 84.469 C 56.109 83.564 56.109 82.658 56.109 81.753 C 56.109 81.456 56.109 81.21 56.535 81.223 C 57.813 81.249 59.092 81.197 60.37 81.3 C 61.661 81.404 62.242 82.296 62.01 83.564 C 61.958 83.835 61.894 84.159 61.661 84.288 C 60.783 84.78 61.093 85.258 61.558 85.84 C 61.907 86.293 62.113 86.849 62.41 87.34 C 62.63 87.715 62.5 87.819 62.113 87.806 C 61.661 87.793 61.209 87.78 60.757 87.806 C 60.357 87.832 60.112 87.703 59.931 87.327 C 59.66 86.771 59.337 86.228 59.014 85.685 C 58.872 85.439 58.679 85.18 58.382 85.271 C 58.11 85.349 58.252 85.659 58.239 85.866 C 58.214 86.163 58.239 86.474 58.239 86.771 C 58.227 87.961 58.382 87.793 57.194 87.806 C 56.135 87.806 56.135 87.806 56.135 86.72 C 56.135 85.969 56.135 85.219 56.135 84.456 Z M 58.808 83.81 C 59.221 83.758 59.828 83.887 59.866 83.279 C 59.905 82.684 59.35 82.723 58.924 82.71 C 58.562 82.697 58.162 82.607 58.188 83.228 C 58.201 83.667 58.304 83.9 58.795 83.81 Z" fill="rgb(140, 140, 140)"></path><path d="M 51.758 87.935 C 49.55 87.935 48.323 86.745 48.323 84.573 C 48.323 82.322 49.511 81.094 51.719 81.094 C 53.914 81.094 55.128 82.283 55.141 84.469 C 55.154 86.72 53.978 87.935 51.758 87.935 Z M 52.997 84.327 C 52.984 84.236 52.971 83.952 52.894 83.693 C 52.739 83.111 52.326 82.788 51.758 82.762 C 51.177 82.736 50.763 83.085 50.583 83.628 C 50.492 83.887 50.453 84.172 50.441 84.443 C 50.389 85.543 50.931 86.306 51.732 86.306 C 52.545 86.306 52.984 85.672 52.997 84.327 Z" fill="rgb(140, 140, 140)"></path><path d="M 72.055 87.974 C 70.403 87.948 69.576 87.496 69.176 86.383 C 68.982 85.84 68.969 85.439 69.744 85.517 C 70.015 85.543 70.299 85.491 70.571 85.452 C 70.88 85.4 71.113 85.452 71.177 85.814 C 71.242 86.099 71.449 86.306 71.707 86.409 C 72.133 86.564 72.611 86.59 72.817 86.112 C 73.063 85.556 72.559 85.426 72.185 85.31 C 71.616 85.116 71.022 84.999 70.467 84.78 C 69.615 84.43 69.202 83.758 69.254 82.982 C 69.305 82.193 69.809 81.559 70.648 81.3 C 71.552 81.029 72.482 81.029 73.385 81.288 C 73.721 81.378 74.031 81.559 74.276 81.831 C 74.586 82.18 74.883 82.607 74.728 83.046 C 74.599 83.396 74.096 83.215 73.773 83.253 C 73.308 83.318 72.779 83.46 72.546 82.775 C 72.456 82.503 72.094 82.477 71.81 82.503 C 71.591 82.516 71.332 82.581 71.319 82.878 C 71.319 83.137 71.526 83.215 71.72 83.266 C 72.249 83.422 72.791 83.525 73.321 83.693 C 74.535 84.081 75.051 84.741 74.999 85.788 C 74.948 86.875 74.263 87.638 73.088 87.884 C 72.753 87.961 72.391 87.961 72.043 88 Z" fill="rgb(140, 140, 140)"></path><path d="M 38.458 87.948 C 37.167 87.909 36.108 87.78 35.54 86.629 C 35.153 85.827 35.282 85.607 36.134 85.517 C 36.741 85.452 37.335 85.271 37.632 86.125 C 37.774 86.526 38.277 86.564 38.691 86.448 C 38.949 86.383 39.155 86.215 39.155 85.931 C 39.155 85.646 38.962 85.478 38.703 85.4 C 38.11 85.206 37.503 85.064 36.909 84.844 C 36.121 84.56 35.579 84.055 35.54 83.15 C 35.501 82.283 35.992 81.585 36.896 81.3 C 37.8 81.016 38.716 81.016 39.633 81.262 C 40.021 81.365 40.369 81.572 40.627 81.895 C 40.886 82.219 41.131 82.62 41.015 82.995 C 40.886 83.396 40.395 83.176 40.085 83.228 C 39.582 83.318 39.052 83.383 38.794 82.71 C 38.716 82.49 38.419 82.464 38.2 82.464 C 37.942 82.464 37.671 82.503 37.619 82.814 C 37.567 83.111 37.838 83.189 38.045 83.253 C 38.574 83.409 39.117 83.499 39.646 83.68 C 40.86 84.081 41.35 84.728 41.286 85.801 C 41.221 86.849 40.55 87.599 39.401 87.845 C 39.039 87.922 38.652 87.935 38.458 87.961 Z" fill="rgb(140, 140, 140)"></path><path d="M 42.125 84.521 C 42.125 83.59 42.125 82.671 42.125 81.74 C 42.125 81.482 42.099 81.21 42.487 81.223 C 43.713 81.262 44.94 81.094 46.154 81.313 C 47.225 81.507 47.69 82.128 47.703 83.279 C 47.703 84.404 47.161 85.155 46.154 85.362 C 45.908 85.413 45.663 85.426 45.405 85.439 C 44.63 85.474 44.243 85.888 44.243 86.681 C 44.243 87.819 44.243 87.819 43.081 87.806 C 41.996 87.806 42.125 87.935 42.125 86.849 C 42.125 86.073 42.125 85.297 42.125 84.521 Z M 44.256 83.292 C 44.256 83.654 44.139 84.081 44.733 84.016 C 45.147 83.965 45.586 83.887 45.586 83.37 C 45.586 82.827 45.147 82.723 44.695 82.684 C 44.152 82.646 44.269 83.034 44.256 83.292 Z" fill="rgb(140, 140, 140)"></path><path d="M 65.612 81.223 C 66.413 81.223 67.213 81.249 68.014 81.223 C 68.479 81.197 68.66 81.352 68.595 81.818 C 68.569 81.986 68.569 82.167 68.595 82.348 C 68.672 82.865 68.492 83.034 67.949 83.021 C 66.594 82.982 66.594 83.021 66.594 84.404 C 66.594 85.362 66.581 86.306 66.594 87.263 C 66.594 87.664 66.49 87.832 66.051 87.845 C 64.437 87.884 64.437 87.897 64.437 86.306 C 64.437 85.4 64.411 84.495 64.437 83.603 C 64.45 83.163 64.334 82.943 63.856 83.008 C 63.688 83.034 63.508 82.982 63.327 83.008 C 62.604 83.137 62.41 82.852 62.41 82.115 C 62.41 81.378 62.617 81.158 63.34 81.223 C 64.089 81.288 64.838 81.236 65.599 81.236 Z" fill="rgb(140, 140, 140)"></path><path d="M 100.527 84.275 C 101.727 85.116 101.96 86.215 101.159 87.121 C 100.682 87.664 100.023 87.728 99.377 87.767 C 98.68 87.806 97.97 87.767 97.273 87.78 C 96.885 87.793 96.743 87.677 96.756 87.276 C 96.769 85.452 96.782 83.616 96.756 81.792 C 96.756 81.365 96.924 81.3 97.286 81.3 C 97.983 81.326 98.693 81.3 99.39 81.3 C 100.204 81.3 100.875 81.585 101.185 82.387 C 101.482 83.176 101.185 83.784 100.527 84.262 Z M 98.783 86.952 C 99.08 86.952 99.39 86.978 99.687 86.952 C 100.281 86.901 100.669 86.603 100.707 85.969 C 100.746 85.297 100.346 84.961 99.739 84.844 C 99.403 84.78 99.042 84.805 98.693 84.805 C 97.673 84.805 97.673 84.805 97.673 85.827 C 97.673 86.603 98.043 86.983 98.783 86.965 Z M 98.758 82.064 C 98.035 82.072 97.673 82.447 97.673 83.189 C 97.673 83.37 97.673 83.538 97.673 83.719 C 97.673 83.887 97.725 84.029 97.918 84.016 C 98.538 84.004 99.171 84.107 99.778 83.926 C 100.23 83.797 100.398 83.473 100.385 83.021 C 100.372 82.568 100.165 82.232 99.726 82.141 C 99.416 82.076 99.08 82.089 98.758 82.076 Z" fill="rgb(140, 140, 140)"></path><path d="M 114.807 84.87 C 115.763 85.633 116.189 86.694 116.873 87.677 C 116.241 87.871 115.827 87.832 115.518 87.237 C 115.233 86.681 114.859 86.163 114.51 85.659 C 114.355 85.439 114.162 85.219 113.929 85.09 C 113.452 84.805 112.858 84.844 112.393 84.986 C 112.018 85.103 112.277 85.646 112.238 86.008 C 112.199 86.435 112.212 86.862 112.238 87.289 C 112.251 87.625 112.16 87.793 111.786 87.793 C 111.399 87.793 111.334 87.638 111.334 87.302 C 111.334 85.465 111.347 83.641 111.334 81.805 C 111.334 81.391 111.476 81.3 111.851 81.313 C 112.754 81.339 113.658 81.313 114.562 81.326 C 115.698 81.365 116.254 81.818 116.421 82.814 C 116.563 83.68 116.124 84.353 115.13 84.741 C 115.066 84.767 114.988 84.805 114.833 84.87 Z M 113.581 82.102 C 113.581 82.102 113.581 82.089 113.581 82.076 C 113.258 82.076 112.935 82.076 112.612 82.076 C 112.47 82.076 112.264 82.038 112.251 82.232 C 112.225 82.801 112.238 83.383 112.251 83.952 C 112.251 84.107 112.406 84.133 112.535 84.133 C 113.258 84.12 113.981 84.21 114.691 84.068 C 115.233 83.965 115.518 83.616 115.518 83.072 C 115.518 82.516 115.156 82.206 114.64 82.128 C 114.304 82.076 113.942 82.128 113.594 82.128 Z" fill="rgb(140, 140, 140)"></path><path d="M 95.956 87.69 C 95.233 87.897 94.845 87.703 94.561 87.146 C 94.303 86.629 93.967 86.163 93.632 85.685 C 93.438 85.4 93.218 85.116 92.87 84.987 C 91.824 84.598 91.333 84.935 91.333 86.034 C 91.333 86.461 91.32 86.888 91.333 87.315 C 91.359 87.69 91.191 87.78 90.843 87.78 C 90.507 87.78 90.416 87.651 90.416 87.34 C 90.416 85.452 90.416 83.577 90.416 81.688 C 90.416 81.313 90.61 81.3 90.881 81.3 C 91.837 81.3 92.792 81.288 93.735 81.326 C 94.794 81.365 95.336 81.857 95.491 82.84 C 95.62 83.641 95.181 84.327 94.29 84.689 C 94.174 84.741 94.058 84.792 93.903 84.857 C 94.807 85.633 95.284 86.668 95.943 87.69 Z M 92.637 82.102 C 92.637 82.102 92.637 82.102 92.637 82.089 C 92.315 82.089 91.992 82.089 91.669 82.089 C 91.475 82.089 91.333 82.115 91.333 82.361 C 91.333 82.865 91.333 83.357 91.333 83.861 C 91.333 84.094 91.475 84.146 91.669 84.146 C 92.366 84.12 93.063 84.21 93.748 84.081 C 94.29 83.978 94.6 83.616 94.6 83.098 C 94.6 82.529 94.238 82.18 93.67 82.115 C 93.322 82.076 92.973 82.115 92.624 82.115 Z" fill="rgb(140, 140, 140)"></path><path d="M 86.827 87.78 C 86.207 87.78 85.574 87.767 84.955 87.78 C 84.554 87.793 84.438 87.651 84.438 87.263 C 84.451 85.439 84.451 83.603 84.438 81.779 C 84.438 81.417 84.541 81.3 84.903 81.3 C 86.13 81.313 87.356 81.3 88.583 81.3 C 88.841 81.3 89.074 81.288 89.074 81.676 C 89.074 82.115 88.815 82.076 88.531 82.076 C 87.653 82.076 86.775 82.089 85.897 82.076 C 85.51 82.076 85.329 82.128 85.329 82.594 C 85.316 84.029 85.29 84.016 86.724 84.016 C 87.279 84.016 87.821 84.016 88.376 84.016 C 88.622 84.016 88.802 84.042 88.802 84.366 C 88.802 84.689 88.686 84.805 88.363 84.792 C 87.511 84.78 86.659 84.792 85.807 84.792 C 85.471 84.792 85.342 84.87 85.316 85.245 C 85.226 86.978 85.213 86.978 86.93 86.978 C 87.537 86.978 88.131 86.978 88.738 86.978 C 89.009 86.978 89.229 86.978 89.216 87.366 C 89.216 87.715 89.048 87.793 88.751 87.78 C 88.105 87.78 87.447 87.78 86.801 87.78 Z" fill="rgb(140, 140, 140)"></path><path d="M 105.33 84.547 C 105.33 83.641 105.33 82.736 105.33 81.844 C 105.33 81.482 105.382 81.3 105.808 81.313 C 107.034 81.339 108.261 81.326 109.488 81.313 C 109.81 81.313 109.927 81.404 109.927 81.74 C 109.927 82.051 109.772 82.102 109.501 82.102 C 108.597 82.102 107.693 82.102 106.802 82.102 C 106.415 82.102 106.234 82.154 106.234 82.62 C 106.234 84.055 106.195 84.055 107.615 84.055 C 108.171 84.055 108.713 84.055 109.268 84.055 C 109.513 84.055 109.707 84.055 109.707 84.392 C 109.707 84.715 109.604 84.844 109.281 84.831 C 108.455 84.818 107.628 84.844 106.802 84.831 C 106.402 84.831 106.247 84.909 106.234 85.349 C 106.208 87.017 106.182 87.017 107.835 87.017 C 108.455 87.017 109.087 87.017 109.707 87.017 C 109.978 87.017 110.12 87.108 110.12 87.405 C 110.12 87.677 110.043 87.819 109.733 87.819 C 108.403 87.819 107.073 87.806 105.756 87.819 C 105.343 87.819 105.343 87.586 105.343 87.289 C 105.343 86.383 105.343 85.478 105.343 84.586 Z" fill="rgb(140, 140, 140)"></path><path d="M 80.797 86.797 C 81.455 85.064 82.062 83.564 82.605 82.038 C 82.811 81.43 83.095 81.132 83.818 81.378 C 83.211 82.917 82.592 84.456 81.985 85.995 C 81.817 86.409 81.623 86.823 81.481 87.25 C 81.365 87.599 81.21 87.793 80.797 87.78 C 80.397 87.78 80.293 87.56 80.177 87.263 C 79.506 85.491 78.808 83.719 78.137 81.947 C 78.072 81.766 77.724 81.469 78.111 81.339 C 78.434 81.236 78.821 81.197 78.989 81.727 C 79.364 82.891 79.803 84.042 80.216 85.193 C 80.384 85.659 80.552 86.125 80.797 86.81 Z" fill="rgb(140, 140, 140)"></path><path d="M 102.941 84.508 C 102.941 83.628 102.941 82.762 102.941 81.882 C 102.941 81.572 102.915 81.3 103.38 81.3 C 103.819 81.3 103.845 81.494 103.845 81.844 C 103.845 83.641 103.845 85.439 103.845 87.237 C 103.845 87.573 103.819 87.793 103.38 87.793 C 102.915 87.793 102.941 87.521 102.941 87.198 C 102.941 86.293 102.941 85.4 102.941 84.495 Z" fill="rgb(140, 140, 140)"></path><path d="M 105.666 51.528 C 105.627 51.812 105.717 52.187 105.407 52.174 C 105.11 52.148 104.852 51.851 104.839 51.489 C 104.839 51.152 105.123 50.984 105.382 50.984 C 105.743 50.984 105.575 51.359 105.666 51.528 Z" fill="rgb(140, 140, 140)"></path><path d="M 120.101 41 C 120.05 41.103 119.998 41.194 119.946 41.297 L 119.946 41.297 C 119.946 41.181 119.959 41.064 120.088 41 L 120.088 41 Z" fill="rgb(140, 140, 140)"></path><path d="M 120.088 41.013 C 120.088 41.013 120.127 40.948 120.14 40.922 C 120.14 40.922 120.114 40.909 120.101 40.896 C 120.101 40.935 120.101 40.961 120.101 41 L 120.101 41 Z" fill="rgb(140, 140, 140)"></path><path d="M 127.577 60.258 C 128.701 60.258 129.824 60.258 130.935 60.271 C 130.999 60.296 131.051 60.322 131.115 60.348 C 131.115 60.309 131.141 60.271 131.154 60.232 L 131.206 60.206 C 131.296 60.232 131.399 60.258 131.49 60.284 C 131.619 60.568 131.244 60.684 131.296 60.943 C 132.11 60.969 132.807 60.633 133.478 60.232 C 133.53 60.232 133.582 60.258 133.633 60.271 C 133.582 60.607 133.633 60.814 134.059 60.84 C 134.834 60.904 135.518 60.814 136.061 60.193 C 136.293 60.219 136.538 60.245 136.771 60.271 C 136.138 61.305 135.325 62.198 134.537 63.116 C 134.369 63.116 134.188 63.09 134.021 63.09 C 133.879 62.831 134.085 62.754 134.227 62.624 C 134.485 62.405 134.834 62.275 134.976 61.9 C 134.111 62.275 133.117 62.379 132.432 63.116 C 129.811 63.116 127.203 63.09 124.582 63.077 C 125.589 62.146 126.454 61.06 127.577 60.245 Z" fill="rgb(140, 140, 140)"></path><path d="M 62.797 74.976 C 62.1 74.976 61.868 74.51 62.229 73.877 C 62.823 72.803 63.443 71.743 64.063 70.682 C 65.018 69.014 65.974 67.332 66.929 65.664 C 67.304 65.004 67.833 64.526 68.582 64.345 C 68.892 64.267 69.254 64.241 69.473 64.565 C 69.654 64.849 69.576 65.147 69.408 65.418 C 67.807 68.225 66.206 71.031 64.592 73.825 C 64.192 74.51 63.559 74.898 62.81 74.989 Z" fill="rgb(140, 140, 140)"></path><path d="M 49.821 65.043 C 49.795 65.121 49.756 65.289 49.679 65.444 C 49.188 66.311 48.71 67.19 48.155 68.031 C 47.794 68.587 47.238 68.962 46.541 69.014 C 45.883 69.065 45.547 68.664 45.818 68.082 C 46.322 67.022 46.89 65.987 47.613 65.056 C 47.987 64.577 48.543 64.293 49.188 64.293 C 49.614 64.293 49.847 64.487 49.821 65.03 Z" fill="rgb(140, 140, 140)"></path><path d="M 102.98 74.963 C 102.373 74.963 102.05 74.588 102.296 74.058 C 102.825 72.932 103.406 71.82 104.207 70.85 C 104.297 70.734 104.426 70.643 104.555 70.579 C 105.033 70.294 105.575 69.945 106.079 70.372 C 106.621 70.837 106.156 71.329 105.911 71.781 C 105.537 72.454 105.136 73.126 104.736 73.799 C 104.323 74.484 103.69 74.86 102.967 74.976 Z" fill="rgb(140, 140, 140)"></path><path d="M 136.977 63.607 C 136.887 64.849 136.629 66.052 136.254 67.229 C 136.203 67.384 136.099 67.578 135.893 67.526 C 135.686 67.462 135.712 67.242 135.725 67.074 C 135.841 65.819 136.345 64.694 136.99 63.594 Z" fill="rgb(140, 140, 140)"></path><path d="M 120.101 66.323 C 120.282 66.983 120.476 67.63 120.631 68.263 C 120.657 68.367 120.631 68.535 120.566 68.613 C 120.476 68.703 120.334 68.626 120.23 68.561 C 119.559 68.186 119.443 66.867 120.101 66.323 Z" fill="rgb(140, 140, 140)"></path><path d="M 132.432 63.129 C 133.117 62.392 134.111 62.288 134.976 61.913 C 134.834 62.288 134.485 62.418 134.227 62.637 C 134.072 62.767 133.866 62.844 134.021 63.103 C 133.724 63.142 133.44 63.168 133.168 63.31 C 132.91 63.439 132.587 63.582 132.445 63.129 Z" fill="rgb(140, 140, 140)"></path><path d="M 136.061 60.206 C 135.518 60.827 134.834 60.917 134.059 60.853 C 133.633 60.814 133.582 60.62 133.633 60.284 C 134.666 59.908 135.531 59.223 136.513 58.744 C 136.771 58.615 136.823 58.395 136.513 58.175 C 136.203 57.955 135.88 57.761 135.518 57.684 C 134.537 57.464 133.788 56.804 132.91 56.391 C 132.665 56.274 132.11 56.028 132.419 55.692 C 132.704 55.382 133.323 55.007 133.749 55.421 C 134.782 56.429 136.022 57.128 137.184 57.93 C 137.481 58.137 137.571 58.369 137.442 58.757 C 137.197 59.469 136.745 59.947 136.048 60.219 Z" fill="rgb(140, 140, 140)"></path><path d="M 133.465 60.232 C 132.794 60.633 132.097 60.969 131.283 60.943 C 131.232 60.697 131.606 60.568 131.477 60.284 C 131.49 60.258 131.516 60.245 131.529 60.219 C 132.097 60.167 132.497 59.883 132.704 59.339 L 132.704 59.339 C 133.607 59.495 134.434 59.171 135.26 58.9 L 135.26 58.9 C 134.64 59.326 133.956 59.65 133.465 60.245 Z" fill="rgb(140, 140, 140)"></path><path d="M 131.49 60.296 C 131.399 60.271 131.296 60.245 131.206 60.219 C 131.387 59.598 131.968 59.43 132.445 59.132 C 132.665 58.99 132.613 59.301 132.716 59.365 L 132.716 59.365 C 132.174 59.456 131.838 59.831 131.541 60.245 C 131.516 60.258 131.503 60.284 131.49 60.309 Z" fill="rgb(140, 140, 140)"></path><path d="M 131.154 60.232 C 131.154 60.232 131.128 60.309 131.115 60.348 C 131.051 60.322 130.999 60.296 130.935 60.271 C 131.012 60.258 131.077 60.245 131.154 60.232 Z" fill="rgb(140, 140, 140)"></path><path d="M 135.57 58.744 C 135.467 58.796 135.363 58.848 135.26 58.887 L 135.26 58.887 C 135.325 58.744 135.454 58.757 135.57 58.744 Z" fill="rgb(140, 140, 140)"></path><path d="M 135.583 58.757 C 135.635 58.602 135.777 58.654 135.88 58.602 L 135.88 58.602 C 135.777 58.641 135.686 58.693 135.583 58.744 L 135.583 58.744 Z" fill="rgb(140, 140, 140)"></path><path d="M 135.88 58.602 L 135.906 58.55 C 135.906 58.55 135.88 58.576 135.867 58.589 L 135.867 58.589 Z" fill="rgb(140, 140, 140)"></path><path d="M 110.921 51.528 C 110.456 51.476 109.991 51.282 109.901 50.713 C 109.823 50.273 110.443 49.782 110.998 49.82 C 111.515 49.859 112.005 50.027 112.173 50.558 C 112.277 50.855 111.399 51.54 110.921 51.54 Z" fill="rgb(140, 140, 140)"></path></g></g></svg>