<svg xmlns="http://www.w3.org/2000/svg" xmlns:xlink="http://www.w3.org/1999/xlink" viewBox="0 0 148.07 45.907" overflow="visible"><g><path d="M 33.028 8.819 L 42.818 26.581 L 47.564 26.581 L 34.849 3.568 L 31.202 3.568 L 26.894 11.365 L 29.262 15.658 Z M 18.327 0 L 14.681 0 L 0 26.581 L 4.761 26.581 L 16.506 5.251 L 28.262 26.581 L 33.008 26.581 Z" fill="rgb(140,140,140)"></path><path d="M 34.485 45.902 C 32.167 45.902 30.172 44.904 28.829 43.341 L 30.53 41.688 C 31.6 42.845 33.162 43.569 34.665 43.569 C 36.888 43.569 37.958 42.8 37.958 41.257 C 37.958 40.036 37.028 39.42 34.371 38.631 C 31.008 37.634 29.396 36.795 29.396 33.966 C 29.396 31.227 31.714 29.549 34.645 29.549 C 36.804 29.549 38.435 30.343 39.843 31.703 L 38.162 33.4 C 37.162 32.383 36.028 31.882 34.461 31.882 C 32.6 31.882 31.804 32.79 31.804 33.852 C 31.804 34.914 32.53 35.505 35.276 36.323 C 38.411 37.276 40.366 38.274 40.366 41.103 C 40.366 43.956 38.55 45.907 34.485 45.907 Z M 52.4 45.649 L 52.4 38.537 L 45.087 38.537 L 45.087 45.649 L 42.704 45.649 L 42.704 29.792 L 45.087 29.792 L 45.087 36.204 L 52.4 36.204 L 52.4 29.792 L 54.783 29.792 L 54.783 45.649 Z M 63.663 45.902 C 59.554 45.902 56.942 42.527 56.942 37.723 C 56.942 32.919 59.554 29.544 63.663 29.544 C 67.797 29.544 70.409 32.919 70.409 37.723 C 70.409 42.527 67.797 45.902 63.663 45.902 Z M 63.663 31.921 C 60.892 31.921 59.369 34.165 59.369 37.723 C 59.369 41.281 60.892 43.525 63.663 43.525 C 66.459 43.525 67.976 41.281 67.976 37.723 C 67.976 34.165 66.454 31.921 63.663 31.921 Z M 85.149 45.649 L 82.741 45.649 L 80.264 35.41 C 80.129 34.864 79.876 33.688 79.811 33.301 C 79.741 33.688 79.493 34.864 79.358 35.41 L 76.771 45.649 L 74.408 45.649 L 71.16 29.792 L 73.568 29.792 L 75.478 39.807 C 75.567 40.284 75.771 41.371 75.841 41.892 C 75.931 41.371 76.159 40.304 76.274 39.832 L 78.816 29.797 L 80.861 29.797 L 83.448 40.06 C 83.562 40.492 83.741 41.331 83.836 41.897 C 83.95 41.306 84.084 40.423 84.154 40.041 L 86.084 29.802 L 88.403 29.802 L 85.154 45.659 Z M 96.696 37.42 C 95.576 37.42 94.606 36.939 93.959 36.184 L 94.785 35.385 C 95.303 35.946 96.059 36.294 96.785 36.294 C 97.86 36.294 98.377 35.921 98.377 35.177 C 98.377 34.586 97.929 34.289 96.641 33.906 C 95.014 33.425 94.238 33.018 94.238 31.648 C 94.238 30.323 95.357 29.514 96.775 29.514 C 97.82 29.514 98.611 29.896 99.292 30.557 L 98.481 31.38 C 97.999 30.889 97.452 30.646 96.691 30.646 C 95.79 30.646 95.407 31.083 95.407 31.599 C 95.407 32.115 95.76 32.398 97.089 32.795 C 98.606 33.256 99.551 33.738 99.551 35.107 C 99.551 36.487 98.671 37.43 96.705 37.43 Z M 105.476 37.301 L 104.829 35.48 L 101.755 35.48 L 101.118 37.301 L 99.919 37.301 L 102.685 29.628 L 103.904 29.628 L 106.705 37.301 Z M 103.859 32.686 C 103.67 32.14 103.367 31.251 103.277 30.924 C 103.188 31.251 102.914 32.13 102.715 32.7 L 102.098 34.452 L 104.471 34.452 L 103.854 32.686 Z M 55.464 26.715 C 51.126 26.715 48.559 23.36 48.559 18.536 C 48.559 13.712 51.126 10.358 55.464 10.358 C 59.802 10.358 62.369 13.712 62.369 18.536 C 62.369 23.36 59.802 26.715 55.464 26.715 Z M 55.464 13.509 C 52.897 13.509 51.833 15.708 51.833 18.536 C 51.833 21.37 52.902 23.564 55.464 23.564 C 58.031 23.564 59.096 21.365 59.096 18.536 C 59.096 15.703 58.026 13.509 55.464 13.509 Z M 74.428 26.467 L 68.593 17.812 C 68.205 17.221 67.682 16.427 67.478 16.02 C 67.478 16.611 67.523 18.601 67.523 19.484 L 67.523 26.462 L 64.389 26.462 L 64.389 10.606 L 67.434 10.606 L 73.065 18.988 C 73.453 19.579 73.976 20.373 74.18 20.78 C 74.18 20.189 74.135 18.199 74.135 17.316 L 74.135 10.611 L 77.269 10.611 L 77.269 26.467 Z M 86.845 13.732 L 86.845 26.467 L 83.666 26.467 L 83.666 13.732 L 79.1 13.732 L 79.1 10.606 L 91.407 10.606 L 91.407 13.732 L 86.84 13.732 Z M 101.675 26.467 L 100.427 22.934 L 94.611 22.934 L 93.362 26.467 L 89.955 26.467 L 96.039 10.611 L 99.128 10.611 L 105.168 26.467 L 101.67 26.467 Z M 98.317 17.043 C 97.999 16.115 97.681 15.162 97.521 14.571 C 97.362 15.162 97.044 16.11 96.725 17.043 L 95.706 19.921 L 99.337 19.921 Z M 112.441 26.715 C 108.287 26.715 105.491 23.544 105.491 18.536 C 105.491 13.712 108.396 10.358 112.555 10.358 C 115.804 10.358 117.53 11.876 118.575 14.323 L 115.555 15.569 C 114.963 14.392 114.237 13.509 112.51 13.509 C 110.128 13.509 108.764 15.593 108.764 18.536 C 108.764 21.46 110.152 23.613 112.535 23.613 C 114.714 23.613 115.466 22.596 115.645 21.211 L 113.122 21.211 L 113.122 18.244 L 118.824 18.244 L 118.824 20.328 C 118.824 24.407 116.122 26.715 112.441 26.715 Z M 130.992 26.467 L 125.156 17.812 C 124.768 17.221 124.246 16.427 124.042 16.02 C 124.042 16.611 124.087 18.601 124.087 19.484 L 124.087 26.462 L 120.953 26.462 L 120.953 10.606 L 123.997 10.606 L 129.629 18.988 C 130.017 19.579 130.539 20.373 130.743 20.78 C 130.743 20.189 130.698 18.199 130.698 17.316 L 130.698 10.611 L 133.833 10.611 L 133.833 26.467 Z M 136.693 26.467 L 136.693 10.611 L 147.732 10.611 L 147.732 13.712 L 139.872 13.712 L 139.872 16.452 L 144.439 16.452 L 144.439 19.534 L 139.872 19.534 L 139.872 23.365 L 148.07 23.365 L 148.07 26.467 Z" fill="rgb(140,140,140)"></path></g></svg>