<?xml version="1.0" encoding="UTF-8"?><svg id="Calque_2" xmlns="http://www.w3.org/2000/svg" viewBox="0 0 164.89 89.23"><defs><style>.cls-1{fill:#909091;}</style></defs><g id="Calque_1-2"><g id="bQH2kG"><path class="cls-1" d="M67.35,36.92c-.94.02-1.87.02-2.81,0-.24,0-.34.07-.39.32-.22,1.33-.45,2.68-.69,4.02-.17.95-.34,1.93-.52,2.9-.19-.37-.22-.75-.37-1.1-.22-.54-.64-.21-1.01-.11,0-.09,0-.17.02-.22.32-1.8.62-3.61.95-5.43.06-.3.02-.39-.32-.37-.94.02-1.87.02-2.81,0-.26,0-.36.06-.39.34-.15.95-.34,1.91-.51,2.86-.04.22-.09.39-.41.37-.86-.04-1.72-.02-2.56,0-.28,0-.37-.04-.3-.36.19-.95.34-1.91.52-2.84.04-.21.07-.39-.26-.37-.97.02-1.97,0-2.94,0-.21,0-.3.07-.32.28-.6,3.33-1.18,6.68-1.78,10.01-.06.32.04.37.34.37.92-.02,1.83-.02,2.77,0,.28,0,.39-.07.43-.37.19-1.14.41-2.28.58-3.44.06-.28.17-.34.41-.34.86.02,1.72.02,2.56,0,.32,0,.36.09.3.36-.17.9-.36,1.78-.45,2.68-.07.54-.34.88-.77,1.18-4.75,3.33-9.49,6.66-14.24,10.01-.34.24-.6.37-.95.06-.11-.07-.28-.09-.41-.13-.75-.15-1.52-.21-1.82-1.14-.15-.51-.15-.88.3-1.12.15-.07.22-.21.26-.36.17-.56.26-1.14.17-1.74-.06-.28-.19-.47-.47-.47-.34-.02-.37-.19-.37-.47.04-.71.04-1.42-.28-2.08-.09-.24-.04-.37.09-.56.66-.99.9-2.17-.13-2.99-.13-.11-.13-.24-.11-.39.32-2.02.56-4.06.71-6.1.17-2.28.26-4.57-.06-6.83-.37-2.58-1.74-3.72-4.25-3.48-.6.06-1.16.26-1.78.41.06-.17.09-.26.11-.37.04-.49.28-.62.75-.52,1.16.21,2.34.36,3.5.52,3.95.58,7.92,1.16,11.86,1.74.51.09,1.05.06,1.52.34.47.28.95.54,1.48.69.28.07.26.17.11.39-.22.32-.24.66-.07,1.01.45.88,1.18,1.01,1.85.32.22-.22.41-.3.66-.07.28.22.58.43.88.64.24.17.52.45.77.39.86-.21,1.44.32,2.13.62.94.39,1.95.26,2.92.17.3-.02.49-.26.6-.54.09-.26.13-.52.11-.8-.02-.24.04-.37.24-.54.69-.54.75-1.27.19-1.97-.43-.52-.99-.84-1.61-1.1-.19-.07-.32-.17-.43-.36-.36-.56-.9-.84-1.53-.95-.49-.09-.97-.02-1.52-.06.15-.32.28-.58.41-.86.15-.34.06-.54-.28-.65-.52-.17-.9.04-1.29.73-.24.43-.79.64-1.24.49-.13-.04-.13-.11-.17-.21-.34-1.18-1.18-1.78-2.28-2.06-.24-.06-.37-.19-.51-.36-1.59-2.15-3.44-4.06-5.58-5.65-1.53-1.16-2.43-2.68-2.94-4.47-.56-2.04-1.82-3.44-3.87-4.08-.34-.11-.69-.19-1.09-.28.41-.69.73-1.37.73-2.15-.02-1.72-.02-3.44-.02-5.18,0-.22-.02-.45-.07-.67-.51-1.65-1.48-2.9-3.03-3.69C35.46.15,34.29,0,33.05,0c-2.77.04-4.68,1.59-5.18,4.3-.13.8-.26,1.59-.37,2.4-.02.15-.07.24-.19.32-.43.26-.65.67-.77,1.16-.04.21-.13.32-.32.43-.8.41-1.65.73-2.54.88-.8.13-1.52.45-2.06,1.05-.15.15-.3.26-.51.3-2.1.34-3.87,1.37-5.58,2.56-.67.49-1.37.86-2.23,1.05-1.27.26-2.55.36-3.86.28-1.03-.06-1.67-.47-1.89-1.48-.06-.26-.19-.56-.47-.6-.39-.06-.49-.32-.6-.6-.36-.86-.95-1.48-1.89-1.63-.71-.13-1.42-.24-2.15-.26-.32,0-.62.04-.92.11-.34.07-.73.24-.71.58.02.56-.19,1.05-.21,1.57-.02.13.02.28.07.37.15.26.07.45-.09.67-.36.52-.49,1.12-.43,1.78.04.34.02.69-.17,1.01v.69c.28.94.95,1.29,1.89,1.25.32,0,.24.24.26.43.07,1.18.13,2.36.19,3.54.19,3.37.36,6.74.54,10.11.15,2.81.32,5.61.49,8.44.36,6.16.71,12.3,1.05,18.45.19,3.29.36,6.59.56,9.86.04.6.04,1.01-.66,1.24-.6.21-1.05.73-1.05,1.42.02.69.47,1.24,1.09,1.31,1.09.17,1.14.84,1.1,1.67v.09c-.02.37.11.47.49.43.37-.04.49-.15.41-.51-.04-.22,0-.47-.04-.69-.09-.52.06-.79.62-.94.9-.24,1.44-.97,1.38-1.65-.04-.69-.65-1.29-1.59-1.44-.39-.07-.43-.26-.45-.58-.07-2.11-.17-4.23-.26-6.34-.21-5.33-.39-10.67-.62-16.02-.19-4.88-.39-9.79-.58-14.69-.13-3.14-.26-6.31-.37-9.47-.02-.77,0-1.53,0-2.32.77.51,1.53.34,2.3-.07.11-.06.19-.06.3.02,1.09.71,2.32.86,3.59.84,2.11-.04,4.19-.49,6.21-1.12.34-.11.49-.13.47.32-.02,1.57,0,3.14,0,4.73-.02,1.42-.36,2.79-1.2,3.97-.39.56-.8,1.1-1.12,1.68-1.78,3.33-1.55,8.29,2.77,11.38.26.19.37.36.36.67-.06,1.35-.09,2.69-.11,4.04,0,.3-.09.52-.26.75-.39.49-.79.99-.88,1.63-.06.41-.06.88.34,1.05.49.21.43.54.43.92-.02.17-.02.36,0,.52.02.22-.07.36-.28.39-.56.07-.6.43-.49.88.04.13.06.26.07.39.04.41.06.82.67.6,0,.36-.02.64.02.92.04.45-.04.82-.51,1.05-.22.11-.28.32-.22.58.09.51.17,1.01.24,1.52.02.17.07.37.24.37.32.04.24.22.24.41.02.88.04,1.78.04,2.66,0,.71.04,1.42-.28,2.11-.21.49-.11,1.01.22,1.44.19.24.17.47.07.73-1.16,3.91-2.32,7.84-3.48,11.77-1.05,3.56-2.1,7.11-3.16,10.69-.11.34-.06.49.3.56.36.06.71.19,1.05.28h2.96c1.09-3.54,2.17-7.09,3.24-10.65.07-.28.26-.41.45-.54,13.66-9.41,27.32-18.85,41-28.24.94-.64,1.59-1.44,2.08-2.41.06-.11.11-.22.17-.34-.07.58.3.54.69.54.86-.02,1.7-.02,2.56,0,.24,0,.34-.07.37-.32.17-1.05.36-2.08.54-3.11.41-2.26.8-4.55,1.22-6.81.04-.28.06-.45-.34-.43ZM41.43,58.11c.09.09.06.15-.04.22-.39.28-.79.54-1.24.86-.06-.36-.06-.6.04-.86.17-.45.9-.58,1.24-.22ZM39.39,57.64c.09-.04.22-.04.37-.07.09.04.24.04.32.11.15.15-.06.22-.11.32-.21.34-.21.71-.17,1.09.04.28-.04.47-.28.6-.15.07-.28.19-.41.28-.28.17-.51.52-.82.47-.56-.07-1.1-.26-1.59-.58-.15-.09-.26-.24-.07-.39.86-.71,1.7-1.44,2.77-1.82ZM29.87,42.95c1.01-.09,1.93-.47,2.88-1.09-.17,1.16-.34,2.19-.47,3.22-.07.54-.21,1.07-.43,1.55-.26.54-.32,1.1.02,1.65.09.15.06.28.04.43-.06.39.02.75.34,1.01.19.17.28,1.03.11,1.24-.6.73-.67,1.59-.71,2.45-.06,1.05-.04,2.11-.04,3.16,0,.22,0,.39-.28.52-.58.26-.67.82-.67,1.37-.02,1.12-.06,2.25,0,3.35.04.75-.24,1.48-.11,2.25.04.24-.26.54-.21.88,0,.11-.02.24.02.34.36.6,0,.86-.47,1.18-3.11,2.15-6.19,4.34-9.3,6.53-.07.04-.15.09-.28.17.02-.45.19-.82.3-1.2,2.88-9.51,5.78-19.01,8.67-28.52.09-.32.24-.47.6-.49ZM29.51,42.65c.86-2.83,1.68-5.58,2.53-8.33.04-.13.07-.28.28-.28.3,0,.6,0,.79.28.15.19.19.41.22.64.19,1.65-.07,3.28-.28,4.9-.02.24-.11.49-.09.73.06.71-.41,1.05-.95,1.33-.75.41-1.55.64-2.49.73ZM37.47,52.83c0,.37-.06.73-.13,1.1-.28,1.12.21,2.08,1.27,2.49.24.09.39.22.49.52-1.16-.47-2.3-.66-3.46-.71-.32-.02-.45-.09-.45-.45,0-.58-.3-.75-.84-.52-.19.07-.34.21-.52.28-.15.06-.3.04-.37-.13-.06-.17.07-.24.19-.3.32-.17.67-.28,1.01-.34.45-.06.58-.26.56-.69-.04-.62,0-1.24,0-1.87-.02-.9-.24-1.22-1.14-1.33-.47-.07-.43-.26-.3-.58.22-.54.66-.86,1.22-.94.77-.13,1.55-.11,2.3.06.99.21,1.59,1.07,1.5,2.06-.04.24-.17.21-.32.22q-1.05.06-.99,1.12ZM33.82,60.35c0,.19.09.37.26.51.32.24.6.97.39,1.29-.21.34-.56.52-.99.51-.37-.02-.77-.02-1.14,0-.36.04-.43-.11-.41-.43v-4.53c.04-1.38-.09-3.05.09-4.72.02-.11.02-.24.04-.36.34-1.67.49-1.61,2.13-1.38.45.06.69.34.67.82-.02.65-.02,1.31,0,1.97.02.28-.09.39-.34.43-.37.06-.73.17-1.07.34s-.47.45-.32.79c.15.34.43.43.79.28.07-.04.15-.07.22-.09.19-.07.39-.36.6-.19.21.17.11.47.11.71-.02.36-.19.64-.51.8-.3.17-.41.43-.47.75-.15.82-.07,1.67-.07,2.51ZM33.44,62.97c-.28.21-.51.21-.77,0h.77ZM33.35,50.57c-.06.26-.19.26-.39.24-.22,0-.19-.15-.21-.3,0-.21,0-.43.02-.64,0-.19-.02-.32-.22-.37-.13-.04-.21-.15-.26-.28-.09-.22-.13-.47.02-.65.15-.21.36-.06.54,0,.47.13.8.56,1.33.73-.49.34-.75.77-.82,1.27ZM31.63,62.39c0,.22-.09.28-.3.28-.19-.02-.36,0-.36-.28.02-1.35,0-2.71.02-4.06.02-.39.11-.79.62-.99,0,1.72,0,3.39.02,5.05ZM20.44,73.51c4.49-3.16,8.98-6.31,13.49-9.47.06-.04.13-.15.32-.07-4.79,3.5-9.53,6.96-14.34,10.46.04-.47.22-.71.52-.92ZM31.16,65.54c-.26.19-.36.13-.41-.15-.11-.37-.21-.77.13-1.09.21-.19.04-.34,0-.49-.17-.65-.02-.86.64-.82.3.02.58.07.86.26.51.36,1.14.24,1.59-.21.11-.11.24-.21.37-.3.37-.24.77-.43.99-.84.09-.17.26-.28.47-.22.13.06.3.11.36.22.06.13-.13.21-.22.26-1.59,1.12-3.2,2.25-4.77,3.37ZM34.9,61.85c-.13-.13-.09-.3-.11-.45-.04-.22-.04-.51-.21-.6-.58-.3-.39-.82-.41-1.29v-1.12c0-.45.06-.88.54-1.12.11-.06.26-.19.28-.32.11-.49.47-.43.8-.37.86.09,1.74.19,2.56.47.22.07.47.13.69.36-.97.43-1.78,1.05-2.56,1.7-.47.39-.43.73.07,1.07.19.13.43.22.66.32.22.09.45.15.77.26-.47.32-.88.62-1.31.92-.11.09-.19.02-.3-.04-.67-.43-.92-.39-1.48.22ZM39.49,53.11c.24.17.09.45.15.65-.02.3-.06.54-.11.8-.06.39-.24.51-.64.45-.62-.11-.64-.11-.54-.75.04-.24.07-.49.11-.73.07-.54.56-.75,1.03-.43ZM38.76,52.49c-.02.07-.02.15-.09.15-.54.02-.47.45-.52.79-.07.36-.11.71-.19,1.07-.07.39.02.69.45.75.52.07.37.43.34.71-.02.22-.19.07-.28.04-.67-.34-1.01-1.2-.79-2.04.13-.47.17-.94.09-1.4-.06-.43-.02-.67.41-.54.56,0,.69.11.58.49ZM33.31,30.65c.97-.36,1.97-.62,3.03-.47,1.23.19,2,.94,2.38,2.11.36,1.14.41,2.32.43,3.5.07,3.56-.34,7.06-.84,10.57-.04.24,0,.36.21.51.79.58.8,1.95.07,2.62-.07.09-.15.09-.24.04-1.01-.73-2.19-.6-3.31-.54-.54.02-.99-.07-1.42-.41-.32-.26-.69-.45-1.12-.43-.34.02-.43-.17-.47-.43-.04-.28-.04-.56.09-.82.54-.94.52-2,.69-3.03.28-1.72.51-3.46.75-5.18.17-1.22.19-2.43.13-3.63-.06-.97-.41-1.29-1.42-1.4.28-.92.56-1.8.82-2.69.04-.13.09-.24.22-.3ZM42.56,30.17c-.07.15-.21.06-.26.06-2.34-.34-4.64-.67-6.94-1.01-.43-.06-.86-.09-1.27-.19-.13-.02-.45.06-.34-.24.09-.24-.02-.67.51-.58.86.15,1.72.26,2.58.39,1.76.26,3.5.52,5.26.79.32.04.6.49.47.79ZM34.21,21.71c-.26-.21-.24-.58-.43-.86,1.1-.07,1.7.51,1.57,1.52-.07.65-.37,1.2-.86,1.72-.07-.45-.15-.82,0-1.24.17-.43.11-.82-.28-1.14ZM34.1,27.55c.21-.54.36-1.09.34-1.67,0-.26.19-.34.36-.43,1.29-.84,2.56-1.7,3.71-2.73.32-.28.62-.54.94-.82,1.05,1.63,2.92,2.53,4.15,4.06,1.25,1.53,2.81,2.71,4.4,3.93-.8-.11-1.63-.22-2.43-.34-2.64-.39-5.28-.79-7.92-1.18-1.1-.15-2.19-.34-3.29-.47-.26-.04-.32-.13-.24-.36ZM43.17,30.36c-.19-.02-.34-.07-.3-.28.04-.19-.19-.52.09-.52.34-.02.79-.09,1.01.28.09.19.13.39.21.67-.39-.06-.69-.11-1.01-.15ZM45.46,30.69c-.64.02-.9-.15-1.09-.75,0-.06,0-.09-.02-.15.82-.07,1.16.11,1.25.67.02.13.06.22-.15.22ZM45.83,30q.39-.02.65.79-.45.04-.65-.79ZM47.5,30.99c-.36-.04-.71-.07-.75-.54-.02-.11-.07-.22-.11-.36.82.07.94.15,1.03.71.02.15,0,.21-.17.19ZM48.34,31.12c-.45-.09-.32-.54-.49-.82.95-.13,1.57.39,2.25,1.07-.67-.09-1.22-.15-1.76-.24ZM50.77,31.38c-1.5-1.22-3.13-2.21-4.62-3.41-.64-.51-1.27-1.01-1.76-1.65-.84-1.07-1.89-1.91-2.92-2.79-.6-.51-1.2-1.05-1.67-1.7-.19-.26-.21-.45-.04-.71.58-.92,1.12-1.85,1.83-2.68.11-.13.22-.34.43-.26.15.04.15.26.17.43.07.65.37,1.14.88,1.57.73.62,1.4,1.27,2.1,1.95,1.31,1.29,2.99,2.11,4.4,3.29.51.43,1.01.9,1.53,1.29,1.07.82,1.53,1.85,1.42,3.18-.02.13-.02.26-.04.39,0,.11-.02.21.13.28.15.06.21-.06.26-.13.24-.3.54-.36.88-.21.06.02.13.04.19.06.73.28.84.49.54,1.24-.3.73-1.03,1.09-1.76.84-.71-.22-1.38-.54-1.96-.99ZM54.09,32.6c-.28.51-.71.73-1.29.9q.3-.6,1.29-.9ZM57.75,34.88c-.22-.04-.56.34-.66-.17-.19-.86-.36-1.74-.52-2.6-.02-.07-.04-.17-.06-.24-.13-.58.21-.92.79-.82.28.04.3.24.3.43.06,1.07.28,2.1.37,3.11.09.26-.04.32-.22.3ZM59.51,30.26c.37.11.71.3.95.64.09.13.24.26.19.43-.07.19-.3.06-.41.09-.69-.02-1.07-.3-1.1-.84-.02-.26.07-.41.37-.32ZM56.69,29.78c.13-.41.32-.79.64-1.09.17-.17.37-.19.54-.06.17.13-.02.26-.07.39-.13.3-.28.58-.43.88-.06.13-.11.26-.34.24-.17-.04-.43-.07-.34-.37ZM55.99,29.85c.19,0,.28.06.37.22.24.47.73.56,1.14.24.37-.26.79-.17,1.2-.17.21,0,.11.21.11.32-.02.51.13.94.62,1.12.49.21,1.03.36,1.52-.06.11-.07.15-.07.26-.04.58.24,1.1.56,1.5,1.09.39.54.32.95-.3,1.42-.13-.43-.24-.84-.47-1.24-.45-.79-1.2-.97-1.97-.49-.82.52-1.01,1.31-.51,2.06.6.88,1.48,1.07,2.38.51.09-.06.17-.11.26-.17.07.9-.11,1.12-.95,1.16-.77.04-1.53.07-2.28-.22-.3-.13-.49-.28-.51-.64-.11-1.2-.37-2.36-.43-3.56-.04-.52-.26-.73-.8-.69-.22.02-.45.07-.65.17-.3.15-.45.34-.37.71.22.95.41,1.91.6,2.88.04.15.11.3.02.49-.34-.07-.56-.3-.82-.51-.22-.15-.45-.32-.67-.49-.39-.28-.69-.3-1.05.11-.54.62-.9.52-1.31-.24.43-.19.9-.3,1.2-.67.56-.67.8-1.5.88-2.34.09-.86.22-1.03,1.05-.99ZM60.9,34.83c-.56,0-1.25-.58-1.38-1.14-.07-.39.3-.94.79-1.18.56-.28.97-.15,1.29.37.11.17.21.36.28.56.32.79-.09,1.37-.97,1.38ZM42.88,15.16c.34.52.56,1.1.73,1.7.54,1.89,1.5,3.46,3.13,4.68,2,1.5,3.74,3.29,5.28,5.28.06.07.09.17.13.26.06.06.09.11.15.17.13.24.37.26.62.34.84.21,1.52.65,1.89,1.48.09.19.15.37.15.56-.04.43-.26.58-.66.43-.47-.19-.92-.32-1.44-.11-.07-.94.04-1.89-.64-2.64-.06-.04-.09-.09-.15-.15-1.52-1.5-3.24-2.75-5.02-3.95-1.35-.9-2.45-2.13-3.65-3.2-.49-.43-.82-.88-.88-1.53-.02-.24-.06-.54-.37-.64-.32-.07-.52.11-.73.32-.6.62-1.03,1.35-1.5,2.06-.15.22-.28.47-.47.75-.24-.94-.07-1.82.09-2.66.36-1.78-.02-3.44-.56-5.11-.04-.11-.09-.24-.15-.43,1.74.22,3.09.97,4.04,2.4ZM39.28,10.89c-.21.75-.62,1.29-1.42,1.46-.84.17-1.61.06-2.19-.64q-.43-.51-.86-.02c-.88,1.01-2.69.95-3.52-.09-.09-.11-.17-.24-.24-.37-.17-.34-.15-.69-.06-1.05.17-.58.6-.06.82-.22,2.43.17,4.81.34,7.21.49.39.02.34.22.26.45ZM34.85,15.81c-.52.62-1.24.9-2.08.64-.19-.06-.37-.13-.49-.3-.71-1.01-1.7-1.74-2.53-2.62-.26-.28-.52-.54-.69-.88-.13-.26-.22-.51-.13-.8.21-.62.47-.67.9-.24.92.97,1.95,1.76,3.39,1.72.6-.02,1.12-.21,1.63-.51.32-.21.58-.28.92.02.28.28.69.34,1.18.45-.79.84-1.4,1.72-2.1,2.53ZM36.23,14.62c.28,1.09.58,2.08.62,3.13,0,.15.04.34-.15.37-.17.06-.22-.13-.3-.26-.32-.58-.64-1.16-.97-1.76-.09-.17-.13-.3.02-.47.26-.3.49-.64.79-1.01ZM28.52,10.41c.28.13.54.15.77-.11.11-.15.21-.32.34-.52.39.58.88,1.05,1.18,1.68.65,1.38,2.84,1.74,4,.73.15-.13.28-.26.45-.41.07.21.41.26.39.58h.02c.09-.09.15-.04.19.06-.06-.02-.13-.04-.19-.06,0,0-.02,0-.02.02v-.02c-.32-.11-.62-.07-.88.11-1.29.84-2.53.66-3.71-.17-.52-.37-.97-.8-1.33-1.31-.19-.28-.32-.3-.54-.06-.15.15-.3.47-.49.41-.32-.09-.52-.39-.64-.71-.17-.45.21-1.59.6-1.83.06-.04.11-.04.17,0,.39.21.54.77.3,1.14-.11.17-.24.32-.47.15-.15-.11-.26-.06-.32.07-.07.15.09.21.17.24ZM35.91,12.45s-.02-.02-.04-.02v-.02s.02.02.04.04c.69.32,1.44.37,2.19.21-.6.45-1.7.36-2.19-.21ZM38.93,10.11c-2.49-.17-4.98-.36-7.45-.51-.43-.04-.65-.21-.8-.6,1.55.11,3.07.21,4.6.32,1.22.07,2.45.17,3.67.24.21.02.45-.04.43.32-.02.37-.26.24-.45.22ZM39.13,9.25c-.43-.02-.86-.06-1.27-.07-2.41-.17-4.81-.34-7.22-.49-.22-.02-.43-.09-.45-.3-.04-.24.24-.19.39-.22.36-.07.71-.11,1.07-.15.86.02,1.68.28,2.53.39,1.52.21,3.03.32,4.57.39.15,0,.28.02.43.02.19.02.21.15.21.28,0,.17-.13.17-.24.15ZM37.26,1.5c.22.15.34.34.39.6.26,1.25.24,2.53.17,3.8-.02.36-.86.79-1.16.6-.11-.06-.07-.17-.07-.26s-.02-.21.11-.22c.07-.02.17-.04.24-.02.51.09.64-.11.62-.6-.02-.43-.07-.66-.56-.58-.34.07-.47-.09-.43-.43.09-.64-.39-.37-.67-.43-.36-.06-.49.09-.41.43.06.39-.13.51-.49.43-.51-.09-.49.22-.49.58s-.04.69.49.6c.11-.02.22,0,.34.02.19.02.13.15.13.26,0,.13-.09.17-.19.15-.41-.07-.8-.15-1.22-.21-.13-.02-.15-.09-.17-.21-.06-1.97-1.16-3.46-2.3-4.9-.09-.13-.21-.22-.3-.36-.02-.02,0-.06-.02-.13,2.11-.51,4.14-.37,5.99.88ZM30.37,1.01c.32-.19.52-.21.8.13.82,1.03,1.59,2.08,2.08,3.31.21.54.34,1.1.3,1.68-.02.24,0,.36.28.39.54.06,1.09.17,1.65.26.22.06.34-.02.3-.26-.02-.11-.02-.24,0-.36.06-.39-.04-.62-.51-.54-.17.02-.41.11-.41-.22,0-.36.24-.28.41-.26.45.07.56-.11.51-.52-.02-.15-.07-.36.21-.36.3-.02.26.17.26.36-.04.39.06.62.52.54.17-.04.41-.11.43.22s-.24.28-.41.24c-.49-.07-.56.15-.54.58.04.77.02.77.79.62.19-.04.36-.07.52-.13.37-.11.56-.32.6-.77.09-1.22.09-2.41-.07-3.63.73.84,1.29,1.76,1.29,2.94,0,.95-.02,1.93,0,2.9,0,.28-.07.36-.36.34-2.02-.11-4.04-.21-6.01-.62-.95-.21-1.89-.22-2.83.04-.22.07-.34.06-.49-.13-.49-.65-.92-1.37-1.55-1.91-.07-.07-.09-.17-.07-.26.07-1.87.62-3.52,2.3-4.59ZM27.87,6.14c.21.04.32.19.41.32.79,1.03,1.53,2.08,2.32,3.11.22.28.02.52,0,.9-.32-.41-.56-.71-.82-1.03-.54-.69-1.05-1.38-1.61-2.04-.34-.39-.37-.77-.3-1.25ZM27.79,7.56c.82.67.82.82.06,1.76-.11-.6-.11-1.18-.06-1.76ZM27.49,7.34c-.26,1.18.11,2.19.21,3.24.04.39.32.71.64.95.13.09.28.19.24.39-.09.54.19.97.52,1.38.43.54.95,1.03,1.48,1.5.6.56,1.16,1.14,1.68,1.91-.64-.22-.99-.62-1.24-1.1-.13-.28-.32-.39-.6-.49-1.25-.36-2.08-1.2-2.64-2.34-.6-1.22-.86-2.55-.97-3.87-.07-.67.15-1.12.67-1.57ZM22.12,10.89c1.12-.26,2.08-.26,3.05.28.64.37.97.88.97,1.68-.02,2.6-.24,5.2-.64,7.77-.06.34-.13.58-.54.66-.8.13-1.37.62-1.61,1.42-.17.51-.34,1.01-.47,1.53-.06.22-.13.28-.36.24-1.14-.15-1.2-.22-.95-1.33.19-.84.45-1.67.71-2.49.58-1.8,1.03-3.61,1.18-5.5.02-.34,0-.65-.02-.99-.04-.47-.21-.56-.65-.39-.04.02-.09.02-.13.04-1.1.82-2.32.88-3.61.69-1.29-.19-2.58-.32-3.95-.32,2.11-1.72,4.45-2.69,7.02-3.29ZM7.62,14.41c.22.17.37.3.56.41.15.11.36.17.3.43-.06.19-.21.24-.37.24-.24,0-.45-.07-.52-.34-.04-.24-.04-.49.04-.75ZM6.55,12.88c.36.02.67.13.69.64-.51-.02-1.01,0-1.48.09-.11.02-.21.04-.26-.09-.04-.09-.04-.19.04-.26.26-.32.62-.39,1.01-.37ZM4.42,10.72c.92.15,1.46.73,1.8,1.55.07.17.07.26-.13.3-.02,0-.04,0-.04.02-.49.3-.9.26-1.2-.28-.04-.07-.09-.15-.17-.17-.67-.3-1.01-.84-1.2-1.53.3.04.62.07.94.11ZM1.31,10.72c.77-.56,1.83-.19,2.13.77-.71-.17-1.4-.34-2.13-.15-.11.04-.19-.04-.21-.15-.02-.19.04-.34.21-.47ZM1.37,11.7c.28-.11.58-.11.86-.07,1.05.09,2,.39,2.66,1.27-1.1-.3-2.19-.19-3.28-.02-.28.06-.58.13-.64-.28-.06-.39-.04-.73.39-.9ZM2.45,17.44c0-.19-.02-.32-.28-.36-.36-.06-.43-.28-.22-.58.04-.06.09-.09.13-.15.52-.47,1.2-.47,1.76-.69.36.09.64.13.92.24.3.11.56.28.54.67-.02.37-.26.65-.6.65-.75.02-.69.49-.67.99.02.9,0,1.82.02,2.71.02.24-.06.32-.3.36-1.12.22-1.12.24-1.18-.92-.04-.97-.07-1.95-.11-2.94ZM2.75,23.69c.02-.28,0-.54,0-.82-.13-1.03-.13-1.01.92-1.22.37-.07.47.02.43.37-.02.15.02.32.02.49q.04,1.09-1.03,1.4c-.22.06-.34.06-.34-.22ZM2.84,24.8c-.04-.32.06-.47.36-.58.94-.32.94-.34,1.01.64.02.17.02.36.02.54q.06,1.27-1.27,1.68c-.04-.79-.06-1.53-.11-2.28ZM2.98,27.64c-.02-.26.24-.26.39-.32q.94-.39.97.6v.51q.04,1.22-1.22,1.67c-.06-.82-.11-1.65-.15-2.45ZM5.91,74.84c-.15-.47-.17-.94-.19-1.4,0-.07.04-.13.11-.13.07-.02.15.02.15.09-.02.47.09.95-.07,1.44ZM6.36,71v-.02s.02-.06,0-.09c-.06-.75-.04-.77.67-.49.47.19.9.47.94,1.03.06.56-.34.9-.79,1.14-.92.49-1.87.54-2.83.09-.54-.26-.8-.71-.71-1.16.07-.45.79-1.07,1.22-1.1.17-.04.17.06.17.15.04.21.07.43.06.64-.04.51.17.67.65.64.52-.04.66-.17.62-.82ZM5.15,48.98c.21,5.48.43,10.97.66,16.45.07,1.63.13,3.24.19,4.87h.04c0,.28-.02.56,0,.82s-.07.37-.32.37c-.28.02-.28-.17-.28-.36-.09-1.7-.21-3.42-.3-5.15-.22-4.08-.45-8.18-.67-12.26-.3-5.28-.6-10.54-.9-15.81-.02-.34-.02-.69-.07-1.03-.04-.32.07-.45.39-.51q.79-.17.8.65c.17,3.99.3,7.97.47,11.94ZM4.64,35.65c0,.21-.09.28-.28.3-.3.04-.58.11-.9.17-.04-.64-.07-1.25-.11-1.87-.02-.17.02-.3.21-.39.32-.15.62-.34,1.07-.62,0,.9,0,1.65.02,2.41ZM4.51,32.49c.02.32-.75,1.05-1.07,1.01-.19-.02-.11-.17-.13-.28-.11-.73-.02-1.5-.15-2.23-.13-.41.11-.56.43-.71.84-.39.82-.41.84.54.02.56.06,1.1.07,1.67ZM17.22,49.48c.06-.47.28-.86.6-1.22.39-.45.54-.94.54-1.55,0-1.31.07-2.62.11-3.93.02-.3-.06-.47-.32-.65-2.25-1.55-3.65-3.65-3.82-6.44-.11-1.82.15-3.63,1.29-5.09,1.63-2.04,2.19-4.29,2.02-6.83-.09-1.37-.02-2.75-.02-4.15-1.46.49-2.92.88-4.4,1.12-1.65.26-3.29.45-4.92-.04-.49-.13-.88-.52-1.31-.64-.41-.11-.82.37-1.31.45-.73.11-1.5-.47-1.37-1.2.04-.19.02-.39.02-.6-.04-.58-.11-1.12.73-1.25.37-.07.56-.47.56-.88.02-.41-.19-.69-.52-.88-.21-.11-.41-.21-.64-.24-.19-.02-.28-.06-.17-.28.06-.13.09-.32-.06-.39-.17-.06-.24.09-.28.26-.02.17-.17.22-.3.28-.26.09-.52.19-.8.26-.41.13-.84.28-1.14.64-.37.45-.3.9.21,1.18.13.07.21.13.19.28-.02.21-.17.17-.3.17-.99.07-1.48-.41-1.4-1.4.06-1.03.67-1.63,1.72-1.67.15-.02.47.15.43-.19-.02-.22-.3-.15-.49-.15-.58.04-1.07.26-1.52.62-.17-.99.36-1.74,1.31-1.89.86-.13,1.72-.22,2.58.02.69.19.88.47.8,1.16,0,.13-.04.22.11.26.19.06.22-.07.22-.17-.06-.56.32-.54.69-.58.36-.04.69-.02,1.07.04-.04.36-.19.69-.17,1.05.04.64.51,1.01,1.1.88.22-.04.45-.17.49-.41.04-.43.28-.39.6-.37,1.37.09,2.73.07,4.1-.32,1.22-.34,2.47-.21,3.71-.09.86.07,1.7.15,2.55.28.99.15,1.89-.06,2.73-.58.66-.39.67-.37.69.41,0,1.31-.37,2.56-.64,3.84-.34,1.67-1.07,3.22-1.37,4.9-.17.84-.09.99.73,1.22,0,0,.02,0,.04.02,1.09.28,1.12.26,1.4-.8.07-.24.17-.49.22-.75.26-1.01.9-1.57,1.93-1.67.3-.02.26-.19.28-.36.34-2.13.66-4.29.67-6.46,0-.69,0-1.4.04-2.11.02-.58-.22-1.05-.67-1.38-.71-.56-1.53-.82-2.41-.94-.36-.06-.65.19-.99.22-.06.06-.11.09-.21.04.06-.04.09-.09.13-.13.34-.26.71-.43,1.1-.51,1.07-.17,2.08-.49,3.05-1.01.11,1.1.28,2.17.65,3.18.6,1.63,1.53,2.94,3.31,3.42.11.04.19.11.24.21,1.29,1.85,2.79,2.06,4.45.58.32.6.66,1.18.97,1.76.15.28.34.56.71.45.41-.11.37-.47.37-.77-.02-.92-.26-1.82-.49-2.69-.22-.8.24-1.59,1.07-1.8.06-.02.11-.04.19-.06.58-.21.56-.21.79.43.69,1.83.69,3.71.36,5.61-.13.65-.15,1.33.04,1.98.07.28-.06.45-.21.62-.79.88-1.74,1.59-2.71,2.28-.54.37-1.1.75-1.7,1.14-.09-.39-.02-.64.24-.92.6-.64.97-1.38.94-2.3-.06-.92-.62-1.5-1.55-1.5-.34-.02-.6-.06-.84-.34-.45-.51-.77-.49-1.23,0-1.09,1.09-1.65,2.47-2.1,3.89-.26.8-.45,1.61-.65,2.43-.06.21-.11.34-.37.32-.39,0-.69.24-.88.56-.37.64-.8,1.25-.95,1.98-.04.17-.07.36-.13.52-.09.19-.15.43-.43.39-.26-.04-.36-.24-.41-.45-.07-.32-.06-.62.17-.88.39-.47.73-.97.94-1.55.13-.39.04-.6-.37-.67-2.11-.41-4.19-1.01-6.19-1.83-.21-.09-.32-.09-.34.15-.28,2.19-1.55,3.82-3.03,5.31-.45.45-.9.92-1.33,1.38-.56.64-.56,1.31,0,1.95.66.69,1.5,1.1,2.36,1.48.58.26,1.18.49,1.78.71.54.22.69.47.62,1.07-.06.51-.19.97-.39,1.42-1.14,2.41-1.29,5.02-1.4,7.64-.02.56-.02,1.14-.06,1.72-.02.32.09.37.37.36.39-.02.8.02,1.18-.02.84-.06,1.65.04,2.3.62-.11.09-.28.04-.43.04-.73,0-1.46.02-2.17,0-.43-.04-.73.04-.9.51-.19.52-.6.86-1.12,1.01-.62.19-.95-.09-.88-.75ZM26.05,31.61c-1.29.19-2.38-.32-3.39-1.03-.39-.28-.82-.28-1.27-.32-.39-.04-.8-.02-1.22,0-.15,0-.39-.11-.37.17.02.28.24.17.41.15.24-.02.49-.04.84.04-.54.41-1.01.8-1.42,1.25-.04.06-.17.06-.26.06-.9,0-1.44.54-1.91,1.22-.13.22-.11.45.09.62.17.15.34.32.54.41.75.43,1.12.3,1.53-.45.24-.47.52-.94.32-1.5-.06-.11.02-.17.09-.24.41-.49.9-.92,1.5-1.18.24-.09.51-.13.71-.02,1.2.67,2.45,1.29,3.37,2.34.9,1.01,1.16,2.11.75,3.46-1.12,3.72-2.21,7.45-3.31,11.19-.15.52-.39.6-.79.21-.21-.19-.41-.22-.66-.22h-2.08c-.21,0-.34-.02-.34-.28.17-2.64.04-5.3.99-7.8.32-.84.67-1.65.84-2.53.17-.9-.06-1.29-.92-1.61-.97-.37-1.93-.75-2.83-1.27-.39-.22-.77-.49-1.07-.84-.47-.54-.49-.9,0-1.42.75-.82,1.53-1.61,2.28-2.45,1.03-1.14,1.78-2.45,2.08-4,.06-.28.17-.24.37-.17,1.82.73,3.71,1.27,5.63,1.65.3.06.37.19.24.47-.24.45-.52.88-.82,1.27-.37.49-.37,1.09-.02,1.55.34.45.9.43,1.16-.06.11-.19.19-.41.22-.64.15-.75.58-1.37.92-2,.07-.11.17-.21.26-.3.13-.11.3-.21.45-.13.17.09.02.26-.02.39-.67,2.28-1.33,4.57-1.98,6.83-.04.07-.06.17-.17.21-.26-1.09-.99-1.83-1.87-2.6.43-.04.79.04,1.12-.07.11-.04.24-.02.22-.19-.02-.17-.15-.15-.26-.15ZM19.67,32.77c-.11.43-.36.8-.56,1.18-.07.11-.19.15-.3.11-.15-.04-.28-.07-.43-.13-.73-.3-.77-.6-.19-1.12.3-.28.64-.51,1.09-.54.3.02.49.15.39.51ZM22.89,49.74v-.17c.07.07.04.13,0,.17ZM22.87,49.91c-.06.22-.11.45-.17.65-.04-.24.02-.47.17-.65ZM21.47,51.99c-.32,0-.65.02-.97,0-.3-.02-.43.09-.41.39v.06c0,1.07-.06.92.86.94.15,0,.37-.13.41.11.04.22-.19.22-.36.24-.49.09-.88.37-1.31.58-.58.3-1.03.75-1.67,1.07,0-.17-.02-.26-.02-.36q-.02-.99.94-1.31c.13-.06.26-.07.34-.19.13-.17.15-1.57.04-1.74-.09-.15-.22-.17-.37-.09-.21.07-.43.15-.66.22-.09.02-.24.21-.32-.02-.04-.13-.04-.3.15-.37.45-.17.92-.37,1.42-.22.64.19,1.29.3,1.97.34.13.02.36-.04.36.17,0,.24-.24.19-.39.19ZM21.65,52.51c-.04.21,0,.52-.37.51-.15-.02-.3,0-.45,0-.22,0-.43.04-.43-.34s.19-.37.45-.36h.21c.07,0,.17-.02.24,0,.13.04.41-.13.36.19ZM19,60.62c-.51-.11-.69.11-.69.62v1.03c0,.17,0,.34-.28.37v-2.26c0-.6-.02-1.2-.04-1.82,0-.22,0-.45.32-.6,0,.58.02,1.12,0,1.67-.02.32.09.43.39.39.11-.02.22-.02.34,0,.13.02.41-.11.36.17-.04.15.06.54-.39.43ZM19.09,61.29c-.11.39-.24.77-.36,1.16-.04,0-.06-.02-.09-.02v-1.22c0-.22.11-.28.3-.26.24.04.19.19.15.34ZM18.81,59.68c-.24.02-.17-.19-.17-.32,0-.28.04-.56,0-.84-.09-.64.13-1.1.58-1.57.37-.37.73-.51,1.25-.37-.3.99-.56,1.98-.88,2.96-.13.36-.52.13-.79.15ZM20.02,56.12c.22-.26.07-.86.71-.69-.06.73-.11.79-.71.69ZM20.02,55.1c-.19-.17-.19-.37,0-.56.32-.32.69-.45,1.18-.45-.07.26-.13.51-.21.73-.07.21-.82.43-.97.28ZM21.69,51.32c-.49-.07-.99-.06-1.46-.21-.77-.24-1.5-.26-2.25.09-.11-.37-.02-.56.34-.67.6-.17,1.01-.6,1.25-1.16.13-.28.28-.34.56-.34.71.02,1.44.02,2.15,0,.3,0,.43.02.3.37-.19.52-.32,1.07-.47,1.59-.06.26-.17.37-.43.32ZM17.33,53.6c-.04-.34-.51-.82.21-1.05.49-.13.95-.34,1.46-.52.07,1.29.07,1.31-1.12,1.65-.17.04-.51.37-.54-.07ZM17.52,58.2c-.11-.58-.17-1.03-.26-1.48-.04-.21.04-.32.21-.45.58-.41,1.16-.84,1.72-1.29.21-.17.28-.13.43.09.26.43.22.73-.17,1.09-.66.62-1.24,1.31-1.93,2.04ZM18.19,63.07c.07-.07.19-.17.3-.11.13.09.04.21,0,.32-.15.56-.34,1.14-.52,1.78-.45-.66-.32-1.57.22-1.98ZM12.15,88.33c-.06.22-.02.47-.43.36-.45-.13-.28-.36-.21-.58,2.08-7.06,4.15-14.11,6.25-21.15,1.52-5.13,3.05-10.26,4.59-15.4.09-.32.07-.69.36-.95-1.03,3.67-2.06,7.34-3.09,11-2.49,8.91-4.98,17.82-7.47,26.72ZM15.25,88.44c-.11.37-.28.49-.66.47-.58-.06-1.18-.07-1.76-.07-.37.02-.47-.07-.36-.45.67-2.34,1.33-4.68,1.96-7,4.32-15.51,8.63-31.01,12.93-46.51.94-3.42,1.83-6.85,2.77-10.27.37-1.38.92-2.69,1.8-3.84.64-.8.95-.79,1.48.09.45.79.56,1.65.64,2.51.06.51.02,1.01.02,1.35.22,1.93-.52,3.48-1.01,5.09-4.38,14.45-8.78,28.9-13.18,43.34-1.55,5.09-3.11,10.2-4.64,15.29ZM60.13,49.29c-13.51,9.36-27.04,18.66-40.57,27.98-.19.13-.39.26-.67.45.26-.9.51-1.68.73-2.45.07-.24.26-.34.43-.47,5.39-3.93,10.8-7.88,16.19-11.83,6.76-4.94,13.53-9.86,20.29-14.82,1.82-1.33,3.44-2.88,4.96-4.55.19-.21.37-.52.65-.45.3.07.26.45.28.71.19,2.21-.45,4.15-2.28,5.43Z"/><path class="cls-1" d="M112.53,52.68c-.47-.11-.95-.17-1.46-.19-1.83-.09-3.67-.02-5.5-.06-.34,0-.47.11-.52.43-.56,3.29-1.14,6.61-1.74,9.92-.06.34.07.34.32.34h2.77c.26.02.39-.06.45-.36.15-1.01.34-2,.52-2.99.02-.17.02-.37.3-.36.45.02.92-.02,1.37.04.92.11,1.1.37,1.03,1.31,0,.11-.04.24-.06.37-.07.56-.17,1.1-.15,1.67,0,.22.06.32.3.32h3.01c.3,0,.36-.17.19-.37-.21-.22-.15-.45-.11-.69.06-.43.13-.86.22-1.31.26-1.44.09-1.83-1.12-2.58,0-.02,0-.04-.02-.09,1.2-.56,1.76-1.25,2.04-2.49.34-1.59-.24-2.53-1.83-2.9ZM110.27,56.91c-.13.04-.28.09-.43.09-.3.04-.62.04-.92.06q-1.1-.02-.9-1.09t1.22-1.01c.28,0,.56-.02.84.02.56.06.9.34.95.75.07.51-.24.99-.77,1.18Z"/><path class="cls-1" d="M127.8,42.56c1.59-.65,2.17-1.85,2.19-3.41,0-.9-.43-1.48-1.25-1.82-.6-.26-1.22-.37-1.85-.37-1.97-.04-3.91-.02-5.86-.04-.28,0-.37.11-.41.36-.58,3.31-1.16,6.64-1.76,9.96-.04.24-.02.36.28.36.95-.02,1.93-.02,2.9,0,.26,0,.32-.11.36-.34.15-1.01.34-2,.52-3.01.04-.15-.02-.41.3-.39.56.02,1.12-.02,1.67.09.52.09.77.37.77.92,0,.22-.04.47-.07.69-.06.52-.15,1.07-.19,1.61-.02.19-.06.43.3.43,1.01-.02,2.04-.02,3.05,0,.28,0,.36-.21.21-.34-.28-.28-.17-.58-.13-.88.06-.45.17-.9.24-1.35.21-1.35,0-1.8-1.25-2.47ZM125.95,41.3c-.47.22-.99.19-1.5.19q-1.05,0-.88-1.03t1.24-1.05c.32,0,.65-.02.97.04.43.09.75.28.82.73.06.47-.21.92-.66,1.12Z"/><path class="cls-1" d="M140.64,38.48c-.95-1.42-2.41-1.82-3.59-1.85-1.89,0-3.26.39-4.44,1.27-1.91,1.42-2.71,3.42-2.68,5.73.04,2.25,1.18,3.61,3.16,4.06,3.8.86,7.35-1.44,8.08-5.26.26-1.37.24-2.73-.54-3.95ZM136.82,44.37c-.49.69-1.24.94-2.08.82-.65-.09-1.09-.56-1.22-1.35-.04-.3-.06-.58-.07-.88.06-.92.28-1.78.77-2.56.39-.64.92-1.07,1.68-1.12,1.03-.09,1.7.39,1.83,1.4.17,1.35-.13,2.58-.92,3.69Z"/><path class="cls-1" d="M101.88,53.34c-.95-.9-2.13-1.16-3.41-1.14-1.53,0-2.84.39-3.93,1.18-2.06,1.52-2.86,3.63-2.75,6.1.11,2.13,1.35,3.44,3.42,3.84,1.03.19,2.06.13,3.07-.15,2.77-.75,4.75-3.24,4.88-6.1.06-1.42-.21-2.71-1.29-3.72ZM99.62,56.93c-.04,1.09-.28,2.11-.94,2.99-.51.67-1.18.92-1.98.84-.6-.06-1.05-.37-1.2-.95-.43-1.61-.09-3.09.97-4.36.36-.43.88-.64,1.44-.66.92-.04,1.59.58,1.7,1.55.02.19,0,.39,0,.58Z"/><path class="cls-1" d="M153.11,36.93c-.38,2.15-.71,4.26-1.15,6.34-.65,3.11-2.34,4.49-5.53,4.6-.74.03-1.48-.02-2.2-.18-1.75-.37-2.58-1.39-2.6-3.18-.02-1.42.37-2.79.59-4.18.16-1,.38-2,.53-3,.05-.35.2-.41.51-.41.89.02,1.77.02,2.66,0,.35,0,.44.07.37.44-.38,2.04-.73,4.09-1.09,6.14-.03.16-.05.33-.05.49,0,.77.39,1.19,1.16,1.23,1.18.06,1.85-.43,2.09-1.68.39-2.01.74-4.03,1.08-6.05.07-.43.19-.6.67-.58.98.05,1.96.01,2.97.01Z"/><path class="cls-1" d="M113.78,36.98c-.12.71-.26,1.42-.36,2.13-.04.3-.21.31-.44.31-1.46,0-2.92.01-4.38-.01-.36,0-.5.1-.51.45-.02.34-.24.79-.1.98.17.22.64.06.99.07.97,0,1.94.02,2.9,0,.35,0,.42.12.36.42-.11.59-.22,1.19-.31,1.79-.04.26-.17.33-.42.33-1.21-.01-2.43,0-3.64-.01-.31,0-.45.08-.46.4,0,.21-.06.42-.1.63q-.11.61.49.61c1.44,0,2.89.02,4.33,0,.41,0,.47.12.39.48-.13.59-.24,1.19-.33,1.79-.03.2-.11.26-.31.26-2.79,0-5.58,0-8.37,0-.43,0-.23-.28-.2-.43.3-1.74.61-3.48.92-5.23.28-1.56.56-3.13.83-4.69.04-.21.08-.31.32-.31,2.76,0,5.51,0,8.27,0,.05,0,.09.03.15.04Z"/><path class="cls-1" d="M126.08,59.81c.28,0,.56,0,.84,0,.45-.02.9-.08,1.01.56.04.24.32.38.56.45.6.17,1.2.15,1.77-.13.27-.13.44-.34.43-.66-.02-.31-.24-.44-.49-.55-.73-.3-1.51-.44-2.26-.66-.46-.13-.91-.28-1.32-.52-1.03-.59-1.45-1.48-1.24-2.65.23-1.29.92-2.22,2.1-2.79,1.56-.75,3.19-.87,4.84-.46,1.4.35,2.17,1.37,2.28,2.8.02.28-.06.38-.35.37-.89-.01-1.77-.01-2.66,0-.21,0-.3-.05-.38-.27-.26-.69-1.77-.9-2.25-.33-.26.31-.18.67.23.89.45.24.95.34,1.44.48.79.22,1.59.39,2.31.8,1.03.58,1.4,1.43,1.2,2.6-.24,1.38-1,2.38-2.26,2.96-1.76.8-3.59,1-5.45.33-1.32-.48-2.09-1.6-2.06-2.82,0-.29.08-.42.39-.4.44.02.89,0,1.33,0Z"/><path class="cls-1" d="M72.32,59.81c.28,0,.56,0,.84,0,.44,0,.92-.13,1.03.55.04.23.31.37.55.45.6.19,1.2.15,1.77-.12.27-.13.45-.34.44-.65,0-.31-.24-.44-.49-.55-.73-.3-1.51-.44-2.26-.67-.27-.08-.54-.16-.79-.26-1.63-.66-2.18-1.84-1.64-3.51.24-.76.68-1.39,1.35-1.82,1.82-1.17,3.78-1.33,5.8-.69,1.18.37,1.86,1.45,1.89,2.68,0,.26-.04.38-.34.38-.89-.02-1.77,0-2.66,0-.17,0-.32,0-.36-.23-.05-.38-.34-.54-.68-.62-.39-.09-.78-.09-1.17.02-.29.08-.51.23-.54.56-.04.35.19.51.46.62.67.28,1.38.42,2.07.62.53.16,1.07.32,1.56.59.98.54,1.39,1.34,1.25,2.44-.18,1.37-.86,2.4-2.09,3.03-1.7.87-3.5,1.08-5.35.54-1.5-.44-2.37-1.57-2.35-2.91,0-.3.06-.45.41-.43.42.03.85,0,1.28,0Z"/><path class="cls-1" d="M89.62,52.64c-.32-.07-.64-.13-.97-.15-1.83-.11-3.67-.02-5.5-.06-.36-.02-.41.17-.45.43-.58,3.29-1.16,6.61-1.74,9.92-.06.32.04.34.3.34h2.81c.28.02.37-.07.41-.34.07-.51.17-1.01.26-1.5.09-.47.06-1.07.32-1.37.32-.34.94-.06,1.44-.13.32,0,.65.02,1.01,0,2.25-.11,3.8-1.4,4.29-3.5.43-1.89-.36-3.22-2.17-3.65ZM87.79,57.1c-.45.22-.92.24-1.29.22q-1.05,0-.88-.97c0-.06,0-.11.02-.15.13-.39-.04-1.1.34-1.18.73-.15,1.55-.21,2.23.28.54.37.3,1.42-.41,1.8Z"/><path class="cls-1" d="M164.89,36.93c-1.46,1.66-2.84,3.24-4.24,4.81-.21.23-.22.39-.08.67.83,1.69,1.63,3.39,2.48,5.17-.75,0-1.43.01-2.1,0-.62-.01-1.38.24-1.82-.09-.41-.31-.49-1.07-.72-1.63-.16-.39-.31-.79-.49-1.23-.66.87-1.31,1.7-1.92,2.55-.23.32-.47.42-.85.42-1.11-.02-2.22,0-3.43,0,1.06-1.24,2.06-2.4,3.06-3.56.49-.57.97-1.15,1.48-1.71.18-.2.2-.35.07-.59-.67-1.33-1.31-2.67-1.97-4.01-.11-.23-.22-.47-.37-.77,1.29,0,2.53,0,3.77,0,.23,0,.24.19.3.33.29.75.57,1.49.9,2.34.47-.64.95-1.19,1.32-1.8.4-.69.91-.95,1.71-.88.93.08,1.86.02,2.9.02Z"/><path class="cls-1" d="M91.7,37.35c-.64-.3-1.31-.43-2-.43-1.76,0-3.52.02-5.26,0-.3,0-.39.09-.45.36-.15.94-.32,1.87-.49,2.81-.43,2.49-.88,4.96-1.31,7.49,1.12,0,2.23,0,3.31.02.26,0,.22-.19.26-.34.15-.88.32-1.74.45-2.62.06-.28.15-.41.47-.39.73.02,1.46.02,2.17-.02,2.21-.13,3.72-1.37,4.21-3.41.39-1.63-.07-2.84-1.37-3.46ZM89.08,41.55c-.45.24-.94.21-1.27.21q-1.05,0-.92-.92c.04-.15.06-.32.09-.49q.19-.97,1.2-.94c.21,0,.43.04.64.07.43.07.84.19.95.69.09.51-.21,1.1-.69,1.37Z"/><path class="cls-1" d="M49.61,37.26c-.58-.22-1.2-.34-1.82-.34h-5.22c-.28,0-.39.07-.45.36-.58,3.42-1.2,6.83-1.82,10.29,1.09,0,2.13,0,3.18.02.3,0,.37-.11.41-.37.15-.84.32-1.68.45-2.53.04-.32.13-.47.51-.45.71.04,1.42.02,2.13-.02,2.4-.13,3.99-1.59,4.32-3.97.19-1.38-.43-2.51-1.7-2.99ZM47.14,41.58c-.43.21-.88.17-1.18.17q-1.09,0-.94-.92c.02-.13.04-.26.07-.39.13-.34-.09-.95.34-.99.79-.09,1.65-.21,2.3.41.43.41.07,1.4-.6,1.72Z"/><path class="cls-1" d="M100.35,36.94c-.9-.04-1.8,0-2.7,0v-.02s-1.96,0-1.96,0c-.39,0-.88-.11-1.16.07-.28.19-.21.71-.28,1.09-.54,3.03-1.07,6.06-1.61,9.1-.06.32,0,.41.36.41.92-.02,1.83-.02,2.75,0,.3,0,.39-.11.43-.37.13-.86.32-1.72.45-2.56.04-.36.19-.41.51-.41.71.02,1.4.02,2.11-.02,1.98-.09,3.46-1.16,4.06-2.86.9-2.53-.28-4.29-2.96-4.42ZM99.45,41.55c-.43.24-.9.21-1.24.21q-1.1,0-.94-.95c.06-.22.09-.47.15-.71.13-.67.13-.69.84-.67.3,0,.62.02.92.06.47.07.92.24.99.79.07.45-.28,1.07-.73,1.29Z"/><path class="cls-1" d="M120.45,52.45c1.49,0,2.99,0,4.48,0,.32,0,.43.05.35.41-.15.67-.25,1.35-.35,2.03-.04.29-.15.41-.47.4-.75-.03-1.51.01-2.26-.02-.37-.02-.51.1-.57.46-.36,2.11-.74,4.23-1.11,6.34-.18,1.06-.17,1.06-1.24,1.06-.67,0-1.35-.02-2.02,0-.38.02-.44-.14-.38-.46.41-2.29.81-4.58,1.23-6.87.07-.4.04-.56-.42-.54-.74.03-1.48,0-2.22.02-.35.01-.41-.12-.35-.43.13-.63.28-1.25.33-1.89.04-.48.25-.54.66-.53,1.44.02,2.89,0,4.33,0Z"/><path class="cls-1" d="M67.45,47.53c.25-1.41.49-2.83.74-4.25.35-1.98.72-3.97,1.05-5.95.05-.3.13-.41.45-.41.92.02,1.84.02,2.76,0,.31,0,.39.07.33.39-.45,2.45-.87,4.9-1.32,7.35-.06.35.05.41.36.41,1.25-.01,2.5,0,3.74,0q.62,0,.51.59c-.1.55-.2,1.1-.29,1.65-.03.19-.07.29-.29.28-2.66-.01-5.32-.02-7.98-.03-.02,0-.03-.01-.07-.03Z"/><path class="cls-1" d="M77.18,47.58c.6-3.42,1.2-6.79,1.78-10.17.06-.36.17-.52.58-.5.9.04,1.81.02,2.71,0,.26,0,.33.05.28.33-.59,3.3-1.17,6.61-1.75,9.92-.05.31-.16.42-.5.42-1.02-.03-2.03,0-3.1,0Z"/><path class="cls-1" d="M114.03,70.37c-.28-.32-.37-.6-.09-.99.54-.8.15-1.72-.8-1.89-.69-.13-1.38-.13-2.1-.09-.43.02-.69.24-.67.71v3.89c-.02.34.11.66.43.67.92.04,1.87.21,2.77-.17.97-.39,1.18-1.35.47-2.13ZM112.14,68.18c.56,0,.97.32.97.73s-.41.69-.95.69c-.47.02-.8-.26-.8-.66,0-.45.34-.77.79-.77ZM112.68,71.88c-.13.04-.28.04-.43.04-.6,0-.9-.22-.9-.71,0-.52.3-.77.9-.77.17,0,.32,0,.49.06.37.09.65.3.65.69-.02.39-.34.6-.71.69Z"/><path class="cls-1" d="M109.35,72.05c-.11-.11-.28-.17-.43-.24-.45-.21-.84-.47-1.09-.94-.15-.28-.13-.45.19-.62.65-.34.88-.82.77-1.63-.07-.62-.49-1.1-1.16-1.22-.65-.09-1.33-.09-2-.09-.41,0-.67.22-.73.69-.07.67,0,1.35-.02,2,0,.66-.02,1.31,0,1.97.02.3.11.64.51.62.36-.02.49-.28.51-.62,0-.26.04-.52.04-.79,0-.32.11-.56.43-.64.34-.07.45.19.54.43.32.71.79,1.25,1.52,1.53.26.09.51.22.8.11.3-.11.37-.37.13-.58ZM106.71,69.66c-.54,0-.77-.21-.79-.71,0-.52.24-.77.77-.79.56,0,.99.32,1.01.73,0,.47-.37.77-.99.77Z"/><path class="cls-1" d="M128.38,72.05c-.13-.11-.3-.17-.47-.24-.43-.22-.82-.49-1.05-.94-.15-.26-.13-.45.17-.62.71-.36.92-.86.77-1.72-.09-.58-.58-1.07-1.23-1.14-.62-.07-1.24-.09-1.85-.07-.43,0-.73.21-.79.69-.09,1.01-.02,2.02-.02,3.13-.04.28-.06.65.04,1.03.07.24.19.45.47.43.24-.02.43-.15.47-.41.04-.3.06-.6.06-.88,0-.36.09-.65.43-.75.39-.09.49.26.62.52.3.67.79,1.2,1.5,1.46.24.09.49.19.75.09.32-.11.39-.36.15-.58ZM125.74,69.66c-.56,0-.8-.22-.8-.75.02-.47.3-.73.79-.75.56,0,.99.32.99.73.02.47-.36.77-.97.77Z"/><path class="cls-1" d="M100.47,70.03c0-.66.01-1.31,0-1.97-.01-.46.25-.67.66-.68.72-.02,1.44-.02,2.16,0,.27,0,.59.09.57.47-.02.36-.3.41-.61.42-.42.01-.85-.03-1.27.07-.35.08-.5.28-.48.62.02.34.2.55.55.57.26.02.52.01.79.02.11,0,.23-.01.34.01.26.06.56.13.53.46-.03.3-.29.4-.58.41-.31,0-.63-.02-.93.01-.31.03-.62.12-.7.5-.1.48.18.84.68.85.41.01.82-.02,1.23.02.28.03.65.07.63.47-.03.37-.35.42-.67.41-.72,0-1.44,0-2.16,0-.5,0-.72-.2-.73-.71-.02-.65,0-1.31,0-1.96,0,0,0,0,.01,0Z"/><path class="cls-1" d="M121.31,72.7c-.38,0-.76,0-1.13,0-.42,0-.66-.19-.66-.61,0-1.37,0-2.74,0-4.11,0-.41.27-.57.59-.58.75-.03,1.51-.02,2.26,0,.27,0,.54.13.53.46-.01.32-.26.41-.56.42-.44.01-.88-.04-1.32.07-.34.09-.52.28-.49.62.03.35.23.57.61.58.31,0,.62,0,.94.02.31.02.7.08.68.47-.02.35-.36.41-.68.41-.36,0-.72-.04-1.08.06-.4.11-.52.37-.47.74.05.35.27.55.63.56.34.01.69,0,1.03,0,.16,0,.33.02.48.06.22.05.42.15.4.42-.02.28-.24.39-.48.4-.43.02-.85,0-1.28,0h0Z"/><path class="cls-1" d="M80.87,67.37c-1.2-.09-2,.88-1.95,1.83.04.77.43,1.25,1.31,1.57.49.17.56.34.34.8-.07.15-.19.3-.28.45-.09.17-.13.36.02.51.17.15.37.21.58.07.13-.07.24-.17.34-.28.54-.73,1.1-1.48,1.42-2.34.58-1.59-.52-2.73-1.78-2.62ZM80.77,70.09c-.41,0-.86-.47-.86-.9,0-.54.41-.94.97-.94s.94.41.92.94c-.02.52-.47.9-1.03.9Z"/><path class="cls-1" d="M90.47,69.43c-.62-.24-.67-.45-.28-1.09.15-.24.34-.52.02-.77-.32-.22-.62-.04-.8.22-.49.67-.99,1.35-1.33,2.11-.67,1.5.09,2.88,1.59,2.88h.21c.88-.02,1.65-.62,1.78-1.35.17-.99-.21-1.65-1.18-2.02ZM89.74,71.92c-.54-.02-.97-.45-.95-.97.02-.45.54-.92,1.01-.9.49.02.94.51.92.97-.02.52-.43.9-.97.9Z"/><path class="cls-1" d="M99.63,67.94c-.13.35-.28.75-.44,1.14-.4.96-.81,1.92-1.21,2.89-.13.32-.3.6-.68.62-.39.02-.57-.28-.7-.59-.53-1.3-1.04-2.6-1.56-3.9-.11-.26-.06-.48.18-.64.24-.16.44-.02.62.12.18.13.26.33.34.53.22.59.45,1.19.69,1.78.1.25.19.61.49.61.3,0,.39-.36.49-.61.26-.65.51-1.31.76-1.96.09-.25.24-.43.51-.47.33-.04.49.11.5.49Z"/><path class="cls-1" d="M85.22,67.38c.55-.06,1.02.09,1.36.52.42.52.44.94.05,1.58-.19.32-.26.58,0,.93.71.99.29,2.1-.9,2.36-.63.13-1.27.11-1.83-.3-.27-.19-.47-.42-.28-.73.19-.32.51-.25.78-.1.24.13.46.29.76.29.45,0,.73-.19.82-.61.08-.39-.11-.65-.48-.78-.12-.04-.24-.09-.36-.16-.37-.21-.38-.47-.02-.71.12-.08.26-.14.39-.2.36-.17.39-.48.3-.79-.08-.3-.33-.43-.65-.41-.28.02-.53.15-.79.24-.27.09-.55.12-.69-.17-.13-.28.05-.49.28-.66.38-.27.81-.34,1.25-.29Z"/><path class="cls-1" d="M116.97,67.47c.39,0,.79,0,1.18,0,.24,0,.44.08.48.33.04.27-.18.33-.4.39-.64.18-.75.33-.76,1,0,.64,0,1.28,0,1.92,0,.5.2.82.71.88.27.03.51.11.47.43-.04.31-.3.36-.56.36-.75,0-1.51,0-2.26,0-.26,0-.51-.07-.53-.39-.02-.31.22-.35.45-.4.58-.14.72-.34.72-.93,0-.62,0-1.24,0-1.87,0-.63-.15-.82-.73-.98-.21-.06-.49-.06-.45-.4.04-.33.3-.34.55-.35.38,0,.75,0,1.13,0Z"/><path class="cls-1" d="M77.15,70.63c0-.38,0-.75,0-1.13-.01-.56-.17-.67-.7-.49-.08.03-.16.05-.23.09-.17.09-.28,0-.38-.12-.09-.11-.1-.24,0-.36.38-.48.81-.91,1.39-1.12.48-.17.8.08.81.59.02,1.23.04,2.45.03,3.68,0,.33.08.84-.45.82-.48-.01-.45-.48-.47-.83-.01-.38,0-.75,0-1.13,0,0,0,0,0,0Z"/><path class="cls-1" d="M26.84,34.62c-.26-1.08-.99-1.84-1.87-2.6.43-.05.79.04,1.12-.07.1-.03.24-.03.22-.2-.02-.17-.14-.15-.26-.13-1.29.17-2.37-.33-3.39-1.04-.39-.27-.83-.28-1.27-.31-.41-.03-.82-.02-1.23,0-.13,0-.38-.11-.37.17.02.3.25.17.41.16.24-.02.48-.04.84.04-.55.41-1.01.8-1.41,1.25-.05.06-.18.04-.28.05-.89.01-1.44.55-1.89,1.23-.15.22-.12.44.09.62.17.15.34.31.54.42.75.42,1.13.3,1.53-.46.25-.46.53-.92.32-1.48-.04-.12.03-.18.09-.26.43-.48.9-.91,1.5-1.17.24-.1.5-.14.72-.03,1.2.67,2.44,1.29,3.37,2.34.89,1.01,1.16,2.12.75,3.45-1.14,3.72-2.21,7.46-3.31,11.19-.15.52-.39.61-.8.22-.2-.19-.4-.24-.65-.24-.69,0-1.38,0-2.07,0-.21,0-.35-.02-.33-.29.16-2.62.03-5.29.99-7.81.31-.82.67-1.64.83-2.51.17-.9-.05-1.29-.92-1.62-.96-.37-1.92-.74-2.82-1.26-.4-.23-.78-.49-1.08-.84-.46-.54-.47-.91,0-1.43.75-.83,1.54-1.61,2.29-2.44,1.03-1.15,1.79-2.46,2.08-4,.05-.28.17-.26.37-.18,1.83.73,3.71,1.27,5.65,1.65.3.06.37.18.23.47-.23.46-.51.87-.82,1.28-.36.48-.36,1.07-.01,1.55.33.45.9.43,1.17-.06.11-.2.18-.42.23-.64.14-.74.56-1.35.91-2,.06-.11.16-.21.26-.3.12-.12.3-.21.45-.13.17.1.02.26-.02.39-.66,2.28-1.32,4.55-1.99,6.83-.02.08-.04.16-.15.2Z"/><path class="cls-1" d="M32.26,33.66c.29-.93.56-1.81.83-2.7.04-.14.09-.24.23-.29.97-.37,1.97-.63,3.02-.48,1.25.18,2.02.94,2.38,2.12.35,1.14.41,2.31.43,3.49.07,3.55-.35,7.06-.84,10.56-.03.24,0,.37.2.52.78.58.81,1.94.09,2.62-.09.08-.15.09-.25.02-1.02-.73-2.18-.59-3.32-.54-.54.02-.99-.07-1.42-.41-.32-.26-.7-.45-1.13-.42-.34.02-.43-.17-.47-.44-.04-.28-.04-.57.1-.82.53-.95.52-2.01.69-3.04.28-1.73.51-3.46.75-5.2.17-1.21.19-2.42.13-3.63-.05-.96-.4-1.27-1.43-1.39Z"/><path class="cls-1" d="M15.1,14.19c2.11-1.73,4.45-2.7,7.03-3.3,1.13-.26,2.07-.27,3.04.29.64.37.98.87.97,1.67-.01,2.61-.23,5.2-.63,7.78-.05.33-.13.56-.55.64-.8.14-1.35.63-1.6,1.42-.16.51-.33,1.03-.47,1.55-.06.23-.13.28-.37.24-1.13-.16-1.19-.23-.95-1.33.18-.85.46-1.67.72-2.5.57-1.8,1.03-3.62,1.17-5.51.02-.33,0-.66-.02-.98-.03-.47-.19-.57-.65-.4-.05.02-.1.02-.14.05-1.09.81-2.31.88-3.61.68-1.29-.19-2.59-.33-3.95-.31Z"/><path class="cls-1" d="M52.06,27.16c-1.52-1.51-3.24-2.77-5.01-3.95-1.36-.91-2.44-2.13-3.66-3.21-.47-.42-.82-.87-.87-1.52-.02-.24-.06-.55-.37-.64-.31-.09-.53.1-.73.31-.6.62-1.04,1.35-1.5,2.07-.15.23-.29.46-.47.75-.23-.95-.07-1.83.1-2.67.35-1.78-.02-3.45-.57-5.11-.04-.12-.08-.24-.14-.43,1.74.21,3.09.96,4.04,2.39.35.52.57,1.1.74,1.7.54,1.9,1.5,3.46,3.13,4.68,2,1.49,3.73,3.3,5.27,5.28.06.08.1.17.15.25-.03.03-.06.06-.08.09Z"/><path class="cls-1" d="M31.93,57.7c.05-1.39-.09-3.06.1-4.73.01-.11.01-.23.04-.34.34-1.68.48-1.61,2.14-1.39.44.06.68.34.67.82-.02.66-.02,1.31,0,1.97,0,.27-.1.38-.35.43-.37.07-.73.18-1.07.35-.34.17-.45.43-.3.77.15.34.43.43.77.29.08-.03.15-.07.22-.1.2-.08.4-.34.61-.17.2.16.11.46.1.7-.01.35-.19.63-.49.8-.31.17-.42.43-.48.75-.15.83-.07,1.67-.07,2.5,0,.2.09.38.26.51.33.26.59.99.39,1.3-.21.33-.56.52-1,.51-.38-.02-.76-.03-1.13,0-.36.03-.43-.11-.42-.44.02-1.41,0-2.82,0-4.52Z"/><path class="cls-1" d="M31.26.62c2.12-.51,4.14-.38,6,.88.22.15.33.34.38.6.28,1.26.25,2.54.17,3.81-.02.36-.86.78-1.16.6-.11-.06-.08-.17-.08-.26,0-.1,0-.21.12-.23.08-.02.17-.03.24-.02.51.1.63-.12.61-.61-.02-.42-.07-.65-.55-.57-.35.06-.48-.1-.43-.44.08-.63-.4-.37-.68-.43-.35-.06-.48.09-.42.43.07.39-.13.5-.47.44-.51-.09-.5.22-.49.58,0,.34-.04.68.49.6.11-.02.23,0,.34,0,.17.02.12.16.13.27,0,.14-.09.16-.2.14-.4-.06-.81-.14-1.21-.2-.13-.02-.16-.1-.16-.2-.05-1.98-1.16-3.46-2.32-4.92-.09-.12-.19-.22-.28-.34-.02-.02-.02-.06-.03-.14Z"/><path class="cls-1" d="M6.37,70.99s0-.03,0-.1c-.06-.75-.04-.77.66-.48.47.19.9.46.95,1.02.05.57-.34.91-.79,1.15-.92.49-1.88.54-2.83.09-.54-.25-.8-.72-.71-1.17.08-.43.79-1.05,1.23-1.1.16-.02.15.06.16.16.02.21.08.43.06.63-.05.5.17.68.65.64.52-.04.65-.17.62-.84Z"/><path class="cls-1" d="M18.02,55.38c0-.16-.02-.26-.02-.35-.01-1-.01-1,.94-1.32.13-.04.25-.07.33-.18.12-.16.15-1.56.04-1.74-.1-.15-.22-.17-.38-.1-.21.09-.43.16-.65.23-.1.03-.24.21-.32-.01-.05-.14-.04-.31.14-.37.46-.17.92-.38,1.42-.24.65.19,1.3.31,1.98.35.13,0,.35-.04.34.17,0,.24-.23.18-.38.18-.33,0-.66.01-.98,0-.29-.01-.44.1-.41.4,0,.02,0,.03,0,.05,0,1.07-.06.91.87.93.14,0,.37-.11.41.12.03.23-.2.21-.35.24-.49.09-.88.38-1.31.59-.59.29-1.04.75-1.67,1.06Z"/><path class="cls-1" d="M52.28,27.24c.13.25.38.28.62.34.85.22,1.52.66,1.9,1.49.08.18.15.37.14.57-.02.42-.25.58-.65.42-.46-.18-.92-.31-1.43-.11-.09-.93.03-1.89-.65-2.64.03-.02.05-.04.08-.06Z"/><path class="cls-1" d="M3.17,30.98c-.13-.4.11-.55.42-.7.84-.4.83-.41.85.54.01.55.05,1.11.08,1.66.01.32-.75,1.04-1.07,1-.18-.02-.11-.17-.13-.27-.12-.74-.02-1.5-.15-2.24Z"/><path class="cls-1" d="M2.96,27.07c-.04-.78-.06-1.54-.13-2.28-.03-.32.06-.46.36-.57.94-.33.93-.35,1.01.63.01.18,0,.36.02.54q.06,1.28-1.27,1.68Z"/><path class="cls-1" d="M38.18,52.01c.57,0,.69.12.58.49-.02.06-.02.15-.1.15-.55.01-.47.45-.53.78-.07.35-.11.71-.18,1.06-.08.4.02.7.46.76.51.07.36.43.34.71-.02.23-.2.08-.3.03-.67-.33-1.01-1.19-.78-2.04.13-.47.17-.94.1-1.41-.06-.42-.02-.66.4-.53Z"/><path class="cls-1" d="M18.02,62.64c0-.77,0-1.51,0-2.26,0-.61-.02-1.21-.03-1.82,0-.23-.02-.46.32-.6,0,.58.02,1.12,0,1.67-.01.31.1.42.39.38.11-.01.23-.02.34,0,.13.03.41-.11.34.17-.04.16.07.54-.39.43-.49-.11-.68.1-.68.61,0,.34,0,.69,0,1.03,0,.17,0,.33-.28.37Z"/><path class="cls-1" d="M60.24,31.43c-.7-.02-1.06-.31-1.1-.85-.02-.27.06-.42.36-.32.38.12.73.31.97.64.09.13.25.27.18.43-.08.19-.29.07-.41.11Z"/><path class="cls-1" d="M44.36,29.79c.81-.08,1.16.11,1.24.68.02.11.06.21-.14.22-.64.02-.9-.15-1.08-.76-.01-.05-.01-.09-.02-.14Z"/><path class="cls-1" d="M46.63,30.09c.83.08.94.17,1.03.72.03.15,0,.2-.16.19-.37-.03-.71-.08-.76-.55-.01-.11-.07-.22-.11-.36Z"/><path class="cls-1" d="M7.62,14.41c.21.16.37.29.55.41.16.1.37.16.3.43-.05.2-.19.25-.37.25-.25,0-.46-.07-.52-.34-.05-.24-.04-.48.04-.74Z"/><path class="cls-1" d="M20.02,56.13c.22-.26.08-.86.72-.7-.05.74-.1.79-.72.7Z"/><path class="cls-1" d="M52.15,27.08c.05.06.09.11.14.17-.03.02-.05.04-.08.06-.05-.05-.1-.1-.15-.14.03-.03.06-.06.08-.09Z"/><path class="cls-1" d="M29.74,20.6c-.11.04-.24.09-.36.15-.65.37-1.31.75-2.04.92-.15.04-.19.11-.21.24-.07.32-.15.66-.22,1.03.28,0,.54.04.79.04.37-.02.51.07.34.47-.3.77-.64,1.53-1.03,2.28-.26.51-.24.58.32.77.19.06.39.09.58.11.41.06.67-.07.84-.52.41-1.1.84-2.19,1.18-3.31.17-.56.34-1.14.39-1.72.06-.47-.13-.6-.58-.45ZM29.74,22.23c-.36,1.25-.8,2.49-1.31,3.69-.15.39-.86.51-1.14.21-.11-.13.02-.21.07-.3.43-.86.82-1.78,1.14-2.69.13-.37.02-.47-.34-.45-.15,0-.3,0-.43-.02-.13-.04-.36.07-.36-.15,0-.19-.04-.45.22-.54.82-.26,1.55-.69,2.36-1.12.04.54-.11.97-.22,1.38Z"/><path class="cls-1" d="M7.74,17.47c0-.33-.1-.62-.24-.9-.06-.11-.15-.23.04-.32.2-.1.21.08.26.18.77,1.49-.14,2.46-1.35,2.88-.09.03-.19.06-.24-.08-.05-.14.02-.21.14-.25.3-.1.57-.24.82-.43.36-.27.56-.63.57-1.07Z"/><path class="cls-1" d="M32.32,14.05c.19,1.01.77,1.57,1.53,1.57.65-.02,1.16-.52,1.29-1.37-.99.69-1.89.41-2.83-.21ZM33.95,15.38s-.09,0-.19,0c-.17-.02-.54.04-.54-.19.02-.32.39-.26.64-.26.04,0,.07.02.09.02.19.04.43.04.43.24,0,.22-.26.17-.43.19Z"/></g></g></svg>