<svg xmlns="http://www.w3.org/2000/svg" viewBox="0 0 165 89" id="svg9517960729"><g transform="translate(-0.02 -0.27)"><g><path d="M 67.781 37.145 C 66.835 37.165 65.899 37.165 64.954 37.145 C 64.712 37.145 64.612 37.216 64.561 37.467 C 64.34 38.805 64.109 40.163 63.867 41.512 C 63.696 42.467 63.525 43.453 63.344 44.429 C 63.153 44.057 63.123 43.675 62.972 43.323 C 62.75 42.779 62.328 43.111 61.955 43.212 C 61.955 43.121 61.955 43.041 61.976 42.991 C 62.298 41.18 62.599 39.359 62.931 37.527 C 62.992 37.226 62.952 37.135 62.609 37.155 C 61.664 37.175 60.728 37.175 59.782 37.155 C 59.521 37.155 59.42 37.216 59.39 37.497 C 59.239 38.453 59.048 39.419 58.877 40.375 C 58.837 40.596 58.786 40.767 58.464 40.747 C 57.599 40.707 56.734 40.727 55.889 40.747 C 55.607 40.747 55.516 40.707 55.587 40.385 C 55.778 39.429 55.929 38.463 56.11 37.527 C 56.15 37.316 56.18 37.135 55.848 37.155 C 54.873 37.175 53.866 37.155 52.891 37.155 C 52.679 37.155 52.589 37.226 52.569 37.437 C 51.965 40.787 51.381 44.158 50.778 47.508 C 50.717 47.83 50.818 47.88 51.12 47.88 C 52.045 47.86 52.961 47.86 53.907 47.88 C 54.188 47.88 54.299 47.81 54.339 47.508 C 54.53 46.361 54.752 45.214 54.923 44.047 C 54.983 43.765 55.094 43.705 55.335 43.705 C 56.201 43.725 57.066 43.725 57.911 43.705 C 58.233 43.705 58.273 43.795 58.213 44.067 C 58.042 44.973 57.851 45.858 57.76 46.763 C 57.69 47.307 57.418 47.649 56.985 47.951 C 52.206 51.301 47.437 54.651 42.659 58.022 C 42.316 58.263 42.055 58.394 41.703 58.082 C 41.592 58.012 41.421 57.991 41.29 57.951 C 40.536 57.8 39.761 57.74 39.459 56.804 C 39.308 56.291 39.308 55.919 39.761 55.677 C 39.912 55.607 39.982 55.466 40.023 55.315 C 40.194 54.752 40.284 54.168 40.194 53.565 C 40.133 53.283 40.002 53.092 39.721 53.092 C 39.379 53.072 39.348 52.901 39.348 52.619 C 39.389 51.905 39.389 51.19 39.067 50.526 C 38.976 50.285 39.027 50.154 39.157 49.963 C 39.821 48.967 40.063 47.78 39.027 46.955 C 38.896 46.844 38.896 46.713 38.916 46.562 C 39.238 44.53 39.479 42.477 39.63 40.425 C 39.801 38.131 39.892 35.827 39.57 33.553 C 39.198 30.958 37.819 29.811 35.294 30.052 C 34.69 30.113 34.127 30.314 33.503 30.465 C 33.563 30.294 33.594 30.203 33.614 30.092 C 33.654 29.599 33.895 29.469 34.368 29.569 C 35.535 29.78 36.723 29.931 37.89 30.092 C 41.864 30.676 45.858 31.259 49.822 31.843 C 50.335 31.934 50.878 31.903 51.351 32.185 C 51.824 32.467 52.307 32.728 52.84 32.879 C 53.122 32.95 53.102 33.05 52.951 33.272 C 52.73 33.594 52.709 33.936 52.88 34.288 C 53.333 35.173 54.068 35.304 54.742 34.61 C 54.963 34.388 55.154 34.308 55.406 34.539 C 55.687 34.761 55.989 34.972 56.291 35.183 C 56.533 35.354 56.814 35.636 57.066 35.576 C 57.931 35.364 58.515 35.898 59.209 36.199 C 60.155 36.592 61.171 36.461 62.147 36.37 C 62.448 36.35 62.64 36.109 62.75 35.827 C 62.841 35.566 62.881 35.304 62.861 35.022 C 62.841 34.781 62.901 34.65 63.102 34.479 C 63.797 33.936 63.857 33.201 63.294 32.497 C 62.861 31.974 62.298 31.652 61.674 31.39 C 61.483 31.32 61.352 31.219 61.241 31.028 C 60.879 30.465 60.336 30.183 59.702 30.072 C 59.209 29.982 58.726 30.052 58.173 30.012 C 58.323 29.69 58.454 29.428 58.585 29.147 C 58.736 28.805 58.645 28.603 58.303 28.493 C 57.78 28.322 57.398 28.533 57.005 29.227 C 56.764 29.66 56.211 29.871 55.758 29.72 C 55.627 29.68 55.627 29.609 55.587 29.509 C 55.245 28.322 54.4 27.718 53.293 27.436 C 53.052 27.376 52.921 27.245 52.78 27.074 C 51.18 24.911 49.319 22.989 47.166 21.39 C 45.627 20.223 44.721 18.693 44.208 16.892 C 43.645 14.84 42.377 13.431 40.314 12.788 C 39.972 12.677 39.62 12.596 39.218 12.506 C 39.63 11.812 39.952 11.127 39.952 10.343 C 39.932 8.612 39.932 6.882 39.932 5.131 C 39.932 4.91 39.912 4.678 39.862 4.457 C 39.348 2.797 38.373 1.539 36.813 0.745 C 35.696 0.151 34.519 0 33.272 0 C 30.485 0.04 28.563 1.6 28.06 4.326 C 27.929 5.131 27.798 5.926 27.688 6.741 C 27.668 6.892 27.617 6.982 27.497 7.063 C 27.064 7.324 26.843 7.737 26.722 8.23 C 26.682 8.441 26.591 8.552 26.4 8.662 C 25.595 9.075 24.74 9.397 23.845 9.548 C 23.04 9.679 22.315 10.001 21.772 10.604 C 21.621 10.755 21.47 10.866 21.259 10.906 C 19.146 11.248 17.365 12.284 15.645 13.482 C 14.971 13.975 14.266 14.347 13.401 14.538 C 12.123 14.8 10.836 14.9 9.518 14.82 C 8.481 14.759 7.837 14.347 7.616 13.331 C 7.556 13.069 7.425 12.767 7.143 12.727 C 6.751 12.667 6.65 12.405 6.54 12.123 C 6.177 11.258 5.584 10.634 4.638 10.484 C 3.924 10.353 3.209 10.242 2.475 10.222 C 2.153 10.222 1.851 10.262 1.549 10.333 C 1.207 10.403 0.815 10.574 0.835 10.916 C 0.855 11.48 0.644 11.973 0.624 12.496 C 0.604 12.627 0.644 12.777 0.694 12.868 C 0.845 13.13 0.765 13.321 0.604 13.542 C 0.241 14.065 0.111 14.669 0.171 15.333 C 0.211 15.675 0.191 16.027 0 16.349 L 0 17.043 C 0.282 17.989 0.956 18.341 1.902 18.301 C 2.223 18.301 2.143 18.542 2.163 18.734 C 2.234 19.921 2.294 21.108 2.354 22.295 C 2.545 25.686 2.716 29.076 2.898 32.467 C 3.048 35.294 3.22 38.111 3.391 40.958 C 3.753 47.156 4.105 53.333 4.447 59.521 C 4.638 62.831 4.809 66.151 5.01 69.441 C 5.051 70.045 5.051 70.457 4.346 70.688 C 3.743 70.9 3.29 71.423 3.29 72.117 C 3.31 72.811 3.763 73.365 4.387 73.435 C 5.483 73.606 5.534 74.28 5.493 75.115 L 5.493 75.206 C 5.473 75.578 5.604 75.679 5.986 75.638 C 6.359 75.598 6.479 75.487 6.399 75.125 C 6.359 74.904 6.399 74.652 6.359 74.431 C 6.268 73.908 6.419 73.636 6.982 73.485 C 7.888 73.244 8.431 72.509 8.371 71.825 C 8.33 71.131 7.717 70.527 6.771 70.377 C 6.379 70.306 6.338 70.115 6.318 69.793 C 6.248 67.67 6.147 65.537 6.057 63.414 C 5.845 58.052 5.664 52.679 5.433 47.297 C 5.242 42.387 5.041 37.447 4.849 32.517 C 4.719 29.358 4.588 26.169 4.477 22.989 C 4.457 22.215 4.477 21.45 4.477 20.655 C 5.252 21.168 6.016 20.997 6.791 20.585 C 6.902 20.524 6.982 20.524 7.093 20.605 C 8.19 21.319 9.427 21.47 10.705 21.45 C 12.828 21.41 14.92 20.957 16.953 20.323 C 17.295 20.213 17.446 20.192 17.426 20.645 C 17.405 22.225 17.426 23.804 17.426 25.404 C 17.405 26.833 17.063 28.211 16.218 29.398 C 15.826 29.962 15.413 30.505 15.091 31.088 C 13.301 34.439 13.532 39.429 17.878 42.538 C 18.14 42.729 18.251 42.9 18.241 43.212 C 18.18 44.57 18.15 45.918 18.13 47.277 C 18.13 47.578 18.039 47.8 17.868 48.031 C 17.476 48.524 17.073 49.027 16.983 49.671 C 16.923 50.084 16.923 50.556 17.325 50.727 C 17.818 50.939 17.758 51.271 17.758 51.653 C 17.737 51.824 17.737 52.015 17.758 52.176 C 17.778 52.398 17.687 52.538 17.476 52.569 C 16.912 52.639 16.872 53.001 16.983 53.454 C 17.023 53.585 17.043 53.716 17.053 53.846 C 17.094 54.259 17.114 54.671 17.727 54.45 C 17.727 54.812 17.707 55.094 17.748 55.376 C 17.788 55.828 17.707 56.201 17.234 56.432 C 17.013 56.543 16.953 56.754 17.013 57.016 C 17.104 57.529 17.184 58.032 17.255 58.545 C 17.275 58.716 17.325 58.917 17.496 58.917 C 17.818 58.957 17.737 59.138 17.737 59.33 C 17.758 60.215 17.778 61.12 17.778 62.006 C 17.778 62.72 17.818 63.434 17.496 64.129 C 17.285 64.622 17.385 65.145 17.717 65.577 C 17.909 65.819 17.888 66.05 17.788 66.312 C 16.621 70.246 15.454 74.2 14.287 78.154 C 13.23 81.735 12.174 85.307 11.107 88.909 C 10.997 89.251 11.047 89.402 11.409 89.472 C 11.771 89.533 12.123 89.663 12.466 89.754 L 15.444 89.754 C 16.54 86.192 17.627 82.621 18.703 79.039 C 18.774 78.757 18.965 78.627 19.156 78.496 C 32.899 69.028 46.643 59.531 60.406 50.084 C 61.352 49.44 62.006 48.635 62.499 47.659 C 62.559 47.548 62.609 47.438 62.67 47.317 C 62.599 47.9 62.972 47.86 63.364 47.86 C 64.229 47.84 65.074 47.84 65.94 47.86 C 66.181 47.86 66.282 47.79 66.312 47.538 C 66.483 46.482 66.674 45.445 66.855 44.409 C 67.268 42.135 67.66 39.831 68.083 37.558 C 68.123 37.276 68.143 37.105 67.741 37.125 Z M 41.703 58.464 C 41.793 58.555 41.763 58.615 41.662 58.686 C 41.27 58.967 40.868 59.229 40.415 59.551 C 40.355 59.189 40.355 58.947 40.455 58.686 C 40.626 58.233 41.361 58.102 41.703 58.464 Z M 39.65 57.991 C 39.741 57.951 39.872 57.951 40.023 57.921 C 40.113 57.961 40.264 57.961 40.345 58.032 C 40.495 58.183 40.284 58.253 40.234 58.354 C 40.023 58.696 40.023 59.068 40.063 59.45 C 40.103 59.732 40.023 59.923 39.781 60.054 C 39.63 60.124 39.499 60.245 39.369 60.336 C 39.087 60.507 38.855 60.859 38.544 60.809 C 37.98 60.738 37.437 60.547 36.944 60.225 C 36.793 60.134 36.682 59.984 36.873 59.833 C 37.739 59.118 38.584 58.384 39.66 58.002 Z M 30.072 43.212 C 31.088 43.121 32.014 42.739 32.97 42.115 C 32.799 43.282 32.628 44.319 32.497 45.355 C 32.427 45.898 32.286 46.431 32.064 46.914 C 31.803 47.458 31.742 48.021 32.084 48.574 C 32.175 48.725 32.145 48.856 32.125 49.007 C 32.064 49.399 32.145 49.762 32.467 50.023 C 32.658 50.194 32.748 51.059 32.577 51.271 C 31.974 52.005 31.903 52.87 31.863 53.736 C 31.803 54.792 31.823 55.859 31.823 56.915 C 31.823 57.136 31.823 57.307 31.541 57.438 C 30.958 57.7 30.867 58.263 30.867 58.816 C 30.847 59.943 30.807 61.08 30.867 62.187 C 30.907 62.941 30.626 63.676 30.756 64.451 C 30.797 64.692 30.495 64.994 30.545 65.336 C 30.545 65.447 30.525 65.577 30.565 65.678 C 30.927 66.282 30.565 66.543 30.092 66.865 C 26.963 69.028 23.865 71.232 20.736 73.435 C 20.665 73.475 20.585 73.526 20.454 73.606 C 20.474 73.153 20.645 72.781 20.756 72.399 C 23.653 62.831 26.571 53.273 29.479 43.705 C 29.569 43.383 29.72 43.232 30.082 43.212 Z M 29.71 42.91 C 30.575 40.063 31.4 37.296 32.255 34.529 C 32.296 34.398 32.326 34.248 32.537 34.248 C 32.839 34.248 33.141 34.248 33.332 34.529 C 33.483 34.72 33.523 34.942 33.553 35.173 C 33.745 36.833 33.483 38.473 33.272 40.103 C 33.252 40.345 33.161 40.596 33.181 40.837 C 33.241 41.552 32.769 41.894 32.225 42.176 C 31.471 42.588 30.666 42.82 29.72 42.91 Z M 37.719 53.152 C 37.719 53.524 37.658 53.887 37.588 54.259 C 37.306 55.386 37.799 56.352 38.866 56.764 C 39.107 56.855 39.258 56.985 39.359 57.287 C 38.191 56.814 37.045 56.623 35.877 56.573 C 35.555 56.553 35.425 56.482 35.425 56.12 C 35.425 55.537 35.123 55.366 34.58 55.597 C 34.388 55.667 34.237 55.808 34.056 55.879 C 33.905 55.939 33.755 55.919 33.684 55.748 C 33.624 55.577 33.755 55.506 33.875 55.446 C 34.197 55.275 34.549 55.164 34.891 55.104 C 35.344 55.044 35.475 54.842 35.455 54.41 C 35.415 53.786 35.455 53.162 35.455 52.528 C 35.435 51.623 35.213 51.301 34.308 51.19 C 33.835 51.12 33.875 50.929 34.006 50.607 C 34.227 50.063 34.67 49.741 35.234 49.661 C 36.008 49.53 36.793 49.55 37.548 49.721 C 38.544 49.933 39.147 50.798 39.057 51.794 C 39.016 52.035 38.886 52.005 38.735 52.015 C 38.03 52.055 37.698 52.431 37.739 53.142 Z M 34.046 60.718 C 34.046 60.909 34.137 61.09 34.308 61.231 C 34.63 61.473 34.912 62.207 34.7 62.529 C 34.489 62.871 34.137 63.052 33.704 63.042 C 33.332 63.022 32.93 63.022 32.557 63.042 C 32.195 63.082 32.125 62.931 32.145 62.609 L 32.145 58.052 C 32.185 56.663 32.054 54.983 32.235 53.303 C 32.255 53.192 32.255 53.062 32.276 52.941 C 32.618 51.261 32.769 51.321 34.419 51.552 C 34.871 51.613 35.113 51.895 35.093 52.377 C 35.073 53.031 35.073 53.695 35.093 54.359 C 35.113 54.641 35.002 54.752 34.751 54.792 C 34.378 54.852 34.016 54.963 33.674 55.134 C 33.332 55.305 33.201 55.587 33.352 55.929 C 33.503 56.271 33.785 56.362 34.147 56.211 C 34.217 56.17 34.298 56.14 34.368 56.12 C 34.559 56.05 34.761 55.758 34.972 55.929 C 35.183 56.1 35.083 56.402 35.083 56.643 C 35.062 57.005 34.891 57.287 34.57 57.448 C 34.268 57.619 34.157 57.881 34.097 58.203 C 33.946 59.028 34.026 59.883 34.026 60.728 Z M 33.664 63.354 C 33.382 63.565 33.151 63.565 32.889 63.354 Z M 33.573 50.878 C 33.513 51.14 33.382 51.14 33.181 51.12 C 32.96 51.12 32.99 50.969 32.97 50.818 C 32.97 50.607 32.97 50.385 32.99 50.174 C 32.99 49.983 32.97 49.852 32.769 49.802 C 32.638 49.762 32.557 49.651 32.507 49.52 C 32.416 49.299 32.376 49.047 32.527 48.866 C 32.678 48.655 32.889 48.806 33.07 48.866 C 33.543 48.997 33.875 49.43 34.409 49.601 C 33.916 49.943 33.654 50.375 33.584 50.878 Z M 31.843 62.77 C 31.843 62.992 31.752 63.052 31.541 63.052 C 31.35 63.032 31.179 63.052 31.179 62.77 C 31.199 61.412 31.179 60.044 31.199 58.686 C 31.219 58.293 31.31 57.891 31.823 57.69 C 31.823 59.42 31.823 61.1 31.843 62.77 Z M 20.585 73.958 C 25.102 70.779 29.62 67.61 34.157 64.43 C 34.217 64.39 34.288 64.28 34.479 64.36 C 29.66 67.881 24.891 71.362 20.052 74.884 C 20.092 74.411 20.273 74.17 20.575 73.958 Z M 31.37 65.94 C 31.109 66.131 31.008 66.07 30.958 65.789 C 30.847 65.416 30.746 65.014 31.088 64.692 C 31.3 64.501 31.129 64.35 31.088 64.199 C 30.917 63.545 31.068 63.334 31.732 63.374 C 32.034 63.394 32.316 63.445 32.598 63.636 C 33.111 63.998 33.745 63.877 34.197 63.424 C 34.308 63.314 34.439 63.213 34.57 63.123 C 34.942 62.881 35.344 62.69 35.566 62.277 C 35.656 62.106 35.827 61.996 36.038 62.056 C 36.169 62.116 36.34 62.167 36.401 62.277 C 36.461 62.408 36.27 62.489 36.179 62.539 C 34.58 63.666 32.96 64.803 31.38 65.93 Z M 35.133 62.227 C 35.002 62.096 35.042 61.925 35.022 61.774 C 34.982 61.553 34.982 61.261 34.811 61.171 C 34.227 60.869 34.419 60.346 34.398 59.873 L 34.398 58.746 C 34.398 58.293 34.459 57.861 34.942 57.619 C 35.052 57.559 35.203 57.428 35.223 57.297 C 35.334 56.804 35.696 56.865 36.028 56.925 C 36.894 57.016 37.779 57.116 38.604 57.398 C 38.825 57.468 39.077 57.529 39.298 57.76 C 38.322 58.193 37.507 58.816 36.723 59.47 C 36.25 59.863 36.29 60.205 36.793 60.547 C 36.984 60.678 37.226 60.768 37.457 60.869 C 37.678 60.959 37.91 61.02 38.232 61.13 C 37.759 61.452 37.346 61.754 36.914 62.056 C 36.803 62.147 36.723 62.076 36.612 62.016 C 35.938 61.583 35.686 61.623 35.123 62.237 Z M 39.751 53.434 C 39.992 53.605 39.841 53.887 39.902 54.088 C 39.882 54.39 39.841 54.631 39.791 54.893 C 39.731 55.285 39.55 55.406 39.147 55.345 C 38.523 55.235 38.503 55.235 38.604 54.591 C 38.644 54.349 38.674 54.098 38.715 53.856 C 38.785 53.313 39.278 53.102 39.751 53.424 Z M 39.016 52.81 C 38.996 52.88 38.996 52.961 38.926 52.961 C 38.383 52.981 38.453 53.414 38.403 53.756 C 38.332 54.118 38.292 54.47 38.212 54.832 C 38.141 55.225 38.232 55.527 38.664 55.587 C 39.187 55.657 39.037 56.02 39.006 56.301 C 38.986 56.523 38.815 56.372 38.725 56.341 C 38.051 55.999 37.709 55.134 37.93 54.289 C 38.061 53.816 38.101 53.343 38.02 52.88 C 37.96 52.448 38 52.206 38.433 52.337 C 38.996 52.337 39.127 52.448 39.016 52.83 Z M 33.533 30.837 C 34.509 30.475 35.515 30.213 36.582 30.364 C 37.819 30.555 38.594 31.31 38.976 32.487 C 39.338 33.634 39.389 34.821 39.409 36.008 C 39.479 39.59 39.067 43.111 38.564 46.643 C 38.523 46.884 38.564 47.005 38.775 47.156 C 39.57 47.739 39.58 49.118 38.845 49.792 C 38.775 49.882 38.695 49.882 38.604 49.832 C 37.588 49.098 36.401 49.228 35.274 49.289 C 34.73 49.309 34.278 49.218 33.845 48.876 C 33.523 48.615 33.151 48.423 32.718 48.444 C 32.376 48.464 32.286 48.273 32.245 48.011 C 32.205 47.729 32.205 47.448 32.336 47.186 C 32.879 46.24 32.859 45.174 33.03 44.138 C 33.312 42.407 33.543 40.656 33.785 38.926 C 33.956 37.698 33.976 36.481 33.916 35.274 C 33.855 34.298 33.503 33.976 32.487 33.865 C 32.769 32.94 33.05 32.054 33.312 31.159 C 33.352 31.028 33.402 30.917 33.533 30.857 Z M 42.84 30.354 C 42.769 30.505 42.628 30.414 42.578 30.414 C 40.224 30.072 37.91 29.74 35.596 29.398 C 35.163 29.338 34.73 29.308 34.318 29.207 C 34.187 29.187 33.865 29.267 33.976 28.966 C 34.066 28.724 33.956 28.291 34.489 28.382 C 35.354 28.533 36.22 28.644 37.085 28.774 C 38.855 29.036 40.606 29.298 42.377 29.569 C 42.699 29.609 42.98 30.062 42.85 30.364 Z M 34.439 21.842 C 34.177 21.631 34.197 21.259 34.006 20.977 C 35.113 20.907 35.716 21.49 35.586 22.506 C 35.515 23.16 35.213 23.714 34.72 24.237 C 34.65 23.784 34.57 23.412 34.72 22.989 C 34.891 22.557 34.831 22.164 34.439 21.842 Z M 34.328 27.718 C 34.539 27.175 34.69 26.621 34.67 26.038 C 34.67 25.776 34.861 25.696 35.032 25.605 C 36.33 24.76 37.608 23.895 38.765 22.859 C 39.087 22.577 39.389 22.315 39.711 22.034 C 40.767 23.673 42.648 24.579 43.886 26.118 C 45.144 27.658 46.713 28.845 48.313 30.072 C 47.508 29.962 46.673 29.851 45.868 29.73 C 43.212 29.338 40.556 28.935 37.9 28.543 C 36.793 28.392 35.696 28.201 34.59 28.07 C 34.328 28.03 34.268 27.939 34.348 27.708 Z M 43.453 30.545 C 43.262 30.525 43.111 30.475 43.152 30.263 C 43.192 30.072 42.96 29.74 43.242 29.74 C 43.584 29.72 44.037 29.65 44.258 30.022 C 44.349 30.213 44.389 30.414 44.47 30.696 C 44.077 30.636 43.775 30.585 43.453 30.545 Z M 45.757 30.877 C 45.113 30.897 44.852 30.726 44.661 30.123 C 44.661 30.062 44.661 30.032 44.641 29.972 C 45.466 29.901 45.808 30.082 45.898 30.646 C 45.918 30.777 45.959 30.867 45.747 30.867 Z M 46.13 30.183 C 46.391 30.17 46.609 30.434 46.784 30.978 C 46.482 31.005 46.264 30.74 46.13 30.183 Z M 47.81 31.179 C 47.448 31.139 47.095 31.109 47.055 30.636 C 47.035 30.525 46.985 30.414 46.945 30.273 C 47.77 30.344 47.89 30.424 47.981 30.988 C 48.001 31.139 47.981 31.199 47.81 31.179 Z M 48.655 31.31 C 48.202 31.219 48.333 30.766 48.162 30.485 C 49.118 30.354 49.741 30.877 50.426 31.561 C 49.752 31.471 49.198 31.41 48.655 31.32 Z M 51.1 31.571 C 49.591 30.344 47.951 29.348 46.452 28.141 C 45.808 27.627 45.174 27.124 44.681 26.48 C 43.836 25.404 42.779 24.559 41.743 23.673 C 41.139 23.16 40.536 22.617 40.063 21.963 C 39.872 21.702 39.852 21.51 40.023 21.249 C 40.606 20.323 41.149 19.388 41.864 18.552 C 41.974 18.422 42.085 18.21 42.296 18.291 C 42.447 18.331 42.447 18.552 42.467 18.723 C 42.538 19.377 42.84 19.87 43.353 20.303 C 44.087 20.927 44.761 21.581 45.466 22.265 C 46.784 23.563 48.474 24.388 49.892 25.575 C 50.405 26.008 50.909 26.48 51.432 26.873 C 52.508 27.698 52.971 28.734 52.86 30.072 C 52.84 30.203 52.84 30.334 52.82 30.465 C 52.82 30.575 52.8 30.676 52.951 30.746 C 53.102 30.807 53.162 30.686 53.213 30.616 C 53.454 30.314 53.756 30.253 54.098 30.404 C 54.158 30.424 54.229 30.445 54.289 30.465 C 55.023 30.746 55.134 30.958 54.832 31.712 C 54.53 32.447 53.796 32.809 53.062 32.557 C 52.347 32.336 51.673 32.014 51.09 31.561 Z M 54.44 32.799 C 54.158 33.312 53.726 33.533 53.142 33.704 C 53.343 33.302 53.776 33 54.44 32.799 Z M 58.122 35.093 C 57.901 35.052 57.559 35.435 57.458 34.922 C 57.267 34.056 57.096 33.171 56.935 32.306 C 56.915 32.235 56.895 32.135 56.875 32.064 C 56.744 31.481 57.086 31.139 57.67 31.239 C 57.951 31.28 57.971 31.481 57.971 31.672 C 58.032 32.748 58.253 33.785 58.344 34.801 C 58.434 35.063 58.303 35.123 58.122 35.103 Z M 59.893 30.445 C 60.265 30.555 60.607 30.746 60.849 31.088 C 60.939 31.219 61.09 31.35 61.04 31.521 C 60.97 31.712 60.738 31.581 60.627 31.612 C 59.933 31.591 59.551 31.31 59.521 30.766 C 59.501 30.505 59.591 30.354 59.893 30.445 Z M 57.056 29.962 C 57.187 29.549 57.378 29.167 57.7 28.865 C 57.871 28.694 58.072 28.674 58.243 28.805 C 58.414 28.935 58.223 29.066 58.173 29.197 C 58.042 29.499 57.891 29.78 57.74 30.082 C 57.68 30.213 57.629 30.344 57.398 30.324 C 57.227 30.284 56.965 30.253 57.056 29.952 Z M 56.352 30.032 C 56.543 30.032 56.633 30.092 56.724 30.253 C 56.965 30.726 57.458 30.817 57.871 30.495 C 58.243 30.233 58.666 30.324 59.078 30.324 C 59.289 30.324 59.189 30.535 59.189 30.646 C 59.169 31.159 59.32 31.591 59.812 31.773 C 60.305 31.984 60.849 32.135 61.342 31.712 C 61.452 31.642 61.493 31.642 61.603 31.672 C 62.187 31.913 62.71 32.235 63.112 32.769 C 63.505 33.312 63.434 33.724 62.811 34.197 C 62.68 33.765 62.569 33.352 62.338 32.95 C 61.885 32.155 61.13 31.974 60.356 32.457 C 59.531 32.98 59.34 33.775 59.843 34.529 C 60.446 35.415 61.332 35.606 62.237 35.042 C 62.328 34.982 62.408 34.932 62.499 34.871 C 62.569 35.777 62.388 35.998 61.543 36.038 C 60.768 36.079 60.004 36.109 59.249 35.817 C 58.947 35.686 58.756 35.535 58.736 35.173 C 58.625 33.966 58.364 32.799 58.303 31.591 C 58.263 31.068 58.042 30.857 57.498 30.897 C 57.277 30.917 57.046 30.968 56.845 31.068 C 56.543 31.219 56.392 31.41 56.472 31.783 C 56.694 32.738 56.885 33.704 57.076 34.68 C 57.116 34.831 57.187 34.982 57.096 35.173 C 56.754 35.103 56.533 34.871 56.271 34.66 C 56.05 34.509 55.818 34.338 55.597 34.167 C 55.205 33.885 54.903 33.865 54.541 34.278 C 53.997 34.902 53.635 34.801 53.223 34.036 C 53.655 33.845 54.128 33.734 54.43 33.362 C 54.993 32.688 55.235 31.853 55.315 31.008 C 55.406 30.143 55.537 29.972 56.372 30.012 Z M 61.291 35.042 C 60.728 35.042 60.034 34.459 59.903 33.895 C 59.833 33.503 60.205 32.95 60.698 32.708 C 61.261 32.427 61.674 32.557 61.996 33.08 C 62.106 33.252 62.207 33.443 62.277 33.644 C 62.599 34.439 62.187 35.022 61.302 35.032 Z M 43.162 15.252 C 43.504 15.776 43.725 16.359 43.896 16.963 C 44.439 18.864 45.405 20.444 47.045 21.671 C 49.057 23.18 50.808 24.981 52.357 26.984 C 52.418 27.054 52.448 27.155 52.488 27.245 C 52.548 27.305 52.579 27.356 52.639 27.416 C 52.77 27.658 53.011 27.678 53.263 27.758 C 54.108 27.97 54.792 28.412 55.164 29.247 C 55.255 29.438 55.315 29.62 55.315 29.811 C 55.275 30.243 55.054 30.394 54.651 30.243 C 54.178 30.052 53.726 29.921 53.202 30.133 C 53.132 29.187 53.243 28.231 52.559 27.477 C 52.498 27.436 52.468 27.386 52.408 27.326 C 50.878 25.816 49.148 24.559 47.357 23.352 C 45.999 22.446 44.892 21.209 43.685 20.132 C 43.192 19.699 42.86 19.247 42.799 18.593 C 42.779 18.351 42.739 18.049 42.427 17.949 C 42.105 17.878 41.904 18.059 41.693 18.271 C 41.089 18.895 40.656 19.629 40.184 20.343 C 40.033 20.565 39.902 20.816 39.711 21.098 C 39.469 20.152 39.64 19.267 39.801 18.422 C 40.163 16.631 39.781 14.961 39.238 13.28 C 39.198 13.17 39.147 13.039 39.087 12.848 C 40.837 13.069 42.196 13.824 43.152 15.263 Z M 39.54 10.956 C 39.328 11.711 38.916 12.254 38.111 12.425 C 37.266 12.596 36.491 12.486 35.908 11.781 C 35.619 11.439 35.331 11.433 35.042 11.761 C 34.157 12.777 32.336 12.717 31.501 11.671 C 31.41 11.56 31.33 11.429 31.259 11.298 C 31.088 10.956 31.109 10.604 31.199 10.242 C 31.37 9.659 31.803 10.182 32.024 10.021 C 34.469 10.192 36.863 10.363 39.278 10.514 C 39.67 10.534 39.62 10.735 39.54 10.966 Z M 35.083 15.906 C 34.559 16.53 33.835 16.812 32.99 16.55 C 32.799 16.49 32.618 16.42 32.497 16.248 C 31.783 15.232 30.787 14.498 29.952 13.613 C 29.69 13.331 29.428 13.069 29.257 12.727 C 29.127 12.466 29.036 12.214 29.127 11.922 C 29.338 11.298 29.599 11.248 30.032 11.681 C 30.958 12.657 31.994 13.452 33.443 13.411 C 34.046 13.391 34.57 13.2 35.083 12.898 C 35.405 12.687 35.666 12.616 36.008 12.918 C 36.29 13.2 36.702 13.26 37.195 13.371 C 36.401 14.216 35.787 15.102 35.083 15.916 Z M 36.471 14.709 C 36.753 15.806 37.055 16.802 37.095 17.858 C 37.095 18.009 37.135 18.2 36.944 18.23 C 36.773 18.291 36.723 18.1 36.642 17.969 C 36.32 17.385 35.998 16.802 35.666 16.198 C 35.576 16.027 35.535 15.896 35.686 15.725 C 35.948 15.423 36.179 15.081 36.481 14.709 Z M 28.714 10.473 C 28.996 10.604 29.257 10.624 29.489 10.363 C 29.599 10.212 29.7 10.041 29.831 9.84 C 30.223 10.423 30.716 10.896 31.018 11.53 C 31.672 12.918 33.875 13.28 35.042 12.264 C 35.193 12.134 35.324 12.003 35.495 11.852 C 35.566 12.063 35.908 12.113 35.887 12.435 L 35.908 12.435 C 35.998 12.345 36.059 12.395 36.099 12.496 C 36.038 12.476 35.968 12.455 35.908 12.435 C 35.908 12.435 35.887 12.435 35.887 12.455 L 35.887 12.435 C 35.566 12.325 35.264 12.365 35.002 12.546 C 33.704 13.391 32.457 13.21 31.27 12.375 C 30.746 12.003 30.294 11.57 29.931 11.057 C 29.74 10.775 29.609 10.755 29.388 10.997 C 29.237 11.148 29.086 11.47 28.895 11.409 C 28.573 11.319 28.372 11.017 28.251 10.695 C 28.08 10.242 28.462 9.095 28.855 8.854 C 28.915 8.813 28.966 8.813 29.026 8.854 C 29.418 9.065 29.569 9.628 29.328 10.001 C 29.217 10.172 29.086 10.323 28.855 10.152 C 28.704 10.041 28.593 10.091 28.533 10.222 C 28.462 10.373 28.623 10.433 28.704 10.463 Z M 36.149 12.526 C 36.149 12.526 36.129 12.506 36.109 12.506 L 36.109 12.486 C 36.109 12.486 36.129 12.506 36.149 12.526 C 36.843 12.848 37.598 12.898 38.352 12.737 C 37.749 13.19 36.642 13.099 36.149 12.526 Z M 39.188 10.172 C 36.682 10.001 34.177 9.809 31.692 9.659 C 31.259 9.618 31.038 9.447 30.887 9.055 C 32.447 9.166 33.976 9.266 35.515 9.377 C 36.743 9.447 37.98 9.548 39.208 9.618 C 39.419 9.638 39.66 9.578 39.64 9.94 C 39.62 10.313 39.379 10.182 39.188 10.162 Z M 39.389 9.306 C 38.956 9.286 38.523 9.246 38.111 9.236 C 35.686 9.065 33.272 8.894 30.847 8.743 C 30.626 8.723 30.414 8.652 30.394 8.441 C 30.354 8.2 30.636 8.25 30.787 8.22 C 31.149 8.149 31.501 8.109 31.863 8.069 C 32.728 8.089 33.553 8.351 34.409 8.461 C 35.938 8.673 37.457 8.783 39.006 8.854 C 39.157 8.854 39.288 8.874 39.439 8.874 C 39.63 8.894 39.65 9.025 39.65 9.155 C 39.65 9.327 39.52 9.327 39.409 9.306 Z M 37.507 1.509 C 37.729 1.66 37.849 1.851 37.9 2.113 C 38.161 3.37 38.141 4.658 38.071 5.936 C 38.051 6.298 37.205 6.731 36.904 6.54 C 36.793 6.479 36.833 6.369 36.833 6.278 C 36.833 6.187 36.813 6.067 36.944 6.057 C 37.014 6.037 37.115 6.016 37.185 6.037 C 37.698 6.127 37.829 5.926 37.809 5.433 C 37.789 5 37.739 4.769 37.246 4.849 C 36.904 4.92 36.773 4.759 36.813 4.417 C 36.904 3.773 36.421 4.045 36.139 3.984 C 35.777 3.924 35.646 4.075 35.727 4.417 C 35.787 4.809 35.596 4.93 35.234 4.849 C 34.72 4.759 34.741 5.071 34.741 5.433 C 34.741 5.795 34.7 6.127 35.234 6.037 C 35.344 6.016 35.455 6.037 35.576 6.057 C 35.767 6.077 35.706 6.208 35.706 6.318 C 35.706 6.449 35.616 6.489 35.515 6.469 C 35.103 6.399 34.71 6.318 34.288 6.258 C 34.157 6.238 34.137 6.167 34.117 6.047 C 34.056 4.065 32.95 2.566 31.803 1.117 C 31.712 0.986 31.591 0.895 31.501 0.755 C 31.481 0.734 31.501 0.694 31.481 0.624 C 33.604 0.111 35.646 0.252 37.507 1.509 Z M 30.575 1.016 C 30.897 0.825 31.098 0.805 31.38 1.147 C 32.205 2.183 32.98 3.24 33.473 4.477 C 33.684 5.02 33.815 5.584 33.775 6.167 C 33.755 6.409 33.775 6.53 34.056 6.56 C 34.6 6.62 35.153 6.731 35.716 6.821 C 35.938 6.882 36.059 6.801 36.018 6.56 C 35.998 6.449 35.998 6.318 36.018 6.198 C 36.079 5.805 35.978 5.574 35.505 5.654 C 35.334 5.674 35.093 5.765 35.093 5.433 C 35.093 5.071 35.334 5.151 35.505 5.171 C 35.958 5.242 36.069 5.061 36.018 4.648 C 35.998 4.497 35.948 4.286 36.23 4.286 C 36.531 4.266 36.491 4.457 36.491 4.648 C 36.451 5.041 36.552 5.272 37.014 5.191 C 37.185 5.151 37.427 5.081 37.447 5.413 C 37.467 5.745 37.205 5.695 37.034 5.654 C 36.541 5.584 36.471 5.805 36.491 6.238 C 36.531 7.013 36.511 7.013 37.286 6.862 C 37.477 6.821 37.648 6.791 37.809 6.731 C 38.181 6.62 38.373 6.409 38.413 5.956 C 38.503 4.729 38.503 3.531 38.342 2.304 C 39.077 3.149 39.64 4.075 39.64 5.262 C 39.64 6.218 39.62 7.204 39.64 8.18 C 39.64 8.461 39.57 8.542 39.278 8.522 C 37.246 8.411 35.213 8.31 33.231 7.898 C 32.276 7.687 31.33 7.677 30.384 7.938 C 30.163 8.009 30.042 7.998 29.891 7.807 C 29.398 7.153 28.966 6.429 28.332 5.886 C 28.261 5.815 28.241 5.715 28.261 5.624 C 28.332 3.743 28.885 2.083 30.575 1.006 Z M 28.06 6.177 C 28.271 6.218 28.382 6.369 28.473 6.499 C 29.267 7.536 30.012 8.592 30.807 9.628 C 31.028 9.91 30.827 10.152 30.807 10.534 C 30.485 10.121 30.243 9.82 29.982 9.498 C 29.438 8.803 28.925 8.109 28.362 7.445 C 28.02 7.053 27.99 6.67 28.06 6.187 Z M 27.98 7.606 C 28.805 8.28 28.805 8.431 28.04 9.377 C 27.929 8.773 27.929 8.19 27.98 7.606 Z M 27.678 7.385 C 27.416 8.572 27.788 9.588 27.889 10.645 C 27.929 11.037 28.211 11.359 28.533 11.6 C 28.664 11.691 28.815 11.791 28.774 11.993 C 28.684 12.536 28.966 12.969 29.298 13.381 C 29.73 13.924 30.253 14.417 30.787 14.89 C 31.39 15.454 31.954 16.037 32.477 16.812 C 31.833 16.591 31.481 16.188 31.229 15.705 C 31.098 15.423 30.907 15.313 30.626 15.212 C 29.368 14.85 28.533 14.005 27.97 12.858 C 27.366 11.63 27.104 10.292 26.994 8.964 C 26.923 8.29 27.145 7.837 27.668 7.385 Z M 22.275 10.956 C 23.402 10.695 24.368 10.695 25.344 11.238 C 25.987 11.61 26.32 12.123 26.32 12.928 C 26.299 15.544 26.078 18.16 25.676 20.746 C 25.615 21.088 25.545 21.329 25.132 21.41 C 24.327 21.541 23.754 22.034 23.512 22.838 C 23.341 23.352 23.17 23.855 23.04 24.378 C 22.979 24.599 22.909 24.659 22.677 24.619 C 21.53 24.468 21.47 24.398 21.722 23.281 C 21.913 22.436 22.174 21.601 22.436 20.776 C 23.02 18.965 23.472 17.144 23.623 15.242 C 23.643 14.9 23.623 14.588 23.603 14.246 C 23.563 13.773 23.392 13.683 22.949 13.854 C 22.909 13.874 22.859 13.874 22.818 13.894 C 21.712 14.719 20.484 14.78 19.186 14.588 C 17.888 14.397 16.591 14.266 15.212 14.266 C 17.335 12.536 19.689 11.56 22.275 10.956 Z M 7.687 14.498 C 7.908 14.669 8.059 14.8 8.25 14.91 C 8.401 15.021 8.612 15.081 8.552 15.343 C 8.491 15.534 8.341 15.584 8.18 15.584 C 7.938 15.584 7.727 15.514 7.656 15.242 C 7.616 15.001 7.616 14.749 7.697 14.488 Z M 6.61 12.959 C 6.972 12.979 7.284 13.089 7.304 13.602 C 6.791 13.582 6.288 13.602 5.815 13.693 C 5.705 13.713 5.604 13.733 5.554 13.602 C 5.513 13.512 5.513 13.411 5.594 13.341 C 5.855 13.019 6.218 12.948 6.61 12.969 Z M 4.467 10.785 C 5.393 10.936 5.936 11.52 6.278 12.345 C 6.348 12.516 6.348 12.606 6.147 12.647 C 6.127 12.647 6.107 12.647 6.107 12.667 C 5.614 12.969 5.202 12.928 4.9 12.385 C 4.859 12.315 4.809 12.234 4.729 12.214 C 4.055 11.912 3.713 11.369 3.521 10.675 C 3.823 10.715 4.145 10.745 4.467 10.785 Z M 1.338 10.785 C 2.113 10.222 3.179 10.594 3.481 11.56 C 2.767 11.389 2.073 11.218 1.338 11.409 C 1.227 11.449 1.147 11.369 1.127 11.258 C 1.107 11.067 1.167 10.916 1.338 10.785 Z M 1.398 11.771 C 1.68 11.661 1.982 11.661 2.264 11.701 C 3.32 11.791 4.276 12.093 4.94 12.979 C 3.833 12.677 2.737 12.787 1.64 12.959 C 1.358 13.019 1.056 13.089 0.996 12.677 C 0.936 12.284 0.956 11.942 1.388 11.771 Z M 2.485 17.546 C 2.485 17.355 2.465 17.224 2.203 17.184 C 1.841 17.124 1.771 16.902 1.982 16.601 C 2.022 16.54 2.073 16.51 2.113 16.45 C 2.636 15.977 3.32 15.977 3.884 15.755 C 4.246 15.846 4.527 15.886 4.809 15.997 C 5.111 16.108 5.373 16.279 5.352 16.671 C 5.332 17.043 5.091 17.325 4.749 17.325 C 3.994 17.345 4.055 17.818 4.075 18.321 C 4.095 19.227 4.075 20.152 4.095 21.048 C 4.115 21.289 4.034 21.37 3.793 21.41 C 2.666 21.631 2.666 21.651 2.606 20.484 C 2.566 19.508 2.535 18.522 2.495 17.526 Z M 2.787 23.834 C 2.807 23.553 2.787 23.291 2.787 23.009 C 2.656 21.973 2.656 21.993 3.713 21.782 C 4.085 21.712 4.185 21.802 4.145 22.154 C 4.125 22.305 4.165 22.476 4.165 22.647 C 4.192 23.378 3.847 23.848 3.129 24.056 C 2.908 24.116 2.787 24.116 2.787 23.834 Z M 2.877 24.951 C 2.837 24.629 2.938 24.478 3.24 24.368 C 4.185 24.046 4.185 24.026 4.256 25.012 C 4.276 25.183 4.276 25.374 4.276 25.555 C 4.316 26.407 3.89 26.97 2.998 27.245 C 2.958 26.45 2.938 25.706 2.888 24.951 Z M 3.018 27.809 C 2.998 27.547 3.26 27.547 3.411 27.487 C 4.041 27.225 4.366 27.426 4.387 28.09 L 4.387 28.603 C 4.413 29.422 4.004 29.982 3.159 30.284 C 3.099 29.459 3.048 28.623 3.008 27.819 Z M 5.966 75.296 C 5.815 74.823 5.795 74.351 5.775 73.888 C 5.775 73.817 5.815 73.757 5.886 73.757 C 5.956 73.737 6.037 73.777 6.037 73.848 C 6.016 74.32 6.127 74.803 5.966 75.296 Z M 6.419 71.433 L 6.419 71.413 C 6.419 71.413 6.439 71.352 6.419 71.322 C 6.359 70.568 6.379 70.548 7.093 70.829 C 7.566 71.02 7.998 71.302 8.039 71.866 C 8.099 72.429 7.697 72.771 7.244 73.013 C 6.318 73.505 5.363 73.556 4.397 73.103 C 3.853 72.841 3.592 72.389 3.682 71.936 C 3.753 71.483 4.477 70.859 4.91 70.829 C 5.081 70.789 5.081 70.89 5.081 70.98 C 5.121 71.191 5.151 71.413 5.141 71.624 C 5.101 72.137 5.312 72.298 5.795 72.268 C 6.318 72.228 6.459 72.097 6.419 71.443 Z M 5.202 49.279 C 5.413 54.792 5.634 60.316 5.866 65.829 C 5.936 67.469 5.996 69.089 6.057 70.729 L 6.097 70.729 C 6.097 71.01 6.077 71.292 6.097 71.554 C 6.117 71.815 6.027 71.926 5.775 71.926 C 5.493 71.946 5.493 71.755 5.493 71.564 C 5.403 69.853 5.282 68.123 5.191 66.382 C 4.97 62.277 4.739 58.152 4.517 54.048 C 4.216 48.735 3.914 43.443 3.612 38.141 C 3.592 37.799 3.592 37.447 3.541 37.105 C 3.501 36.783 3.612 36.652 3.934 36.592 C 4.464 36.478 4.732 36.696 4.739 37.246 C 4.91 41.26 5.041 45.264 5.212 49.259 Z M 4.688 35.867 C 4.688 36.079 4.598 36.149 4.407 36.169 C 4.105 36.209 3.823 36.28 3.501 36.34 C 3.461 35.696 3.431 35.083 3.391 34.459 C 3.37 34.288 3.411 34.157 3.602 34.066 C 3.924 33.916 4.226 33.724 4.678 33.443 C 4.678 34.348 4.678 35.103 4.698 35.867 Z M 4.558 32.688 C 4.578 33.01 3.803 33.745 3.481 33.704 C 3.29 33.684 3.37 33.533 3.35 33.423 C 3.24 32.688 3.33 31.913 3.199 31.179 C 3.069 30.766 3.31 30.616 3.632 30.465 C 4.477 30.072 4.457 30.052 4.477 31.008 C 4.497 31.571 4.537 32.115 4.548 32.688 Z M 17.345 49.782 C 17.405 49.309 17.627 48.916 17.949 48.554 C 18.341 48.102 18.492 47.609 18.492 46.995 C 18.492 45.677 18.562 44.359 18.603 43.041 C 18.623 42.739 18.542 42.568 18.281 42.387 C 16.017 40.827 14.609 38.715 14.437 35.908 C 14.327 34.077 14.588 32.255 15.735 30.787 C 17.375 28.734 17.939 26.47 17.768 23.915 C 17.677 22.537 17.748 21.148 17.748 19.74 C 16.279 20.233 14.81 20.625 13.321 20.866 C 11.661 21.128 10.011 21.319 8.371 20.826 C 7.878 20.695 7.485 20.303 7.053 20.182 C 6.64 20.072 6.228 20.555 5.735 20.635 C 5 20.746 4.226 20.162 4.356 19.428 C 4.397 19.237 4.377 19.035 4.377 18.824 C 4.336 18.241 4.266 17.697 5.111 17.566 C 5.483 17.496 5.674 17.094 5.674 16.681 C 5.695 16.269 5.483 15.987 5.151 15.796 C 4.94 15.685 4.739 15.584 4.507 15.554 C 4.316 15.534 4.226 15.494 4.336 15.273 C 4.397 15.142 4.427 14.951 4.276 14.88 C 4.105 14.82 4.034 14.971 3.994 15.142 C 3.974 15.313 3.823 15.363 3.692 15.423 C 3.431 15.514 3.169 15.615 2.887 15.685 C 2.475 15.816 2.042 15.967 1.741 16.329 C 1.368 16.782 1.439 17.234 1.952 17.516 C 2.083 17.587 2.163 17.647 2.143 17.798 C 2.123 18.009 1.972 17.969 1.841 17.969 C 0.845 18.039 0.352 17.556 0.433 16.56 C 0.493 15.524 1.107 14.92 2.163 14.88 C 2.314 14.86 2.636 15.031 2.596 14.689 C 2.576 14.468 2.294 14.538 2.103 14.538 C 1.519 14.578 1.026 14.8 0.573 15.162 C 0.402 14.166 0.936 13.411 1.891 13.26 C 2.757 13.13 3.622 13.039 4.487 13.28 C 5.181 13.472 5.373 13.753 5.292 14.448 C 5.292 14.578 5.252 14.669 5.403 14.709 C 5.594 14.77 5.624 14.639 5.624 14.538 C 5.564 13.975 5.946 13.995 6.318 13.955 C 6.68 13.914 7.012 13.934 7.395 13.995 C 7.355 14.357 7.204 14.689 7.224 15.051 C 7.264 15.695 7.737 16.067 8.33 15.937 C 8.552 15.896 8.783 15.766 8.823 15.524 C 8.864 15.091 9.105 15.132 9.427 15.152 C 10.805 15.242 12.174 15.222 13.552 14.83 C 14.78 14.488 16.037 14.619 17.285 14.739 C 18.15 14.81 18.995 14.89 19.85 15.021 C 20.846 15.172 21.752 14.961 22.597 14.438 C 23.261 14.045 23.271 14.065 23.291 14.85 C 23.291 16.168 22.919 17.426 22.647 18.713 C 22.305 20.394 21.571 21.953 21.269 23.643 C 21.098 24.488 21.178 24.639 22.003 24.871 C 22.003 24.871 22.023 24.871 22.044 24.891 C 23.14 25.173 23.17 25.152 23.452 24.086 C 23.523 23.845 23.623 23.593 23.673 23.331 C 23.935 22.315 24.579 21.752 25.615 21.651 C 25.917 21.631 25.877 21.46 25.897 21.289 C 26.239 19.146 26.561 16.973 26.571 14.79 C 26.571 14.095 26.571 13.381 26.611 12.667 C 26.631 12.083 26.39 11.61 25.937 11.278 C 25.223 10.715 24.398 10.453 23.512 10.333 C 23.15 10.272 22.859 10.524 22.516 10.554 C 22.456 10.614 22.406 10.645 22.305 10.594 C 22.366 10.554 22.396 10.504 22.436 10.463 C 22.778 10.202 23.15 10.031 23.543 9.95 C 24.619 9.779 25.635 9.457 26.611 8.934 C 26.722 10.041 26.893 11.117 27.265 12.134 C 27.869 13.773 28.805 15.091 30.595 15.574 C 30.706 15.615 30.787 15.685 30.837 15.786 C 32.135 17.647 33.644 17.858 35.314 16.369 C 35.636 16.973 35.978 17.556 36.29 18.14 C 36.441 18.422 36.632 18.703 37.004 18.593 C 37.417 18.482 37.377 18.12 37.377 17.818 C 37.356 16.892 37.115 15.987 36.884 15.112 C 36.662 14.307 37.125 13.512 37.96 13.301 C 38.02 13.28 38.071 13.26 38.151 13.24 C 38.735 13.029 38.715 13.029 38.946 13.673 C 39.64 15.514 39.64 17.405 39.308 19.317 C 39.177 19.971 39.157 20.655 39.348 21.309 C 39.419 21.591 39.288 21.762 39.137 21.933 C 38.342 22.818 37.387 23.533 36.411 24.227 C 35.867 24.599 35.304 24.981 34.7 25.374 C 34.61 24.981 34.68 24.73 34.942 24.448 C 35.545 23.804 35.918 23.06 35.887 22.134 C 35.827 21.209 35.264 20.625 34.328 20.625 C 33.986 20.605 33.724 20.565 33.483 20.283 C 33.03 19.77 32.708 19.79 32.245 20.283 C 31.149 21.38 30.585 22.768 30.133 24.197 C 29.871 25.002 29.68 25.816 29.479 26.641 C 29.418 26.853 29.368 26.984 29.106 26.963 C 28.714 26.963 28.412 27.205 28.221 27.527 C 27.849 28.171 27.416 28.784 27.265 29.519 C 27.225 29.69 27.195 29.881 27.134 30.042 C 27.044 30.233 26.984 30.475 26.702 30.434 C 26.44 30.394 26.34 30.193 26.289 29.982 C 26.219 29.66 26.229 29.358 26.46 29.096 C 26.853 28.623 27.195 28.12 27.406 27.537 C 27.537 27.145 27.446 26.933 27.034 26.863 C 24.911 26.45 22.818 25.847 20.806 25.022 C 20.595 24.931 20.484 24.931 20.464 25.173 C 20.182 27.376 18.905 29.016 17.416 30.515 C 16.963 30.968 16.51 31.441 16.077 31.903 C 15.514 32.547 15.514 33.221 16.077 33.865 C 16.741 34.559 17.587 34.972 18.452 35.354 C 19.035 35.616 19.639 35.847 20.243 36.069 C 20.786 36.29 20.937 36.541 20.866 37.145 C 20.806 37.658 20.675 38.121 20.474 38.574 C 19.327 40.998 19.176 43.624 19.066 46.26 C 19.045 46.824 19.045 47.407 19.005 47.991 C 18.985 48.313 19.096 48.363 19.377 48.353 C 19.77 48.333 20.182 48.373 20.565 48.333 C 21.41 48.273 22.225 48.373 22.879 48.957 C 22.768 49.047 22.597 48.997 22.446 48.997 C 21.712 48.997 20.977 49.017 20.263 48.997 C 19.83 48.957 19.528 49.037 19.357 49.51 C 19.166 50.033 18.754 50.375 18.23 50.526 C 17.607 50.717 17.275 50.436 17.345 49.772 Z M 26.229 31.803 C 24.931 31.994 23.834 31.481 22.818 30.766 C 22.426 30.485 21.993 30.485 21.541 30.445 C 21.148 30.404 20.736 30.424 20.313 30.445 C 20.162 30.445 19.921 30.334 19.941 30.616 C 19.961 30.897 20.182 30.787 20.353 30.766 C 20.595 30.746 20.846 30.726 21.198 30.807 C 20.655 31.219 20.182 31.612 19.77 32.064 C 19.73 32.125 19.599 32.125 19.508 32.125 C 18.603 32.125 18.059 32.668 17.587 33.352 C 17.456 33.573 17.476 33.805 17.677 33.976 C 17.848 34.127 18.019 34.298 18.22 34.388 C 18.975 34.821 19.347 34.69 19.76 33.936 C 20.001 33.463 20.283 32.99 20.082 32.427 C 20.021 32.316 20.102 32.255 20.172 32.185 C 20.585 31.692 21.078 31.259 21.681 30.998 C 21.923 30.907 22.195 30.867 22.396 30.978 C 23.603 31.652 24.861 32.276 25.786 33.332 C 26.692 34.348 26.953 35.455 26.541 36.813 C 25.414 40.556 24.317 44.309 23.211 48.071 C 23.06 48.595 22.818 48.675 22.416 48.283 C 22.205 48.091 22.003 48.061 21.752 48.061 L 19.659 48.061 C 19.448 48.061 19.317 48.041 19.317 47.78 C 19.488 45.123 19.357 42.447 20.313 39.932 C 20.635 39.087 20.987 38.272 21.158 37.387 C 21.329 36.481 21.098 36.089 20.233 35.767 C 19.257 35.395 18.291 35.012 17.385 34.489 C 16.993 34.268 16.611 33.996 16.309 33.644 C 15.836 33.101 15.816 32.738 16.309 32.215 C 17.063 31.39 17.848 30.595 18.603 29.75 C 19.639 28.603 20.394 27.285 20.695 25.726 C 20.756 25.444 20.866 25.484 21.068 25.555 C 22.899 26.289 24.8 26.833 26.732 27.215 C 27.034 27.275 27.104 27.406 26.973 27.688 C 26.732 28.141 26.45 28.573 26.148 28.966 C 25.776 29.459 25.776 30.062 26.128 30.525 C 26.47 30.978 27.034 30.958 27.295 30.465 C 27.406 30.273 27.487 30.052 27.517 29.821 C 27.668 29.066 28.1 28.442 28.442 27.809 C 28.513 27.698 28.613 27.597 28.704 27.507 C 28.835 27.396 29.006 27.295 29.157 27.376 C 29.328 27.466 29.177 27.637 29.137 27.768 C 28.462 30.062 27.798 32.366 27.145 34.64 C 27.104 34.71 27.084 34.811 26.973 34.851 C 26.712 33.755 25.977 33.01 25.092 32.235 C 25.525 32.195 25.887 32.276 26.219 32.165 C 26.33 32.125 26.46 32.145 26.44 31.974 C 26.42 31.803 26.289 31.823 26.179 31.823 Z M 19.81 32.97 C 19.699 33.402 19.448 33.775 19.247 34.157 C 19.176 34.268 19.055 34.308 18.945 34.268 C 18.794 34.227 18.663 34.197 18.512 34.137 C 17.778 33.835 17.737 33.533 18.321 33.01 C 18.623 32.728 18.965 32.497 19.418 32.467 C 19.72 32.487 19.911 32.618 19.81 32.98 Z M 23.05 50.043 L 23.05 49.872 C 23.12 49.943 23.09 50.003 23.05 50.043 Z M 23.03 50.214 C 22.969 50.436 22.919 50.667 22.859 50.868 C 22.818 50.627 22.879 50.395 23.03 50.214 Z M 21.621 52.307 C 21.299 52.307 20.967 52.327 20.645 52.307 C 20.343 52.287 20.213 52.398 20.233 52.699 L 20.233 52.76 C 20.233 53.836 20.172 53.685 21.098 53.705 C 21.249 53.705 21.47 53.575 21.51 53.816 C 21.551 54.038 21.319 54.038 21.148 54.058 C 20.655 54.148 20.263 54.43 19.83 54.641 C 19.247 54.943 18.794 55.396 18.15 55.718 C 18.15 55.547 18.13 55.456 18.13 55.355 C 18.116 54.691 18.432 54.252 19.076 54.038 C 19.206 53.977 19.337 53.967 19.418 53.846 C 19.548 53.675 19.569 52.267 19.458 52.096 C 19.367 51.945 19.237 51.925 19.086 52.005 C 18.874 52.076 18.653 52.156 18.422 52.227 C 18.331 52.247 18.18 52.438 18.1 52.206 C 18.059 52.076 18.059 51.905 18.251 51.834 C 18.703 51.663 19.176 51.462 19.679 51.613 C 20.323 51.804 20.977 51.915 21.661 51.955 C 21.792 51.975 22.023 51.915 22.023 52.126 C 22.023 52.367 21.782 52.317 21.631 52.317 Z M 21.802 52.83 C 21.762 53.041 21.802 53.353 21.43 53.343 C 21.279 53.323 21.128 53.343 20.977 53.343 C 20.756 53.343 20.545 53.384 20.545 53.001 C 20.545 52.619 20.736 52.629 20.997 52.639 L 21.209 52.639 C 21.279 52.639 21.38 52.619 21.45 52.639 C 21.581 52.679 21.863 52.508 21.812 52.83 Z M 19.136 60.99 C 18.623 60.879 18.442 61.1 18.442 61.613 L 18.442 62.65 C 18.442 62.821 18.442 62.992 18.16 63.022 L 18.16 60.748 C 18.16 60.145 18.14 59.541 18.12 58.917 C 18.12 58.696 18.12 58.464 18.442 58.313 C 18.442 58.897 18.462 59.44 18.442 59.994 C 18.422 60.316 18.532 60.426 18.834 60.386 C 18.945 60.366 19.055 60.366 19.176 60.386 C 19.307 60.406 19.589 60.275 19.538 60.557 C 19.498 60.708 19.599 61.1 19.146 60.99 Z M 19.227 61.664 C 19.116 62.056 18.985 62.438 18.864 62.831 C 18.824 62.831 18.804 62.811 18.774 62.811 L 18.774 61.583 C 18.774 61.362 18.884 61.302 19.076 61.322 C 19.317 61.362 19.267 61.513 19.227 61.664 Z M 18.945 60.044 C 18.703 60.064 18.774 59.853 18.774 59.722 C 18.774 59.44 18.814 59.159 18.774 58.877 C 18.683 58.233 18.905 57.77 19.357 57.297 C 19.73 56.925 20.092 56.784 20.615 56.925 C 20.313 57.921 20.052 58.917 19.73 59.903 C 19.599 60.265 19.206 60.034 18.935 60.054 Z M 20.162 56.462 C 20.384 56.201 20.233 55.597 20.877 55.768 C 20.816 56.502 20.766 56.563 20.162 56.462 Z M 20.162 55.436 C 19.971 55.265 19.971 55.064 20.162 54.873 C 20.484 54.551 20.856 54.42 21.349 54.42 C 21.279 54.681 21.219 54.933 21.138 55.154 C 21.068 55.366 20.313 55.587 20.162 55.436 Z M 21.842 51.633 C 21.349 51.562 20.846 51.573 20.373 51.422 C 19.599 51.18 18.864 51.16 18.11 51.512 C 17.999 51.14 18.09 50.949 18.452 50.838 C 19.055 50.667 19.468 50.234 19.709 49.671 C 19.84 49.389 19.991 49.329 20.273 49.329 C 20.987 49.349 21.722 49.349 22.436 49.329 C 22.738 49.329 22.869 49.349 22.738 49.701 C 22.547 50.224 22.416 50.778 22.265 51.301 C 22.205 51.562 22.094 51.673 21.832 51.623 Z M 17.456 53.927 C 17.416 53.585 16.943 53.102 17.667 52.87 C 18.16 52.74 18.623 52.528 19.136 52.347 C 19.206 53.645 19.206 53.665 18.009 54.007 C 17.838 54.048 17.496 54.38 17.466 53.937 Z M 17.647 58.555 C 17.536 57.971 17.476 57.519 17.385 57.066 C 17.345 56.855 17.426 56.744 17.597 56.613 C 18.18 56.201 18.764 55.768 19.327 55.315 C 19.538 55.144 19.609 55.184 19.76 55.406 C 20.021 55.838 19.981 56.14 19.589 56.502 C 18.925 57.126 18.341 57.82 17.647 58.555 Z M 18.321 63.455 C 18.391 63.384 18.512 63.284 18.623 63.344 C 18.754 63.434 18.663 63.555 18.623 63.666 C 18.472 64.229 18.281 64.813 18.1 65.457 C 17.647 64.793 17.778 63.877 18.321 63.465 Z M 12.244 88.869 C 12.184 89.09 12.224 89.341 11.812 89.231 C 11.359 89.1 11.53 88.869 11.6 88.647 C 13.693 81.544 15.776 74.451 17.888 67.368 C 19.418 62.207 20.957 57.046 22.506 51.874 C 22.597 51.552 22.577 51.18 22.869 50.919 C 21.832 54.611 20.796 58.303 19.76 61.986 C 17.255 70.95 14.749 79.914 12.244 88.869 Z M 15.363 88.979 C 15.252 89.352 15.081 89.472 14.699 89.452 C 14.116 89.392 13.512 89.382 12.928 89.382 C 12.556 89.402 12.455 89.311 12.566 88.929 C 13.24 86.575 13.904 84.22 14.538 81.886 C 18.884 66.282 23.221 50.687 27.547 35.093 C 28.493 31.652 29.388 28.201 30.334 24.76 C 30.706 23.372 31.259 22.054 32.145 20.897 C 32.789 20.092 33.101 20.102 33.634 20.987 C 34.087 21.782 34.197 22.647 34.278 23.513 C 34.338 24.026 34.298 24.529 34.298 24.871 C 34.519 26.813 33.775 28.372 33.282 29.992 C 28.875 44.53 24.448 59.068 20.021 73.596 C 18.462 78.717 16.892 83.858 15.353 88.979 Z M 60.517 49.591 C 46.924 59.008 33.312 68.364 19.699 77.741 C 19.508 77.872 19.307 78.003 19.025 78.194 C 19.287 77.288 19.538 76.504 19.76 75.729 C 19.83 75.487 20.021 75.387 20.192 75.256 C 25.615 71.302 31.058 67.328 36.481 63.354 C 43.282 58.384 50.094 53.434 56.895 48.444 C 58.726 47.105 60.356 45.546 61.885 43.866 C 62.076 43.655 62.257 43.343 62.539 43.413 C 62.841 43.484 62.801 43.866 62.821 44.127 C 63.012 46.351 62.368 48.303 60.527 49.591 Z" fill="rgb(140, 140, 140)"/><path d="M 113.236 53.001 C 112.763 52.891 112.28 52.83 111.767 52.81 C 109.926 52.72 108.075 52.79 106.234 52.75 C 105.892 52.75 105.761 52.86 105.711 53.182 C 105.147 56.492 104.564 59.833 103.96 63.163 C 103.9 63.505 104.03 63.505 104.282 63.505 L 107.069 63.505 C 107.33 63.525 107.461 63.445 107.522 63.143 C 107.673 62.127 107.864 61.13 108.045 60.134 C 108.065 59.963 108.065 59.762 108.347 59.772 C 108.799 59.792 109.272 59.752 109.725 59.813 C 110.651 59.923 110.832 60.185 110.761 61.13 C 110.761 61.241 110.721 61.372 110.701 61.503 C 110.63 62.066 110.53 62.609 110.55 63.183 C 110.55 63.404 110.61 63.505 110.852 63.505 L 113.88 63.505 C 114.182 63.505 114.242 63.334 114.071 63.133 C 113.86 62.911 113.92 62.68 113.961 62.438 C 114.021 62.006 114.091 61.573 114.182 61.12 C 114.444 59.672 114.273 59.279 113.055 58.525 C 113.055 58.505 113.055 58.484 113.035 58.434 C 114.242 57.871 114.806 57.177 115.087 55.929 C 115.43 54.329 114.846 53.384 113.246 53.011 Z M 110.962 57.257 C 110.832 57.297 110.681 57.348 110.53 57.348 C 110.228 57.388 109.906 57.388 109.604 57.408 C 108.866 57.395 108.565 57.029 108.699 56.311 C 108.833 55.594 109.242 55.255 109.926 55.295 C 110.208 55.295 110.49 55.275 110.771 55.315 C 111.335 55.376 111.677 55.657 111.727 56.07 C 111.798 56.583 111.486 57.066 110.952 57.257 Z" fill="rgb(140, 140, 140)"/><path d="M 128.599 42.82 C 130.199 42.166 130.783 40.958 130.803 39.389 C 130.803 38.483 130.37 37.9 129.545 37.558 C 128.941 37.296 128.318 37.185 127.684 37.185 C 125.702 37.145 123.75 37.165 121.788 37.145 C 121.506 37.145 121.416 37.256 121.376 37.507 C 120.792 40.837 120.209 44.188 119.605 47.528 C 119.565 47.77 119.585 47.89 119.887 47.89 C 120.842 47.87 121.828 47.87 122.804 47.89 C 123.066 47.89 123.126 47.78 123.166 47.548 C 123.317 46.532 123.509 45.536 123.69 44.52 C 123.73 44.369 123.67 44.107 123.991 44.127 C 124.555 44.148 125.118 44.107 125.672 44.218 C 126.195 44.309 126.446 44.59 126.446 45.144 C 126.446 45.365 126.406 45.616 126.376 45.838 C 126.316 46.361 126.225 46.914 126.185 47.458 C 126.165 47.649 126.124 47.89 126.487 47.89 C 127.503 47.87 128.539 47.87 129.555 47.89 C 129.837 47.89 129.917 47.679 129.766 47.548 C 129.485 47.266 129.595 46.965 129.636 46.663 C 129.696 46.21 129.807 45.757 129.877 45.305 C 130.088 43.946 129.877 43.494 128.62 42.82 Z M 126.738 41.552 C 126.265 41.773 125.742 41.743 125.229 41.743 C 124.525 41.743 124.23 41.398 124.344 40.707 C 124.458 40.016 124.873 39.664 125.591 39.65 C 125.913 39.65 126.245 39.63 126.567 39.691 C 127 39.781 127.322 39.972 127.392 40.425 C 127.452 40.898 127.181 41.351 126.728 41.552 Z" fill="rgb(140, 140, 140)"/><path d="M 141.518 38.715 C 140.562 37.286 139.093 36.884 137.906 36.853 C 136.004 36.853 134.626 37.246 133.439 38.131 C 131.517 39.56 130.712 41.572 130.742 43.896 C 130.783 46.16 131.93 47.528 133.922 47.981 C 137.745 48.846 141.316 46.532 142.051 42.689 C 142.312 41.31 142.292 39.942 141.508 38.715 Z M 137.674 44.641 C 137.181 45.335 136.427 45.586 135.582 45.466 C 134.928 45.375 134.485 44.902 134.354 44.107 C 134.314 43.805 134.294 43.524 134.284 43.222 C 134.344 42.296 134.566 41.431 135.059 40.646 C 135.451 40.002 135.984 39.57 136.749 39.52 C 137.785 39.429 138.459 39.912 138.59 40.928 C 138.761 42.286 138.459 43.524 137.664 44.641 Z" fill="rgb(140, 140, 140)"/><path d="M 102.521 53.665 C 101.566 52.76 100.378 52.498 99.091 52.518 C 97.551 52.518 96.233 52.911 95.137 53.705 C 93.064 55.235 92.259 57.358 92.37 59.843 C 92.48 61.986 93.728 63.304 95.811 63.706 C 96.847 63.897 97.883 63.837 98.899 63.555 C 101.686 62.801 103.678 60.295 103.809 57.418 C 103.87 55.989 103.598 54.691 102.511 53.675 Z M 100.248 57.277 C 100.207 58.374 99.966 59.4 99.302 60.285 C 98.789 60.959 98.115 61.211 97.31 61.13 C 96.706 61.07 96.253 60.758 96.102 60.175 C 95.67 58.555 96.012 57.066 97.078 55.788 C 97.441 55.355 97.964 55.144 98.527 55.124 C 99.453 55.084 100.127 55.708 100.237 56.684 C 100.258 56.875 100.237 57.076 100.237 57.267 Z" fill="rgb(140, 140, 140)"/><path d="M 154.064 37.155 C 153.681 39.318 153.349 41.441 152.907 43.534 C 152.253 46.663 150.552 48.051 147.343 48.162 C 146.598 48.192 145.854 48.142 145.13 47.981 C 143.369 47.609 142.534 46.582 142.514 44.781 C 142.494 43.353 142.886 41.974 143.107 40.576 C 143.268 39.57 143.49 38.564 143.641 37.558 C 143.691 37.205 143.842 37.145 144.154 37.145 C 145.049 37.165 145.934 37.165 146.83 37.145 C 147.182 37.145 147.273 37.216 147.202 37.588 C 146.82 39.64 146.468 41.703 146.105 43.765 C 146.075 43.926 146.055 44.097 146.055 44.258 C 146.055 45.033 146.448 45.455 147.222 45.496 C 148.409 45.556 149.084 45.063 149.325 43.805 C 149.717 41.783 150.07 39.751 150.412 37.719 C 150.482 37.286 150.603 37.115 151.086 37.135 C 152.072 37.185 153.058 37.145 154.074 37.145 Z" fill="rgb(140, 140, 140)"/><path d="M 114.494 37.205 C 114.373 37.92 114.232 38.634 114.132 39.348 C 114.091 39.65 113.92 39.66 113.689 39.66 C 112.22 39.66 110.751 39.67 109.282 39.65 C 108.92 39.65 108.779 39.751 108.769 40.103 C 108.749 40.445 108.528 40.898 108.669 41.089 C 108.84 41.31 109.313 41.149 109.665 41.159 C 110.641 41.159 111.616 41.18 112.582 41.159 C 112.934 41.159 113.005 41.28 112.945 41.582 C 112.834 42.176 112.723 42.779 112.633 43.383 C 112.592 43.645 112.462 43.715 112.21 43.715 C 110.993 43.705 109.765 43.715 108.548 43.705 C 108.236 43.705 108.095 43.785 108.085 44.107 C 108.085 44.319 108.025 44.53 107.984 44.741 C 107.911 45.15 108.075 45.355 108.477 45.355 C 109.926 45.355 111.385 45.375 112.834 45.355 C 113.246 45.355 113.307 45.476 113.226 45.838 C 113.095 46.431 112.985 47.035 112.894 47.639 C 112.864 47.84 112.784 47.9 112.582 47.9 C 109.775 47.9 106.968 47.9 104.161 47.9 C 103.729 47.9 103.93 47.619 103.96 47.468 C 104.262 45.717 104.574 43.966 104.886 42.206 C 105.167 40.636 105.449 39.057 105.721 37.487 C 105.761 37.276 105.801 37.175 106.043 37.175 C 108.82 37.175 111.586 37.175 114.363 37.175 C 114.413 37.175 114.454 37.205 114.514 37.216 Z" fill="rgb(140, 140, 140)"/><path d="M 126.869 60.175 C 127.151 60.175 127.432 60.175 127.714 60.175 C 128.167 60.155 128.62 60.094 128.73 60.738 C 128.77 60.98 129.052 61.12 129.294 61.191 C 129.897 61.362 130.501 61.342 131.074 61.06 C 131.346 60.929 131.517 60.718 131.507 60.396 C 131.487 60.084 131.266 59.953 131.014 59.843 C 130.28 59.541 129.495 59.4 128.74 59.179 C 128.277 59.048 127.825 58.897 127.412 58.655 C 126.376 58.062 125.953 57.166 126.165 55.989 C 126.396 54.691 127.09 53.756 128.277 53.182 C 129.847 52.428 131.487 52.307 133.147 52.72 C 134.555 53.072 135.33 54.098 135.441 55.537 C 135.461 55.818 135.38 55.919 135.089 55.909 C 134.193 55.899 133.308 55.899 132.412 55.909 C 132.201 55.909 132.111 55.859 132.03 55.637 C 131.769 54.943 130.249 54.732 129.766 55.305 C 129.505 55.617 129.585 55.979 129.998 56.201 C 130.451 56.442 130.954 56.543 131.447 56.684 C 132.241 56.905 133.046 57.076 133.771 57.488 C 134.807 58.072 135.179 58.927 134.978 60.104 C 134.737 61.493 133.972 62.499 132.704 63.082 C 130.934 63.887 129.092 64.088 127.221 63.414 C 125.893 62.931 125.118 61.805 125.148 60.577 C 125.148 60.285 125.229 60.155 125.541 60.175 C 125.984 60.195 126.436 60.175 126.879 60.175 Z" fill="rgb(140, 140, 140)"/><path d="M 72.781 60.175 C 73.063 60.175 73.345 60.175 73.626 60.175 C 74.069 60.175 74.552 60.044 74.662 60.728 C 74.703 60.959 74.974 61.1 75.216 61.181 C 75.82 61.372 76.423 61.332 76.997 61.06 C 77.268 60.929 77.449 60.718 77.439 60.406 C 77.439 60.094 77.198 59.963 76.946 59.853 C 76.212 59.551 75.427 59.41 74.673 59.179 C 74.401 59.098 74.129 59.018 73.878 58.917 C 72.238 58.253 71.684 57.066 72.228 55.386 C 72.469 54.621 72.912 53.987 73.586 53.555 C 75.417 52.377 77.389 52.216 79.421 52.86 C 80.609 53.233 81.293 54.319 81.323 55.557 C 81.323 55.818 81.283 55.939 80.981 55.939 C 80.085 55.919 79.2 55.939 78.305 55.939 C 78.134 55.939 77.983 55.939 77.942 55.708 C 77.892 55.325 77.6 55.164 77.258 55.084 C 76.866 54.993 76.473 54.993 76.081 55.104 C 75.789 55.184 75.568 55.335 75.538 55.667 C 75.498 56.02 75.729 56.18 76.001 56.291 C 76.675 56.573 77.389 56.714 78.083 56.915 C 78.616 57.076 79.16 57.237 79.653 57.509 C 80.639 58.052 81.051 58.857 80.91 59.963 C 80.729 61.342 80.045 62.378 78.808 63.012 C 77.097 63.887 75.286 64.098 73.425 63.555 C 71.916 63.113 71.041 61.976 71.061 60.627 C 71.061 60.326 71.121 60.175 71.473 60.195 C 71.896 60.225 72.328 60.195 72.761 60.195 Z" fill="rgb(140, 140, 140)"/><path d="M 90.187 52.961 C 89.865 52.891 89.543 52.83 89.211 52.81 C 87.37 52.699 85.518 52.79 83.677 52.75 C 83.315 52.73 83.265 52.921 83.224 53.182 C 82.641 56.492 82.057 59.833 81.474 63.163 C 81.413 63.485 81.514 63.505 81.776 63.505 L 84.603 63.505 C 84.884 63.525 84.975 63.434 85.015 63.163 C 85.086 62.65 85.186 62.147 85.277 61.654 C 85.367 61.181 85.337 60.577 85.599 60.275 C 85.921 59.933 86.545 60.215 87.048 60.145 C 87.37 60.145 87.702 60.165 88.064 60.145 C 90.327 60.034 91.887 58.736 92.38 56.623 C 92.813 54.722 92.018 53.384 90.197 52.951 Z M 88.345 57.448 C 87.893 57.67 87.42 57.69 87.048 57.67 C 86.343 57.67 86.048 57.344 86.162 56.694 C 86.162 56.633 86.162 56.583 86.182 56.543 C 86.313 56.15 86.142 55.436 86.524 55.355 C 87.259 55.205 88.084 55.144 88.768 55.637 C 89.311 56.009 89.07 57.066 88.355 57.448 Z" fill="rgb(140, 140, 140)"/><path d="M 165.916 37.155 C 164.447 38.825 163.058 40.415 161.65 41.995 C 161.438 42.226 161.428 42.387 161.569 42.669 C 162.404 44.369 163.209 46.079 164.064 47.87 C 163.31 47.87 162.626 47.88 161.952 47.87 C 161.328 47.86 160.563 48.112 160.12 47.78 C 159.708 47.468 159.627 46.703 159.396 46.14 C 159.235 45.747 159.084 45.345 158.903 44.902 C 158.239 45.777 157.585 46.613 156.971 47.468 C 156.74 47.79 156.498 47.89 156.116 47.89 C 154.999 47.87 153.883 47.89 152.665 47.89 C 153.732 46.643 154.738 45.476 155.744 44.309 C 156.237 43.735 156.72 43.152 157.233 42.588 C 157.414 42.387 157.434 42.236 157.303 41.995 C 156.629 40.656 155.985 39.308 155.321 37.96 C 155.211 37.729 155.1 37.487 154.949 37.185 C 156.247 37.185 157.495 37.185 158.742 37.185 C 158.973 37.185 158.984 37.377 159.044 37.517 C 159.336 38.272 159.617 39.016 159.949 39.872 C 160.422 39.228 160.905 38.674 161.277 38.061 C 161.68 37.366 162.193 37.105 162.998 37.175 C 163.934 37.256 164.869 37.195 165.916 37.195 Z" fill="rgb(140, 140, 140)"/><path d="M 92.279 37.578 C 91.635 37.276 90.961 37.145 90.267 37.145 C 88.496 37.145 86.726 37.165 84.975 37.145 C 84.673 37.145 84.583 37.236 84.522 37.507 C 84.371 38.453 84.2 39.389 84.029 40.334 C 83.597 42.84 83.144 45.325 82.711 47.87 C 83.838 47.87 84.955 47.87 86.041 47.89 C 86.303 47.89 86.263 47.699 86.303 47.548 C 86.454 46.663 86.625 45.798 86.756 44.912 C 86.816 44.63 86.907 44.5 87.229 44.52 C 87.963 44.54 88.698 44.54 89.412 44.5 C 91.635 44.369 93.155 43.121 93.648 41.069 C 94.04 39.429 93.577 38.212 92.269 37.588 Z M 89.643 41.803 C 89.191 42.045 88.698 42.015 88.366 42.015 C 87.661 42.015 87.353 41.706 87.44 41.089 C 87.48 40.938 87.5 40.767 87.53 40.596 C 87.658 39.945 88.06 39.63 88.738 39.65 C 88.949 39.65 89.17 39.691 89.382 39.721 C 89.814 39.791 90.227 39.912 90.337 40.415 C 90.428 40.928 90.126 41.522 89.643 41.793 Z" fill="rgb(140, 140, 140)"/><path d="M 49.933 37.487 C 49.349 37.266 48.725 37.145 48.102 37.145 L 42.85 37.145 C 42.568 37.145 42.457 37.216 42.397 37.507 C 41.813 40.948 41.19 44.379 40.566 47.86 C 41.663 47.86 42.709 47.86 43.765 47.88 C 44.067 47.88 44.138 47.77 44.178 47.508 C 44.329 46.663 44.5 45.818 44.63 44.962 C 44.671 44.641 44.761 44.49 45.144 44.51 C 45.858 44.55 46.572 44.53 47.287 44.49 C 49.701 44.359 51.301 42.89 51.633 40.495 C 51.824 39.107 51.2 37.97 49.923 37.487 Z M 47.448 41.834 C 47.015 42.045 46.562 42.005 46.26 42.005 C 45.529 42.005 45.214 41.696 45.315 41.079 C 45.335 40.948 45.355 40.817 45.385 40.687 C 45.516 40.345 45.295 39.731 45.727 39.691 C 46.522 39.6 47.387 39.479 48.041 40.103 C 48.474 40.516 48.112 41.512 47.437 41.834 Z" fill="rgb(140, 140, 140)"/><path d="M 100.982 37.165 C 100.077 37.125 99.171 37.165 98.266 37.165 L 98.266 37.145 L 96.294 37.145 C 95.901 37.145 95.408 37.034 95.127 37.216 C 94.845 37.407 94.915 37.93 94.845 38.312 C 94.302 41.361 93.768 44.409 93.225 47.468 C 93.165 47.79 93.225 47.88 93.587 47.88 C 94.513 47.86 95.428 47.86 96.354 47.88 C 96.656 47.88 96.746 47.77 96.787 47.508 C 96.917 46.643 97.109 45.777 97.239 44.932 C 97.28 44.57 97.43 44.52 97.752 44.52 C 98.467 44.54 99.161 44.54 99.875 44.5 C 101.867 44.409 103.356 43.333 103.96 41.622 C 104.866 39.077 103.678 37.306 100.982 37.175 Z M 100.077 41.803 C 99.644 42.045 99.171 42.015 98.829 42.015 C 98.091 42.015 97.776 41.696 97.883 41.059 C 97.944 40.838 97.974 40.586 98.034 40.345 C 98.165 39.67 98.165 39.65 98.879 39.67 C 99.181 39.67 99.503 39.691 99.805 39.731 C 100.278 39.801 100.73 39.972 100.801 40.526 C 100.871 40.978 100.519 41.602 100.066 41.823 Z" fill="rgb(140, 140, 140)"/><path d="M 121.205 52.77 C 122.704 52.77 124.213 52.77 125.712 52.77 C 126.034 52.77 126.145 52.82 126.064 53.182 C 125.913 53.856 125.812 54.541 125.712 55.225 C 125.672 55.516 125.561 55.637 125.239 55.627 C 124.484 55.597 123.72 55.637 122.965 55.607 C 122.593 55.587 122.452 55.708 122.392 56.07 C 122.03 58.193 121.647 60.326 121.275 62.448 C 121.094 63.515 121.104 63.515 120.027 63.515 C 119.353 63.515 118.669 63.495 117.995 63.515 C 117.613 63.535 117.552 63.374 117.613 63.052 C 118.025 60.748 118.428 58.444 118.85 56.14 C 118.921 55.738 118.891 55.577 118.428 55.597 C 117.683 55.627 116.939 55.597 116.194 55.617 C 115.842 55.627 115.782 55.496 115.842 55.184 C 115.973 54.551 116.124 53.927 116.174 53.283 C 116.214 52.8 116.426 52.74 116.838 52.75 C 118.287 52.77 119.746 52.75 121.195 52.75 Z" fill="rgb(140, 140, 140)"/><path d="M 67.881 47.82 C 68.133 46.401 68.374 44.973 68.626 43.544 C 68.978 41.552 69.35 39.55 69.682 37.558 C 69.733 37.256 69.813 37.145 70.135 37.145 C 71.061 37.165 71.986 37.165 72.912 37.145 C 73.224 37.145 73.304 37.216 73.244 37.537 C 72.791 40.002 72.369 42.467 71.916 44.932 C 71.855 45.284 71.966 45.345 72.278 45.345 C 73.536 45.335 74.793 45.345 76.041 45.345 C 76.457 45.345 76.628 45.543 76.554 45.938 C 76.453 46.492 76.353 47.045 76.262 47.598 C 76.232 47.79 76.192 47.89 75.97 47.88 C 73.294 47.87 70.618 47.86 67.942 47.85 C 67.922 47.85 67.912 47.84 67.871 47.82 Z" fill="rgb(140, 140, 140)"/><path d="M 77.671 47.87 C 78.274 44.429 78.878 41.039 79.462 37.638 C 79.522 37.276 79.633 37.115 80.045 37.135 C 80.951 37.175 81.866 37.155 82.772 37.135 C 83.033 37.135 83.104 37.185 83.053 37.467 C 82.46 40.787 81.876 44.117 81.293 47.448 C 81.242 47.759 81.132 47.87 80.79 47.87 C 79.763 47.84 78.747 47.87 77.671 47.87 Z" fill="rgb(140, 140, 140)"/><path d="M 114.745 70.799 C 114.464 70.477 114.373 70.195 114.655 69.803 C 115.198 68.998 114.806 68.073 113.85 67.902 C 113.156 67.771 112.462 67.771 111.737 67.811 C 111.305 67.831 111.043 68.052 111.063 68.525 L 111.063 72.439 C 111.043 72.781 111.174 73.103 111.496 73.113 C 112.421 73.153 113.377 73.324 114.283 72.942 C 115.259 72.55 115.47 71.584 114.755 70.799 Z M 112.844 68.596 C 113.407 68.596 113.82 68.918 113.82 69.33 C 113.82 69.743 113.407 70.024 112.864 70.024 C 112.391 70.045 112.059 69.763 112.059 69.36 C 112.059 68.908 112.401 68.586 112.854 68.586 Z M 113.387 72.318 C 113.256 72.359 113.105 72.359 112.955 72.359 C 112.351 72.359 112.049 72.137 112.049 71.644 C 112.049 71.121 112.351 70.87 112.955 70.87 C 113.126 70.87 113.277 70.87 113.448 70.93 C 113.82 71.02 114.102 71.232 114.102 71.624 C 114.081 72.016 113.759 72.228 113.387 72.318 Z" fill="rgb(140, 140, 140)"/><path d="M 110.037 72.489 C 109.926 72.379 109.755 72.318 109.604 72.248 C 109.152 72.037 108.759 71.775 108.508 71.302 C 108.357 71.02 108.377 70.849 108.699 70.678 C 109.353 70.336 109.584 69.853 109.473 69.038 C 109.403 68.415 108.98 67.932 108.306 67.811 C 107.652 67.72 106.968 67.72 106.294 67.72 C 105.882 67.72 105.62 67.942 105.56 68.415 C 105.489 69.089 105.56 69.773 105.54 70.427 C 105.54 71.091 105.52 71.745 105.54 72.409 C 105.56 72.711 105.65 73.053 106.053 73.033 C 106.415 73.012 106.546 72.751 106.566 72.409 C 106.566 72.147 106.606 71.886 106.606 71.614 C 106.606 71.292 106.717 71.051 107.039 70.97 C 107.381 70.9 107.491 71.161 107.582 71.403 C 107.904 72.117 108.377 72.66 109.111 72.942 C 109.373 73.033 109.624 73.163 109.916 73.053 C 110.218 72.942 110.288 72.68 110.047 72.469 Z M 107.381 70.085 C 106.838 70.085 106.606 69.873 106.586 69.37 C 106.586 68.847 106.827 68.596 107.361 68.576 C 107.924 68.576 108.357 68.898 108.377 69.31 C 108.377 69.783 108.005 70.085 107.381 70.085 Z" fill="rgb(140, 140, 140)"/><path d="M 129.183 72.489 C 129.052 72.379 128.881 72.318 128.71 72.248 C 128.277 72.027 127.885 71.755 127.654 71.302 C 127.503 71.041 127.523 70.849 127.825 70.678 C 128.539 70.316 128.75 69.813 128.599 68.948 C 128.509 68.364 128.016 67.871 127.362 67.801 C 126.738 67.73 126.114 67.71 125.501 67.73 C 125.068 67.73 124.766 67.942 124.706 68.425 C 124.615 69.441 124.686 70.457 124.686 71.574 C 124.645 71.855 124.625 72.228 124.726 72.61 C 124.796 72.852 124.917 73.063 125.199 73.043 C 125.44 73.023 125.631 72.892 125.672 72.63 C 125.712 72.328 125.732 72.027 125.732 71.745 C 125.732 71.383 125.823 71.091 126.165 70.99 C 126.557 70.9 126.658 71.252 126.788 71.513 C 127.09 72.188 127.583 72.721 128.298 72.982 C 128.539 73.073 128.791 73.173 129.052 73.073 C 129.374 72.962 129.445 72.711 129.203 72.489 Z M 126.527 70.085 C 125.963 70.085 125.722 69.863 125.722 69.33 C 125.742 68.857 126.024 68.596 126.517 68.576 C 127.08 68.576 127.513 68.898 127.513 69.31 C 127.533 69.783 127.151 70.085 126.537 70.085 Z" fill="rgb(140, 140, 140)"/><path d="M 101.103 70.457 C 101.103 69.793 101.113 69.139 101.103 68.475 C 101.093 68.012 101.354 67.801 101.767 67.791 C 102.491 67.771 103.216 67.771 103.94 67.791 C 104.212 67.791 104.534 67.881 104.513 68.264 C 104.493 68.626 104.212 68.676 103.9 68.686 C 103.477 68.696 103.045 68.656 102.622 68.757 C 102.27 68.837 102.119 69.038 102.139 69.38 C 102.159 69.723 102.34 69.934 102.692 69.954 C 102.954 69.974 103.216 69.964 103.487 69.974 C 103.598 69.974 103.719 69.964 103.829 69.984 C 104.091 70.045 104.393 70.115 104.363 70.447 C 104.332 70.749 104.071 70.849 103.779 70.859 C 103.467 70.859 103.145 70.839 102.843 70.87 C 102.531 70.9 102.22 70.99 102.139 71.373 C 102.038 71.855 102.32 72.218 102.823 72.228 C 103.236 72.238 103.648 72.208 104.061 72.248 C 104.342 72.278 104.715 72.318 104.695 72.721 C 104.664 73.093 104.342 73.143 104.02 73.133 C 103.296 73.133 102.572 73.133 101.847 73.133 C 101.344 73.133 101.123 72.932 101.113 72.419 C 101.093 71.765 101.113 71.101 101.113 70.447 C 101.113 70.447 101.113 70.447 101.123 70.447 Z" fill="rgb(140, 140, 140)"/><path d="M 122.07 73.143 C 121.687 73.143 121.305 73.143 120.933 73.143 C 120.51 73.143 120.269 72.952 120.269 72.53 C 120.269 71.151 120.269 69.773 120.269 68.395 C 120.269 67.982 120.541 67.821 120.862 67.811 C 121.617 67.781 122.382 67.791 123.136 67.811 C 123.408 67.811 123.68 67.942 123.67 68.274 C 123.659 68.596 123.408 68.686 123.106 68.696 C 122.663 68.706 122.221 68.656 121.778 68.767 C 121.436 68.857 121.255 69.048 121.285 69.391 C 121.315 69.743 121.516 69.964 121.899 69.974 C 122.211 69.974 122.523 69.974 122.845 69.994 C 123.156 70.014 123.549 70.075 123.529 70.467 C 123.509 70.819 123.166 70.88 122.845 70.88 C 122.482 70.88 122.12 70.839 121.758 70.94 C 121.355 71.051 121.235 71.312 121.285 71.684 C 121.335 72.037 121.557 72.238 121.919 72.248 C 122.261 72.258 122.613 72.248 122.955 72.248 C 123.116 72.248 123.287 72.268 123.438 72.308 C 123.659 72.359 123.861 72.459 123.841 72.731 C 123.82 73.013 123.599 73.123 123.358 73.133 C 122.925 73.153 122.502 73.133 122.07 73.133 L 122.07 73.133 Z" fill="rgb(140, 140, 140)"/><path d="M 81.383 67.781 C 80.176 67.69 79.371 68.666 79.421 69.622 C 79.462 70.397 79.854 70.88 80.739 71.202 C 81.232 71.373 81.303 71.544 81.081 72.006 C 81.011 72.157 80.89 72.308 80.8 72.459 C 80.709 72.63 80.669 72.821 80.82 72.972 C 80.991 73.123 81.192 73.184 81.403 73.043 C 81.534 72.972 81.645 72.872 81.745 72.761 C 82.289 72.027 82.852 71.272 83.174 70.407 C 83.758 68.807 82.651 67.66 81.383 67.771 Z M 81.283 70.517 C 80.87 70.517 80.417 70.045 80.417 69.612 C 80.417 69.069 80.83 68.666 81.393 68.666 C 81.957 68.666 82.339 69.079 82.319 69.612 C 82.299 70.135 81.846 70.517 81.283 70.517 Z" fill="rgb(140, 140, 140)"/><path d="M 91.042 69.853 C 90.418 69.612 90.368 69.401 90.76 68.757 C 90.911 68.515 91.102 68.234 90.78 67.982 C 90.458 67.761 90.156 67.942 89.975 68.203 C 89.482 68.877 88.979 69.562 88.637 70.326 C 87.963 71.835 88.728 73.224 90.237 73.224 L 90.448 73.224 C 91.334 73.204 92.108 72.6 92.239 71.866 C 92.41 70.87 92.028 70.205 91.052 69.833 Z M 90.307 72.359 C 89.764 72.338 89.331 71.906 89.352 71.383 C 89.372 70.93 89.895 70.457 90.368 70.477 C 90.861 70.497 91.313 70.99 91.293 71.453 C 91.273 71.976 90.861 72.359 90.317 72.359 Z" fill="rgb(140, 140, 140)"/><path d="M 100.258 68.354 C 100.127 68.706 99.976 69.109 99.815 69.501 C 99.413 70.467 99 71.433 98.598 72.409 C 98.467 72.731 98.296 73.013 97.913 73.033 C 97.521 73.053 97.34 72.751 97.209 72.439 C 96.676 71.131 96.163 69.823 95.64 68.515 C 95.529 68.254 95.579 68.032 95.821 67.871 C 96.062 67.71 96.263 67.851 96.445 67.992 C 96.626 68.123 96.706 68.324 96.787 68.525 C 97.008 69.119 97.239 69.723 97.481 70.316 C 97.581 70.568 97.672 70.93 97.974 70.93 C 98.276 70.93 98.366 70.568 98.467 70.316 C 98.728 69.662 98.98 68.998 99.231 68.344 C 99.322 68.093 99.473 67.912 99.745 67.871 C 100.077 67.831 100.238 67.982 100.248 68.364 Z" fill="rgb(140, 140, 140)"/><path d="M 85.76 67.791 C 86.313 67.73 86.786 67.881 87.128 68.314 C 87.551 68.837 87.571 69.26 87.178 69.904 C 86.987 70.226 86.917 70.487 87.178 70.839 C 87.893 71.835 87.47 72.952 86.273 73.214 C 85.639 73.345 84.995 73.324 84.432 72.912 C 84.16 72.721 83.959 72.489 84.15 72.177 C 84.341 71.855 84.663 71.926 84.935 72.077 C 85.176 72.208 85.398 72.369 85.699 72.369 C 86.152 72.369 86.434 72.177 86.524 71.755 C 86.605 71.363 86.414 71.101 86.041 70.97 C 85.921 70.93 85.8 70.88 85.679 70.809 C 85.307 70.598 85.297 70.336 85.659 70.095 C 85.78 70.014 85.921 69.954 86.052 69.894 C 86.414 69.723 86.444 69.411 86.353 69.099 C 86.273 68.797 86.021 68.666 85.699 68.686 C 85.418 68.706 85.166 68.837 84.905 68.928 C 84.633 69.018 84.351 69.048 84.21 68.757 C 84.08 68.475 84.261 68.264 84.492 68.093 C 84.874 67.821 85.307 67.751 85.75 67.801 Z" fill="rgb(140, 140, 140)"/><path d="M 117.703 67.881 C 118.096 67.881 118.498 67.881 118.891 67.881 C 119.132 67.881 119.333 67.962 119.373 68.213 C 119.414 68.485 119.192 68.545 118.971 68.606 C 118.327 68.787 118.216 68.938 118.206 69.612 C 118.206 70.256 118.206 70.9 118.206 71.544 C 118.206 72.047 118.408 72.369 118.921 72.429 C 119.192 72.459 119.434 72.54 119.394 72.862 C 119.353 73.173 119.092 73.224 118.83 73.224 C 118.076 73.224 117.311 73.224 116.556 73.224 C 116.295 73.224 116.043 73.153 116.023 72.831 C 116.003 72.52 116.245 72.479 116.476 72.429 C 117.059 72.288 117.2 72.087 117.2 71.493 C 117.2 70.87 117.2 70.246 117.2 69.612 C 117.2 68.978 117.049 68.787 116.466 68.626 C 116.255 68.566 115.973 68.566 116.013 68.223 C 116.053 67.891 116.315 67.881 116.566 67.871 C 116.949 67.871 117.321 67.871 117.703 67.871 Z" fill="rgb(140, 140, 140)"/><path d="M 77.641 71.061 C 77.641 70.678 77.641 70.306 77.641 69.924 C 77.63 69.36 77.47 69.25 76.936 69.431 C 76.856 69.461 76.775 69.481 76.705 69.521 C 76.534 69.612 76.423 69.521 76.323 69.401 C 76.232 69.29 76.222 69.159 76.323 69.038 C 76.705 68.555 77.138 68.123 77.721 67.912 C 78.204 67.741 78.526 67.992 78.536 68.505 C 78.556 69.743 78.576 70.97 78.566 72.208 C 78.566 72.54 78.647 73.053 78.113 73.033 C 77.63 73.023 77.661 72.55 77.641 72.198 C 77.63 71.815 77.641 71.443 77.641 71.061 Z" fill="rgb(140, 140, 140)"/><path d="M 27.024 34.831 C 26.762 33.745 26.028 32.98 25.142 32.215 C 25.575 32.165 25.937 32.255 26.269 32.145 C 26.37 32.115 26.511 32.115 26.491 31.944 C 26.47 31.773 26.35 31.793 26.229 31.813 C 24.931 31.984 23.845 31.481 22.818 30.766 C 22.426 30.495 21.983 30.485 21.541 30.455 C 21.128 30.424 20.716 30.434 20.303 30.455 C 20.172 30.455 19.921 30.344 19.931 30.626 C 19.951 30.927 20.182 30.797 20.343 30.787 C 20.585 30.766 20.826 30.746 21.188 30.827 C 20.635 31.239 20.172 31.632 19.77 32.084 C 19.72 32.145 19.589 32.125 19.488 32.135 C 18.593 32.145 18.039 32.688 17.587 33.372 C 17.436 33.594 17.466 33.815 17.677 33.996 C 17.848 34.147 18.019 34.308 18.22 34.419 C 18.975 34.841 19.357 34.72 19.76 33.956 C 20.011 33.493 20.293 33.03 20.082 32.467 C 20.041 32.346 20.112 32.286 20.172 32.205 C 20.605 31.722 21.078 31.29 21.681 31.028 C 21.923 30.927 22.184 30.887 22.406 30.998 C 23.613 31.672 24.861 32.296 25.796 33.352 C 26.692 34.368 26.963 35.485 26.551 36.823 C 25.404 40.566 24.327 44.329 23.221 48.081 C 23.07 48.605 22.828 48.695 22.416 48.303 C 22.215 48.112 22.013 48.061 21.762 48.061 C 21.068 48.061 20.373 48.061 19.679 48.061 C 19.468 48.061 19.327 48.041 19.347 47.77 C 19.508 45.134 19.377 42.447 20.343 39.912 C 20.655 39.087 21.017 38.262 21.178 37.387 C 21.349 36.481 21.128 36.089 20.253 35.757 C 19.287 35.384 18.321 35.012 17.416 34.489 C 17.013 34.258 16.631 33.996 16.329 33.644 C 15.866 33.101 15.856 32.728 16.329 32.205 C 17.084 31.37 17.878 30.585 18.633 29.75 C 19.669 28.593 20.434 27.275 20.726 25.726 C 20.776 25.444 20.897 25.464 21.098 25.545 C 22.939 26.279 24.83 26.823 26.782 27.205 C 27.084 27.265 27.155 27.386 27.014 27.678 C 26.782 28.141 26.501 28.553 26.189 28.966 C 25.827 29.448 25.827 30.042 26.179 30.525 C 26.511 30.978 27.084 30.958 27.356 30.465 C 27.466 30.263 27.537 30.042 27.587 29.821 C 27.728 29.076 28.151 28.463 28.503 27.809 C 28.563 27.698 28.664 27.597 28.764 27.507 C 28.885 27.386 29.066 27.295 29.217 27.376 C 29.388 27.477 29.237 27.638 29.197 27.768 C 28.533 30.062 27.869 32.346 27.195 34.64 C 27.175 34.72 27.155 34.801 27.044 34.841 Z" fill="rgb(140, 140, 140)"/><path d="M 32.477 33.865 C 32.769 32.93 33.04 32.044 33.312 31.149 C 33.352 31.008 33.402 30.907 33.543 30.857 C 34.519 30.485 35.525 30.223 36.582 30.374 C 37.839 30.555 38.614 31.32 38.976 32.507 C 39.328 33.654 39.389 34.831 39.409 36.018 C 39.479 39.59 39.057 43.121 38.564 46.643 C 38.534 46.884 38.564 47.015 38.765 47.166 C 39.55 47.749 39.58 49.118 38.855 49.802 C 38.765 49.882 38.705 49.892 38.604 49.822 C 37.578 49.087 36.411 49.228 35.264 49.279 C 34.72 49.299 34.268 49.208 33.835 48.866 C 33.513 48.605 33.131 48.413 32.698 48.444 C 32.356 48.464 32.266 48.273 32.225 48.001 C 32.185 47.719 32.185 47.427 32.326 47.176 C 32.859 46.22 32.849 45.154 33.02 44.117 C 33.302 42.377 33.533 40.636 33.775 38.886 C 33.946 37.668 33.966 36.451 33.905 35.234 C 33.855 34.268 33.503 33.956 32.467 33.835 Z" fill="rgb(140, 140, 140)"/><path d="M 15.212 14.277 C 17.335 12.536 19.689 11.56 22.285 10.956 C 23.422 10.695 24.368 10.685 25.344 11.248 C 25.987 11.62 26.33 12.123 26.32 12.928 C 26.309 15.554 26.088 18.16 25.686 20.756 C 25.635 21.088 25.555 21.319 25.132 21.4 C 24.327 21.541 23.774 22.034 23.523 22.828 C 23.362 23.341 23.191 23.865 23.05 24.388 C 22.989 24.619 22.919 24.67 22.677 24.629 C 21.541 24.468 21.48 24.398 21.722 23.291 C 21.903 22.436 22.184 21.611 22.446 20.776 C 23.02 18.965 23.482 17.134 23.623 15.232 C 23.643 14.9 23.623 14.568 23.603 14.246 C 23.573 13.773 23.412 13.673 22.949 13.844 C 22.899 13.864 22.848 13.864 22.808 13.894 C 21.712 14.709 20.484 14.78 19.176 14.578 C 17.878 14.387 16.57 14.246 15.202 14.266 Z" fill="rgb(140, 140, 140)"/><path d="M 52.398 27.326 C 50.868 25.806 49.138 24.539 47.357 23.352 C 45.989 22.436 44.902 21.209 43.675 20.122 C 43.202 19.699 42.85 19.247 42.799 18.593 C 42.779 18.351 42.739 18.039 42.427 17.949 C 42.115 17.858 41.894 18.049 41.693 18.261 C 41.089 18.884 40.646 19.619 40.184 20.343 C 40.033 20.575 39.892 20.806 39.711 21.098 C 39.479 20.142 39.64 19.257 39.811 18.412 C 40.163 16.621 39.791 14.941 39.238 13.27 C 39.198 13.15 39.157 13.029 39.097 12.838 C 40.848 13.049 42.206 13.804 43.162 15.242 C 43.514 15.766 43.735 16.349 43.906 16.953 C 44.449 18.864 45.415 20.434 47.055 21.661 C 49.067 23.16 50.808 24.981 52.357 26.973 C 52.418 27.054 52.458 27.145 52.508 27.225 C 52.478 27.255 52.448 27.285 52.428 27.316 Z" fill="rgb(140, 140, 140)"/><path d="M 32.145 58.052 C 32.195 56.653 32.054 54.973 32.245 53.293 C 32.255 53.182 32.255 53.062 32.286 52.951 C 32.628 51.261 32.769 51.331 34.439 51.552 C 34.881 51.613 35.123 51.895 35.113 52.377 C 35.093 53.041 35.093 53.695 35.113 54.359 C 35.113 54.631 35.012 54.742 34.761 54.792 C 34.388 54.862 34.026 54.973 33.684 55.144 C 33.342 55.315 33.231 55.577 33.382 55.919 C 33.533 56.261 33.815 56.352 34.157 56.211 C 34.238 56.18 34.308 56.14 34.378 56.11 C 34.58 56.03 34.781 55.768 34.992 55.939 C 35.193 56.1 35.103 56.402 35.093 56.643 C 35.083 56.995 34.902 57.277 34.6 57.448 C 34.288 57.619 34.177 57.881 34.117 58.203 C 33.966 59.038 34.046 59.883 34.046 60.718 C 34.046 60.919 34.137 61.1 34.308 61.231 C 34.64 61.493 34.902 62.227 34.7 62.539 C 34.489 62.871 34.137 63.062 33.694 63.052 C 33.312 63.032 32.93 63.022 32.557 63.052 C 32.195 63.082 32.125 62.941 32.135 62.609 C 32.155 61.191 32.135 59.772 32.135 58.062 Z" fill="rgb(140, 140, 140)"/><path d="M 31.471 0.624 C 33.604 0.111 35.636 0.241 37.507 1.509 C 37.729 1.66 37.839 1.851 37.89 2.113 C 38.171 3.38 38.141 4.668 38.061 5.946 C 38.041 6.308 37.195 6.731 36.894 6.55 C 36.783 6.489 36.813 6.379 36.813 6.288 C 36.813 6.188 36.813 6.077 36.934 6.057 C 37.014 6.037 37.105 6.027 37.175 6.037 C 37.688 6.137 37.809 5.916 37.789 5.423 C 37.769 5 37.719 4.769 37.236 4.849 C 36.884 4.91 36.753 4.749 36.803 4.407 C 36.884 3.773 36.401 4.034 36.119 3.974 C 35.767 3.914 35.636 4.065 35.696 4.407 C 35.767 4.799 35.566 4.91 35.223 4.849 C 34.71 4.759 34.72 5.071 34.73 5.433 C 34.73 5.775 34.69 6.117 35.223 6.037 C 35.334 6.016 35.455 6.037 35.566 6.037 C 35.737 6.057 35.686 6.198 35.696 6.308 C 35.696 6.449 35.606 6.469 35.495 6.449 C 35.093 6.389 34.68 6.308 34.278 6.248 C 34.147 6.228 34.117 6.147 34.117 6.047 C 34.066 4.055 32.95 2.566 31.783 1.097 C 31.692 0.976 31.591 0.875 31.501 0.755 C 31.481 0.734 31.481 0.694 31.471 0.614 Z" fill="rgb(140, 140, 140)"/><path d="M 6.429 71.423 C 6.429 71.423 6.429 71.393 6.429 71.322 C 6.369 70.568 6.389 70.548 7.093 70.839 C 7.566 71.03 7.998 71.302 8.049 71.866 C 8.099 72.439 7.707 72.781 7.254 73.023 C 6.328 73.516 5.363 73.566 4.407 73.113 C 3.863 72.862 3.602 72.389 3.692 71.936 C 3.773 71.503 4.487 70.88 4.93 70.829 C 5.091 70.809 5.081 70.89 5.091 70.99 C 5.111 71.202 5.171 71.423 5.151 71.624 C 5.101 72.127 5.322 72.308 5.805 72.268 C 6.328 72.228 6.459 72.097 6.429 71.423 Z" fill="rgb(140, 140, 140)"/><path d="M 18.15 55.718 C 18.15 55.557 18.13 55.456 18.13 55.366 C 18.12 54.359 18.12 54.359 19.076 54.037 C 19.206 53.997 19.327 53.967 19.408 53.856 C 19.528 53.695 19.559 52.287 19.448 52.106 C 19.347 51.955 19.227 51.935 19.066 52.005 C 18.854 52.096 18.633 52.166 18.412 52.237 C 18.311 52.267 18.17 52.448 18.09 52.227 C 18.039 52.086 18.049 51.915 18.23 51.854 C 18.693 51.683 19.156 51.472 19.659 51.613 C 20.313 51.804 20.967 51.925 21.651 51.965 C 21.782 51.965 22.003 51.925 21.993 52.136 C 21.993 52.377 21.762 52.317 21.611 52.317 C 21.279 52.317 20.947 52.327 20.625 52.317 C 20.333 52.307 20.182 52.418 20.212 52.72 C 20.212 52.74 20.212 52.75 20.212 52.77 C 20.212 53.846 20.152 53.685 21.088 53.705 C 21.229 53.705 21.46 53.595 21.5 53.826 C 21.53 54.058 21.299 54.037 21.148 54.068 C 20.655 54.158 20.263 54.45 19.83 54.661 C 19.237 54.953 18.784 55.416 18.15 55.728 Z" fill="rgb(140, 140, 140)"/><path d="M 52.619 27.406 C 52.75 27.658 53.001 27.688 53.243 27.748 C 54.098 27.97 54.772 28.412 55.154 29.247 C 55.235 29.428 55.305 29.62 55.295 29.821 C 55.275 30.243 55.044 30.404 54.641 30.243 C 54.178 30.062 53.716 29.931 53.202 30.133 C 53.112 29.197 53.233 28.231 52.548 27.477 C 52.579 27.456 52.599 27.436 52.629 27.416 Z" fill="rgb(140, 140, 140)"/><path d="M 3.209 31.169 C 3.079 30.766 3.32 30.616 3.632 30.465 C 4.477 30.062 4.467 30.052 4.487 31.008 C 4.497 31.561 4.537 32.125 4.568 32.678 C 4.578 33 3.813 33.724 3.491 33.684 C 3.31 33.664 3.38 33.513 3.36 33.413 C 3.24 32.668 3.34 31.903 3.209 31.159 Z" fill="rgb(140, 140, 140)"/><path d="M 2.998 27.235 C 2.958 26.45 2.938 25.686 2.867 24.941 C 2.837 24.619 2.928 24.478 3.23 24.368 C 4.175 24.036 4.165 24.016 4.246 25.002 C 4.256 25.183 4.246 25.364 4.266 25.545 C 4.306 26.403 3.88 26.967 2.988 27.235 Z" fill="rgb(140, 140, 140)"/><path d="M 38.433 52.327 C 39.006 52.327 39.127 52.448 39.016 52.82 C 38.996 52.88 38.996 52.971 38.916 52.971 C 38.362 52.981 38.443 53.424 38.383 53.756 C 38.312 54.108 38.272 54.47 38.202 54.822 C 38.121 55.225 38.222 55.527 38.664 55.587 C 39.177 55.657 39.027 56.02 39.006 56.301 C 38.986 56.533 38.805 56.382 38.705 56.331 C 38.03 55.999 37.688 55.134 37.92 54.279 C 38.051 53.806 38.091 53.333 38.02 52.86 C 37.96 52.438 38 52.196 38.423 52.327 Z" fill="rgb(140, 140, 140)"/><path d="M 18.15 63.022 C 18.15 62.247 18.15 61.503 18.15 60.748 C 18.15 60.134 18.13 59.531 18.12 58.917 C 18.12 58.686 18.1 58.454 18.442 58.313 C 18.442 58.897 18.462 59.44 18.442 59.994 C 18.432 60.305 18.542 60.416 18.834 60.376 C 18.945 60.366 19.066 60.356 19.176 60.376 C 19.307 60.406 19.589 60.265 19.518 60.547 C 19.478 60.708 19.589 61.09 19.126 60.98 C 18.633 60.869 18.442 61.08 18.442 61.593 C 18.442 61.935 18.442 62.287 18.442 62.63 C 18.442 62.801 18.442 62.962 18.16 63.002 Z" fill="rgb(140, 140, 140)"/><path d="M 60.627 31.622 C 59.923 31.602 59.561 31.31 59.521 30.766 C 59.501 30.495 59.581 30.344 59.883 30.445 C 60.265 30.565 60.617 30.756 60.859 31.088 C 60.949 31.219 61.11 31.36 61.04 31.521 C 60.959 31.712 60.748 31.591 60.627 31.632 Z" fill="rgb(140, 140, 140)"/><path d="M 44.651 29.972 C 45.466 29.891 45.818 30.082 45.898 30.656 C 45.918 30.766 45.959 30.867 45.757 30.877 C 45.113 30.897 44.852 30.726 44.671 30.112 C 44.661 30.062 44.661 30.022 44.651 29.972 Z" fill="rgb(140, 140, 140)"/><path d="M 46.934 30.273 C 47.77 30.354 47.88 30.445 47.971 30.998 C 48.001 31.149 47.971 31.199 47.81 31.189 C 47.438 31.159 47.095 31.109 47.045 30.636 C 47.035 30.525 46.975 30.414 46.934 30.273 Z" fill="rgb(140, 140, 140)"/><path d="M 7.687 14.498 C 7.898 14.659 8.059 14.79 8.24 14.91 C 8.401 15.011 8.612 15.071 8.542 15.343 C 8.491 15.544 8.351 15.595 8.17 15.595 C 7.918 15.595 7.707 15.524 7.646 15.252 C 7.596 15.011 7.606 14.77 7.687 14.508 Z" fill="rgb(140, 140, 140)"/><path d="M 20.162 56.472 C 20.384 56.211 20.243 55.607 20.887 55.768 C 20.836 56.512 20.786 56.563 20.162 56.472 Z" fill="rgb(140, 140, 140)"/><path d="M 52.488 27.245 C 52.538 27.305 52.579 27.356 52.629 27.416 C 52.599 27.436 52.579 27.456 52.548 27.477 C 52.498 27.426 52.448 27.376 52.398 27.336 C 52.428 27.305 52.458 27.275 52.478 27.245 Z" fill="rgb(140, 140, 140)"/><path d="M 29.941 20.726 C 29.831 20.766 29.7 20.816 29.579 20.877 C 28.925 21.249 28.261 21.631 27.527 21.802 C 27.376 21.842 27.336 21.913 27.316 22.044 C 27.245 22.366 27.165 22.708 27.094 23.08 C 27.376 23.08 27.637 23.12 27.889 23.12 C 28.261 23.1 28.402 23.191 28.231 23.593 C 27.929 24.368 27.587 25.132 27.195 25.887 C 26.933 26.4 26.953 26.47 27.517 26.662 C 27.708 26.722 27.909 26.752 28.1 26.772 C 28.513 26.833 28.774 26.702 28.945 26.249 C 29.358 25.142 29.791 24.046 30.133 22.919 C 30.304 22.355 30.475 21.772 30.525 21.188 C 30.585 20.716 30.394 20.585 29.941 20.736 Z M 29.941 22.366 C 29.579 23.623 29.137 24.871 28.623 26.078 C 28.473 26.47 27.758 26.591 27.477 26.289 C 27.366 26.159 27.497 26.078 27.547 25.988 C 27.98 25.122 28.372 24.197 28.694 23.281 C 28.825 22.909 28.714 22.808 28.352 22.828 C 28.201 22.828 28.05 22.828 27.919 22.808 C 27.788 22.768 27.557 22.879 27.557 22.657 C 27.557 22.466 27.517 22.205 27.778 22.114 C 28.603 21.852 29.338 21.42 30.153 20.987 C 30.193 21.53 30.042 21.963 29.931 22.376 Z" fill="rgb(140, 140, 140)"/><path d="M 7.807 17.577 C 7.807 17.245 7.707 16.953 7.566 16.671 C 7.505 16.56 7.415 16.44 7.606 16.349 C 7.807 16.248 7.817 16.43 7.868 16.53 C 8.642 18.029 7.727 19.005 6.509 19.428 C 6.419 19.458 6.318 19.488 6.268 19.347 C 6.218 19.206 6.288 19.136 6.409 19.096 C 6.711 18.995 6.982 18.854 7.234 18.663 C 7.596 18.391 7.797 18.029 7.807 17.587 Z" fill="rgb(140, 140, 140)"/><path d="M 32.537 14.136 C 32.728 15.152 33.312 15.715 34.077 15.715 C 34.73 15.695 35.244 15.192 35.374 14.337 C 34.378 15.031 33.473 14.749 32.527 14.126 Z M 34.177 15.474 C 34.177 15.474 34.087 15.474 33.986 15.474 C 33.815 15.454 33.443 15.514 33.443 15.283 C 33.463 14.961 33.835 15.021 34.087 15.021 C 34.127 15.021 34.157 15.041 34.177 15.041 C 34.368 15.081 34.61 15.081 34.61 15.283 C 34.61 15.504 34.348 15.454 34.177 15.474 Z" fill="rgb(140, 140, 140)"/></g></g></svg>