<svg xmlns="http://www.w3.org/2000/svg" xmlns:xlink="http://www.w3.org/1999/xlink" viewBox="0 0 56.934 30.96" overflow="visible"><g><path d="M 38.387 8.691 L 50.748 23.664 L 21.301 18.545 L 38.388 8.691 Z" fill="rgb(216,0,15)"></path><path d="M 23.334 11.572 L 29.431 11.464 C 29.431 11.464 23.499 4.842 31.355 5.165 C 31.355 5.165 38.551 5.218 45.584 11.25 L 52.616 11.196 C 52.616 11.196 47.398 3.601 36.024 0.64 C 36.024 0.64 26.903 -1.946 23.277 3.278 C 23.277 3.278 20.64 6.672 23.333 11.572" fill="rgb(0,137,207)"></path><path d="M 42.162 17.109 L 43.687 17.112 L 44.774 18.463 L 46.481 18.456 L 47.418 19.587 L 45.701 19.589 L 46.765 20.931 L 45.219 20.931 L 44.152 19.592 L 42.025 19.599 L 41.034 18.467 L 43.244 18.462 Z" fill="rgb(255,255,255)"></path><path d="M 0 16.28 L 1.752 16.191 C 1.776 16.738 1.873 17.107 2.042 17.299 C 2.312 17.61 2.815 17.766 3.547 17.766 C 4.156 17.766 4.596 17.66 4.868 17.449 C 5.138 17.237 5.274 16.981 5.274 16.682 C 5.274 16.421 5.164 16.202 4.942 16.022 C 4.786 15.891 4.359 15.677 3.659 15.381 C 2.961 15.086 2.45 14.839 2.127 14.641 C 1.807 14.443 1.554 14.186 1.37 13.872 C 1.185 13.556 1.093 13.188 1.093 12.763 C 1.093 12.025 1.364 11.411 1.91 10.925 C 2.455 10.438 3.244 10.194 4.278 10.194 C 5.326 10.194 6.14 10.433 6.715 10.911 C 7.291 11.39 7.607 12.027 7.664 12.822 L 5.912 12.9 C 5.868 12.484 5.713 12.164 5.447 11.94 C 5.18 11.719 4.788 11.609 4.267 11.609 C 3.756 11.609 3.391 11.697 3.173 11.872 C 2.954 12.048 2.844 12.269 2.844 12.537 C 2.844 12.789 2.944 12.997 3.143 13.161 C 3.342 13.329 3.785 13.559 4.47 13.851 C 5.5 14.286 6.156 14.64 6.438 14.912 C 6.858 15.311 7.068 15.824 7.068 16.452 C 7.068 17.227 6.755 17.888 6.13 18.438 C 5.504 18.987 4.634 19.262 3.519 19.262 C 2.751 19.262 2.083 19.136 1.52 18.884 C 0.956 18.631 0.558 18.28 0.326 17.832 C 0.093 17.383 -0.014 16.867 0.002 16.282 Z M 14.563 15.181 L 11.119 15.181 L 10.281 19.099 L 8.45 19.099 L 10.323 10.354 L 12.153 10.354 L 11.432 13.726 L 14.874 13.726 L 15.596 10.354 L 17.426 10.354 L 15.554 19.099 L 13.725 19.099 Z M 22.265 19.099 L 20.303 19.099 L 18.717 10.354 L 20.533 10.354 L 21.656 16.977 L 25.354 10.354 L 27.17 10.354 Z M 24.868 30.799 L 26.739 22.054 L 32.944 22.054 L 32.634 23.508 L 28.258 23.508 L 27.805 25.629 L 32.099 25.629 L 31.79 27.083 L 27.493 27.083 L 26.698 30.8 L 24.868 30.8 Z M 33.113 27.981 L 34.864 27.89 C 34.887 28.438 34.984 28.807 35.154 28.998 C 35.424 29.311 35.927 29.465 36.658 29.465 C 37.267 29.465 37.708 29.36 37.979 29.149 C 38.25 28.936 38.387 28.68 38.387 28.382 C 38.387 28.121 38.276 27.903 38.054 27.722 C 37.9 27.59 37.471 27.376 36.772 27.082 C 36.074 26.785 35.564 26.539 35.241 26.341 C 34.918 26.144 34.666 25.886 34.482 25.572 C 34.296 25.255 34.203 24.887 34.203 24.464 C 34.203 23.724 34.476 23.112 35.022 22.623 C 35.567 22.137 36.356 21.893 37.39 21.893 C 38.438 21.893 39.252 22.132 39.827 22.611 C 40.404 23.09 40.72 23.727 40.776 24.522 L 39.025 24.599 C 38.979 24.183 38.824 23.863 38.559 23.641 C 38.293 23.419 37.9 23.308 37.379 23.308 C 36.868 23.308 36.503 23.396 36.284 23.572 C 36.065 23.747 35.954 23.969 35.954 24.238 C 35.954 24.489 36.055 24.696 36.255 24.86 C 36.455 25.027 36.897 25.256 37.582 25.549 C 38.613 25.984 39.269 26.338 39.55 26.609 C 39.969 27.008 40.18 27.523 40.18 28.151 C 40.18 28.924 39.867 29.587 39.241 30.136 C 38.617 30.685 37.745 30.96 36.632 30.96 C 35.861 30.96 35.195 30.834 34.631 30.581 C 34.066 30.329 33.668 29.979 33.436 29.53 C 33.204 29.081 33.096 28.565 33.114 27.981 Z M 46.014 30.799 L 44.052 30.799 L 42.466 22.054 L 44.282 22.054 L 45.405 28.678 L 49.103 22.054 L 50.919 22.054 Z M 50.26 30.799 L 52.131 22.054 L 53.963 22.054 L 52.401 29.345 L 56.934 29.345 L 56.626 30.799 Z" fill="rgb(0,137,207)"></path></g></svg>